<svg width="340" height="106" viewBox="0 0 340 106" fill="none" xmlns="http://www.w3.org/2000/svg">
<rect x="1" y="1" width="338" height="104" rx="7" fill="white"/>
<g clip-path="url(#clip0)">
<path d="M51.7812 30.6172H46.8359V27.2344H51.5V25.9062H46.8359V22.7188H51.7812V21.3359H45.2344V32H51.7812V30.6172ZM58.3672 30.9844H58.4219V32H59.9297V26.3594C59.9297 24.5625 58.5938 23.6328 56.7969 23.6328C54.6797 23.6328 53.7266 24.7578 53.6484 26.1719H55.1328C55.2031 25.4062 55.7656 24.8984 56.75 24.8984C57.7812 24.8984 58.3594 25.4453 58.3594 26.4453V27.25H56.2422C54.3516 27.2578 53.3438 28.1797 53.3438 29.6328C53.3438 31.1562 54.4375 32.1328 56.0312 32.1328C57.25 32.1328 57.9844 31.625 58.3672 30.9844ZM56.4922 30.8906C55.6875 30.8906 54.9375 30.4609 54.9375 29.5547C54.9375 28.8438 55.4062 28.3438 56.4609 28.3438H58.3594V29.2734C58.3594 30.2266 57.5547 30.8906 56.4922 30.8906ZM62.1406 32H63.7344V27.0312C63.7344 25.9219 64.1953 25.0469 65.6172 25.0469C65.8828 25.0469 66.1719 25.0625 66.3203 25.0938V23.6797C66.1562 23.6562 65.9688 23.6406 65.7656 23.6406C64.6094 23.6406 63.9922 24.3125 63.7734 24.8125H63.7188V23.7656H62.1406V32ZM68.0156 32H69.5859V27.0469C69.5859 25.9453 70.1875 25.0234 71.4844 25.0234C72.5781 25.0234 73.3672 25.6641 73.3672 27.0078V32H74.9375V26.7109C74.9375 24.7031 73.7109 23.6328 72.0234 23.6328C70.6719 23.6328 69.9141 24.3516 69.625 24.8906H69.5703V23.7656H68.0156V32ZM81.8594 21.3359H80.2656V28.4375C80.2656 30.6562 81.8125 32.2188 84.3906 32.2188C86.9766 32.2188 88.5234 30.6562 88.5234 28.4375V21.3359H86.9297V28.2188C86.9297 29.8125 85.9219 30.8047 84.3906 30.8047C82.8594 30.8047 81.8594 29.8203 81.8594 28.2188V21.3359ZM90.7812 32H92.3516V27.0469C92.3516 25.9453 92.9531 25.0234 94.25 25.0234C95.3438 25.0234 96.1328 25.6641 96.1328 27.0078V32H97.7031V26.7109C97.7031 24.7031 96.4766 23.6328 94.7891 23.6328C93.4375 23.6328 92.6797 24.3516 92.3906 24.8906H92.3359V23.7656H90.7812V32ZM99.9297 32H101.5V20.7734H99.9297V32ZM103.922 32H105.5V23.7656H103.922V32ZM103.75 21.7578C103.75 22.2891 104.18 22.6875 104.711 22.6875C105.242 22.6875 105.672 22.2891 105.672 21.7578C105.672 21.2266 105.242 20.8281 104.711 20.8281C104.18 20.8281 103.75 21.2266 103.75 21.7578ZM107.859 32H109.43V26.8516C109.43 25.6406 110.18 25.0078 111.117 25.0078C112.148 25.0078 112.797 25.6328 112.797 26.8672V32H114.344V26.8672C114.344 25.7578 114.961 25.0078 116.047 25.0078C117.125 25.0078 117.711 25.7109 117.711 26.7578V32H119.281V26.3906C119.281 24.7109 118.273 23.6328 116.539 23.6328C115.188 23.6328 114.32 24.2812 114.023 24.9844H113.953C113.648 24.1641 112.883 23.6328 111.602 23.6328C110.469 23.6328 109.75 24.2578 109.492 24.8281H109.414V23.7656H107.859V32ZM121.609 32H123.188V23.7656H121.609V32ZM121.438 21.7578C121.438 22.2891 121.867 22.6875 122.398 22.6875C122.93 22.6875 123.359 22.2891 123.359 21.7578C123.359 21.2266 122.93 20.8281 122.398 20.8281C121.867 20.8281 121.438 21.2266 121.438 21.7578ZM126.07 23.7656H124.93V25.0469H126.055V29.6875C126.055 31.3281 126.547 32.0625 128.531 32.0625C128.852 32.0625 129.164 32.0312 129.297 32.0078V30.7812C129.188 30.7891 129.062 30.7969 128.922 30.7969C127.961 30.7969 127.625 30.5469 127.625 29.6094V25.0469H129.242V23.7656H127.625V21.7344H126.07V23.7656ZM134.305 32.1406C136.258 32.1406 137.336 31.0234 137.609 29.6797H136.086C135.852 30.4141 135.242 30.8672 134.336 30.8672C133.094 30.8672 132.328 29.8828 132.328 28.4219V28.25H137.711V27.4688C137.711 25.1719 136.422 23.625 134.242 23.625C132.07 23.625 130.758 25.1328 130.758 27.3906V28.2578C130.758 30.6562 132.125 32.1406 134.305 32.1406ZM132.328 27.0938V27.0703C132.328 25.8516 133.078 24.8828 134.25 24.8828C135.398 24.8828 136.156 25.8438 136.156 27.0703V27.0938H132.328ZM142.555 23.6406C140.516 23.6406 139.312 25.2344 139.312 27.5156V28.2422C139.312 30.5703 140.453 32.1172 142.555 32.1172C143.664 32.1172 144.531 31.5938 144.969 30.75H145.016V32H146.547V20.7734H144.969V24.9297H144.914C144.516 24.1797 143.656 23.6406 142.555 23.6406ZM142.898 24.9688C144.188 24.9688 144.984 25.9844 144.984 27.5703V28.2031C144.984 29.8672 144.195 30.7891 142.914 30.7891C141.75 30.7891 140.914 29.9297 140.914 28.1953V27.5703C140.914 25.8281 141.75 24.9688 142.898 24.9688ZM152.234 21.3438V32H155.516C158.625 32 160.195 30.1484 160.195 26.6641C160.195 23.1797 158.625 21.3438 155.516 21.3438H152.234ZM153.398 22.3984H155.477C157.844 22.3984 158.992 23.8516 158.992 26.6641C158.992 29.4922 157.836 30.9375 155.477 30.9375H153.398V22.3984ZM163.461 32V21.3438H162.297V32H163.461ZM170.023 32L173.922 21.3438H172.602L169.477 30.4531H169.445L166.312 21.3438H164.992L168.875 32H170.023ZM176.836 32V21.3438H175.672V32H176.836ZM182.828 32V22.3984H186.133V21.3438H178.383V22.3984H181.68V32H182.828ZM186.852 29.1719C186.891 30.5156 187.859 32.2266 190.625 32.2266C192.789 32.2266 194.531 31.1562 194.531 29.0938C194.531 27.4141 193.43 26.6719 191.75 26.2188L189.945 25.7266C188.875 25.4453 188.367 24.8672 188.367 24.0312C188.367 22.8281 189.375 22.1484 190.773 22.1484C192.352 22.1484 193.141 23.0078 193.234 24.0547H194.406C194.367 22.0312 192.586 21.0859 190.797 21.0859C188.914 21.0859 187.18 22.1562 187.18 24.1094C187.18 25.7344 188.375 26.5312 189.641 26.8672L191.484 27.3594C192.742 27.6875 193.336 28.2109 193.336 29.1719C193.336 30.3984 192.32 31.1641 190.773 31.1641C189.016 31.1641 188.133 30.2266 188.031 29.1719H186.852ZM200.234 32H201.383V24.7969H203.055V23.8203H201.383V23.0469C201.383 22.0078 201.828 21.7031 202.742 21.7031C202.938 21.7031 203.055 21.7188 203.18 21.7344V20.7578C203.039 20.7344 202.852 20.7109 202.609 20.7109C201 20.7109 200.234 21.4219 200.234 22.9688V23.8203H199.117V24.7969H200.234V32ZM208.055 23.6875C205.828 23.6875 204.594 25.3047 204.594 27.5V28.3047C204.594 30.5078 205.82 32.1328 208.055 32.1328C210.289 32.1328 211.508 30.5078 211.508 28.3047V27.5C211.508 25.3047 210.273 23.6875 208.055 23.6875ZM208.055 24.6953C209.508 24.6953 210.359 25.7812 210.359 27.5547V28.2422C210.359 30.0234 209.508 31.1094 208.055 31.1094C206.594 31.1094 205.742 30.0156 205.742 28.2422V27.5547C205.742 25.7812 206.594 24.6953 208.055 24.6953ZM213.664 32H214.812V26.9141C214.812 25.7188 215.305 24.7656 216.773 24.7656C217.016 24.7656 217.273 24.7734 217.406 24.7969V23.7266C217.25 23.7109 217.078 23.6953 216.914 23.6953C215.703 23.6953 215.094 24.3438 214.844 24.875H214.812V23.8203H213.664V32ZM228.242 23.8203H227.016L224.68 30.6641H224.641L222.305 23.8203H221.023L224.078 32.1328L223.922 32.6328C223.68 33.4766 223.266 33.9688 222.305 33.9688C222.125 33.9688 221.836 33.9453 221.703 33.9219V34.8984C221.906 34.9297 222.211 34.9609 222.484 34.9609C224.078 34.9609 224.625 33.8672 225.055 32.6875L225.289 32.0781L228.242 23.8203ZM232.68 23.6875C230.453 23.6875 229.219 25.3047 229.219 27.5V28.3047C229.219 30.5078 230.445 32.1328 232.68 32.1328C234.914 32.1328 236.133 30.5078 236.133 28.3047V27.5C236.133 25.3047 234.898 23.6875 232.68 23.6875ZM232.68 24.6953C234.133 24.6953 234.984 25.7812 234.984 27.5547V28.2422C234.984 30.0234 234.133 31.1094 232.68 31.1094C231.219 31.1094 230.367 30.0156 230.367 28.2422V27.5547C230.367 25.7812 231.219 24.6953 232.68 24.6953ZM244.656 23.8203H243.5V28.8906C243.5 30.2344 242.648 31.0781 241.367 31.0781C240.211 31.0781 239.312 30.5234 239.312 28.9766V23.8203H238.164V29.3047C238.164 31.1719 239.375 32.1328 241.062 32.1328C242.391 32.1328 243.172 31.5469 243.461 30.8828H243.508V32H244.656V23.8203ZM247.148 32H248.297V26.9141C248.297 25.7188 248.789 24.7656 250.258 24.7656C250.5 24.7656 250.758 24.7734 250.891 24.7969V23.7266C250.734 23.7109 250.562 23.6953 250.398 23.6953C249.188 23.6953 248.578 24.3438 248.328 24.875H248.297V23.8203H247.148V32ZM256.156 23.8203H255.039V24.7969H256.156V29.7656C256.156 31.3438 256.516 32.0781 258.383 32.0781C258.656 32.0781 258.93 32.0469 259.047 32.0234V31.0781C258.93 31.0938 258.812 31.0938 258.672 31.0938C257.633 31.0938 257.305 30.8438 257.305 29.8359V24.7969H258.977V23.8203H257.305V21.7656H256.156V23.8203ZM261.141 32H262.289V23.8203H261.141V32ZM260.938 21.8281C260.938 22.2656 261.289 22.6172 261.711 22.6172C262.148 22.6172 262.5 22.2656 262.5 21.8281C262.5 21.3984 262.148 21.0469 261.711 21.0469C261.289 21.0469 260.938 21.3984 260.938 21.8281ZM264.852 32H266V26.7734C266 25.5 266.805 24.7422 267.898 24.7422C269.07 24.7422 269.766 25.4688 269.766 26.7734V32H270.914V26.7734C270.914 25.6172 271.594 24.7422 272.836 24.7422C274.055 24.7422 274.688 25.5469 274.688 26.6484V32H275.836V26.4375C275.836 24.7344 274.797 23.6875 273.086 23.6875C271.727 23.6875 270.875 24.3359 270.57 25.0391H270.523C270.203 24.2266 269.438 23.6875 268.141 23.6875C267.039 23.6875 266.32 24.2812 266.055 24.8438H266V23.8203H264.852V32ZM281.305 32.1328C283.078 32.1328 284.141 31.1406 284.445 29.8281H283.281C283.023 30.6094 282.375 31.1406 281.344 31.1406C279.922 31.1406 279.094 30.0234 279.094 28.3594V28.1953H284.562V27.4766C284.562 25.2031 283.344 23.6875 281.25 23.6875C279.125 23.6875 277.938 25.2188 277.938 27.3828V28.3203C277.938 30.6328 279.203 32.1328 281.305 32.1328ZM279.094 27.2031V27.1797C279.094 25.7656 279.938 24.6797 281.25 24.6797C282.547 24.6797 283.406 25.7578 283.406 27.1797V27.2031H279.094ZM294.492 30.9375H294.523V32H295.641V26.3125C295.641 24.6328 294.406 23.6875 292.703 23.6875C290.805 23.6875 289.828 24.6797 289.734 26.1016H290.82C290.914 25.2344 291.531 24.6797 292.656 24.6797C293.82 24.6797 294.492 25.2969 294.492 26.4453V27.3281H292.266C290.398 27.3359 289.414 28.2422 289.414 29.6562C289.414 31.1562 290.5 32.1328 292.086 32.1328C293.336 32.1328 294.102 31.5938 294.492 30.9375ZM292.359 31.1406C291.438 31.1406 290.602 30.6484 290.602 29.6328C290.602 28.8359 291.109 28.2656 292.305 28.2656H294.492V29.2734C294.492 30.375 293.578 31.1406 292.359 31.1406ZM298.055 32H299.203V26.9922C299.203 25.8203 299.844 24.7422 301.344 24.7422C302.625 24.7422 303.445 25.5156 303.445 26.9141V32H304.594V26.7422C304.594 24.7578 303.336 23.6875 301.648 23.6875C300.305 23.6875 299.539 24.3906 299.234 24.9375H299.203V23.8203H298.055V32ZM309.883 23.6875C307.852 23.6875 306.609 25.2734 306.609 27.4922V28.3203C306.609 30.5781 307.758 32.125 309.883 32.125C311.055 32.125 311.898 31.5312 312.336 30.7266H312.367V32H313.453V20.7734H312.305V25H312.273C311.875 24.2891 311.031 23.6875 309.883 23.6875ZM309.984 24.7109C311.438 24.7109 312.328 25.8516 312.328 27.5391V28.2891C312.328 30.0469 311.461 31.1016 310 31.1016C308.703 31.1016 307.758 30.1562 307.758 28.2812V27.5469C307.758 25.6406 308.719 24.7109 309.984 24.7109ZM49.8359 52.9375H49.8672V54H50.9844V48.3125C50.9844 46.6328 49.75 45.6875 48.0469 45.6875C46.1484 45.6875 45.1719 46.6797 45.0781 48.1016H46.1641C46.2578 47.2344 46.875 46.6797 48 46.6797C49.1641 46.6797 49.8359 47.2969 49.8359 48.4453V49.3281H47.6094C45.7422 49.3359 44.7578 50.2422 44.7578 51.6562C44.7578 53.1562 45.8438 54.1328 47.4297 54.1328C48.6797 54.1328 49.4453 53.5938 49.8359 52.9375ZM47.7031 53.1406C46.7812 53.1406 45.9453 52.6484 45.9453 51.6328C45.9453 50.8359 46.4531 50.2656 47.6484 50.2656H49.8359V51.2734C49.8359 52.375 48.9219 53.1406 47.7031 53.1406ZM53.0625 50.3125C53.0625 52.4844 54.2656 54.1328 56.3984 54.1328C58.2891 54.1328 59.25 53.1172 59.5234 51.8125H58.375C58.2188 52.4922 57.5938 53.0859 56.4922 53.0859C55.1016 53.0859 54.2109 52 54.2109 50.3203V49.5C54.2109 47.7656 55.0547 46.7266 56.4766 46.7266C57.4453 46.7266 58.1406 47.4062 58.3203 48.1406H59.4688C59.3906 46.9453 58.2734 45.6875 56.3984 45.6875C54.3125 45.6875 53.0625 47.2266 53.0625 49.4375V50.3125ZM62.1875 45.8203H61.0703V46.7969H62.1875V51.7656C62.1875 53.3438 62.5469 54.0781 64.4141 54.0781C64.6875 54.0781 64.9609 54.0469 65.0781 54.0234V53.0781C64.9609 53.0938 64.8438 53.0938 64.7031 53.0938C63.6641 53.0938 63.3359 52.8438 63.3359 51.8359V46.7969H65.0078V45.8203H63.3359V43.7656H62.1875V45.8203ZM67.1719 54H68.3203V45.8203H67.1719V54ZM66.9688 43.8281C66.9688 44.2656 67.3203 44.6172 67.7422 44.6172C68.1797 44.6172 68.5312 44.2656 68.5312 43.8281C68.5312 43.3984 68.1797 43.0469 67.7422 43.0469C67.3203 43.0469 66.9688 43.3984 66.9688 43.8281ZM72.75 54H73.9766L76.9297 45.8203H75.7734L73.3672 52.5469H73.3281L71.0625 45.8203H69.8516L72.75 54ZM78.3125 54H79.4609V45.8203H78.3125V54ZM78.1094 43.8281C78.1094 44.2656 78.4609 44.6172 78.8828 44.6172C79.3203 44.6172 79.6719 44.2656 79.6719 43.8281C79.6719 43.3984 79.3203 43.0469 78.8828 43.0469C78.4609 43.0469 78.1094 43.3984 78.1094 43.8281ZM82.5 45.8203H81.3828V46.7969H82.5V51.7656C82.5 53.3438 82.8594 54.0781 84.7266 54.0781C85 54.0781 85.2734 54.0469 85.3906 54.0234V53.0781C85.2734 53.0938 85.1562 53.0938 85.0156 53.0938C83.9766 53.0938 83.6484 52.8438 83.6484 51.8359V46.7969H85.3203V45.8203H83.6484V43.7656H82.5V45.8203ZM87.4844 54H88.6328V45.8203H87.4844V54ZM87.2812 43.8281C87.2812 44.2656 87.6328 44.6172 88.0547 44.6172C88.4922 44.6172 88.8438 44.2656 88.8438 43.8281C88.8438 43.3984 88.4922 43.0469 88.0547 43.0469C87.6328 43.0469 87.2812 43.3984 87.2812 43.8281ZM94.2266 54.1328C96 54.1328 97.0625 53.1406 97.3672 51.8281H96.2031C95.9453 52.6094 95.2969 53.1406 94.2656 53.1406C92.8438 53.1406 92.0156 52.0234 92.0156 50.3594V50.1953H97.4844V49.4766C97.4844 47.2031 96.2656 45.6875 94.1719 45.6875C92.0469 45.6875 90.8594 47.2188 90.8594 49.3828V50.3203C90.8594 52.6328 92.125 54.1328 94.2266 54.1328ZM92.0156 49.2031V49.1797C92.0156 47.7656 92.8594 46.6797 94.1719 46.6797C95.4688 46.6797 96.3281 47.7578 96.3281 49.1797V49.2031H92.0156ZM99.2578 48.1172C99.2578 49.5781 100.5 50.0234 102.039 50.3594C103.242 50.6094 104.133 50.7969 104.133 51.7656C104.133 52.5391 103.492 53.1484 102.188 53.1484C100.992 53.1484 100.336 52.5781 100.227 51.8281H99.1016C99.1016 53.2344 100.305 54.1328 102.094 54.1328C103.953 54.1328 105.273 53.25 105.273 51.6328C105.273 50.0234 103.945 49.6406 102.422 49.3594C101.43 49.1641 100.391 48.9375 100.391 47.9922C100.391 47.1172 101.148 46.6719 102.172 46.6719C103.531 46.6719 103.945 47.4609 103.984 48.1016H105.07C105.07 46.8203 104.148 45.6875 102.219 45.6875C100.664 45.6875 99.2578 46.4375 99.2578 48.1172ZM113.617 45.6875C111.391 45.6875 110.156 47.3047 110.156 49.5V50.3047C110.156 52.5078 111.383 54.1328 113.617 54.1328C115.852 54.1328 117.07 52.5078 117.07 50.3047V49.5C117.07 47.3047 115.836 45.6875 113.617 45.6875ZM113.617 46.6953C115.07 46.6953 115.922 47.7812 115.922 49.5547V50.2422C115.922 52.0234 115.07 53.1094 113.617 53.1094C112.156 53.1094 111.305 52.0156 111.305 50.2422V49.5547C111.305 47.7812 112.156 46.6953 113.617 46.6953ZM119.227 54H120.375V48.9922C120.375 47.8203 121.016 46.7422 122.516 46.7422C123.797 46.7422 124.617 47.5156 124.617 48.9141V54H125.766V48.7422C125.766 46.7578 124.508 45.6875 122.82 45.6875C121.477 45.6875 120.711 46.3906 120.406 46.9375H120.375V45.8203H119.227V54ZM130.562 51.0703C130.602 52.4922 131.594 54.2188 134.5 54.2188C136.836 54.2188 138.562 53.0703 138.562 50.9766C138.562 49.2031 137.375 48.4453 135.758 48.0391L133.977 47.5859C132.969 47.3438 132.484 46.8203 132.484 46.1016C132.484 45.0469 133.367 44.4453 134.633 44.4453C136.055 44.4453 136.789 45.2188 136.875 46.1719H138.43C138.391 44.1484 136.625 43.0938 134.656 43.0938C132.648 43.0938 130.867 44.1953 130.867 46.2188C130.867 47.9219 132.102 48.7344 133.43 49.0625L135.227 49.5156C136.391 49.8047 136.938 50.2656 136.938 51.1094C136.938 52.1797 136.062 52.8594 134.641 52.8594C133.078 52.8594 132.242 52.0391 132.148 51.0703H130.562ZM147.156 45.7656H145.578V50.7891C145.578 52.0469 144.789 52.7422 143.695 52.7422C142.703 52.7422 141.852 52.2969 141.852 50.8125V45.7656H140.273V51.25C140.273 53.1562 141.461 54.1328 143.156 54.1328C144.484 54.1328 145.258 53.5312 145.539 52.8828H145.602V54H147.156V45.7656ZM149.438 54H151.008V48.8516C151.008 47.6406 151.758 47.0078 152.695 47.0078C153.727 47.0078 154.375 47.6328 154.375 48.8672V54H155.922V48.8672C155.922 47.7578 156.539 47.0078 157.625 47.0078C158.703 47.0078 159.289 47.7109 159.289 48.7578V54H160.859V48.3906C160.859 46.7109 159.852 45.6328 158.117 45.6328C156.766 45.6328 155.898 46.2812 155.602 46.9844H155.531C155.227 46.1641 154.461 45.6328 153.18 45.6328C152.047 45.6328 151.328 46.2578 151.07 46.8281H150.992V45.7656H149.438V54ZM163.109 54H164.703V49.0312C164.703 47.9219 165.164 47.0469 166.586 47.0469C166.852 47.0469 167.141 47.0625 167.289 47.0938V45.6797C167.125 45.6562 166.938 45.6406 166.734 45.6406C165.578 45.6406 164.961 46.3125 164.742 46.8125H164.688V45.7656H163.109V54ZM173.289 52.9844H173.344V54H174.852V48.3594C174.852 46.5625 173.516 45.6328 171.719 45.6328C169.602 45.6328 168.648 46.7578 168.57 48.1719H170.055C170.125 47.4062 170.688 46.8984 171.672 46.8984C172.703 46.8984 173.281 47.4453 173.281 48.4453V49.25H171.164C169.273 49.2578 168.266 50.1797 168.266 51.6328C168.266 53.1562 169.359 54.1328 170.953 54.1328C172.172 54.1328 172.906 53.625 173.289 52.9844ZM171.414 52.8906C170.609 52.8906 169.859 52.4609 169.859 51.5547C169.859 50.8438 170.328 50.3438 171.383 50.3438H173.281V51.2734C173.281 52.2266 172.477 52.8906 171.414 52.8906ZM181.531 48.0234C181.531 45.7812 182.492 44.5234 184.203 44.5234C185.641 44.5234 186.602 45.4766 186.633 46.8438H188.203V46.7656C188.203 44.6328 186.516 43.1172 184.195 43.1172C181.492 43.1172 179.914 44.9609 179.914 48.0234V49.3672C179.914 52.3984 181.492 54.2188 184.195 54.2188C186.508 54.2188 188.203 52.7578 188.203 50.7344V50.6484H186.633C186.602 51.9297 185.641 52.8125 184.203 52.8125C182.492 52.8125 181.531 51.5781 181.531 49.3672V48.0234ZM190.102 54H191.68V49.0469C191.68 47.9453 192.273 47.0234 193.578 47.0234C194.68 47.0234 195.461 47.6641 195.461 49.0078V54H197.039V48.7109C197.039 46.7031 195.805 45.6328 194.117 45.6328C192.773 45.6328 192.023 46.3516 191.734 46.8906H191.68V42.7734H190.102V54ZM203.773 52.9844H203.828V54H205.336V48.3594C205.336 46.5625 204 45.6328 202.203 45.6328C200.086 45.6328 199.133 46.7578 199.055 48.1719H200.539C200.609 47.4062 201.172 46.8984 202.156 46.8984C203.188 46.8984 203.766 47.4453 203.766 48.4453V49.25H201.648C199.758 49.2578 198.75 50.1797 198.75 51.6328C198.75 53.1562 199.844 54.1328 201.438 54.1328C202.656 54.1328 203.391 53.625 203.773 52.9844ZM201.898 52.8906C201.094 52.8906 200.344 52.4609 200.344 51.5547C200.344 50.8438 200.812 50.3438 201.867 50.3438H203.766V51.2734C203.766 52.2266 202.961 52.8906 201.898 52.8906ZM208.102 45.7656H206.961V47.0469H208.086V51.6875C208.086 53.3281 208.578 54.0625 210.562 54.0625C210.883 54.0625 211.195 54.0312 211.328 54.0078V52.7812C211.219 52.7891 211.094 52.7969 210.953 52.7969C209.992 52.7969 209.656 52.5469 209.656 51.6094V47.0469H211.273V45.7656H209.656V43.7344H208.102V45.7656ZM213 53.3281C213 53.7734 213.367 54.1484 213.82 54.1484C214.273 54.1484 214.641 53.7734 214.641 53.3281C214.641 52.875 214.273 52.5078 213.82 52.5078C213.367 52.5078 213 52.875 213 53.3281ZM51.7812 79.6172H46.8359V76.2344H51.5V74.9062H46.8359V71.7188H51.7812V70.3359H45.2344V81H51.7812V79.6172ZM58.5469 81H60.375L57.5938 76.875L60.3438 72.7656H58.5625L56.6719 75.7812H56.6562L54.7656 72.7656H52.8984L55.6172 76.875L52.8594 81H54.6094L56.5547 77.9922H56.5781L58.5469 81ZM61.2891 77.2266C61.2891 79.4922 62.5703 81.1406 64.7891 81.1406C66.6953 81.1406 67.8281 80.1562 68.0625 78.6016H66.5547C66.4219 79.25 65.875 79.7969 64.8906 79.7969C63.6562 79.7969 62.875 78.7969 62.875 77.2344V76.5C62.875 74.9219 63.6172 73.9609 64.8828 73.9609C65.7266 73.9609 66.3438 74.5781 66.5 75.2734H68.0156C67.9453 73.9062 66.7578 72.625 64.7891 72.625C62.5938 72.625 61.2891 74.2188 61.2891 76.4609V77.2266ZM69.8672 81H71.4453V76.0469C71.4453 74.9453 72.0391 74.0234 73.3438 74.0234C74.4453 74.0234 75.2266 74.6641 75.2266 76.0078V81H76.8047V75.7109C76.8047 73.7031 75.5703 72.6328 73.8828 72.6328C72.5391 72.6328 71.7891 73.3516 71.5 73.8906H71.4453V69.7734H69.8672V81ZM83.5391 79.9844H83.5938V81H85.1016V75.3594C85.1016 73.5625 83.7656 72.6328 81.9688 72.6328C79.8516 72.6328 78.8984 73.7578 78.8203 75.1719H80.3047C80.375 74.4062 80.9375 73.8984 81.9219 73.8984C82.9531 73.8984 83.5312 74.4453 83.5312 75.4453V76.25H81.4141C79.5234 76.2578 78.5156 77.1797 78.5156 78.6328C78.5156 80.1562 79.6094 81.1328 81.2031 81.1328C82.4219 81.1328 83.1562 80.625 83.5391 79.9844ZM81.6641 79.8906C80.8594 79.8906 80.1094 79.4609 80.1094 78.5547C80.1094 77.8438 80.5781 77.3438 81.6328 77.3438H83.5312V78.2734C83.5312 79.2266 82.7266 79.8906 81.6641 79.8906ZM87.3125 81H88.8828V76.0469C88.8828 74.9453 89.4844 74.0234 90.7812 74.0234C91.875 74.0234 92.6641 74.6641 92.6641 76.0078V81H94.2344V75.7109C94.2344 73.7031 93.0078 72.6328 91.3203 72.6328C89.9688 72.6328 89.2109 73.3516 88.9219 73.8906H88.8672V72.7656H87.3125V81ZM99.7031 82.8359C98.6562 82.8359 97.9922 82.2812 97.8438 81.6406H96.2656C96.4297 83.0156 97.5078 84.0781 99.6953 84.0781C101.555 84.0781 103.297 83.0859 103.297 80.9297V72.7656H101.766V73.9375H101.711C101.344 73.2266 100.453 72.6406 99.3281 72.6406C97.4141 72.6406 96.0859 74 96.0859 76.4531V77.0781C96.0859 79.5625 97.4219 80.9141 99.3281 80.9141C100.461 80.9141 101.352 80.3281 101.672 79.6094H101.727V80.8828C101.727 82.1094 100.938 82.8359 99.7031 82.8359ZM99.7344 73.9531C100.945 73.9531 101.727 74.9453 101.727 76.5469V77.0391C101.727 78.6641 100.984 79.6328 99.7344 79.6328C98.4453 79.6328 97.6797 78.6719 97.6797 77.0391V76.5469C97.6797 74.8828 98.4453 73.9531 99.7344 73.9531ZM108.82 81.1406C110.773 81.1406 111.852 80.0234 112.125 78.6797H110.602C110.367 79.4141 109.758 79.8672 108.852 79.8672C107.609 79.8672 106.844 78.8828 106.844 77.4219V77.25H112.227V76.4688C112.227 74.1719 110.938 72.625 108.758 72.625C106.586 72.625 105.273 74.1328 105.273 76.3906V77.2578C105.273 79.6562 106.641 81.1406 108.82 81.1406ZM106.844 76.0938V76.0703C106.844 74.8516 107.594 73.8828 108.766 73.8828C109.914 73.8828 110.672 74.8438 110.672 76.0703V76.0938H106.844ZM124.859 81H126.352L124.539 79.0703C125.133 78.1484 125.406 76.8594 125.414 75.2578C125.414 75.2344 125.414 74.9609 125.414 74.9375H124.312C124.312 74.9609 124.312 75.2422 124.312 75.2578C124.305 76.5703 124.133 77.6094 123.766 78.2891L121.031 75.3125C122.344 74.625 123.336 73.8906 123.336 72.6094C123.336 71.2422 122.219 70.25 120.703 70.25C119.156 70.25 118.07 71.2812 118.07 72.5703C118.07 73.5547 118.703 74.3047 119.414 75.0547C119.297 75.1094 119.117 75.2109 119.008 75.2656C117.719 75.9531 116.891 76.8594 116.891 78.2031C116.891 80.0938 118.492 81.2031 120.414 81.2031C121.43 81.2031 122.75 80.8906 123.836 79.8984L124.859 81ZM119.672 75.9688C119.773 75.9141 119.953 75.8203 120.062 75.7656L123.141 79.1484C122.445 79.9062 121.359 80.2109 120.508 80.2109C119.234 80.2109 118.055 79.5234 118.055 78.1406C118.055 77.125 118.695 76.5 119.672 75.9688ZM120.383 74.6328C119.508 73.7422 119.203 73.2422 119.203 72.6406C119.203 71.7969 119.82 71.1797 120.711 71.1797C121.586 71.1797 122.219 71.7656 122.219 72.6328C122.219 73.5547 121.492 74.0703 120.383 74.6328ZM134.734 70.3359H130.75V81H132.344V76.8438H134.703L136.641 81H138.461L136.297 76.5547C137.188 76.2266 138.266 75.3281 138.266 73.5781C138.266 71.8359 137.156 70.3359 134.734 70.3359ZM132.344 75.5234V71.6875H134.516C135.766 71.6875 136.602 72.3516 136.602 73.6484C136.602 74.8516 135.859 75.5234 134.469 75.5234H132.344ZM143.461 81.1406C145.414 81.1406 146.492 80.0234 146.766 78.6797H145.242C145.008 79.4141 144.398 79.8672 143.492 79.8672C142.25 79.8672 141.484 78.8828 141.484 77.4219V77.25H146.867V76.4688C146.867 74.1719 145.578 72.625 143.398 72.625C141.227 72.625 139.914 74.1328 139.914 76.3906V77.2578C139.914 79.6562 141.281 81.1406 143.461 81.1406ZM141.484 76.0938V76.0703C141.484 74.8516 142.234 73.8828 143.406 73.8828C144.555 73.8828 145.312 74.8438 145.312 76.0703V76.0938H141.484ZM151.711 72.6406C149.672 72.6406 148.469 74.2344 148.469 76.5156V77.2422C148.469 79.5703 149.609 81.1172 151.711 81.1172C152.82 81.1172 153.688 80.5938 154.125 79.75H154.172V81H155.703V69.7734H154.125V73.9297H154.07C153.672 73.1797 152.812 72.6406 151.711 72.6406ZM152.055 73.9688C153.344 73.9688 154.141 74.9844 154.141 76.5703V77.2031C154.141 78.8672 153.352 79.7891 152.07 79.7891C150.906 79.7891 150.07 78.9297 150.07 77.1953V76.5703C150.07 74.8281 150.906 73.9688 152.055 73.9688ZM161.227 81.1406C163.18 81.1406 164.258 80.0234 164.531 78.6797H163.008C162.773 79.4141 162.164 79.8672 161.258 79.8672C160.016 79.8672 159.25 78.8828 159.25 77.4219V77.25H164.633V76.4688C164.633 74.1719 163.344 72.625 161.164 72.625C158.992 72.625 157.68 74.1328 157.68 76.3906V77.2578C157.68 79.6562 159.047 81.1406 161.227 81.1406ZM159.25 76.0938V76.0703C159.25 74.8516 160 73.8828 161.172 73.8828C162.32 73.8828 163.078 74.8438 163.078 76.0703V76.0938H159.25ZM169.773 81.1406C171.727 81.1406 172.805 80.0234 173.078 78.6797H171.555C171.32 79.4141 170.711 79.8672 169.805 79.8672C168.562 79.8672 167.797 78.8828 167.797 77.4219V77.25H173.18V76.4688C173.18 74.1719 171.891 72.625 169.711 72.625C167.539 72.625 166.227 74.1328 166.227 76.3906V77.2578C166.227 79.6562 167.594 81.1406 169.773 81.1406ZM167.797 76.0938V76.0703C167.797 74.8516 168.547 73.8828 169.719 73.8828C170.867 73.8828 171.625 74.8438 171.625 76.0703V76.0938H167.797ZM175.109 81H176.68V75.8516C176.68 74.6406 177.43 74.0078 178.367 74.0078C179.398 74.0078 180.047 74.6328 180.047 75.8672V81H181.594V75.8672C181.594 74.7578 182.211 74.0078 183.297 74.0078C184.375 74.0078 184.961 74.7109 184.961 75.7578V81H186.531V75.3906C186.531 73.7109 185.523 72.6328 183.789 72.6328C182.438 72.6328 181.57 73.2812 181.273 73.9844H181.203C180.898 73.1641 180.133 72.6328 178.852 72.6328C177.719 72.6328 177 73.2578 176.742 73.8281H176.664V72.7656H175.109V81ZM192.188 70.3438V81H195.469C198.578 81 200.148 79.1484 200.148 75.6641C200.148 72.1797 198.578 70.3438 195.469 70.3438H192.188ZM193.352 71.3984H195.43C197.797 71.3984 198.945 72.8516 198.945 75.6641C198.945 78.4922 197.789 79.9375 195.43 79.9375H193.352V71.3984ZM203.414 81V70.3438H202.25V81H203.414ZM209.977 81L213.875 70.3438H212.555L209.43 79.4531H209.398L206.266 70.3438H204.945L208.828 81H209.977ZM216.789 81V70.3438H215.625V81H216.789ZM222.781 81V71.3984H226.086V70.3438H218.336V71.3984H221.633V81H222.781ZM226.805 78.1719C226.844 79.5156 227.812 81.2266 230.578 81.2266C232.742 81.2266 234.484 80.1562 234.484 78.0938C234.484 76.4141 233.383 75.6719 231.703 75.2188L229.898 74.7266C228.828 74.4453 228.32 73.8672 228.32 73.0312C228.32 71.8281 229.328 71.1484 230.727 71.1484C232.305 71.1484 233.094 72.0078 233.188 73.0547H234.359C234.32 71.0312 232.539 70.0859 230.75 70.0859C228.867 70.0859 227.133 71.1562 227.133 73.1094C227.133 74.7344 228.328 75.5312 229.594 75.8672L231.438 76.3594C232.695 76.6875 233.289 77.2109 233.289 78.1719C233.289 79.3984 232.273 80.1641 230.727 80.1641C228.969 80.1641 228.086 79.2266 227.984 78.1719H226.805ZM236.203 80.1562C236.203 80.7031 236.656 81.1562 237.203 81.1562C237.758 81.1562 238.211 80.7031 238.211 80.1562C238.211 79.6016 237.758 79.1484 237.203 79.1484C236.656 79.1484 236.203 79.6016 236.203 80.1562Z" fill="#4D505F"/>
<path d="M31.8075 23L23.6899 31.5L20 27.6364" stroke="#F8913A" stroke-width="2" stroke-linecap="round" stroke-linejoin="round"/>
<path d="M32.3628 72L24.2451 80.5L20.5552 76.6364" stroke="#F8913A" stroke-width="2" stroke-linecap="round" stroke-linejoin="round"/>
</g>
<rect x="1" y="1" width="338" height="104" rx="7" stroke="#EEEEEE" stroke-width="2" stroke-dasharray="12 8"/>
<defs>
<clipPath id="clip0">
<rect width="300" height="76" fill="white" transform="translate(20 15)"/>
</clipPath>
</defs>
</svg>
