<svg width="22" height="22" viewBox="0 0 22 22" fill="none" xmlns="http://www.w3.org/2000/svg">
<mask id="mask0" mask-type="alpha" maskUnits="userSpaceOnUse" x="1" y="1" width="20" height="20">
<path fill-rule="evenodd" clip-rule="evenodd" d="M11.0002 1.83337C5.94016 1.83337 1.8335 5.94004 1.8335 11C1.8335 16.06 5.94016 20.1667 11.0002 20.1667C16.0602 20.1667 20.1668 16.06 20.1668 11C20.1668 5.94004 16.0602 1.83337 11.0002 1.83337ZM3.66683 11C3.66683 6.94837 6.9485 3.66671 11.0002 3.66671C12.696 3.66671 14.2543 4.24421 15.4918 5.21587L5.216 15.4917C4.24433 14.2542 3.66683 12.6959 3.66683 11ZM6.5085 16.7842C7.746 17.7559 9.30433 18.3334 11.0002 18.3334C15.0518 18.3334 18.3335 15.0517 18.3335 11C18.3335 9.30421 17.756 7.74588 16.7843 6.50838L6.5085 16.7842Z" fill="black"/>
</mask>
<g mask="url(#mask0)">
<rect width="22" height="22" fill="#E1604D"/>
</g>
</svg>
