<svg width="340" height="14" viewBox="0 0 340 14" fill="none" xmlns="http://www.w3.org/2000/svg">
<line y1="8.5" x2="340" y2="8.5" stroke="#DBDBDB"/>
<rect width="32.9375" height="14" transform="translate(154.062)" fill="#FCFCFC"/>
<path d="M167.734 4.625C165.383 4.625 164.109 6.29688 164.109 8.52344V9.21094C164.109 11.5 165.383 13.1406 167.734 13.1406C170.078 13.1406 171.336 11.5 171.336 9.21094V8.51562C171.336 6.28906 170.07 4.625 167.734 4.625ZM167.727 5.92188C169.062 5.92188 169.75 6.97656 169.75 8.55469V9.1875C169.75 10.75 169.07 11.8281 167.727 11.8281C166.391 11.8281 165.695 10.7422 165.695 9.1875V8.55469C165.695 6.98438 166.391 5.92188 167.727 5.92188ZM173.289 13H174.883V8.03125C174.883 6.92188 175.344 6.04688 176.766 6.04688C177.031 6.04688 177.32 6.0625 177.469 6.09375V4.67969C177.305 4.65625 177.117 4.64062 176.914 4.64062C175.758 4.64062 175.141 5.3125 174.922 5.8125H174.867V4.76562H173.289V13Z" fill="#7B7B7B"/>
</svg>
