<svg width="720" height="524" viewBox="0 0 720 524" fill="none" xmlns="http://www.w3.org/2000/svg">
<g opacity="0.35">
<path d="M6.10352e-05 0C18.0748 0 32.7273 14.6752 32.7273 32.75H6.10352e-05V0Z" fill="black" fill-opacity="0.03"/>
<path d="M0 262C18.0748 262 32.7273 276.675 32.7273 294.75H0V262Z" fill="black" fill-opacity="0.03"/>
<path d="M261.818 0C279.893 0 294.546 14.6752 294.546 32.75H261.818V0Z" fill="black" fill-opacity="0.03"/>
<path d="M261.818 262C279.893 262 294.546 276.675 294.546 294.75H261.818V262Z" fill="black" fill-opacity="0.03"/>
<path d="M0 393C18.0748 393 32.7273 407.675 32.7273 425.75H0V393Z" fill="black" fill-opacity="0.03"/>
<path d="M261.818 229.25C261.818 247.325 247.166 262 229.091 262L229.091 229.25L261.818 229.25Z" fill="black" fill-opacity="0.03"/>
<path d="M32.7273 65.5C50.8021 65.5 65.4546 50.8248 65.4546 32.75H32.7273V65.5Z" fill="black" fill-opacity="0.05"/>
<path d="M0 327.5C18.0748 327.5 32.7273 312.825 32.7273 294.75H0V327.5Z" fill="black" fill-opacity="0.05"/>
<path d="M294.546 65.5C312.62 65.5 327.273 50.8248 327.273 32.75H294.546V65.5Z" fill="black" fill-opacity="0.03"/>
<path d="M261.818 327.5C279.893 327.5 294.546 312.825 294.546 294.75H261.818V327.5Z" fill="black" fill-opacity="0.05"/>
<path d="M32.7273 458.5C50.8021 458.5 65.4546 443.825 65.4546 425.75H32.7273V458.5Z" fill="black" fill-opacity="0.03"/>
<path d="M294.546 458.5C312.62 458.5 327.273 443.825 327.273 425.75H294.546V458.5Z" fill="black" fill-opacity="0.03"/>
<path d="M261.818 229.25C261.818 211.175 247.166 196.5 229.091 196.5L229.091 229.25L261.818 229.25Z" fill="black" fill-opacity="0.05"/>
<path d="M32.7273 0C50.8021 0 65.4546 14.6752 65.4546 32.75H32.7273V0Z" fill="black" fill-opacity="0.03"/>
<path d="M32.7273 262C50.8021 262 65.4546 276.675 65.4546 294.75H32.7273V262Z" fill="black" fill-opacity="0.05"/>
<path d="M294.546 0C312.62 0 327.273 14.6752 327.273 32.75H294.546V0Z" fill="black" fill-opacity="0.05"/>
<path d="M294.546 262C312.62 262 327.273 276.675 327.273 294.75H294.546V262Z" fill="black" fill-opacity="0.05"/>
<path d="M32.7273 393C50.8021 393 65.4546 407.675 65.4546 425.75H32.7273V393Z" fill="black" fill-opacity="0.05"/>
<path d="M294.546 393C312.62 393 327.273 407.675 327.273 425.75H294.546V393Z" fill="black" fill-opacity="0.05"/>
<path d="M261.818 393C279.893 393 294.546 407.675 294.546 425.75H261.818V393Z" fill="black" fill-opacity="0.05"/>
<path d="M229.091 262C211.016 262 196.364 247.325 196.364 229.25L229.091 229.25L229.091 262Z" fill="black" fill-opacity="0.05"/>
<path d="M130.909 65.5C148.984 65.5 163.636 80.1752 163.636 98.25H130.909V65.5Z" fill="black" fill-opacity="0.03"/>
<path d="M130.909 327.5C148.984 327.5 163.636 342.175 163.636 360.25H130.909V327.5Z" fill="black" fill-opacity="0.05"/>
<path d="M392.727 65.5C410.802 65.5 425.455 80.1752 425.455 98.25H392.727V65.5Z" fill="black" fill-opacity="0.05"/>
<path d="M589.091 65.5C607.166 65.5 621.818 80.1752 621.818 98.25H589.091V65.5Z" fill="black" fill-opacity="0.03"/>
<path d="M392.727 327.5C410.802 327.5 425.455 342.175 425.455 360.25H392.727V327.5Z" fill="black" fill-opacity="0.03"/>
<path d="M589.091 327.5C607.166 327.5 621.818 342.175 621.818 360.25H589.091V327.5Z" fill="black" fill-opacity="0.03"/>
<path d="M163.636 98.25C163.636 116.325 148.984 131 130.909 131L130.909 98.25L163.636 98.25Z" fill="black" fill-opacity="0.05"/>
<path d="M163.636 360.25C163.636 378.325 148.984 393 130.909 393L130.909 360.25L163.636 360.25Z" fill="black" fill-opacity="0.03"/>
<path d="M425.455 98.25C425.455 116.325 410.802 131 392.727 131L392.727 98.25L425.455 98.25Z" fill="black" fill-opacity="0.03"/>
<path d="M621.818 131C603.743 131 589.091 116.325 589.091 98.25L621.818 98.25L621.818 131Z" fill="black" fill-opacity="0.05"/>
<path d="M589.091 131C607.166 131 621.818 145.675 621.818 163.75H589.091V131Z" fill="black" fill-opacity="0.03"/>
<path d="M425.455 360.25C425.455 378.325 410.802 393 392.727 393L392.727 360.25L425.455 360.25Z" fill="black" fill-opacity="0.05"/>
<path d="M621.818 360.25C621.818 378.325 607.166 393 589.091 393L589.091 360.25L621.818 360.25Z" fill="black" fill-opacity="0.05"/>
<path d="M196.364 131C178.289 131 163.636 116.325 163.636 98.25L196.364 98.25L196.364 131Z" fill="black" fill-opacity="0.05"/>
<path d="M196.364 393C178.289 393 163.636 378.325 163.636 360.25L196.364 360.25L196.364 393Z" fill="black" fill-opacity="0.03"/>
<path d="M458.182 131C440.107 131 425.455 116.325 425.455 98.25L458.182 98.25L458.182 131Z" fill="black" fill-opacity="0.05"/>
<path d="M654.545 98.25C654.545 116.325 639.893 131 621.818 131L621.818 98.25L654.545 98.25Z" fill="black" fill-opacity="0.03"/>
<path d="M621.818 131C639.893 131 654.545 145.675 654.545 163.75H621.818V131Z" fill="black" fill-opacity="0.05"/>
<path d="M654.545 163.75C654.545 181.825 639.893 196.5 621.818 196.5L621.818 163.75L654.545 163.75Z" fill="black" fill-opacity="0.03"/>
<path d="M458.182 393C440.107 393 425.455 378.325 425.455 360.25L458.182 360.25L458.182 393Z" fill="black" fill-opacity="0.03"/>
<path d="M654.545 393C636.471 393 621.818 378.325 621.818 360.25L654.545 360.25L654.545 393Z" fill="black" fill-opacity="0.03"/>
<path d="M65.4546 0C101.604 0 130.909 29.3504 130.909 65.5H65.4546V0Z" fill="black" fill-opacity="0.03"/>
<path d="M65.4546 262C101.604 262 130.909 291.351 130.909 327.5H65.4546V262Z" fill="black" fill-opacity="0.03"/>
<path d="M327.273 0C363.422 0 392.727 29.3504 392.727 65.5H327.273V0Z" fill="black" fill-opacity="0.03"/>
<path d="M523.636 0C559.786 0 589.091 29.3504 589.091 65.5H523.636V0Z" fill="black" fill-opacity="0.05"/>
<path d="M327.273 262C363.422 262 392.727 291.351 392.727 327.5H327.273V262Z" fill="black" fill-opacity="0.03"/>
<path d="M523.636 262C559.786 262 589.091 291.351 589.091 327.5H523.636V262Z" fill="black" fill-opacity="0.03"/>
<path d="M196.364 0C232.513 0 261.818 29.3504 261.818 65.5H196.364V0Z" fill="black" fill-opacity="0.05"/>
<path d="M196.364 262C232.513 262 261.818 291.351 261.818 327.5H196.364V262Z" fill="black" fill-opacity="0.05"/>
<path d="M458.182 0C494.331 0 523.636 29.3504 523.636 65.5H458.182V0Z" fill="black" fill-opacity="0.03"/>
<path d="M654.545 0C690.695 0 720 29.3504 720 65.5H654.545V0Z" fill="black" fill-opacity="0.03"/>
<path d="M458.182 262C494.331 262 523.636 291.351 523.636 327.5H458.182V262Z" fill="black" fill-opacity="0.05"/>
<path d="M654.545 262C690.695 262 720 291.351 720 327.5H654.545V262Z" fill="black" fill-opacity="0.03"/>
<path d="M196.364 131C232.513 131 261.818 160.35 261.818 196.5H196.364V131Z" fill="black" fill-opacity="0.03"/>
<path d="M196.364 393C232.513 393 261.818 422.351 261.818 458.5H196.364V393Z" fill="black" fill-opacity="0.03"/>
<path d="M523.636 196.5C487.487 196.5 458.182 167.15 458.182 131L523.636 131L523.636 196.5Z" fill="black" fill-opacity="0.03"/>
<path d="M654.545 131C690.695 131 720 160.35 720 196.5H654.545V131Z" fill="black" fill-opacity="0.03"/>
<path d="M458.182 393C494.331 393 523.636 422.351 523.636 458.5H458.182V393Z" fill="black" fill-opacity="0.05"/>
<path d="M654.545 393C690.695 393 720 422.351 720 458.5H654.545V393Z" fill="black" fill-opacity="0.03"/>
<path d="M196.364 0C160.214 0 130.909 29.3504 130.909 65.5H196.364V0Z" fill="black" fill-opacity="0.03"/>
<path d="M196.364 262C160.214 262 130.909 291.351 130.909 327.5H196.364V262Z" fill="black" fill-opacity="0.03"/>
<path d="M458.182 0C422.032 0 392.727 29.3504 392.727 65.5H458.182V0Z" fill="black" fill-opacity="0.05"/>
<path d="M654.545 0C618.396 0 589.091 29.3504 589.091 65.5H654.545V0Z" fill="black" fill-opacity="0.05"/>
<path d="M458.182 262C422.032 262 392.727 291.351 392.727 327.5H458.182V262Z" fill="black" fill-opacity="0.03"/>
<path d="M654.545 262C618.396 262 589.091 291.351 589.091 327.5H654.545V262Z" fill="black" fill-opacity="0.05"/>
<path d="M261.818 65.5C225.669 65.5 196.364 94.8504 196.364 131H261.818V65.5Z" fill="black" fill-opacity="0.05"/>
<path d="M261.818 327.5C225.669 327.5 196.364 356.85 196.364 393H261.818V327.5Z" fill="black" fill-opacity="0.03"/>
<path d="M523.636 65.5C487.487 65.5 458.182 94.8504 458.182 131H523.636V65.5Z" fill="black" fill-opacity="0.05"/>
<path d="M720 65.5C683.85 65.5 654.545 94.8504 654.545 131H720V65.5Z" fill="black" fill-opacity="0.03"/>
<path d="M523.636 327.5C487.487 327.5 458.182 356.85 458.182 393H523.636V327.5Z" fill="black" fill-opacity="0.03"/>
<path d="M720 327.5C683.85 327.5 654.545 356.85 654.545 393H720V327.5Z" fill="black" fill-opacity="0.03"/>
<path d="M130.909 196.5C94.7596 196.5 65.4546 167.15 65.4546 131L130.909 131L130.909 196.5Z" fill="black" fill-opacity="0.03"/>
<path d="M130.909 458.5C94.7596 458.5 65.4546 429.149 65.4546 393L130.909 393L130.909 458.5Z" fill="black" fill-opacity="0.05"/>
<path d="M392.727 196.5C356.578 196.5 327.273 167.15 327.273 131L392.727 131L392.727 196.5Z" fill="black" fill-opacity="0.05"/>
<path d="M589.091 196.5C552.941 196.5 523.636 167.15 523.636 131L589.091 131L589.091 196.5Z" fill="black" fill-opacity="0.05"/>
<path d="M392.727 458.5C356.578 458.5 327.273 429.149 327.273 393L392.727 393L392.727 458.5Z" fill="black" fill-opacity="0.03"/>
<path d="M589.091 458.5C552.941 458.5 523.636 429.149 523.636 393L589.091 393L589.091 458.5Z" fill="black" fill-opacity="0.03"/>
<path d="M130.909 262C94.7596 262 65.4546 232.65 65.4546 196.5L130.909 196.5L130.909 262Z" fill="black" fill-opacity="0.05"/>
<path d="M130.909 524C94.7596 524 65.4546 494.65 65.4546 458.5L130.909 458.5L130.909 524Z" fill="black" fill-opacity="0.03"/>
<path d="M392.727 262C356.578 262 327.273 232.65 327.273 196.5L392.727 196.5L392.727 262Z" fill="black" fill-opacity="0.03"/>
<path d="M589.091 262C552.941 262 523.636 232.65 523.636 196.5L589.091 196.5L589.091 262Z" fill="black" fill-opacity="0.03"/>
<path d="M392.727 524C356.578 524 327.273 494.65 327.273 458.5L392.727 458.5L392.727 524Z" fill="black" fill-opacity="0.03"/>
<path d="M589.091 524C552.941 524 523.636 494.65 523.636 458.5L589.091 458.5L589.091 524Z" fill="black" fill-opacity="0.03"/>
<path d="M2.86111e-06 196.5C1.28206e-06 160.35 29.305 131 65.4545 131L65.4545 196.5L2.86111e-06 196.5Z" fill="black" fill-opacity="0.05"/>
<path d="M2.86111e-06 524C1.28206e-06 487.85 29.305 458.5 65.4545 458.5L65.4545 524L2.86111e-06 524Z" fill="black" fill-opacity="0.03"/>
<path d="M261.818 262C261.818 225.851 291.123 196.5 327.273 196.5L327.273 262L261.818 262Z" fill="black" fill-opacity="0.03"/>
<path d="M261.818 524C261.818 487.85 291.123 458.5 327.273 458.5L327.273 524L261.818 524Z" fill="black" fill-opacity="0.05"/>
<path d="M130.909 262C167.059 262 196.364 232.65 196.364 196.5L130.909 196.5L130.909 262Z" fill="black" fill-opacity="0.03"/>
<path d="M130.909 524C167.059 524 196.364 494.65 196.364 458.5L130.909 458.5L130.909 524Z" fill="black" fill-opacity="0.05"/>
<path d="M392.727 262C428.877 262 458.182 232.65 458.182 196.5L392.727 196.5L392.727 262Z" fill="black" fill-opacity="0.05"/>
<path d="M589.091 262C625.24 262 654.545 232.65 654.545 196.5L589.091 196.5L589.091 262Z" fill="black" fill-opacity="0.05"/>
<path d="M392.727 524C428.877 524 458.182 494.65 458.182 458.5L392.727 458.5L392.727 524Z" fill="black" fill-opacity="0.05"/>
<path d="M589.091 524C625.24 524 654.545 494.65 654.545 458.5L589.091 458.5L589.091 524Z" fill="black" fill-opacity="0.05"/>
<path d="M6.10352e-05 65.5C36.1496 65.5 65.4546 94.8504 65.4546 131H6.10352e-05V65.5Z" fill="black" fill-opacity="0.03"/>
<path d="M0 327.5C36.1496 327.5 65.4545 356.85 65.4545 393H0V327.5Z" fill="black" fill-opacity="0.03"/>
<path d="M261.818 65.5C297.968 65.5 327.273 94.8504 327.273 131H261.818V65.5Z" fill="black" fill-opacity="0.03"/>
<path d="M261.818 327.5C297.968 327.5 327.273 356.85 327.273 393H261.818V327.5Z" fill="black" fill-opacity="0.05"/>
<ellipse cx="229.091" cy="491.25" rx="32.7273" ry="32.75" fill="black" fill-opacity="0.05"/>
<ellipse cx="490.909" cy="491.25" rx="32.7273" ry="32.75" fill="black" fill-opacity="0.03"/>
<path d="M261.818 131C279.893 131 294.546 145.675 294.546 163.75H261.818V131Z" fill="black" fill-opacity="0.03"/>
<path d="M261.818 196.5C279.893 196.5 294.546 181.825 294.546 163.75H261.818V196.5Z" fill="black" fill-opacity="0.05"/>
<path d="M294.546 131C312.62 131 327.273 145.675 327.273 163.75H294.546V131Z" fill="black" fill-opacity="0.05"/>
</g>
</svg>
