<svg width="46" height="46" viewBox="0 0 46 46" fill="none" xmlns="http://www.w3.org/2000/svg">
<rect x="0.000366211" width="46" height="46" rx="5" fill="#3A76F0"/>
<g clip-path="url(#clip0)">
<path d="M19.8793 10.3795L20.1711 11.5613C19.0212 11.8455 17.9206 12.3012 16.9063 12.913L16.2822 11.8678C17.3986 11.1917 18.6116 10.6899 19.8793 10.3795ZM26.1208 10.3795L25.829 11.5613C26.9789 11.8455 28.0795 12.3012 29.0938 12.913L29.7253 11.8678C28.606 11.1923 27.3906 10.6905 26.1208 10.3795ZM11.8688 16.2775C11.1933 17.3956 10.6915 18.6097 10.3804 19.8784L11.5623 20.1701C11.8465 19.0202 12.3021 17.9196 12.914 16.9053L11.8688 16.2775ZM11.2188 22.9991C11.2187 22.4081 11.2632 21.818 11.3518 21.2338L10.1478 21.0491C9.95204 22.3405 9.95204 23.654 10.1478 24.9454L11.3518 24.7644C11.2633 24.1801 11.2189 23.59 11.2188 22.9991ZM29.718 34.1266L29.0938 33.0852C28.0811 33.6976 26.9817 34.1533 25.8327 34.4369L26.1245 35.6187C27.3907 35.3053 28.6022 34.8023 29.718 34.1266ZM34.7813 22.9991C34.7812 23.59 34.7368 24.1801 34.6483 24.7644L35.8523 24.9454C36.0481 23.654 36.0481 22.3405 35.8523 21.0491L34.6483 21.2338C34.7369 21.818 34.7814 22.4081 34.7813 22.9991ZM35.6197 26.1161L34.4378 25.8244C34.1543 26.9757 33.6986 28.0776 33.0861 29.0928L34.1313 29.7207C34.8074 28.6016 35.3093 27.3862 35.6197 26.1161ZM24.7654 34.6474C23.5952 34.8247 22.4049 34.8247 21.2347 34.6474L21.0537 35.8514C22.3439 36.0471 23.6562 36.0471 24.9464 35.8514L24.7654 34.6474ZM32.4841 29.9866C31.7822 30.9385 30.9405 31.7789 29.9876 32.4795L30.7114 33.4619C31.761 32.6892 32.6896 31.7643 33.4665 30.7178L32.4841 29.9866ZM29.9876 13.515C30.9406 14.2169 31.7822 15.0586 32.4841 16.0116L33.4665 15.2803C32.6924 14.2329 31.7663 13.3068 30.7188 12.5326L29.9876 13.515ZM13.516 16.0116C14.2179 15.0586 15.0595 14.2169 16.0126 13.515L15.2813 12.5326C14.2338 13.3068 13.3077 14.2329 12.5336 15.2803L13.516 16.0116ZM34.1313 16.2775L33.0861 16.9053C33.6985 17.918 34.1543 19.0175 34.4378 20.1664L35.6197 19.8747C35.3086 18.6072 34.8067 17.3943 34.1313 16.2775ZM21.2347 11.3508C22.4049 11.1735 23.5952 11.1735 24.7654 11.3508L24.9464 10.1468C23.6562 9.95106 22.3439 9.95106 21.0537 10.1468L21.2347 11.3508ZM14.1401 33.7869L11.6251 34.3704L12.2123 31.8553L11.0268 31.5784L10.4395 34.0934C10.4028 34.2493 10.3972 34.411 10.4229 34.5691C10.4487 34.7272 10.5054 34.8787 10.5898 35.0149C10.6742 35.151 10.7846 35.2692 10.9147 35.3627C11.0448 35.4562 11.1921 35.5231 11.3481 35.5596C11.5305 35.6002 11.7196 35.6002 11.902 35.5596L14.4171 34.9798L14.1401 33.7869ZM11.2779 30.4926L12.4671 30.7659L12.8733 29.0227C12.2801 28.0275 11.8382 26.9496 11.5623 25.8244L10.3804 26.1161C10.6463 27.1932 11.0484 28.232 11.577 29.2073L11.2779 30.4926ZM16.9654 33.1295L15.2222 33.5357L15.4992 34.7249L16.7807 34.4258C17.7553 34.956 18.7943 35.3582 19.8719 35.6224L20.1637 34.4406C19.042 34.161 17.9679 33.7167 16.9765 33.1221L16.9654 33.1295ZM23.0001 12.4366C17.1648 12.4403 12.4412 17.1712 12.4412 23.0028C12.4445 24.989 13.0063 26.9343 14.0626 28.6164L13.0469 32.9522L17.379 31.9366C22.3168 35.0426 28.839 33.5616 31.9449 28.6275C35.0509 23.6934 33.5736 17.1712 28.6395 14.0616C26.9504 12.9994 24.9954 12.4361 23.0001 12.4366Z" fill="white"/>
</g>
<defs>
<clipPath id="clip0">
<rect width="26" height="26" fill="white" transform="translate(10.0004 10)"/>
</clipPath>
</defs>
</svg>
