<svg width="14" height="17" viewBox="0 0 14 17" fill="none" xmlns="http://www.w3.org/2000/svg">
<path d="M6.89403 8.18891C8.00451 8.18891 8.96611 7.78542 9.75179 6.98933C10.5375 6.19337 10.9358 5.21946 10.9358 4.09433C10.9358 2.96958 10.5375 1.99554 9.75167 1.19932C8.96585 0.403492 8.00439 0 6.89403 0C5.78342 0 4.82208 0.403492 4.03639 1.19945C3.25071 1.99541 2.85229 2.96945 2.85229 4.09433C2.85229 5.21946 3.25071 6.1935 4.03652 6.98946C4.82234 7.78529 5.7838 8.18891 6.89403 8.18891Z" fill="white"/>
<path d="M13.9661 13.0721C13.9434 12.7409 13.8976 12.3795 13.8301 11.998C13.762 11.6135 13.6743 11.2501 13.5693 10.918C13.4609 10.5747 13.3134 10.2356 13.1311 9.91072C12.9419 9.57351 12.7196 9.27987 12.4702 9.03824C12.2094 8.78546 11.8902 8.58222 11.5209 8.43397C11.153 8.28651 10.7452 8.2118 10.3091 8.2118C10.1378 8.2118 9.97209 8.283 9.65216 8.49402C9.45526 8.62411 9.22494 8.77456 8.96787 8.94097C8.74805 9.08286 8.45026 9.2158 8.08245 9.33616C7.72359 9.45379 7.35924 9.51346 6.99962 9.51346C6.63999 9.51346 6.27576 9.45379 5.91653 9.33616C5.5491 9.21593 5.25131 9.08299 5.03175 8.9411C4.77711 8.77625 4.54666 8.6258 4.34682 8.49389C4.02727 8.28287 3.86148 8.21167 3.69018 8.21167C3.25387 8.21167 2.84624 8.28651 2.47843 8.4341C2.10946 8.58209 1.79004 8.78533 1.529 9.03837C1.27973 9.28013 1.05736 9.57364 0.868391 9.91072C0.686212 10.2356 0.538727 10.5745 0.430163 10.9181C0.32531 11.2503 0.237614 11.6135 0.169505 11.998C0.102036 12.379 0.0562028 12.7405 0.0335425 13.0725C0.0112662 13.3978 0 13.7354 0 14.0764C0 14.9638 0.278453 15.6822 0.827551 16.212C1.36986 16.7348 2.08744 17.0001 2.96006 17.0001H11.0399C11.9126 17.0001 12.6299 16.735 13.1723 16.212C13.7215 15.6826 14 14.964 14 14.0763C13.9999 13.7337 13.9885 13.3959 13.9661 13.0721Z" fill="white"/>
</svg>
