<svg width="47" height="46" viewBox="0 0 47 46" fill="none" xmlns="http://www.w3.org/2000/svg">
<rect x="0.5" width="46.0008" height="46" rx="5" fill="#644382"/>
<path d="M31.5298 21.232C31.5569 18.1303 28.844 15.2869 25.4824 14.8937C25.4155 14.8859 25.3427 14.8742 25.2656 14.8617C25.0991 14.8349 24.927 14.8073 24.7534 14.8073C24.0644 14.8073 23.8802 15.2786 23.8317 15.5597C23.7846 15.833 23.8295 16.0625 23.9652 16.2421C24.1933 16.5442 24.5948 16.5978 24.9173 16.6408C25.0118 16.6535 25.101 16.6653 25.1756 16.6817C28.1959 17.3389 29.2129 18.3721 29.71 21.2883C29.7221 21.3595 29.7276 21.4473 29.7334 21.5404C29.7551 21.889 29.8003 22.6143 30.601 22.6143H30.601C30.6677 22.6143 30.7393 22.6087 30.8139 22.5976C31.5595 22.4873 31.5362 21.8243 31.5249 21.5058C31.5218 21.4161 31.5188 21.3312 31.5265 21.2748C31.5286 21.2606 31.5297 21.2463 31.5298 21.232Z" fill="white"/>
<path d="M24.5587 13.7551C24.6482 13.7614 24.7329 13.7674 24.8034 13.7779C29.7631 14.5206 32.044 16.8089 32.6761 21.6764C32.6868 21.7591 32.6885 21.86 32.6902 21.9669C32.6966 22.3472 32.7095 23.1383 33.582 23.1547L33.6091 23.1549C33.8827 23.1549 34.1004 23.0746 34.2561 22.916C34.5277 22.6393 34.5087 22.2283 34.4934 21.8981C34.4897 21.817 34.4861 21.7407 34.487 21.6739C34.5501 16.6958 30.125 12.1816 25.0174 12.0137C24.9962 12.013 24.976 12.0141 24.9556 12.0169C24.9455 12.0184 24.9269 12.0202 24.8951 12.0202C24.8441 12.0202 24.7815 12.0159 24.715 12.0115C24.6347 12.0061 24.5436 12 24.4513 12C23.6379 12 23.4833 12.563 23.4635 12.8986C23.4179 13.6742 24.1884 13.7288 24.5587 13.7551Z" fill="white"/>
<path d="M32.4359 27.9672C32.3305 27.8888 32.2215 27.8076 32.1194 27.7275C31.5779 27.3032 31.0018 26.912 30.4446 26.5337C30.329 26.4553 30.2134 26.3768 30.0981 26.2981C29.3845 25.8099 28.7428 25.5727 28.1366 25.5727C27.3201 25.5727 26.6083 26.012 26.0207 26.8783C25.7604 27.2623 25.4446 27.449 25.0555 27.449C24.8253 27.449 24.5638 27.3851 24.2783 27.2589C21.9747 26.2416 20.3298 24.6819 19.3891 22.6232C18.9344 21.6281 19.0818 20.9777 19.882 20.4483C20.3365 20.148 21.1824 19.5888 21.1224 18.5181C21.0546 17.3021 18.2995 13.6435 17.1386 13.228C16.6472 13.052 16.1308 13.0503 15.601 13.2239C14.2666 13.6607 13.3089 14.4279 12.8314 15.4424C12.3699 16.4226 12.3908 17.5736 12.8917 18.7709C14.3397 22.2325 16.3755 25.2506 18.9428 27.7412C21.4557 30.1792 24.5443 32.1763 28.1227 33.6767C28.4453 33.8119 28.7836 33.8856 29.0306 33.9394C29.1148 33.9578 29.1875 33.9735 29.2405 33.9877C29.2696 33.9954 29.2996 33.9996 29.3297 33.9998L29.358 34C29.3581 34 29.358 34 29.3581 34C31.0412 34 33.0621 32.5023 33.6827 30.7949C34.2265 29.2999 33.2337 28.5609 32.4359 27.9672Z" fill="white"/>
<path d="M25.3025 17.7094C25.0144 17.7165 24.4147 17.731 24.2043 18.3258C24.1058 18.6037 24.1176 18.845 24.2393 19.043C24.418 19.3335 24.7602 19.4225 25.0715 19.4714C26.2005 19.6478 26.7803 20.2557 26.8963 21.3844C26.9502 21.9107 27.3141 22.2782 27.7814 22.2782H27.7815C27.816 22.2782 27.8513 22.2763 27.8864 22.2721C28.4484 22.207 28.7209 21.8049 28.6963 21.0771C28.7052 20.3176 28.297 19.4553 27.6028 18.7684C26.9061 18.0795 26.0664 17.6914 25.3025 17.7094Z" fill="white"/>
</svg>
