<svg width="44" height="44" viewBox="0 0 44 44" fill="none" xmlns="http://www.w3.org/2000/svg">
<rect width="44" height="44" rx="5" fill="#5C73C4"/>
<path d="M32.5321 14.5794C30.6055 12.9503 28.2936 12.1358 25.8532 12L25.4679 12.4073C27.6514 12.9503 29.578 14.0364 31.3761 15.5297C29.1927 14.3079 26.7523 13.4933 24.1835 13.2218C23.4128 13.0861 22.7706 13.0861 22 13.0861C21.2294 13.0861 20.5872 13.0861 19.8165 13.2218C17.2477 13.4933 14.8073 14.3079 12.6239 15.5297C14.422 14.0364 16.3486 12.9503 18.5321 12.4073L18.1468 12C15.7064 12.1358 13.3945 12.9503 11.4679 14.5794C9.2844 18.9236 8.12844 23.8109 8 28.8339C9.92661 31.0061 12.6239 32.3636 15.4495 32.3636C15.4495 32.3636 16.3486 31.2776 16.9908 30.3273C15.3211 29.92 13.7798 28.9697 12.7523 27.4764C13.6514 28.0194 14.5505 28.5624 15.4495 28.9697C16.6055 29.5127 17.7615 29.7842 18.9174 30.0558C19.945 30.1915 20.9725 30.3273 22 30.3273C23.0275 30.3273 24.055 30.1915 25.0826 30.0558C26.2385 29.7842 27.3945 29.5127 28.5505 28.9697C29.4495 28.5624 30.3486 28.0194 31.2477 27.4764C30.2202 28.9697 28.6789 29.92 27.0092 30.3273C27.6514 31.2776 28.5505 32.3636 28.5505 32.3636C31.3761 32.3636 34.0734 31.0061 36 28.8339C35.8716 23.8109 34.7156 18.9236 32.5321 14.5794ZM17.7615 26.3903C16.4771 26.3903 15.3211 25.1685 15.3211 23.6752C15.3211 22.1818 16.4771 20.96 17.7615 20.96C19.0459 20.96 20.2018 22.1818 20.2018 23.6752C20.2018 25.1685 19.0459 26.3903 17.7615 26.3903ZM26.2385 26.3903C24.9541 26.3903 23.7982 25.1685 23.7982 23.6752C23.7982 22.1818 24.9541 20.96 26.2385 20.96C27.5229 20.96 28.6789 22.1818 28.6789 23.6752C28.6789 25.1685 27.5229 26.3903 26.2385 26.3903Z" fill="white"/>
</svg>
