<svg width="44" height="44" viewBox="0 0 44 44" fill="none" xmlns="http://www.w3.org/2000/svg">
<rect width="44" height="44" rx="4" fill="#00A0E9"/>
<path d="M28.7632 8H15.2366C12.3445 8 10 10.2948 10 13.1253V26.365C10 29.1953 12.3442 31.4901 15.2366 31.4901H19.7386L21.9766 35L24.2153 31.4901H28.7632C31.6551 31.4901 34 29.1953 34 26.365V13.1251C34 10.2948 31.6551 8 28.7632 8V8Z" fill="white"/>
<path d="M19.1064 21.0243H21.0833V19.1244H22.9163V21.0243H24.893V19.1244H26.8337V17.1899H24.893V15.3959H26.8337V13.4612H24.893V11.5615H22.9163V13.4612H21.0835V11.5615H19.1066V13.4612H17.1655V15.3959H19.1066V17.1899H17.1655V19.1244H19.1064V21.0243ZM21.0835 15.3959H22.9163V17.1899H21.0835V15.3959Z" fill="#00A0E9"/>
<path d="M30.806 21.661C30.6284 21.5467 30.4602 21.49 30.3045 21.4723C29.574 21.3941 29.126 21.8703 28.7705 22.4133C28.3779 23.0125 26.1124 25.6373 22.0078 25.7378C17.9031 25.6373 15.6378 23.0125 15.2451 22.4133C14.8896 21.8703 14.4572 21.3949 13.7111 21.4723C13.5554 21.49 13.3873 21.5467 13.2096 21.661C12.89 21.8668 12.7684 22.2162 12.779 22.4599C12.779 22.7975 12.9478 23.1108 12.9478 23.1108C12.9478 23.1108 15.5574 27.9212 21.7532 27.9212C21.8389 27.9212 21.9236 27.9201 22.0078 27.9187C22.092 27.9201 22.1767 27.9212 22.2626 27.9212C28.4584 27.9212 31.068 23.1108 31.068 23.1108C31.068 23.1108 31.2138 22.9052 31.2387 22.4595C31.2502 22.1566 31.1255 21.8668 30.806 21.661Z" fill="#00A0E9"/>
<path d="M21.0835 15.396H22.9163V17.19H21.0835V15.396Z" fill="white"/>
</svg>
