<svg width="44" height="44" viewBox="0 0 44 44" fill="none" xmlns="http://www.w3.org/2000/svg">
<rect width="44" height="44" rx="5" fill="#2CCF54"/>
<path d="M36.8 19.6484C36.8 12.6744 29.8919 7.00069 21.3999 7.00069C12.909 7.00069 6 12.6744 6 19.6484C6 25.9005 11.4787 31.1365 18.8793 32.1267C19.3808 32.236 20.0634 32.4613 20.2361 32.8951C20.3914 33.2892 20.3377 33.9064 20.2857 34.3044C20.2857 34.3044 20.105 35.4042 20.066 35.6384C19.999 36.0325 19.7567 37.1795 21.3999 36.4786C23.0436 35.7777 30.2688 31.1936 33.4997 27.4299C35.7316 24.9531 36.8 22.4395 36.8 19.6484Z" fill="white"/>
<path d="M18.2711 16.2674H17.1909C17.0252 16.2674 16.8906 16.4031 16.8906 16.57V23.3532C16.8906 23.5203 17.0252 23.6558 17.1909 23.6558H18.2711C18.4367 23.6558 18.571 23.5203 18.571 23.3532V16.57C18.571 16.4031 18.4367 16.2674 18.2711 16.2674Z" fill="#2CCF54"/>
<path d="M25.7062 16.2674H24.626C24.4603 16.2674 24.326 16.4031 24.326 16.57V20.5999L21.251 16.402C21.1941 16.3157 21.1019 16.273 21.0012 16.2674H19.9213C19.7557 16.2674 19.6211 16.4031 19.6211 16.57V23.3532C19.6211 23.5203 19.7557 23.6558 19.9213 23.6558H21.0012C21.1672 23.6558 21.3015 23.5203 21.3015 23.3532V19.3244L24.3803 23.5277C24.4356 23.6069 24.5295 23.6558 24.626 23.6558H25.7062C25.8721 23.6558 26.0061 23.5203 26.0061 23.3532V16.57C26.0061 16.4031 25.8721 16.2674 25.7062 16.2674Z" fill="#2CCF54"/>
<path d="M15.6674 21.9571H12.7323V16.5703C12.7323 16.4028 12.598 16.2671 12.4327 16.2671H11.3522C11.1866 16.2671 11.0522 16.4028 11.0522 16.5703V23.3523C11.0522 23.5169 11.186 23.6558 11.3519 23.6558H15.6674C15.833 23.6558 15.9668 23.5197 15.9668 23.3523V22.2603C15.9668 22.0929 15.833 21.9571 15.6674 21.9571Z" fill="#2CCF54"/>
<path d="M31.6713 17.9657C31.8369 17.9657 31.9707 17.8302 31.9707 17.6625V16.5706C31.9707 16.4031 31.8369 16.2671 31.6713 16.2671H27.3561C27.1904 16.2671 27.0562 16.4057 27.0562 16.5703V23.3526C27.0562 23.5167 27.19 23.6558 27.3555 23.6558H31.6713C31.8369 23.6558 31.9707 23.5197 31.9707 23.3526V22.2603C31.9707 22.0932 31.8369 21.9571 31.6713 21.9571H28.7365V20.8106H31.6713C31.8369 20.8106 31.9707 20.6748 31.9707 20.5074V19.4154C31.9707 19.248 31.8369 19.1119 31.6713 19.1119H28.7365V17.9657H31.6713Z" fill="#2CCF54"/>
</svg>
