<svg width="44" height="44" viewBox="0 0 44 44" fill="none" xmlns="http://www.w3.org/2000/svg">
<rect width="44" height="44" rx="5" fill="#3A76F0"/>
<path d="M18.879 9.37951L19.1708 10.5614C18.0208 10.8456 16.9202 11.3013 15.9058 11.9132L15.2816 10.868C16.3981 10.1918 17.6112 9.68991 18.879 9.37951ZM25.121 9.37951L24.8292 10.5614C25.9792 10.8456 27.0798 11.3013 28.0942 11.9132L28.7258 10.868C27.6063 10.1924 26.3909 9.69057 25.121 9.37951ZM10.868 15.2779C10.1924 16.3961 9.69058 17.6103 9.3795 18.879L10.5614 19.1708C10.8456 18.0208 11.3013 16.9202 11.9132 15.9058L10.868 15.2779ZM10.2179 22C10.2178 21.409 10.2623 20.8188 10.3509 20.2345L9.14681 20.0499C8.95106 21.3413 8.95106 22.655 9.14681 23.9464L10.3509 23.7655C10.2624 23.1811 10.218 22.591 10.2179 22ZM28.7184 33.1283L28.0942 32.0868C27.0814 32.6992 25.9819 33.155 24.8329 33.4386L25.1247 34.6205C26.3909 34.3071 27.6025 33.804 28.7184 33.1283ZM33.7821 22C33.782 22.591 33.7376 23.1811 33.6491 23.7655L34.8532 23.9464C35.0489 22.655 35.0489 21.3413 34.8532 20.0499L33.6491 20.2345C33.7377 20.8188 33.7822 21.409 33.7821 22ZM34.6205 25.1173L33.4386 24.8255C33.1551 25.9769 32.6993 27.0788 32.0868 28.0942L33.132 28.7221C33.8082 27.6029 34.3101 26.3874 34.6205 25.1173ZM23.7655 33.6491C22.5952 33.8264 21.4048 33.8264 20.2345 33.6491L20.0536 34.8532C21.3438 35.0489 22.6562 35.0489 23.9464 34.8532L23.7655 33.6491ZM31.4848 28.988C30.7828 29.94 29.941 30.7805 28.988 31.4811L29.7119 32.4635C30.7616 31.6908 31.6903 30.7659 32.4672 29.7193L31.4848 28.988ZM28.988 12.5152C29.9411 13.2172 30.7828 14.0589 31.4848 15.012L32.4672 14.2807C31.693 13.2332 30.7668 12.307 29.7193 11.5328L28.988 12.5152ZM12.5152 15.012C13.2172 14.0589 14.0589 13.2172 15.012 12.5152L14.2807 11.5328C13.2332 12.307 12.307 13.2332 11.5328 14.2807L12.5152 15.012ZM33.132 15.2779L32.0868 15.9058C32.6992 16.9186 33.155 18.0181 33.4386 19.1671L34.6205 18.8753C34.3094 17.6078 33.8075 16.3948 33.132 15.2779ZM20.2345 10.3509C21.4048 10.1736 22.5952 10.1736 23.7655 10.3509L23.9464 9.14683C22.6562 8.95106 21.3438 8.95106 20.0536 9.14683L20.2345 10.3509ZM13.1394 32.7885L10.6242 33.3721L11.2114 30.8569L10.0259 30.5799L9.43859 33.0951C9.40185 33.251 9.39621 33.4127 9.422 33.5708C9.44779 33.7289 9.5045 33.8804 9.58889 34.0166C9.67328 34.1528 9.78369 34.271 9.9138 34.3645C10.0439 34.458 10.1912 34.5249 10.3472 34.5614C10.5296 34.602 10.7188 34.602 10.9012 34.5614L13.4164 33.9815L13.1394 32.7885ZM10.277 29.494L11.4663 29.7673L11.8726 28.024C11.2793 27.0288 10.8374 25.9508 10.5614 24.8255L9.3795 25.1173C9.64535 26.1944 10.0475 27.2333 10.5762 28.2087L10.277 29.494ZM15.9649 32.1311L14.2216 32.5374L14.4986 33.7267L15.7802 33.4275C16.7549 33.9578 17.794 34.36 18.8717 34.6242L19.1634 33.4423C18.0416 33.1627 16.9675 32.7183 15.976 32.1237L15.9649 32.1311ZM22 11.4368C16.1644 11.4405 11.4404 16.1718 11.4404 22.0037C11.4437 23.9901 12.0055 25.9355 13.0619 27.6177L12.0462 31.9538L16.3786 30.9381C21.3167 34.0443 27.8393 32.5632 30.9455 27.6288C34.0517 22.6944 32.5743 16.1718 27.6399 13.0619C25.9506 11.9996 23.9955 11.4362 22 11.4368Z" fill="white"/>
</svg>
