<svg width="44" height="44" viewBox="0 0 44 44" fill="none" xmlns="http://www.w3.org/2000/svg">
<rect width="44" height="44" rx="5" fill="#FFFA37"/>
<circle cx="22" cy="22" r="19.25" fill="#FFFA37"/>
<path d="M15.8361 20.6728L15.2907 20.158C15.3426 20.103 15.3764 20.0155 15.3661 19.8726C15.3064 19.0404 15.2338 17.8566 15.2338 16.992C15.2338 15.9413 15.6291 14.2556 16.7666 12.8317C17.908 11.4029 19.7862 10.25 22.7344 10.25C25.6825 10.25 27.5534 11.403 28.6874 12.832C29.8176 14.2562 30.2051 15.9419 30.2051 16.992C30.2051 17.8566 30.1324 19.0404 30.0727 19.8726C30.0625 20.0155 30.0962 20.103 30.1482 20.158C30.2046 20.2178 30.3071 20.2655 30.4759 20.2655C30.7201 20.2655 30.9117 20.1798 31.1138 20.0826L31.1141 20.0824L31.1383 20.0708L31.1389 20.0705L31.1453 20.0675C31.3739 19.9578 31.6334 19.8334 31.9978 19.8334C32.3502 19.8334 32.7132 19.9738 32.9912 20.1988C33.2714 20.4255 33.4765 20.7487 33.4765 21.1116C33.4765 21.2886 33.441 21.5011 33.3078 21.7115C33.1869 21.9024 33.0225 22.0319 32.8785 22.1251L32.4711 21.4953L32.8784 22.1251C32.5457 22.3403 32.1085 22.4837 31.6977 22.6184L31.6869 22.622L31.6867 22.622L31.6481 22.6347L31.6481 22.6347C31.2616 22.7613 30.8969 22.8849 30.6283 23.0524C30.3473 23.2275 30.2051 23.4275 30.2051 23.6947C30.2051 23.7086 30.2072 23.7328 30.2151 23.7682C30.2228 23.8032 30.2344 23.8412 30.2491 23.8825C30.2805 23.9707 30.3274 24.0757 30.388 24.194L29.7204 24.5358L30.388 24.194C30.5091 24.4306 30.6801 24.7111 30.8772 25.0021C31.2717 25.5847 31.7619 26.1961 32.1459 26.5655C32.5293 26.9343 33.1347 27.373 33.7593 27.7194C34.0711 27.8923 34.3856 28.0411 34.6776 28.1465C34.9445 28.2428 35.1915 28.3025 35.3995 28.3113L35.5342 28.3171L35.6586 28.3695C35.6812 28.379 35.7052 28.39 35.7302 28.4025C35.7302 28.4025 35.7302 28.4025 35.7302 28.4025L15.8361 20.6728ZM15.8361 20.6728L15.2907 20.158C15.2343 20.2178 15.1317 20.2655 14.9629 20.2655C14.7187 20.2655 14.5271 20.1798 14.325 20.0826L14.3248 20.0824M15.8361 20.6728L14.3248 20.0824M9.70867 28.4025C9.66924 28.4224 9.62809 28.4459 9.58734 28.4733L9.5873 28.4732L9.57925 28.4788L9.57321 28.483L9.1932 28.746L9.25723 29.2036C9.26236 29.2403 9.26916 29.2738 9.27699 29.3044L9.70867 28.4025ZM9.70867 28.4025C9.73365 28.3899 9.75772 28.379 9.78028 28.3695M9.70867 28.4025L9.78028 28.3695M10.0131 29.143L10.0132 29.1429L10.0131 29.143ZM10.0131 29.143L10.013 29.143L10.0131 29.143ZM9.57472 29.7855L9.5674 29.7776C9.50427 29.7101 9.41964 29.6195 9.35672 29.5057L9.3567 29.5056C9.324 29.4465 9.29634 29.3802 9.277 29.3045L9.57472 29.7855ZM9.57472 29.7855L9.57511 29.7859L9.5946 29.8068C9.59477 29.807 9.59494 29.8072 9.59511 29.8074L9.59531 29.8076L10.0838 29.3523L10.1034 29.81C10.3539 29.7993 10.6001 29.7551 10.8301 29.6951C10.9375 29.738 11.0562 29.7807 11.1862 29.8223C11.7122 29.9904 12.3343 30.1119 12.922 30.1676C13.216 30.1955 13.3855 30.3792 13.4572 30.4782C13.5311 30.5801 13.5733 30.6877 13.598 30.7592C13.6457 30.8974 13.6818 31.0676 13.7102 31.2019L13.7145 31.2223C13.7534 31.4053 13.7873 31.5618 13.8316 31.6926M9.57472 29.7855L12.8461 30.9138M13.8316 31.6926L13.1213 31.9332C13.0608 31.7545 13.0184 31.5548 12.982 31.3831L12.9809 31.378L12.9808 31.3778L12.9765 31.3574L12.9765 31.3573C12.9457 31.2119 12.9187 31.0899 12.8891 31.004C12.8819 30.9833 12.875 30.9656 12.8675 30.9497C12.8599 30.9334 12.8536 30.9234 12.8499 30.9183L13.4476 30.4852L12.8499 30.9183C12.8497 30.9179 12.8491 30.9172 12.8483 30.9163C12.8477 30.9156 12.8469 30.9147 12.8461 30.9138M13.8316 31.6926C13.8473 31.7388 13.8617 31.774 13.8742 31.7999M13.8316 31.6926L13.1213 31.9332C13.1444 32.0015 13.1698 32.0657 13.1981 32.1246L13.3775 32.498L13.789 32.5451C13.8498 32.552 13.9225 32.5563 14.0106 32.5559C14.2868 32.5548 14.5664 32.5195 14.79 32.4913L13.8742 31.7999M12.8461 30.9138C12.8478 30.9139 12.8495 30.9141 12.8512 30.9142C12.8526 30.9144 12.8527 30.9145 12.8517 30.9142C12.8515 30.9142 12.8514 30.9142 12.8512 30.9141C12.8502 30.9139 12.8491 30.9135 12.8478 30.913C12.8444 30.9117 12.8425 30.9104 12.8423 30.9102C12.8422 30.9102 12.8426 30.9104 12.8432 30.911L12.8458 30.9135C12.8459 30.9136 12.846 30.9137 12.8461 30.9138ZM13.8742 31.7999C13.9022 31.8031 13.9452 31.8062 14.0075 31.8059C14.2339 31.805 14.4604 31.7766 14.6854 31.7484C14.729 31.743 14.7726 31.7375 14.8161 31.7323M13.8742 31.7999L14.9058 32.4769L14.8161 31.7323M14.8161 31.7323C15.2444 31.6806 15.7745 31.6168 16.3358 31.6168C17.6375 31.6168 18.4965 32.2037 19.3263 32.7706M14.8161 31.7323L14.9059 32.4769C15.3378 32.4248 15.8257 32.3668 16.3358 32.3668C17.3825 32.3668 18.0685 32.8196 18.9031 33.3899L18.9032 33.3899L18.9498 33.4218L18.9499 33.4218L18.951 33.4226C19.2558 33.6307 19.5824 33.8538 19.9521 34.0722C21.1039 34.7528 22.0117 34.7489 22.5972 34.7456C22.6357 34.7454 22.6707 34.7452 22.7044 34.7452C22.7379 34.7452 22.7728 34.7454 22.8112 34.7456H22.8116C23.3985 34.7488 24.3334 34.7538 25.4867 34.0722C25.8564 33.8538 26.1829 33.6308 26.4877 33.4226L26.4889 33.4218L26.489 33.4218L26.5356 33.3899L26.5357 33.3899C27.3703 32.8196 28.0563 32.3668 29.103 32.3668C29.6131 32.3668 30.1009 32.4248 30.5329 32.4769C30.5329 32.4769 30.533 32.4769 30.5331 32.4769L30.5458 32.4784L30.546 32.4784L30.5511 32.4791C30.8796 32.5186 31.1805 32.5549 31.4282 32.5559C31.5163 32.5563 31.589 32.552 31.6498 32.5451L32.0614 32.498L32.2407 32.1246C32.269 32.0657 32.2944 32.0015 32.3175 31.9332L32.3176 31.9332C32.3781 31.7545 32.4204 31.5548 32.4569 31.383L32.458 31.378L32.458 31.3779L32.4623 31.3575L32.4623 31.3573C32.4931 31.2119 32.5201 31.0899 32.5498 31.004C32.5569 30.9833 32.5638 30.9656 32.5713 30.9497C32.5789 30.9334 32.5852 30.9234 32.5889 30.9183C32.5892 30.918 32.5896 30.9173 32.5903 30.9165C32.591 30.9157 32.5918 30.9148 32.5928 30.9138C33.2258 30.8534 33.8993 30.7226 34.481 30.5367C34.789 30.4383 35.055 30.3294 35.274 30.2154C35.4816 30.1075 35.6897 29.9731 35.8442 29.8068L35.8637 29.7859L35.8641 29.7855L19.3263 32.7706M19.3263 32.7706L19.3728 32.8025L19.3263 32.7706ZM14.3248 20.0824L14.3006 20.0708L14.2999 20.0705M14.3248 20.0824L14.2999 20.0705M14.2999 20.0705L14.2936 20.0675C14.0649 19.9578 13.8054 19.8334 13.441 19.8334C13.0887 19.8334 12.7256 19.9738 12.4476 20.1988L12.9193 20.7818M14.2999 20.0705L12.9193 20.7818M12.9193 20.7818L12.4476 20.1988C12.1674 20.4255 11.9623 20.7487 11.9623 21.1116C11.9623 21.2886 11.9978 21.5011 12.1311 21.7115C12.2519 21.9024 12.4163 22.0319 12.5604 22.1251L12.9677 21.4953M12.9193 20.7818L12.9677 21.4953M12.9677 21.4953L12.5604 22.1251C12.8931 22.3403 13.3303 22.4837 13.7412 22.6184L13.752 22.622L13.7521 22.622M12.9677 21.4953L13.7521 22.622M13.7521 22.622L13.7907 22.6347L13.7908 22.6347M13.7521 22.622L13.7908 22.6347M13.7908 22.6347C14.1772 22.7613 14.5419 22.8849 14.8105 23.0524C15.0915 23.2275 15.2338 23.4275 15.2338 23.6947C15.2338 23.7086 15.2317 23.7328 15.2238 23.7682C15.216 23.8032 15.2044 23.8412 15.1897 23.8825C15.1583 23.9707 15.1114 24.0756 15.0509 24.194C14.9297 24.4306 14.7587 24.7111 14.5617 25.002C14.1671 25.5847 13.6769 26.1961 13.2929 26.5655C12.9095 26.9343 12.3041 27.373 11.6795 27.7194C11.3678 27.8923 11.0532 28.0411 10.7612 28.1465C10.4943 28.2428 10.2473 28.3025 10.0394 28.3113L9.90459 28.3171M13.7908 22.6347L9.90459 28.3171M9.90459 28.3171L9.78028 28.3695M9.90459 28.3171L9.78028 28.3695M31.7243 31.2223L31.7286 31.2019L31.7286 31.2018L31.7243 31.2223Z" fill="white" stroke="black" stroke-width="1.5"/>
</svg>
