<svg width="44" height="44" viewBox="0 0 44 44" fill="none" xmlns="http://www.w3.org/2000/svg">
<rect width="44" height="44" rx="5" fill="#644382"/>
<path d="M29.9993 20.5836C30.0275 17.4052 27.2148 14.4914 23.7296 14.0885C23.6603 14.0806 23.5848 14.0685 23.5048 14.0558C23.3323 14.0283 23.1539 14 22.9738 14C22.2595 14 22.0686 14.4829 22.0183 14.771C21.9694 15.051 22.016 15.2862 22.1567 15.4703C22.3932 15.7798 22.8094 15.8348 23.1438 15.8788C23.2417 15.8919 23.3342 15.904 23.4116 15.9207C26.5429 16.5942 27.5973 17.653 28.1126 20.6412C28.1252 20.7142 28.1309 20.8042 28.1369 20.8996C28.1594 21.2568 28.2062 22 29.0364 22H29.0364C29.1055 22 29.1798 21.9943 29.2571 21.9829C30.0301 21.8698 30.0059 21.1905 29.9943 20.8641C29.991 20.7722 29.9879 20.6852 29.996 20.6274C29.9981 20.6128 29.9992 20.5982 29.9993 20.5836Z" fill="white"/>
<path d="M23.0928 12.7307C23.1819 12.7369 23.2663 12.7428 23.3365 12.7532C28.2785 13.4856 30.5513 15.7421 31.1811 20.542C31.1918 20.6236 31.1935 20.7231 31.1952 20.8284C31.2015 21.2034 31.2145 21.9836 32.0838 21.9997L32.1108 22C32.3835 22 32.6003 21.9208 32.7555 21.7643C33.0261 21.4915 33.0072 21.0863 32.992 20.7606C32.9883 20.6807 32.9847 20.6054 32.9856 20.5395C33.0485 15.6305 28.6391 11.1791 23.5498 11.0135C23.5287 11.0129 23.5085 11.0139 23.4882 11.0167C23.4782 11.0181 23.4597 11.0199 23.4279 11.0199C23.3772 11.0199 23.3147 11.0156 23.2485 11.0113C23.1685 11.0061 23.0777 11 22.9857 11C22.1752 11 22.0212 11.5552 22.0014 11.8861C21.956 12.6509 22.7238 12.7048 23.0928 12.7307Z" fill="white"/>
<path d="M30.6193 26.9398C30.5155 26.8611 30.4082 26.7795 30.3077 26.6991C29.7748 26.2728 29.2078 25.8799 28.6595 25.4999C28.5457 25.4211 28.4319 25.3422 28.3185 25.2631C27.6162 24.7728 26.9847 24.5345 26.3881 24.5345C25.5846 24.5345 24.884 24.9758 24.3058 25.846C24.0496 26.2318 23.7388 26.4193 23.3558 26.4193C23.1293 26.4193 22.872 26.3551 22.591 26.2283C20.3239 25.2065 18.7051 23.6397 17.7793 21.5716C17.3318 20.572 17.4769 19.9186 18.2645 19.3869C18.7117 19.0852 19.5442 18.5235 19.4852 17.4478C19.4184 16.2264 16.707 12.5512 15.5646 12.1337C15.0809 11.9569 14.5727 11.9553 14.0514 12.1296C12.738 12.5685 11.7956 13.3391 11.3256 14.3582C10.8715 15.3429 10.892 16.4991 11.385 17.7018C12.81 21.1791 14.8135 24.2109 17.3401 26.7128C19.8132 29.1619 22.8528 31.168 26.3744 32.6753C26.6919 32.8111 27.0248 32.8851 27.2679 32.9391C27.3508 32.9577 27.4223 32.9734 27.4745 32.9876C27.5031 32.9954 27.5327 32.9996 27.5623 32.9999L27.5901 33C27.5902 33 27.5901 33 27.5903 33C29.2466 33 31.2354 31.4956 31.8463 29.7804C32.3814 28.2786 31.4043 27.5363 30.6193 26.9398Z" fill="white"/>
<path d="M23.2762 17.0007C22.9602 17.0084 22.3026 17.0243 22.0718 17.6751C21.9639 17.9792 21.9768 18.2433 22.1103 18.4599C22.3062 18.7778 22.6815 18.8752 23.0229 18.9287C24.261 19.1217 24.8968 19.7869 25.024 21.022C25.0831 21.5979 25.4822 22 25.9946 22H25.9947C26.0325 22 26.0712 21.9978 26.1098 21.9933C26.7261 21.922 27.0248 21.4821 26.9978 20.6857C27.0077 19.8546 26.56 18.911 25.7987 18.1595C25.0348 17.4056 24.1139 16.981 23.2762 17.0007Z" fill="white"/>
</svg>
