<svg width="44" height="44" viewBox="0 0 44 44" fill="none" xmlns="http://www.w3.org/2000/svg">
<rect width="44" height="44" rx="5" fill="#8BC34A"/>
<g clip-path="url(#clip0)">
<path d="M35.3915 25.348C35.3915 21.6503 31.6436 18.6523 27.0219 18.6523C22.4002 18.6523 18.6523 21.6503 18.6523 25.348C18.6523 29.0457 22.4002 32.0436 27.0219 32.0436C27.7819 32.0436 28.505 31.9365 29.2064 31.7842L33.7176 33.7176L32.1575 30.5991C34.1126 29.3738 35.3915 27.4889 35.3915 25.348Z" fill="white"/>
<path d="M18.6524 10.2827C13.105 10.2827 8.60889 14.0306 8.60889 18.6523C8.60889 21.3172 10.1121 23.6807 12.4438 25.2107L11.1198 27.8588L14.727 26.3138C15.5004 26.5883 16.3039 26.8143 17.1626 26.9197C17.0454 26.4092 16.9785 25.8853 16.9785 25.3479C16.9785 20.733 21.483 16.9784 27.0219 16.9784C27.5291 16.9784 28.0246 17.0202 28.5134 17.0805C27.6296 13.2104 23.5536 10.2827 18.6524 10.2827Z" fill="white"/>
<path d="M15.3047 16.5602C15.9981 16.5602 16.5602 15.9981 16.5602 15.3048C16.5602 14.6114 15.9981 14.0493 15.3047 14.0493C14.6114 14.0493 14.0493 14.6114 14.0493 15.3048C14.0493 15.9981 14.6114 16.5602 15.3047 16.5602Z" fill="#8BC34A"/>
<path d="M22.0006 16.5602C22.6939 16.5602 23.256 15.9981 23.256 15.3048C23.256 14.6114 22.6939 14.0493 22.0006 14.0493C21.3072 14.0493 20.7451 14.6114 20.7451 15.3048C20.7451 15.9981 21.3072 16.5602 22.0006 16.5602Z" fill="#8BC34A"/>
<path d="M24.5113 24.9298C25.2046 24.9298 25.7667 24.3677 25.7667 23.6744C25.7667 22.981 25.2046 22.4189 24.5113 22.4189C23.8179 22.4189 23.2559 22.981 23.2559 23.6744C23.2559 24.3677 23.8179 24.9298 24.5113 24.9298Z" fill="#8BC34A"/>
<path d="M29.5333 24.9298C30.2266 24.9298 30.7887 24.3677 30.7887 23.6744C30.7887 22.981 30.2266 22.4189 29.5333 22.4189C28.8399 22.4189 28.2778 22.981 28.2778 23.6744C28.2778 24.3677 28.8399 24.9298 29.5333 24.9298Z" fill="#8BC34A"/>
</g>
<defs>
<clipPath id="clip0">
<rect width="26.7826" height="26.7826" fill="white" transform="translate(8.60889 8.60889)"/>
</clipPath>
</defs>
</svg>
