<svg width="44" height="44" viewBox="0 0 44 44" fill="none" xmlns="http://www.w3.org/2000/svg">
<rect width="44" height="44" rx="5" fill="#2CD44A"/>
<path d="M29.4252 23.6918L29.4147 23.7793C26.8493 22.5007 26.5809 22.3304 26.2496 22.8274C26.0198 23.1715 25.3501 23.952 25.1483 24.183C24.9441 24.4105 24.7411 24.428 24.3947 24.2705C24.0447 24.0955 22.9212 23.728 21.5912 22.538C20.5552 21.6106 19.8599 20.4731 19.6546 20.1231C19.3128 19.5328 20.0279 19.4488 20.6789 18.2168C20.7956 17.9718 20.7361 17.7793 20.6497 17.6055C20.5622 17.4305 19.8657 15.7155 19.5741 15.0318C19.2941 14.3505 19.0059 14.4369 18.7901 14.4369C18.1181 14.3785 17.627 14.3879 17.1941 14.8382C15.3112 16.9078 15.786 19.0428 17.3971 21.3131C20.5634 25.457 22.2504 26.22 25.335 27.2793C26.168 27.5441 26.9274 27.5068 27.5283 27.4204C28.1979 27.3143 29.5897 26.5793 29.8802 25.7568C30.1777 24.9343 30.1777 24.2518 30.0902 24.0943C30.0039 23.9368 29.7752 23.8493 29.4252 23.6918Z" fill="white"/>
<path d="M32.94 11.0243C23.9697 2.35259 9.12415 8.64197 9.11832 20.8754C9.11832 23.3207 9.75881 25.7053 10.9791 27.8111L9.00049 35L16.3912 33.0727C25.6135 38.0543 36.9953 31.4394 37 20.8824C37 17.1772 35.5533 13.6901 32.9225 11.0698L32.94 11.0243ZM34.669 20.8439C34.662 29.7489 24.8867 35.3103 17.1553 30.7651L16.7353 30.5154L12.3604 31.6529L13.5329 27.4005L13.2541 26.963C8.44283 19.304 13.9704 9.29413 23.0842 9.29413C26.1805 9.29413 29.0866 10.5016 31.2752 12.6891C33.4627 14.8579 34.669 17.764 34.669 20.8439Z" fill="white"/>
</svg>
