<svg width="18" height="19" viewBox="0 0 18 19" fill="none" xmlns="http://www.w3.org/2000/svg">
<path d="M16.3665 0.011875C16.3478 0.0102917 16.332 0 16.3125 0H8.25001C7.0095 0 6 1.06558 6 2.375V3.16667C6 3.60367 6.336 3.95833 6.75 3.95833C7.164 3.95833 7.50001 3.60367 7.50001 3.16667V2.375C7.50001 1.93879 7.83676 1.58333 8.25001 1.58333H11.7443L11.5155 1.66408C10.908 1.88575 10.5 2.48979 10.5 3.16667V15.0417H8.25001C7.83676 15.0417 7.50001 14.6862 7.50001 14.25V12.6667C7.50001 12.2297 7.164 11.875 6.75 11.875C6.336 11.875 6 12.2297 6 12.6667V14.25C6 15.5594 7.0095 16.625 8.25001 16.625H10.5V17.4167C10.5 18.2899 11.1728 19 12 19C12.1605 19 12.3128 18.9755 12.4778 18.9216L16.9838 17.3359C17.592 17.1143 18 16.5102 18 15.8333V1.58333C18 0.66025 17.2463 -0.0633333 16.3665 0.011875Z" fill="white"/>
<path d="M8.0303 7.35703L5.03028 4.19036C4.81578 3.96394 4.49328 3.89586 4.21278 4.01857C3.93302 4.14128 3.75002 4.43023 3.75002 4.75007V7.12507H0.750005C0.336002 7.12507 0 7.47974 0 7.91674C0 8.35373 0.336002 8.7084 0.750005 8.7084H3.75002V11.0834C3.75002 11.4032 3.93302 11.6922 4.21278 11.8149C4.49328 11.9376 4.81578 11.8695 5.03028 11.6431L8.0303 8.47644C8.32355 8.1669 8.32355 7.66657 8.0303 7.35703Z" fill="white"/>
</svg>
