<svg width="47" height="46" viewBox="0 0 47 46" fill="none" xmlns="http://www.w3.org/2000/svg">
<rect x="0.500854" width="45.9995" height="46" rx="5" fill="#2CD44A"/>
<path d="M30.9249 24.6918L30.9144 24.7793C28.3489 23.5007 28.0806 23.3304 27.7493 23.8274C27.5194 24.1715 26.8498 24.952 26.6479 25.183C26.4438 25.4105 26.2408 25.428 25.8943 25.2705C25.5443 25.0955 24.4208 24.728 23.0908 23.538C22.0549 22.6106 21.3595 21.4731 21.1542 21.1231C20.8124 20.5328 21.5275 20.4488 22.1785 19.2168C22.2952 18.9718 22.2357 18.7793 22.1494 18.6055C22.0619 18.4305 21.3654 16.7155 21.0737 16.0318C20.7937 15.3505 20.5056 15.4369 20.2897 15.4369C19.6177 15.3785 19.1266 15.3879 18.6938 15.8382C16.8108 17.9078 17.2856 20.0428 18.8968 22.3131C22.063 26.457 23.75 27.22 26.8346 28.2793C27.6676 28.5441 28.4271 28.5068 29.0279 28.4204C29.6975 28.3143 31.0894 27.5793 31.3799 26.7568C31.6773 25.9343 31.6773 25.2518 31.5898 25.0943C31.5035 24.9368 31.2749 24.8493 30.9249 24.6918Z" fill="white"/>
<path d="M34.4397 12.0243C25.4693 3.35259 10.6238 9.64197 10.618 21.8754C10.618 24.3207 11.2584 26.7053 12.4788 28.8111L10.5001 36L17.8908 34.0727C27.1131 39.0543 38.4949 32.4394 38.4996 21.8824C38.4996 18.1772 37.0529 14.6901 34.4222 12.0698L34.4397 12.0243ZM36.1686 21.8439C36.1616 30.7489 26.3863 36.3103 18.655 31.7651L18.235 31.5154L13.8601 32.6529L15.0325 28.4005L14.7537 27.963C9.94247 20.304 15.47 10.2941 24.5839 10.2941C27.6801 10.2941 30.5862 11.5016 32.7749 13.6891C34.9623 15.8579 36.1686 18.764 36.1686 21.8439Z" fill="white"/>
</svg>
