<svg width="26" height="26" viewBox="0 0 26 26" fill="none" xmlns="http://www.w3.org/2000/svg">
<rect width="26" height="26" rx="5" fill="#5C6BC0"/>
<path d="M20.2563 12.0877C19.6095 9.8654 18.8801 8.71717 18.8683 8.69657C18.8267 8.64583 17.796 7.41235 15.3118 6.5L14.9835 7.39375C16.1653 7.8278 17.0038 8.35732 17.4649 8.69946C16.0882 8.28836 14.4505 8.03658 13 8.03658C11.5495 8.03658 9.91177 8.28836 8.53509 8.69946C8.99618 8.35736 9.83464 7.8278 11.0165 7.39375L10.6882 6.5C8.20403 7.41235 7.1733 8.64583 7.13172 8.69657C7.11994 8.71717 6.3905 9.8654 5.74374 12.0877C5.1204 14.2292 4.8836 17.2504 4.875 17.3715C4.93054 17.4583 6.20801 19.6394 9.68947 19.6394L10.5719 18.3615C9.58328 18.099 8.64056 17.6757 7.77759 17.1013L8.30518 16.3087C9.69738 17.2353 11.3208 17.7252 13 17.7252C14.6792 17.7252 16.3026 17.2353 17.6948 16.3087L18.2224 17.1013C17.3595 17.6757 16.4167 18.099 15.4281 18.3615L16.3105 19.6394C19.792 19.6394 21.0695 17.4583 21.125 17.3715C21.1164 17.2504 20.8796 14.2292 20.2563 12.0877ZM10.7987 14.5785H9.84655V12.9916H10.7987V14.5785ZM16.1535 14.5785H15.2013V12.9916H16.1535V14.5785Z" fill="white"/>
</svg>
