<svg width="26" height="26" viewBox="0 0 26 26" fill="none" xmlns="http://www.w3.org/2000/svg">
<rect width="26" height="26" rx="5" fill="#5C6BC0"/>
<path d="M24.5648 4.59478e-08H1.43398C0.641907 0.000396774 -0.000198318 0.642898 4.59478e-08 1.43517V24.566C0.000396774 25.3581 0.642898 26.0002 1.43517 26H24.5648C25.3573 26.0002 25.9998 25.3579 26 24.5654C26 24.5652 26 24.565 26 24.5648V1.43398C25.9996 0.641907 25.3571 -0.000198318 24.5648 4.59478e-08Z" fill="#4267B2"/>
<path d="M14.293 20.4287V13.6611H16.5745L16.9163 11.0122H14.293V9.3251C14.293 8.55993 14.5054 8.03855 15.6026 8.03855H16.9932V5.67574C16.7513 5.64356 15.9212 5.57159 14.9554 5.57159C12.9387 5.57159 11.5586 6.80207 11.5586 9.06274V11.0122H9.28564V13.6611H11.5586V20.4287H14.293Z" fill="white"/>
</svg>
