<svg width="26" height="26" viewBox="0 0 26 26" fill="none" xmlns="http://www.w3.org/2000/svg">
<rect width="26" height="26" rx="5" fill="#720E9E"/>
<path d="M13 0C20.1801 0 26 5.82075 26 13C26 20.1801 20.1801 26 13 26C5.81985 26 0 20.1801 0 13C0 5.82075 5.81994 0 13 0Z" fill="#720E9E"/>
<path d="M20.4149 9.62639L20.4311 9.62342L20.9332 9.03312L20.9086 9.03115L20.9616 8.94311H13.9267L14.1977 9.95962H16.1173L12.8864 13.1163C12.2269 12.1008 10.6816 9.76652 9.6034 8.01552H11.6073V7.29509L11.6347 7.08803L11.6073 7.08408V7H4V8.01552H6.37905C7.30282 8.8209 11.3078 13.9557 11.4538 14.446C11.5125 14.9053 11.5959 17.6158 11.4235 17.8199C11.2159 18.1351 9.0491 17.965 8.66725 17.995L8.65299 18.9905C9.35029 19.0125 11.4423 18.9895 12.1482 18.9895C13.5391 18.9895 15.9751 18.9515 16.318 18.9805L16.3607 18.0379L13.561 17.9939C13.5023 17.5667 13.4378 14.8702 13.4965 14.5761C13.7609 13.7226 18.0567 10.1906 18.4983 10.0577L18.9143 9.95863H20.2123C20.2122 9.95852 20.4149 9.62639 20.4149 9.62639ZM19.3651 16.6712L20.5817 16.7692L22 11.2763C21.7631 11.2673 19.6115 11.0642 19.3319 11.0091L19.3651 16.6712ZM19.1548 17.5517L19.1615 18.8934L19.7773 18.9475L20.4424 18.9965L20.6376 17.6838L19.9364 17.6498C19.9365 17.6498 19.1548 17.5517 19.1548 17.5517Z" fill="white"/>
</svg>
