<svg width="48" height="48" viewBox="0 0 48 48" fill="none" xmlns="http://www.w3.org/2000/svg">
<rect width="48" height="48" rx="7" fill="white"/>
<path d="M36.4407 16.6891V31.081H33.2041V16.6154H36.4164L36.4407 16.6891ZM15.776 31.0813L15.0799 28.9898H10.1109L9.35738 31.0813H5.53857L11.1752 16.6154H14.055L19.6333 31.081H15.776V31.0813ZM25.6454 31.3846C21.7599 31.3846 19.894 28.277 19.894 25.6194C19.894 22.961 21.7602 19.8518 25.6454 19.8518C29.5329 19.8518 31.3984 22.9607 31.3984 25.6194C31.3984 28.2773 29.5329 31.3846 25.6454 31.3846ZM40.3093 31.1835C39.1223 31.1835 38.1587 30.2079 38.1587 29.0081C38.1589 28.4313 38.3856 27.8782 38.7888 27.4703C39.192 27.0624 39.7389 26.8331 40.3093 26.8327C41.4969 26.8327 42.4616 27.8077 42.4616 29.0081C42.4616 30.2079 41.4969 31.1835 40.3093 31.1835ZM11.1165 26.0581H14.1143L12.6147 21.0148L11.1165 26.0581ZM25.6454 22.8827C24.2607 22.8827 23.0888 24.037 23.0888 25.6194C23.0888 27.2021 24.2607 28.354 25.6454 28.354C27.0315 28.354 28.2046 27.2021 28.2046 25.6194C28.2046 24.037 27.0312 22.8827 25.6454 22.8827Z" fill="black"/>
</svg>
