<svg width="48" height="48" viewBox="0 0 48 48" fill="none" xmlns="http://www.w3.org/2000/svg">
<rect width="48" height="48" rx="7" fill="white"/>
<rect width="48" height="48" rx="7" fill="url(#paint0_linear)"/>
<path d="M26.1688 14.7692C24.7465 14.772 23.3506 15.143 22.1245 15.844C20.8983 16.5451 19.8861 17.5509 19.1918 18.7583C18.5941 18.4752 17.9383 18.3277 17.2735 18.3268C16.2316 18.3294 15.2246 18.692 14.432 19.3498C13.6394 20.0076 13.1128 20.9179 12.9461 21.9183C11.8455 22.3665 10.9057 23.1211 10.2447 24.0873C9.58371 25.0535 9.23102 26.1882 9.23096 27.3488C9.23251 28.9098 9.87132 30.4063 11.0069 31.5093C12.1425 32.6123 13.682 33.2315 15.2868 33.2308C15.5408 33.2285 15.7944 33.2108 16.046 33.1775H32.8727C32.9611 33.1837 33.0496 33.1879 33.1381 33.19C33.2225 33.1877 33.3069 33.1836 33.3911 33.1775H33.794V33.1484C35.1641 32.9908 36.4273 32.3474 37.3444 31.3402C38.2614 30.333 38.7685 29.032 38.7694 27.6837V27.6732C38.7662 26.3927 38.3065 25.1534 37.4695 24.1684C36.6324 23.1834 35.4702 22.5143 34.1829 22.2763C34.1064 20.2591 33.2284 18.3495 31.7337 16.9493C30.2389 15.5491 28.244 14.7676 26.1688 14.7692V14.7692Z" fill="url(#paint1_linear)"/>
<path d="M26.1688 14.7692C24.7465 14.772 23.3506 15.143 22.1245 15.844C20.8983 16.5451 19.8861 17.5509 19.1918 18.7583C18.5941 18.4752 17.9383 18.3277 17.2735 18.3268C16.2316 18.3294 15.2246 18.692 14.432 19.3498C13.6394 20.0076 13.1128 20.9179 12.9461 21.9183C11.8455 22.3665 10.9057 23.1211 10.2447 24.0873C9.58371 25.0535 9.23102 26.1882 9.23096 27.3488C9.23251 28.9098 9.87132 30.4063 11.0069 31.5093C12.1425 32.6123 13.682 33.2315 15.2868 33.2308C15.5408 33.2285 15.7944 33.2108 16.046 33.1775H32.8727C32.9611 33.1837 33.0496 33.1879 33.1381 33.19C33.2225 33.1877 33.3069 33.1836 33.3911 33.1775H33.794V33.1484C35.1641 32.9908 36.4273 32.3474 37.3444 31.3402C38.2614 30.333 38.7685 29.032 38.7694 27.6837V27.6732C38.7662 26.3927 38.3065 25.1534 37.4695 24.1684C36.6324 23.1834 35.4702 22.5143 34.1829 22.2763C34.1064 20.2591 33.2284 18.3495 31.7337 16.9493C30.2389 15.5491 28.244 14.7676 26.1688 14.7692V14.7692Z" fill="white"/>
<defs>
<linearGradient id="paint0_linear" x1="48.1457" y1="33.6165" x2="-0.0231084" y2="33.1896" gradientUnits="userSpaceOnUse">
<stop stop-color="#3E82F4"/>
<stop offset="1" stop-color="#93DCF7"/>
</linearGradient>
<linearGradient id="paint1_linear" x1="38.8591" y1="27.6987" x2="9.22037" y2="27.2784" gradientUnits="userSpaceOnUse">
<stop stop-color="#3E82F4"/>
<stop offset="1" stop-color="#93DCF7"/>
</linearGradient>
</defs>
</svg>
