<svg width="48" height="48" viewBox="0 0 48 48" fill="none" xmlns="http://www.w3.org/2000/svg">
<rect width="48" height="48" rx="7" fill="#4267B2"/>
<path d="M27.7163 15.4934V21.2713L29.7578 22.5427C29.8116 22.5582 29.9283 22.5593 29.9821 22.5427L38.7683 16.6838C38.7683 15.9904 38.1143 15.4934 37.7453 15.4934H27.7163Z" fill="white"/>
<path d="M27.7165 23.427L29.5796 24.6928C29.842 24.8836 30.1584 24.6928 30.1584 24.6928C29.8432 24.8836 38.7695 19.0192 38.7695 19.0192V29.6386C38.7695 30.7947 38.0214 31.2795 37.1801 31.2795H27.7153V23.427H27.7165Z" fill="white"/>
<path d="M18.0697 20.7632C17.4349 20.7632 16.929 21.0584 16.5555 21.6475C16.182 22.2366 15.9946 23.0165 15.9946 23.9872C15.9946 24.9724 16.182 25.7512 16.5555 26.3237C16.929 26.8973 17.4192 27.1824 18.0249 27.1824C18.6497 27.1824 19.1454 26.9039 19.5111 26.347C19.8768 25.7901 20.0607 25.0168 20.0607 24.0283C20.0607 22.9976 19.8835 22.1955 19.5279 21.6219C19.1724 21.0495 18.6867 20.7632 18.0697 20.7632Z" fill="white"/>
<path d="M9.23096 12.5591V35.1636L26.6171 38.7692V9.23077L9.23096 12.5591V12.5591ZM20.8651 27.6827C20.1304 28.6391 19.1725 29.1183 17.9902 29.1183C16.8382 29.1183 15.9005 28.6546 15.1748 27.7282C14.4502 26.8007 14.0867 25.5937 14.0867 24.1048C14.0867 22.5328 14.4546 21.2614 15.1916 20.2906C15.9285 19.3199 16.9044 18.834 18.1192 18.834C19.2667 18.834 20.1954 19.2977 20.9032 20.2274C21.6121 21.1571 21.9666 22.3819 21.9666 23.9029C21.9677 25.4661 21.5998 26.7264 20.8651 27.6827Z" fill="white"/>
</svg>
