<svg width="48" height="48" viewBox="0 0 48 48" fill="none" xmlns="http://www.w3.org/2000/svg">
<rect width="48" height="48" rx="7" fill="white"/>
<g clip-path="url(#clip0)">
<path d="M12.1678 35.0769H16.8671V23.6644L10.1538 18.6294V33.063C10.1538 34.1774 11.0567 35.0769 12.1678 35.0769Z" fill="#4285F4"/>
<path d="M32.979 35.0769H37.6783C38.7927 35.0769 39.6923 34.174 39.6923 33.063V18.6294L32.979 23.6644" fill="#34A853"/>
<path d="M32.979 14.9372V23.6645L39.6923 18.6295V15.9442C39.6923 13.4535 36.8492 12.0337 34.8587 13.5274" fill="#FBBC04"/>
<path d="M16.8672 23.6643V14.9371L24.9231 20.979L32.9791 14.9371V23.6643L24.9231 29.7063" fill="#EA4335"/>
<path d="M10.1538 15.9406V18.6259L16.8671 23.6609V14.9336L14.9874 13.5238C12.9935 12.0301 10.1538 13.4499 10.1538 15.9406" fill="#C5221F"/>
</g>
<defs>
<clipPath id="clip0">
<rect width="29.5385" height="22.1538" fill="white" transform="translate(10.1538 12.9231)"/>
</clipPath>
</defs>
</svg>
