<svg width="48" height="48" viewBox="0 0 48 48" fill="none" xmlns="http://www.w3.org/2000/svg">
<rect width="48" height="48" rx="7" fill="#FF7A59"/>
<path d="M27.7192 19.2298V15.7609C28.1776 15.5466 28.5658 15.2066 28.8384 14.7803C29.1111 14.354 29.2571 13.8591 29.2594 13.3531V13.2735C29.2594 11.7981 28.0634 10.6021 26.5882 10.6021H26.5085C25.0331 10.6021 23.8371 11.7981 23.8371 13.2735V13.3531C23.8394 13.8591 23.9855 14.354 24.2581 14.7803C24.5308 15.2066 24.9189 15.5466 25.3774 15.7609V19.2298C24.0598 19.4316 22.819 19.9779 21.7805 20.8134L12.2667 13.4032C12.3346 13.1583 12.3699 12.9064 12.3739 12.6537C12.3751 12.0583 12.1997 11.476 11.8698 10.9804C11.54 10.4847 11.0706 10.098 10.521 9.86923C9.97133 9.64041 9.36619 9.57975 8.78208 9.6949C8.19797 9.81005 7.66114 10.0958 7.23948 10.5161C6.81782 10.9364 6.53028 11.4723 6.41323 12.0561C6.29619 12.6398 6.35489 13.2451 6.58192 13.7955C6.80895 14.3459 7.19411 14.8165 7.68867 15.148C8.18323 15.4794 8.76498 15.6567 9.36033 15.6575C9.88116 15.6551 10.3922 15.516 10.8425 15.2543L20.2109 22.5443C18.4885 25.1461 18.5346 28.5371 20.3269 31.0914L17.4775 33.9416C17.2471 33.868 17.0073 33.8288 16.7654 33.8256C15.4008 33.8267 14.2953 34.9334 14.2957 36.298C14.296 37.6625 15.4022 38.7686 16.7667 38.7689C18.1313 38.7693 19.238 37.6638 19.2392 36.2992C19.236 36.0574 19.1968 35.8174 19.123 35.5872L21.9418 32.7673C24.4605 34.7063 27.9196 34.8733 30.6135 33.1861C33.3072 31.4988 34.6666 28.3134 34.0212 25.2012C33.3757 22.0888 30.8618 19.7068 27.7192 19.2297V19.2298ZM26.5508 30.6389C26.0301 30.6529 25.5118 30.5624 25.0265 30.3728C24.5413 30.1832 24.099 29.8983 23.7257 29.5349C23.3525 29.1716 23.0558 28.7371 22.8532 28.2571C22.6506 27.7772 22.5462 27.2615 22.5462 26.7406C22.5462 26.2196 22.6506 25.704 22.8532 25.224C23.0558 24.7441 23.3525 24.3096 23.7257 23.9462C24.099 23.5829 24.5413 23.298 25.0265 23.1084C25.5118 22.9187 26.0301 22.8283 26.5508 22.8423C28.6494 22.9158 30.313 24.6378 30.3141 26.7378C30.3151 28.8375 28.6533 30.5613 26.5547 30.6369" fill="white"/>
</svg>
