<svg width="48" height="48" viewBox="0 0 48 48" fill="none" xmlns="http://www.w3.org/2000/svg">
<rect width="48" height="48" rx="5" fill="#00A0E9"/>
<path d="M31.8904 8H16.1093C12.7352 8 10 10.7197 10 14.0745V29.7659C10 33.1203 12.7349 35.8401 16.1093 35.8401H21.3617L23.9727 40L26.5845 35.8401H31.8904C35.2643 35.8401 38 33.1203 38 29.7659V14.0742C38 10.7197 35.2643 8 31.8904 8V8Z" fill="white"/>
<path d="M20.6238 23.4363H22.9301V21.1846H25.0686V23.4363H27.3747V21.1846H29.6389V18.8919H27.3747V16.7657H29.6389V14.4727H27.3747V12.2213H25.0686V14.4727H22.9304V12.2213H20.624V14.4727H18.3594V16.7657H20.624V18.8919H18.3594V21.1846H20.6238V23.4363ZM22.9304 16.7657H25.0686V18.8919H22.9304V16.7657Z" fill="#00A0E9"/>
<path d="M34.2735 24.1912C34.0664 24.0557 33.8701 23.9886 33.6884 23.9676C32.8361 23.8748 32.3135 24.4392 31.8987 25.0828C31.4408 25.793 28.7977 28.9038 24.0089 29.023C19.2202 28.9038 16.5773 25.793 16.1191 25.0828C15.7043 24.4392 15.2 23.8758 14.3295 23.9676C14.1478 23.9886 13.9517 24.0557 13.7443 24.1912C13.3716 24.4351 13.2296 24.8491 13.2419 25.138C13.2419 25.5381 13.439 25.9095 13.439 25.9095C13.439 25.9095 16.4835 31.6106 23.7119 31.6106C23.8119 31.6106 23.9107 31.6094 24.0089 31.6077C24.1072 31.6094 24.2059 31.6106 24.3062 31.6106C31.5346 31.6106 34.5791 25.9095 34.5791 25.9095C34.5791 25.9095 34.7492 25.6658 34.7784 25.1375C34.7917 24.7786 34.6463 24.4351 34.2735 24.1912Z" fill="#00A0E9"/>
<path d="M22.9307 16.7657H25.0689V18.892H22.9307V16.7657Z" fill="white"/>
<rect width="48" height="48" rx="5" stroke="white"/>
</svg>
