<svg width="26" height="26" viewBox="0 0 26 26" fill="none" xmlns="http://www.w3.org/2000/svg">
<rect width="26" height="26" rx="5" fill="#007AB9"/>
<path d="M19.1325 14.3647V19.0357H16.4243V14.6777C16.4243 13.5835 16.0333 12.8362 15.0528 12.8362C14.3045 12.8362 13.86 13.3393 13.6637 13.8264C13.5924 14.0005 13.574 14.2423 13.574 14.4865V19.0355H10.8657C10.8657 19.0355 10.902 11.6545 10.8657 10.8905H13.5742V12.0447C13.5688 12.0538 13.5611 12.0627 13.5562 12.0714H13.5742V12.0447C13.9341 11.4909 14.576 10.6992 16.015 10.6992C17.7967 10.6992 19.1325 11.8634 19.1325 14.3647ZM8.03251 6.96429C7.1061 6.96429 6.5 7.57241 6.5 8.37138C6.5 9.15339 7.08852 9.77908 7.99696 9.77908H8.01453C8.95912 9.77908 9.54644 9.15339 9.54644 8.37138C9.52846 7.57241 8.95912 6.96429 8.03251 6.96429ZM6.66097 19.0357H9.3683V10.8905H6.66097V19.0357Z" fill="#F1F2F2"/>
</svg>
