<svg width="26" height="26" viewBox="0 0 26 26" fill="none" xmlns="http://www.w3.org/2000/svg">
<rect width="26" height="26" rx="5" fill="url(#paint0_linear)"/>
<path d="M13.0004 4.65094C9.57734 4.65094 6.32679 4.34668 5.08521 7.5306C4.57236 8.84562 4.64684 10.5534 4.64684 12.9989C4.64684 15.1447 4.57802 17.1615 5.08521 18.4662C6.32397 21.652 9.60091 21.3468 12.9985 21.3468C16.2764 21.3468 19.6561 21.6878 20.9128 18.4662C21.4266 17.138 21.3512 15.4556 21.3512 12.9989C21.3512 9.73768 21.5312 7.63234 19.9484 6.05168C18.3457 4.4503 16.1784 4.65094 12.9966 4.65094H13.0004ZM12.2519 6.1553C19.3922 6.14399 20.301 5.35084 19.7994 16.3693C19.6212 20.2663 16.6516 19.8386 13.0014 19.8386C6.34565 19.8386 6.15427 19.6484 6.15427 12.9951C6.15427 6.26457 6.6822 6.15906 12.2519 6.15341V6.1553ZM17.4596 7.54096C16.9062 7.54096 16.4574 7.98935 16.4574 8.5423C16.4574 9.09525 16.9062 9.54363 17.4596 9.54363C18.0129 9.54363 18.4617 9.09525 18.4617 8.5423C18.4617 7.98935 18.0129 7.54096 17.4596 7.54096ZM13.0004 8.71186C10.6313 8.71186 8.71097 10.6316 8.71097 12.9989C8.71097 15.3661 10.6313 17.2849 13.0004 17.2849C15.3695 17.2849 17.2889 15.3661 17.2889 12.9989C17.2889 10.6316 15.3695 8.71186 13.0004 8.71186ZM13.0004 10.2162C16.6818 10.2162 16.6865 15.7815 13.0004 15.7815C9.31998 15.7815 9.31432 10.2162 13.0004 10.2162Z" fill="white"/>
<defs>
<linearGradient id="paint0_linear" x1="1.74568" y1="24.3061" x2="25.8365" y2="3.45173" gradientUnits="userSpaceOnUse">
<stop stop-color="#FFDD55"/>
<stop offset="0.5" stop-color="#FF543E"/>
<stop offset="1" stop-color="#C837AB"/>
</linearGradient>
</defs>
</svg>
