<svg width="48" height="48" viewBox="0 0 48 48" fill="none" xmlns="http://www.w3.org/2000/svg">
<rect width="48" height="48" rx="5" fill="#2CCF54"/>
<path d="M40 21.1405C40 13.8948 32.8227 8.00003 23.9998 8.00003C15.1782 8.00003 8 13.8948 8 21.1405C8 27.6362 13.6921 33.0762 21.3811 34.1049C21.9022 34.2185 22.6113 34.4526 22.7908 34.9033C22.9521 35.3128 22.8963 35.9541 22.8423 36.3675C22.8423 36.3675 22.6546 37.5102 22.6141 37.7535C22.5445 38.163 22.2926 39.3547 23.9998 38.6264C25.7077 37.8982 33.2144 33.1355 36.5712 29.2252C38.89 26.6519 40 24.0404 40 21.1405Z" fill="white"/>
<path d="M20.7478 17.6278H19.627C19.4551 17.6278 19.3154 17.7689 19.3154 17.9422V24.9897C19.3154 25.1633 19.4551 25.3041 19.627 25.3041H20.7478C20.9197 25.3041 21.0591 25.1633 21.0591 24.9897V17.9422C21.0591 17.7689 20.9197 17.6278 20.7478 17.6278Z" fill="#2CCF54"/>
<path d="M28.4735 17.6278H27.3512C27.1792 17.6278 27.0396 17.7689 27.0396 17.9422V22.1291L23.8448 17.7676C23.7857 17.6781 23.6898 17.6337 23.5853 17.6278H22.4633C22.2912 17.6278 22.1514 17.7689 22.1514 17.9422V24.9897C22.1514 25.1633 22.2912 25.3041 22.4633 25.3041H23.5853C23.7577 25.3041 23.8972 25.1633 23.8972 24.9897V20.804L27.096 25.1711C27.1535 25.2533 27.251 25.3041 27.3512 25.3041H28.4735C28.6459 25.3041 28.7852 25.1633 28.7852 24.9897V17.9422C28.7852 17.7689 28.6459 17.6278 28.4735 17.6278Z" fill="#2CCF54"/>
<path d="M18.044 23.5393H14.9946V17.9425C14.9946 17.7686 14.855 17.6275 14.6833 17.6275H13.5607C13.3886 17.6275 13.249 17.7686 13.249 17.9425V24.9888C13.249 25.1598 13.388 25.3041 13.5603 25.3041H18.044C18.2161 25.3041 18.355 25.1627 18.355 24.9888V23.8543C18.355 23.6803 18.2161 23.5393 18.044 23.5393Z" fill="#2CCF54"/>
<path d="M34.671 19.3923C34.843 19.3923 34.982 19.2516 34.982 19.0773V17.9428C34.982 17.7689 34.843 17.6275 34.671 17.6275H30.1876C30.0154 17.6275 29.876 17.7715 29.876 17.9425V24.9891C29.876 25.1596 30.015 25.3041 30.187 25.3041H34.671C34.843 25.3041 34.982 25.1627 34.982 24.9891V23.8543C34.982 23.6806 34.843 23.5393 34.671 23.5393H31.6218V22.348H34.671C34.843 22.348 34.982 22.207 34.982 22.033V20.8985C34.982 20.7246 34.843 20.5832 34.671 20.5832H31.6218V19.3923H34.671Z" fill="#2CCF54"/>
<rect width="48" height="48" rx="5" stroke="white"/>
</svg>
