<svg width="189" height="38" viewBox="0 0 189 38" fill="none" xmlns="http://www.w3.org/2000/svg">
<path fill-rule="evenodd" clip-rule="evenodd" d="M33.4091 0H23.8636C21.3182 0 18.9318 1.28 17.5 3.2C16.0682 1.28 13.6818 0 11.1364 0H1.59091C0.636364 0 0 0.64 0 1.6V25.6C0 26.56 0.636364 27.2 1.59091 27.2H12.7273C14.4773 27.2 15.9091 28.64 15.9091 30.4C15.9091 31.36 16.5455 32 17.5 32C18.4545 32 19.0909 31.36 19.0909 30.4C19.0909 28.64 20.5227 27.2 22.2727 27.2H33.4091C34.3636 27.2 35 26.56 35 25.6V1.6C35 0.64 34.3636 0 33.4091 0ZM15.9098 24.8C14.9552 24.32 13.8416 24 12.728 24H3.1825V3.19995H11.137C13.8416 3.19995 15.9098 5.27995 15.9098 7.99995V24.8ZM22.2729 24H31.8184V3.19995H23.8638C21.1593 3.19995 19.0911 5.27995 19.0911 7.99995V24.8C20.0456 24.32 21.1593 24 22.2729 24Z" fill="url(#paint0_linear)"/>
<path d="M56.8086 28.8848C55.3867 28.8848 53.9284 28.1647 52.4336 26.7246C50.793 25.1022 49.9727 22.9466 49.9727 20.2578C49.9727 18.4531 50.3418 16.4753 51.0801 14.3242C51.4355 13.3672 51.8503 12.4375 52.3242 11.5352C52.9258 10.4049 53.6641 9.26107 54.5391 8.10352C55.9518 6.27148 57.5378 4.71289 59.2969 3.42773C61.7487 1.70508 63.8906 0.84375 65.7227 0.84375C67.2721 0.84375 68.7031 1.49544 70.0156 2.79883C70.444 3.27279 70.7585 3.70573 70.959 4.09766C71.0319 4.23438 71.1094 4.53516 71.1914 5C71.2096 5.15495 71.2188 5.30078 71.2188 5.4375C71.2188 5.7474 71.0729 6.16667 70.7812 6.69531C70.1888 7.625 69.373 8.27669 68.334 8.65039C68.1608 8.71419 68.0013 8.74609 67.8555 8.74609C67.5638 8.74609 67.3633 8.65039 67.2539 8.45898C67.3086 8.27669 67.5182 7.87565 67.8828 7.25586C68.5573 6.00716 68.8945 4.94987 68.8945 4.08398V3.94727C68.8945 3.58268 68.7715 3.35938 68.5254 3.27734C68.3613 3.22266 68.1335 3.19531 67.8418 3.19531C67.778 3.19531 67.7415 3.19076 67.7324 3.18164L67.6367 3.19531C65.6497 3.19531 63.2344 4.39388 60.3906 6.79102C58.8867 8.13997 57.597 9.57552 56.5215 11.0977C55.7559 12.2005 55.1999 13.112 54.8535 13.832C54.3613 14.7435 53.9102 15.8646 53.5 17.1953C52.9714 18.9362 52.707 20.6042 52.707 22.1992C52.7161 24.8698 53.5592 26.556 55.2363 27.2578C55.6647 27.431 56.1204 27.5176 56.6035 27.5176H56.7676C58.873 27.5176 61.5482 25.9043 64.793 22.6777C65.276 22.2129 66.3379 21.1328 67.9785 19.4375L68.9492 18.4941C69.5052 17.9928 69.9062 17.7422 70.1523 17.7422C70.2617 17.7513 70.3164 17.806 70.3164 17.9062C70.3164 18.1888 69.8424 18.7904 68.8945 19.7109C68.1471 20.5039 67.304 21.4199 66.3652 22.459C64.4421 24.5827 63.0521 25.9681 62.1953 26.6152C61.4661 27.1803 60.8555 27.6042 60.3633 27.8867C59.8073 28.2148 59.2285 28.4701 58.627 28.6523C58.0254 28.8073 57.4193 28.8848 56.8086 28.8848ZM70.4395 26.3369C69.8242 26.3369 69.1455 25.9805 68.4033 25.2676C67.9834 24.8574 67.7246 24.3984 67.627 23.8906C67.5684 23.6074 67.5391 23.2754 67.5391 22.8945C67.5391 22.3184 67.6904 21.6836 67.9932 20.9902L68.0078 20.8584C68.0078 20.8193 67.9297 20.6973 67.7734 20.4922C67.7246 20.3945 67.7002 20.292 67.7002 20.1846C67.7002 19.8037 68.1299 19.1055 68.9893 18.0898C69.4092 17.6406 69.7607 17.3232 70.0439 17.1377C70.6299 16.7666 71.2988 16.5811 72.0508 16.5811C73.0273 16.5811 73.8623 16.8984 74.5557 17.5332C75.0537 18.0801 75.3027 18.7637 75.3027 19.584V19.7451C75.3027 20.9072 74.8584 22.2256 73.9697 23.7002C73.6963 24.1104 73.3447 24.5547 72.915 25.0332C72.0264 25.9023 71.2012 26.3369 70.4395 26.3369ZM70.3369 25.6338C70.708 25.5459 71.1377 25.3262 71.626 24.9746C72.1143 24.5547 72.4268 24.2373 72.5635 24.0225C72.876 23.6221 73.1689 23.1631 73.4424 22.6455C74.0479 21.3564 74.3506 20.2334 74.3506 19.2764C74.3408 18.4072 74.126 17.875 73.7061 17.6797C73.6279 17.6504 73.5596 17.6357 73.501 17.6357C73.2178 17.665 72.8711 17.8945 72.4609 18.3242C72.1582 18.666 72.0068 18.9102 72.0068 19.0566C72.0068 19.1152 72.0801 19.2959 72.2266 19.5986C72.2559 19.6768 72.2754 19.7549 72.2852 19.833C72.2852 20.0674 72.041 20.6045 71.5527 21.4443C71.2012 22.1182 70.9277 22.7383 70.7324 23.3047C70.459 24.0664 70.3223 24.8428 70.3223 25.6338H70.3369ZM82.0703 26C81.7383 26 81.3428 25.79 80.8838 25.3701C80.4639 24.8721 80.2539 24.335 80.2539 23.7588C80.2539 23.0166 80.6104 21.6201 81.3232 19.5693C81.5088 18.9932 81.6016 18.6562 81.6016 18.5586C81.4355 18.5879 80.957 19.0322 80.166 19.8916C79.3457 20.8584 78.8672 21.5371 78.7305 21.9277C78.584 22.2793 78.3545 23.0508 78.042 24.2422C77.7881 25.0918 77.5635 25.5947 77.3682 25.751C77.2314 25.8486 77.1387 25.8975 77.0898 25.8975C76.7285 25.8975 76.3184 25.6582 75.8594 25.1797C75.5566 24.7891 75.4053 24.3594 75.4053 23.8906C75.4053 23.6172 75.6934 22.3135 76.2695 19.9795C76.8555 17.6357 77.2754 16.0391 77.5293 15.1895C77.6465 14.8672 77.7783 14.7061 77.9248 14.7061C78.1201 14.7061 78.3594 14.7939 78.6426 14.9697C79.209 15.4092 79.5605 15.8682 79.6973 16.3467C79.7266 16.4834 79.7412 16.6348 79.7412 16.8008C79.7412 17.3281 79.6436 17.9873 79.4482 18.7783C79.4482 18.9053 79.4531 18.9688 79.4629 18.9688C79.6875 18.7539 79.9414 18.4658 80.2246 18.1045C81.0742 17.1768 81.6846 16.7129 82.0557 16.7129H82.1582C82.4609 16.7129 82.8516 16.8984 83.3301 17.2695C83.7109 17.6309 83.9355 17.9092 84.0039 18.1045C84.1211 18.3291 84.1797 18.6172 84.1797 18.9688C84.1797 19.8281 83.7988 21.415 83.0371 23.7295C82.9102 24.1494 82.8467 24.3936 82.8467 24.4619L82.876 24.4766C83.0713 24.3691 83.3545 24.1299 83.7256 23.7588C84.4678 22.9678 85.1123 22.1914 85.6592 21.4297C86.1475 20.7363 86.6553 20.0918 87.1826 19.4961C87.3877 19.2715 87.5293 19.1592 87.6074 19.1592C87.7441 19.2373 87.8125 19.3105 87.8125 19.3789V19.4375C87.8125 19.5645 87.2168 20.4287 86.0254 22.0303C85.2637 23.0654 84.4434 24.0518 83.5645 24.9893C82.9785 25.5459 82.6172 25.8438 82.4805 25.8828C82.3438 25.9609 82.207 26 82.0703 26ZM87.1387 26.1904C86.8359 26.1904 86.4307 25.9609 85.9229 25.502C85.4932 24.9453 85.2783 24.3594 85.2783 23.7441C85.2783 22.875 85.8838 20.2139 87.0947 15.7607L87.4609 14.3838C87.0703 14.3643 86.7041 14.3545 86.3623 14.3545C85.2881 14.3545 84.6191 14.4912 84.3555 14.7646C84.2871 14.8623 84.2529 14.9404 84.2529 14.999C84.2529 15.0283 84.2871 15.1406 84.3555 15.3359C84.3555 15.4141 84.3457 15.4531 84.3262 15.4531C84.209 15.4531 84.0771 15.2578 83.9307 14.8672C83.8623 14.6621 83.8281 14.4277 83.8281 14.1641C83.8281 13.1973 84.9609 12.7139 87.2266 12.7139H87.9004C88.5938 10.0869 89.082 8.29004 89.3652 7.32324C89.6484 6.40527 89.8975 5.69238 90.1123 5.18457C90.249 4.8916 90.4248 4.74512 90.6396 4.74512C90.8936 4.74512 91.2256 4.90137 91.6357 5.21387C92.2021 5.73145 92.4854 6.20508 92.4854 6.63477C92.4854 6.9668 92.1533 8.38281 91.4893 10.8828L90.9619 12.9189L91.6943 12.9922C92.4854 13.041 93.1592 13.0654 93.7158 13.0654C95.6787 13.0654 96.8896 12.7725 97.3486 12.1865L97.4512 12.1426C97.5879 12.1426 97.7002 12.4893 97.7881 13.1826V13.373C97.7881 13.8809 97.4609 14.291 96.8066 14.6035C96.2207 14.8477 95.3711 14.9697 94.2578 14.9697C93.6035 14.9697 92.3535 14.8672 90.5078 14.6621C89.2871 19.3691 88.4473 22.6553 87.9883 24.5205C87.9785 24.5205 87.9736 24.5547 87.9736 24.623C88.5498 24.2715 89.2578 23.5537 90.0977 22.4697C90.5664 21.8936 91.1084 21.1758 91.7236 20.3164C92.0264 19.9355 92.3535 19.5742 92.7051 19.2324C92.7539 19.1934 92.7979 19.1689 92.8369 19.1592C92.9834 19.2471 93.0566 19.335 93.0566 19.4229C93.0566 19.5596 92.71 20.0967 92.0166 21.0342C90.4932 23.1826 89.2188 24.7109 88.1934 25.6191C87.8027 26 87.4512 26.1904 87.1387 26.1904ZM93.0273 26.1172C92.5 26.1172 92.0215 25.8438 91.5918 25.2969C90.9863 24.6133 90.6836 23.8125 90.6836 22.8945C90.6836 21.8008 91.1133 20.5361 91.9727 19.1006C92.2363 18.6514 92.6172 18.1631 93.1152 17.6357C94.2285 16.4346 95.2979 15.834 96.3232 15.834H96.4844C97.4414 15.834 98.291 16.3271 99.0332 17.3135C99.2383 17.6357 99.3408 17.8848 99.3408 18.0605C99.3408 18.2852 99.165 18.4805 98.8135 18.6465H98.7256C98.667 18.6465 98.6035 18.5732 98.5352 18.4268C98.4473 18.3291 98.3154 18.2803 98.1396 18.2803C97.5537 18.2803 96.8506 18.627 96.0303 19.3203C95.2881 20.0137 94.6777 20.8145 94.1992 21.7227C93.8672 22.3281 93.5547 23.0605 93.2617 23.9199C93.125 24.3496 93.0566 24.6279 93.0566 24.7549C93.252 24.7549 93.7793 24.3594 94.6387 23.5684C95.2344 22.9531 95.708 22.3965 96.0596 21.8984C96.4404 21.3223 96.709 20.8389 96.8652 20.4482C97.1387 19.6279 97.3926 19.1006 97.627 18.8662C97.7734 18.749 97.9199 18.6904 98.0664 18.6904H98.1836C98.5059 18.6904 98.8965 18.9004 99.3555 19.3203C99.7363 19.7305 99.9268 20.1016 99.9268 20.4336C99.9268 20.9219 99.5312 22.0107 98.7402 23.7002C98.418 24.335 98.2471 24.7158 98.2275 24.8428C98.3643 24.8428 98.8574 24.3838 99.707 23.4658C100.508 22.5479 101.211 21.6738 101.816 20.8438C102.207 20.248 102.598 19.7109 102.988 19.2324C103.223 18.9395 103.398 18.793 103.516 18.793C103.691 18.793 103.779 18.8516 103.779 18.9688V19.042C103.779 19.4521 102.671 21.0684 100.454 23.8906C99.3408 25.2773 98.4961 25.9707 97.9199 25.9707C97.5879 25.9707 97.2021 25.7754 96.7627 25.3848C96.3818 24.9941 96.1914 24.5107 96.1914 23.9346C96.1914 23.8076 96.2061 23.6221 96.2354 23.3779C95.8838 23.8467 95.4834 24.3252 95.0342 24.8135C94.3994 25.4482 94.0039 25.8047 93.8477 25.8828C93.5938 26.0391 93.3203 26.1172 93.0273 26.1172ZM104.087 26.1758C103.091 26.1758 102.251 25.5605 101.567 24.3301C101.294 23.793 101.157 23.2607 101.157 22.7334C101.157 21.4346 101.909 19.9355 103.413 18.2363C103.97 17.6602 104.341 17.3184 104.526 17.2109C105.327 16.6055 105.991 16.3027 106.519 16.3027H106.636C107.163 16.3027 107.729 16.5908 108.335 17.167C108.784 17.6455 109.009 18.124 109.009 18.6025V18.6904C109.009 18.9639 108.833 19.2617 108.481 19.584C108.169 19.9062 107.92 20.0674 107.734 20.0674C107.637 20.0674 107.573 19.9893 107.544 19.833C107.544 19.7158 107.612 19.3691 107.749 18.793C107.778 18.666 107.793 18.5439 107.793 18.4268C107.783 18.3389 107.759 18.2949 107.72 18.2949C107.241 18.373 106.636 18.7148 105.903 19.3203C105.239 19.9648 104.824 20.4189 104.658 20.6826C104.209 21.2295 103.867 21.7129 103.633 22.1328C103.125 23.0508 102.871 23.7686 102.871 24.2861C102.871 24.7256 103.237 24.9453 103.97 24.9453C104.751 24.9453 105.547 24.6426 106.357 24.0371C106.895 23.6855 107.729 22.9922 108.862 21.957C109.595 21.2441 110.405 20.4434 111.294 19.5547C111.626 19.252 111.836 19.0762 111.924 19.0273C112.041 19.0957 112.104 19.1641 112.114 19.2324C112.114 19.3594 111.685 19.8574 110.825 20.7266C109.937 21.6641 109.185 22.4893 108.569 23.2021C107.759 24.1006 107.114 24.7402 106.636 25.1211C105.835 25.7559 105.181 26.0928 104.673 26.1318C104.507 26.1611 104.312 26.1758 104.087 26.1758ZM110.942 28.6514H110.898C110.566 28.6514 110.083 28.4072 109.448 27.9189C108.765 27.3232 108.413 26.7666 108.394 26.249V26.1465C108.394 25.4629 108.647 24.1787 109.155 22.2939C109.653 20.4092 110.239 18.2314 110.913 15.7607L111.279 14.3838C110.85 14.3643 110.454 14.3545 110.093 14.3545C109.019 14.3545 108.35 14.4912 108.086 14.7646C108.018 14.8623 107.983 14.9404 107.983 14.999C107.983 15.0283 108.018 15.1406 108.086 15.3359C108.086 15.4141 108.076 15.4531 108.057 15.4531C107.939 15.4531 107.808 15.2578 107.661 14.8672C107.593 14.6621 107.559 14.4277 107.559 14.1641C107.559 13.1973 108.691 12.7139 110.957 12.7139H111.719C112.412 10.0869 112.9 8.29004 113.184 7.32324C113.467 6.40527 113.716 5.69238 113.931 5.18457C114.067 4.8916 114.243 4.74512 114.458 4.74512C114.712 4.74512 115.044 4.90137 115.454 5.21387C116.021 5.73145 116.304 6.20508 116.304 6.63477C116.304 6.9668 115.972 8.38281 115.308 10.8828L114.78 12.9336C115.708 13.0215 116.597 13.0654 117.446 13.0654C119.409 13.0654 120.62 12.7725 121.079 12.1865L121.182 12.1426C121.318 12.1426 121.431 12.4893 121.519 13.1826V13.373C121.519 13.8809 121.191 14.291 120.537 14.6035C119.951 14.8477 119.102 14.9697 117.988 14.9697C117.344 14.9697 116.123 14.8721 114.326 14.6768L111.572 25.2676C111.377 26.1758 111.279 26.8936 111.279 27.4209L111.294 27.9482C111.294 28.3682 111.25 28.583 111.162 28.5928C111.123 28.6318 111.05 28.6514 110.942 28.6514ZM129.607 31.6328H129.334C128.65 31.6328 127.857 31.4095 126.955 30.9629C125.852 30.3431 125.068 29.4225 124.604 28.2012C124.357 27.472 124.234 26.7474 124.234 26.0273C124.234 24.4049 124.471 22.8008 124.945 21.2148C125.328 20.0846 125.761 19.5195 126.244 19.5195C126.463 19.5195 126.609 19.6243 126.682 19.834L126.695 19.9844C126.695 20.0755 126.563 20.4128 126.299 20.9961C126.135 21.3333 125.957 21.903 125.766 22.7051C125.538 23.8353 125.424 24.8561 125.424 25.7676C125.424 27.0983 125.624 28.0781 126.025 28.707C126.253 28.944 126.673 29.14 127.283 29.2949C127.611 29.3496 127.93 29.377 128.24 29.377C129.963 29.377 131.822 28.6888 133.818 27.3125C134.311 26.9753 134.894 26.5059 135.568 25.9043C136.325 25.166 136.785 24.6784 136.949 24.4414C138.371 22.7188 139.082 21.1829 139.082 19.834C139.082 19.1868 138.891 18.6855 138.508 18.3301C138.253 18.0658 138.002 17.8516 137.756 17.6875C136.981 17.2227 136.174 16.9902 135.336 16.9902C134.525 16.9902 133.358 17.2546 131.836 17.7832C131.49 17.8835 131.316 17.9427 131.316 17.9609C130.177 21.5885 129.284 24.6009 128.637 26.998C128.536 27.2533 128.418 27.3809 128.281 27.3809C128.053 27.3809 127.757 27.112 127.393 26.5742C127.238 26.2917 127.16 25.9681 127.16 25.6035C127.16 24.8197 127.493 22.8783 128.158 19.7793L128.432 18.6855H128.418C127.935 18.7767 127.543 18.8223 127.242 18.8223C126.704 18.8223 126.436 18.5215 126.436 17.9199C126.436 17.5098 126.782 17.1771 127.475 16.9219C128.669 16.375 129.288 16.0879 129.334 16.0605C130.036 13.6999 130.555 12.0775 130.893 11.1934C131.102 10.6738 131.307 10.4141 131.508 10.4141C131.745 10.4141 132.032 10.6283 132.369 11.0566C132.506 11.2572 132.574 11.5807 132.574 12.0273C132.574 12.7565 132.451 13.6862 132.205 14.8164C132.934 14.5339 134.338 14.0052 136.416 13.2305C139.506 11.9909 141.753 10.8379 143.156 9.77148C143.475 9.55273 143.881 9.19271 144.373 8.69141C144.838 8.1901 145.148 7.72526 145.303 7.29688C145.458 6.93229 145.535 6.61784 145.535 6.35352C145.535 5.97982 145.294 5.61979 144.811 5.27344C144.109 4.73568 143.17 4.30273 141.994 3.97461C141.001 3.67383 139.825 3.52344 138.467 3.52344H137.373C136.115 3.52344 135.094 3.60547 134.311 3.76953C133.372 3.95182 132.488 4.17057 131.658 4.42578C130.273 4.89062 129.152 5.37826 128.295 5.88867C127.721 6.2168 127.124 6.63607 126.504 7.14648C124.9 8.55924 124.098 10.013 124.098 11.5078C124.098 12.1732 124.339 12.916 124.822 13.7363C124.932 13.9824 124.986 14.1556 124.986 14.2559C124.986 14.3014 124.973 14.3288 124.945 14.3379C124.754 14.3379 124.398 14.1009 123.879 13.627C122.667 12.3874 122.061 11.0111 122.061 9.49805C122.061 8.48633 122.411 7.48372 123.113 6.49023C123.724 5.62435 124.549 4.81771 125.588 4.07031C126.91 3.14974 128.34 2.4388 129.881 1.9375C132.132 1.20833 134.356 0.84375 136.553 0.84375C139.351 0.84375 141.853 1.43164 144.059 2.60742C144.414 2.83529 144.865 3.20443 145.412 3.71484C146.688 4.94531 147.326 6.2168 147.326 7.5293V7.80273C147.326 9.10612 146.761 10.2773 145.631 11.3164C145.102 11.8177 144.592 12.2461 144.1 12.6016C142.423 13.7682 140.354 14.8073 137.893 15.7188C138.148 15.901 138.471 16.1927 138.863 16.5938C140.23 18.125 140.914 19.7474 140.914 21.4609C140.914 23.5664 139.784 25.7539 137.523 28.0234C137.505 28.0234 137.378 28.1419 137.141 28.3789C135.309 29.9648 133.536 30.9766 131.822 31.4141C131.713 31.4596 131.316 31.5143 130.633 31.5781C130.204 31.6146 129.863 31.6328 129.607 31.6328ZM145.098 26.3369C144.482 26.3369 143.804 25.9805 143.062 25.2676C142.642 24.8574 142.383 24.3984 142.285 23.8906C142.227 23.6074 142.197 23.2754 142.197 22.8945C142.197 22.3184 142.349 21.6836 142.651 20.9902L142.666 20.8584C142.666 20.8193 142.588 20.6973 142.432 20.4922C142.383 20.3945 142.358 20.292 142.358 20.1846C142.358 19.8037 142.788 19.1055 143.647 18.0898C144.067 17.6406 144.419 17.3232 144.702 17.1377C145.288 16.7666 145.957 16.5811 146.709 16.5811C147.686 16.5811 148.521 16.8984 149.214 17.5332C149.712 18.0801 149.961 18.7637 149.961 19.584V19.7451C149.961 20.9072 149.517 22.2256 148.628 23.7002C148.354 24.1104 148.003 24.5547 147.573 25.0332C146.685 25.9023 145.859 26.3369 145.098 26.3369ZM144.995 25.6338C145.366 25.5459 145.796 25.3262 146.284 24.9746C146.772 24.5547 147.085 24.2373 147.222 24.0225C147.534 23.6221 147.827 23.1631 148.101 22.6455C148.706 21.3564 149.009 20.2334 149.009 19.2764C148.999 18.4072 148.784 17.875 148.364 17.6797C148.286 17.6504 148.218 17.6357 148.159 17.6357C147.876 17.665 147.529 17.8945 147.119 18.3242C146.816 18.666 146.665 18.9102 146.665 19.0566C146.665 19.1152 146.738 19.2959 146.885 19.5986C146.914 19.6768 146.934 19.7549 146.943 19.833C146.943 20.0674 146.699 20.6045 146.211 21.4443C145.859 22.1182 145.586 22.7383 145.391 23.3047C145.117 24.0664 144.98 24.8428 144.98 25.6338H144.995ZM153.242 26.3369C152.627 26.3369 151.948 25.9805 151.206 25.2676C150.786 24.8574 150.527 24.3984 150.43 23.8906C150.371 23.6074 150.342 23.2754 150.342 22.8945C150.342 22.3184 150.493 21.6836 150.796 20.9902L150.811 20.8584C150.811 20.8193 150.732 20.6973 150.576 20.4922C150.527 20.3945 150.503 20.292 150.503 20.1846C150.503 19.8037 150.933 19.1055 151.792 18.0898C152.212 17.6406 152.563 17.3232 152.847 17.1377C153.433 16.7666 154.102 16.5811 154.854 16.5811C155.83 16.5811 156.665 16.8984 157.358 17.5332C157.856 18.0801 158.105 18.7637 158.105 19.584V19.7451C158.105 20.9072 157.661 22.2256 156.772 23.7002C156.499 24.1104 156.147 24.5547 155.718 25.0332C154.829 25.9023 154.004 26.3369 153.242 26.3369ZM153.14 25.6338C153.511 25.5459 153.94 25.3262 154.429 24.9746C154.917 24.5547 155.229 24.2373 155.366 24.0225C155.679 23.6221 155.972 23.1631 156.245 22.6455C156.851 21.3564 157.153 20.2334 157.153 19.2764C157.144 18.4072 156.929 17.875 156.509 17.6797C156.431 17.6504 156.362 17.6357 156.304 17.6357C156.021 17.665 155.674 17.8945 155.264 18.3242C154.961 18.666 154.81 18.9102 154.81 19.0566C154.81 19.1152 154.883 19.2959 155.029 19.5986C155.059 19.6768 155.078 19.7549 155.088 19.833C155.088 20.0674 154.844 20.6045 154.355 21.4443C154.004 22.1182 153.73 22.7383 153.535 23.3047C153.262 24.0664 153.125 24.8428 153.125 25.6338H153.14ZM161.826 22.0889C162.031 22.0889 162.427 21.9961 163.013 21.8105C163.813 21.5273 164.59 20.8584 165.342 19.8037C165.723 19.2471 166.001 18.749 166.177 18.3096C166.284 18.0654 166.338 17.9043 166.338 17.8262C166.328 17.7969 166.304 17.7822 166.265 17.7822C165.972 17.8311 165.337 18.2559 164.36 19.0566C163.745 19.6523 163.301 20.126 163.027 20.4775C162.314 21.3174 161.914 21.8496 161.826 22.0742V22.0889ZM175.405 34.7012C177.866 34.6035 179.365 34.501 179.902 34.3936C180.84 34.2568 181.611 34.1006 182.217 33.9248C183.291 33.6221 184.16 33.2949 184.824 32.9434C185.254 32.709 185.698 32.4062 186.157 32.0352C186.714 31.4785 186.992 31.0977 186.992 30.8926C186.934 30.7363 186.719 30.5605 186.348 30.3652C185.85 30.0918 185.264 29.8379 184.59 29.6035C184.072 29.4375 183.408 29.2715 182.598 29.1055C181.924 28.9688 180.591 28.9004 178.599 28.9004C176.538 28.9004 174.8 29.0225 173.384 29.2666C172.446 29.3936 170.205 29.7158 166.66 30.2334C168.75 32.9092 171.001 34.374 173.413 34.6279C174.263 34.6768 174.927 34.7012 175.405 34.7012ZM175.61 37.5283C174.731 37.5283 174.038 37.5039 173.53 37.4551C169.78 37.2207 166.802 34.916 164.595 30.541C162.261 30.8438 159.658 31.127 156.787 31.3906C155.566 31.5273 154.253 31.5957 152.847 31.5957C149.546 31.5957 147.31 31.4492 146.138 31.1562C145.601 31.0391 145.112 30.9072 144.673 30.7607C143.979 30.5459 142.969 30.043 141.641 29.252C140.879 28.7832 140.376 28.2363 140.132 27.6113C140.083 27.4941 140.059 27.3818 140.059 27.2744C140.059 27.0693 140.122 26.9668 140.249 26.9668C140.317 26.9668 140.967 27.2354 142.197 27.7725C142.9 28.0752 143.828 28.3584 144.98 28.6221C146.338 28.9053 148.223 29.0469 150.635 29.0469C153.213 29.0469 157.148 28.8027 162.441 28.3145L163.73 28.168C162.949 26.1367 162.363 24.7744 161.973 24.0811C161.787 23.7881 161.616 23.4756 161.46 23.1436H161.445C161.016 24.8525 160.703 25.9707 160.508 26.498C160.312 26.957 160.029 27.1865 159.658 27.1865C159.346 27.1865 158.955 26.9717 158.486 26.542C158.096 26.1221 157.9 25.707 157.9 25.2969L157.915 25.1797C157.915 24.5742 159.326 18.9785 162.148 8.39258C162.607 6.78125 162.983 5.67285 163.276 5.06738C163.413 4.85254 163.569 4.74512 163.745 4.74512C164.038 4.74512 164.395 4.93066 164.814 5.30176C165.332 5.7998 165.591 6.22949 165.591 6.59082C165.591 6.96191 165.288 8.28027 164.683 10.5459C163.12 16.6104 162.324 19.7207 162.295 19.877C162.744 19.291 163.276 18.6807 163.892 18.0459C164.595 17.3428 165.088 16.9082 165.371 16.7422C165.801 16.4785 166.152 16.3467 166.426 16.3467C166.748 16.3467 167.148 16.5713 167.627 17.0205C168.135 17.6162 168.389 18.3389 168.389 19.1885C168.389 20.0088 168.037 20.8975 167.334 21.8545C167.119 22.1865 166.782 22.5869 166.323 23.0557C165.659 23.6221 165.02 23.9883 164.404 24.1543C164.033 24.2227 163.799 24.2715 163.701 24.3008C163.701 24.3203 164.287 25.541 165.459 27.9629C170.986 27.2793 173.945 26.9375 174.336 26.9375C175.439 26.8398 176.455 26.791 177.383 26.791C179.893 26.791 182.236 27.1279 184.414 27.8018C185.215 28.0752 185.879 28.3682 186.406 28.6807C187.5 29.335 188.047 30.3164 188.047 31.625C188.047 32.6602 187.354 33.6855 185.967 34.7012C184.512 35.6875 182.622 36.4541 180.298 37.001C178.608 37.3525 177.046 37.5283 175.61 37.5283Z" fill="white"/>
<defs>
<linearGradient id="paint0_linear" x1="1.45833" y1="-4.02186" x2="44.0759" y2="17.4598" gradientUnits="userSpaceOnUse">
<stop offset="0.146779" stop-color="#545BE9"/>
<stop offset="0.832983" stop-color="#B782F8"/>
</linearGradient>
</defs>
</svg>
