<svg width="26" height="26" viewBox="0 0 26 26" fill="none" xmlns="http://www.w3.org/2000/svg">
<path d="M2 13C2 6.92487 6.92487 2 13 2C19.0751 2 24 6.92487 24 13C24 19.0751 19.0751 24 13 24C6.92487 24 2 19.0751 2 13Z" fill="white"/>
<path fill-rule="evenodd" clip-rule="evenodd" d="M13.0003 23.0833C18.5692 23.0833 23.0837 18.5689 23.0837 13C23.0837 7.43112 18.5692 2.91666 13.0003 2.91666C7.43145 2.91666 2.91699 7.43112 2.91699 13C2.91699 18.5689 7.43145 23.0833 13.0003 23.0833ZM17.0948 8.66827C17.2419 8.51414 17.4426 8.42411 17.6543 8.41731C17.9917 8.40375 18.3023 8.60246 18.435 8.91673C18.5677 9.23099 18.4948 9.59553 18.2519 9.83292C17.1795 10.9206 16.1535 12.009 15.1234 13.1015C14.0851 14.2029 13.0428 15.3085 11.945 16.4219C11.6523 16.7217 11.1831 16.7495 10.8578 16.4863L7.80608 14.0154C7.57893 13.8315 7.46599 13.5389 7.50979 13.2479C7.55358 12.9568 7.74747 12.7115 8.01841 12.6044C8.28935 12.4973 8.59618 12.5446 8.82332 12.7285L11.2965 14.7296C12.1797 13.822 13.0378 12.9138 13.8986 12.0027C14.9434 10.8968 15.9922 9.78665 17.0948 8.66827Z" fill="#7165E3"/>
<path d="M13 22.5C7.75329 22.5 3.5 18.2467 3.5 13H0.5C0.5 19.9036 6.09644 25.5 13 25.5V22.5ZM22.5 13C22.5 18.2467 18.2467 22.5 13 22.5V25.5C19.9036 25.5 25.5 19.9036 25.5 13H22.5ZM13 3.5C18.2467 3.5 22.5 7.75329 22.5 13H25.5C25.5 6.09644 19.9036 0.5 13 0.5V3.5ZM13 0.5C6.09644 0.5 0.5 6.09644 0.5 13H3.5C3.5 7.75329 7.75329 3.5 13 3.5V0.5Z" fill="#FAFAFC"/>
</svg>
