<svg width="48" height="48" viewBox="0 0 48 48" fill="none" xmlns="http://www.w3.org/2000/svg">
<rect width="48" height="48" rx="5" fill="#4CAF50"/>
<path d="M38 22C38 14.2667 31.7333 8 24 8C16.2667 8 10 14.2667 10 22C10 29.3333 16.6667 35.3333 24 35.3333V40C32.4667 35.8667 38 29.0667 38 22ZM25.3333 18H31.3333V24C31.3333 25.8667 30.1333 27.3333 28.6667 27.3333V24H25.3333V18ZM23.3333 24C23.3333 25.8667 22.1333 27.3333 20.6667 27.3333V24H17.3333V18H23.3333V24Z" fill="white"/>
<rect width="48" height="48" rx="5" stroke="white"/>
</svg>
