<svg width="238" height="40" viewBox="0 0 238 40" fill="none" xmlns="http://www.w3.org/2000/svg">
<g filter="url(#filter0_d)">
<rect x="203" y="5" width="26" height="26" rx="5" fill="#00A0E9"/>
<path d="M220.274 9.33331H211.726C209.898 9.33331 208.417 10.8065 208.417 12.6236V21.1232C208.417 22.9402 209.898 24.4134 211.726 24.4134H214.571L215.985 26.6666L217.4 24.4134H220.274C222.101 24.4134 223.583 22.9402 223.583 21.1232V12.6235C223.583 10.8065 222.101 9.33331 220.274 9.33331V9.33331Z" fill="white"/>
<path d="M214.171 17.6947H215.421V16.475H216.579V17.6947H217.828V16.475H219.054V15.2331H217.828V14.0814H219.054V12.8394H217.828V11.6198H216.579V12.8394H215.421V11.6198H214.171V12.8394H212.945V14.0814H214.171V15.2331H212.945V16.475H214.171V17.6947ZM215.421 14.0814H216.579V15.2331H215.421V14.0814Z" fill="#00A0E9"/>
<path d="M221.565 18.1035C221.453 18.0301 221.346 17.9937 221.248 17.9824C220.786 17.9321 220.503 18.2379 220.279 18.5865C220.03 18.9711 218.599 20.6562 216.005 20.7207C213.411 20.6562 211.979 18.9711 211.731 18.5865C211.507 18.2379 211.233 17.9326 210.762 17.9824C210.663 17.9937 210.557 18.0301 210.445 18.1035C210.243 18.2356 210.166 18.4599 210.173 18.6163C210.173 18.8331 210.279 19.0342 210.279 19.0342C210.279 19.0342 211.929 22.1224 215.844 22.1224C215.898 22.1224 215.952 22.1217 216.005 22.1208C216.058 22.1217 216.112 22.1224 216.166 22.1224C220.081 22.1224 221.73 19.0342 221.73 19.0342C221.73 19.0342 221.823 18.9022 221.838 18.6161C221.846 18.4217 221.767 18.2356 221.565 18.1035Z" fill="#00A0E9"/>
<path d="M215.421 14.0814H216.579V15.2331H215.421V14.0814Z" fill="white"/>
</g>
<g filter="url(#filter1_d)">
<rect x="181" y="5" width="26" height="26" rx="5" fill="#2CCF54"/>
<path d="M202.667 16.4511C202.667 12.5263 198.779 9.33332 194 9.33332C189.222 9.33332 185.333 12.5263 185.333 16.4511C185.333 19.9696 188.417 22.9163 192.581 23.4735C192.864 23.535 193.248 23.6618 193.345 23.9059C193.432 24.1277 193.402 24.4751 193.373 24.6991C193.373 24.6991 193.271 25.318 193.249 25.4498C193.212 25.6716 193.075 26.3171 194 25.9226C194.925 25.5282 198.991 22.9484 200.809 20.8303C202.065 19.4364 202.667 18.0218 202.667 16.4511Z" fill="white"/>
<path d="M192.238 14.5484H191.631C191.538 14.5484 191.462 14.6248 191.462 14.7187V18.5361C191.462 18.6301 191.538 18.7064 191.631 18.7064H192.238C192.331 18.7064 192.407 18.6301 192.407 18.5361V14.7187C192.407 14.6248 192.331 14.5484 192.238 14.5484Z" fill="#2CCF54"/>
<path d="M196.423 14.5484H195.815C195.722 14.5484 195.647 14.6248 195.647 14.7187V16.9866L193.916 14.6241C193.884 14.5756 193.832 14.5516 193.776 14.5484H193.168C193.075 14.5484 192.999 14.6248 192.999 14.7187V18.5361C192.999 18.6301 193.075 18.7064 193.168 18.7064H193.776C193.869 18.7064 193.945 18.6301 193.945 18.5361V16.2688L195.677 18.6343C195.708 18.6789 195.761 18.7064 195.815 18.7064H196.423C196.517 18.7064 196.592 18.6301 196.592 18.5361V14.7187C196.592 14.6248 196.517 14.5484 196.423 14.5484Z" fill="#2CCF54"/>
<path d="M190.774 17.7504H189.122V14.7188C189.122 14.6246 189.046 14.5482 188.953 14.5482H188.345C188.252 14.5482 188.177 14.6246 188.177 14.7188V18.5356C188.177 18.6282 188.252 18.7064 188.345 18.7064H190.774C190.867 18.7064 190.942 18.6298 190.942 18.5356V17.921C190.942 17.8268 190.867 17.7504 190.774 17.7504Z" fill="#2CCF54"/>
<path d="M199.78 15.5042C199.874 15.5042 199.949 15.4279 199.949 15.3335V14.719C199.949 14.6248 199.874 14.5482 199.78 14.5482H197.352C197.259 14.5482 197.183 14.6262 197.183 14.7188V18.5357C197.183 18.6281 197.258 18.7064 197.352 18.7064H199.78C199.874 18.7064 199.949 18.6298 199.949 18.5357V17.921C199.949 17.827 199.874 17.7504 199.78 17.7504H198.129V17.1052H199.78C199.874 17.1052 199.949 17.0288 199.949 16.9345V16.32C199.949 16.2258 199.874 16.1492 199.78 16.1492H198.129V15.5042H199.78Z" fill="#2CCF54"/>
</g>
<g filter="url(#filter2_d)">
<rect x="159" y="5" width="26" height="26" rx="5" fill="#03A9F4"/>
<g clip-path="url(#clip0)">
<path d="M179.147 19.6097C180.245 14.6742 175.921 10.1906 170.843 11.0513C168.087 9.34061 164.417 11.2737 164.417 14.5535C164.417 15.3163 164.627 16.0304 164.993 16.6459C163.972 21.5928 168.332 26.0119 173.405 25.0925C173.996 25.4053 174.671 25.5835 175.388 25.5835C178.516 25.5835 180.519 22.3397 179.147 19.6097ZM172.061 22.9792C170.581 22.9792 169.135 22.6222 168.279 21.4C167.004 19.5964 168.685 18.694 169.511 19.3816C170.2 19.9623 169.983 21.3672 172.006 21.3672C172.898 21.3672 173.999 20.9867 173.999 20.1026C173.999 18.3237 170.052 19.1655 168.483 17.226C167.907 16.5157 167.798 15.2626 168.506 14.3538C169.739 12.7664 173.359 12.6697 174.916 13.8685C176.353 14.9807 175.965 16.4569 174.805 16.4569C173.41 16.4569 174.144 14.6319 171.892 14.6319C170.26 14.6319 169.618 15.7928 170.767 16.3577C172.297 17.1173 176.297 16.8803 176.297 19.8985C176.291 22.02 174.245 22.9792 172.061 22.9792Z" fill="white"/>
</g>
</g>
<g filter="url(#filter3_d)">
<rect x="137" y="5" width="26" height="26" rx="5" fill="#4CAF50"/>
<g clip-path="url(#clip1)">
<path d="M157.583 16.9166C157.583 12.7278 154.189 9.33331 150 9.33331C145.811 9.33331 142.417 12.7278 142.417 16.9166C142.417 20.8889 146.028 24.1389 150 24.1389V26.6666C154.586 24.4278 157.583 20.7444 157.583 16.9166ZM150.722 14.75H153.972V18C153.972 19.0111 153.322 19.8055 152.528 19.8055V18H150.722V14.75ZM149.639 18C149.639 19.0111 148.989 19.8055 148.195 19.8055V18H146.389V14.75H149.639V18Z" fill="white"/>
</g>
</g>
<g filter="url(#filter4_d)">
<rect x="115" y="5" width="26" height="26" rx="5" fill="#FFFA37"/>
<circle cx="128" cy="18" r="11.375" fill="#FFFA37"/>
<path d="M123.152 16.3514L123.152 16.3515C123.271 16.4087 123.374 16.454 123.504 16.454C123.594 16.454 123.637 16.4285 123.656 16.4083C123.667 16.397 123.674 16.3847 123.679 16.3668C123.685 16.3465 123.688 16.3181 123.686 16.2827C123.65 15.7909 123.607 15.0896 123.607 14.5764C123.607 13.9442 123.844 12.9352 124.525 12.0826C125.211 11.2246 126.337 10.5357 128.096 10.5357C129.855 10.5357 130.977 11.2246 131.658 12.0829L131.267 12.3937L131.658 12.0829C132.335 12.9358 132.568 13.9447 132.568 14.5764C132.568 15.0896 132.525 15.7909 132.489 16.2827C132.487 16.3181 132.49 16.3465 132.496 16.3668C132.501 16.3847 132.508 16.397 132.518 16.4083C132.538 16.4285 132.581 16.454 132.671 16.454C132.801 16.454 132.904 16.4087 133.023 16.3515L133.023 16.3514L133.038 16.3445L133.038 16.3443L133.044 16.3415C133.179 16.2769 133.342 16.1986 133.57 16.1986C133.793 16.1986 134.02 16.2869 134.193 16.4272L133.878 16.8159L134.193 16.4272C134.368 16.5685 134.501 16.7744 134.501 17.0107C134.501 17.1231 134.478 17.26 134.392 17.3957C134.315 17.5182 134.21 17.6001 134.121 17.6573C133.919 17.7885 133.654 17.8752 133.415 17.9538L133.404 17.9572L133.404 17.9573L133.381 17.9647L133.381 17.9647C133.151 18.04 132.943 18.1111 132.791 18.2058L132.526 17.7815L132.791 18.2058C132.713 18.2546 132.656 18.307 132.62 18.359C132.589 18.4055 132.568 18.4599 132.568 18.5371C132.568 18.5402 132.568 18.5502 132.572 18.5682C132.576 18.5859 132.582 18.606 132.59 18.629C132.608 18.678 132.634 18.7377 132.669 18.8063L132.224 19.0341L132.669 18.8063C132.74 18.9433 132.839 19.107 132.955 19.2778C133.187 19.6201 133.474 19.978 133.697 20.1926C133.919 20.4064 134.273 20.6628 134.639 20.8657C134.821 20.9668 135.004 21.0533 135.173 21.1143C135.328 21.1702 135.468 21.2035 135.583 21.2084L135.672 21.2122L135.755 21.2471L123.152 16.3514ZM123.152 16.3514L123.137 16.3445L123.137 16.3443M123.152 16.3514L123.137 16.3443M135.896 22.1752L135.885 22.1875L135.884 22.188L135.554 21.8802L135.54 22.2075L135.896 22.1752ZM135.896 22.1752L135.896 22.1749L135.901 22.1695C135.938 22.1302 135.993 22.072 136.033 21.9984L136.033 21.9983C136.055 21.9595 136.073 21.9159 136.086 21.8661L135.896 22.1752ZM123.137 16.3443L123.131 16.3416C122.996 16.2769 122.833 16.1986 122.605 16.1986C122.382 16.1986 122.155 16.2869 121.982 16.4272L122.296 16.8159M123.137 16.3443L122.296 16.8159M122.296 16.8159L121.982 16.4272C121.807 16.5685 121.674 16.7744 121.674 17.0107C121.674 17.1231 121.697 17.26 121.783 17.3957C121.86 17.5182 121.965 17.6001 122.054 17.6573C122.256 17.7885 122.521 17.8752 122.76 17.9538L122.771 17.9572L122.771 17.9573M122.296 16.8159L122.771 17.9573M122.771 17.9573L122.794 17.9647L122.794 17.9647M122.771 17.9573L122.794 17.9647M122.794 17.9647C123.024 18.04 123.232 18.1111 123.384 18.2058L123.648 17.7815M122.794 17.9647L123.648 17.7815M123.648 17.7815L123.384 18.2058C123.462 18.2546 123.519 18.307 123.554 18.359C123.586 18.4055 123.607 18.4599 123.607 18.5371C123.607 18.5402 123.607 18.5502 123.603 18.5682C123.599 18.5859 123.593 18.606 123.585 18.629C123.567 18.678 123.541 18.7377 123.505 18.8063C123.435 18.9433 123.336 19.107 123.22 19.2778L123.634 19.5582L123.22 19.2778C122.988 19.6201 122.701 19.978 122.478 20.1926C122.256 20.4064 121.902 20.6628 121.536 20.8657C121.354 20.9668 121.171 21.0533 121.002 21.1143C120.847 21.1702 120.707 21.2035 120.592 21.2084L120.502 21.2122M123.648 17.7815L120.502 21.2122M120.374 21.2683C120.349 21.2809 120.322 21.296 120.296 21.3137L120.296 21.3137L120.29 21.3173L120.287 21.3198L120.034 21.4951L120.076 21.8003C120.08 21.824 120.084 21.8459 120.089 21.866C120.102 21.9158 120.12 21.9594 120.142 21.9983L120.142 21.9984C120.182 22.072 120.237 22.1302 120.273 22.1695C120.275 22.1713 120.277 22.1732 120.279 22.175L120.374 21.2683ZM120.374 21.2683C120.39 21.2602 120.405 21.2532 120.419 21.2471M120.374 21.2683L120.419 21.2471M120.502 21.2122L120.419 21.2471M120.502 21.2122L120.419 21.2471M135.879 21.3137C135.853 21.296 135.826 21.2809 135.801 21.2683L136.086 21.866C136.091 21.8456 136.095 21.8238 136.099 21.8004L136.141 21.4951L135.888 21.3197L135.884 21.3173L135.884 21.3172L135.879 21.3137ZM123.41 23.7914C123.433 23.7884 123.456 23.7855 123.477 23.783L120.291 22.188C120.388 22.2929 120.518 22.3756 120.643 22.4407C120.775 22.5098 120.936 22.5753 121.12 22.6342C121.459 22.7426 121.849 22.8194 122.218 22.8566C122.22 22.8618 122.222 22.8677 122.225 22.8748C122.241 22.9216 122.256 22.9901 122.275 23.0768L122.275 23.0768L122.277 23.0889L122.277 23.089L122.278 23.0935C122.3 23.194 122.325 23.3148 122.362 23.4235C122.376 23.4655 122.392 23.5057 122.41 23.543L122.53 23.7919L122.804 23.8233C122.842 23.8277 122.888 23.8303 122.942 23.8301C123.109 23.8294 123.278 23.808 123.41 23.7914ZM120.279 22.1752L120.29 22.1875L120.279 22.1752Z" fill="white" stroke="black"/>
</g>
<g filter="url(#filter5_d)">
<rect x="93" y="5" width="26" height="26" rx="5" fill="#3A76F0"/>
<path d="M103.919 9.58632L104.114 10.3743C103.347 10.5637 102.613 10.8675 101.937 11.2755L101.521 10.5786C102.265 10.1279 103.074 9.79325 103.919 9.58632ZM108.081 9.58632L107.886 10.3743C108.653 10.5637 109.387 10.8675 110.063 11.2755L110.484 10.5786C109.738 10.1283 108.927 9.79369 108.081 9.58632ZM98.5787 13.5186C98.1283 14.264 97.7938 15.0735 97.5864 15.9193L98.3743 16.1139C98.5638 15.3472 98.8676 14.6134 99.2755 13.9372L98.5787 13.5186ZM98.1453 18C98.1453 17.606 98.1749 17.2126 98.234 16.823L97.4312 16.6999C97.3007 17.5609 97.3007 18.4366 97.4312 19.2976L98.234 19.177C98.175 18.7874 98.1453 18.394 98.1453 18ZM110.479 25.4189L110.063 24.7245C109.388 25.1328 108.655 25.4367 107.889 25.6257L108.083 26.4137C108.927 26.2047 109.735 25.8694 110.479 25.4189ZM113.855 18C113.855 18.394 113.825 18.7874 113.766 19.177L114.569 19.2976C114.699 18.4366 114.699 17.5609 114.569 16.6999L113.766 16.823C113.825 17.2126 113.855 17.606 113.855 18ZM114.414 20.0782L113.626 19.8836C113.437 20.6512 113.133 21.3859 112.725 22.0628L113.421 22.4814C113.872 21.7353 114.207 20.9249 114.414 20.0782ZM107.177 25.7661C106.397 25.8843 105.603 25.8843 104.823 25.7661L104.702 26.5688C105.563 26.6993 106.438 26.6993 107.298 26.5688L107.177 25.7661ZM112.323 22.6587C111.855 23.2933 111.294 23.8536 110.659 24.3207L111.141 24.9757C111.841 24.4605 112.46 23.8439 112.978 23.1462L112.323 22.6587ZM110.659 11.6768C111.294 12.1448 111.855 12.7059 112.323 13.3413L112.978 12.8538C112.462 12.1554 111.845 11.538 111.146 11.0218L110.659 11.6768ZM99.6769 13.3413C100.145 12.7059 100.706 12.1448 101.341 11.6768L100.854 11.0218C100.155 11.538 99.538 12.1554 99.0219 12.8538L99.6769 13.3413ZM113.421 13.5186L112.725 13.9372C113.133 14.6124 113.437 15.3454 113.626 16.1114L114.414 15.9169C114.206 15.0718 113.872 14.2632 113.421 13.5186ZM104.823 10.2339C105.603 10.1157 106.397 10.1157 107.177 10.2339L107.298 9.4312C106.438 9.30068 105.563 9.30068 104.702 9.4312L104.823 10.2339ZM100.093 25.1924L98.4162 25.5814L98.8077 23.9046L98.0173 23.7199L97.6258 25.3967C97.6013 25.5007 97.5975 25.6085 97.6147 25.7139C97.6319 25.8193 97.6697 25.9203 97.726 26.0111C97.7822 26.1019 97.8558 26.1807 97.9426 26.243C98.0293 26.3053 98.1275 26.3499 98.2315 26.3743C98.3531 26.4013 98.4792 26.4013 98.6008 26.3743L100.278 25.9877L100.093 25.1924ZM98.1847 22.996L98.9776 23.1782L99.2484 22.016C98.8529 21.3525 98.5583 20.6339 98.3743 19.8836L97.5864 20.0782C97.7636 20.7963 98.0317 21.4888 98.3842 22.1391L98.1847 22.996ZM101.977 24.7541L100.814 25.0249L100.999 25.8178L101.854 25.6183C102.503 25.9719 103.196 26.24 103.914 26.4161L104.109 25.6282C103.361 25.4418 102.645 25.1456 101.984 24.7491L101.977 24.7541ZM106 10.9578C102.11 10.9603 98.9603 14.1145 98.9603 18.0025C98.9625 19.3267 99.3371 20.6237 100.041 21.7451L99.3642 24.6359L102.252 23.9587C105.545 26.0295 109.893 25.0422 111.964 21.7525C114.035 18.4629 113.05 14.1145 109.76 12.0412C108.634 11.333 107.33 10.9575 106 10.9578Z" fill="white"/>
</g>
<g filter="url(#filter6_d)">
<rect x="71" y="5" width="26" height="26" rx="5" fill="#644382"/>
<path d="M89.0908 17.0987C89.1087 15.076 87.3189 13.2218 85.101 12.9654C85.0569 12.9604 85.0088 12.9527 84.9579 12.9446C84.8481 12.9271 84.7346 12.9091 84.62 12.9091C84.1655 12.9091 84.0439 13.2164 84.012 13.3997C83.9809 13.578 84.0105 13.7276 84.1 13.8447C84.2505 14.0417 84.5154 14.0767 84.7282 14.1047C84.7905 14.113 84.8493 14.1207 84.8986 14.1314C86.8913 14.5599 87.5622 15.2337 87.8902 17.1353C87.8982 17.1818 87.9018 17.2391 87.9056 17.2998C87.9199 17.5271 87.9497 18 88.478 18H88.478C88.522 18 88.5693 17.9964 88.6185 17.9892C89.1104 17.9172 89.095 17.4849 89.0876 17.2772C89.0855 17.2187 89.0835 17.1634 89.0886 17.1266C89.09 17.1173 89.0907 17.108 89.0908 17.0987Z" fill="white"/>
<path d="M84.6957 12.1014C84.7524 12.1053 84.8061 12.1091 84.8508 12.1157C87.9957 12.5818 89.442 14.0177 89.8428 17.0722C89.8496 17.1241 89.8507 17.1874 89.8518 17.2545C89.8558 17.4931 89.8641 17.9895 90.4173 17.9998L90.4345 18C90.608 18 90.746 17.9496 90.8447 17.85C91.0169 17.6764 91.0049 17.4185 90.9952 17.2113C90.9928 17.1604 90.9906 17.1125 90.9911 17.0706C91.0311 13.9467 88.2252 11.114 84.9865 11.0086C84.9731 11.0082 84.9603 11.0089 84.9473 11.0106C84.941 11.0115 84.9292 11.0126 84.909 11.0126C84.8767 11.0126 84.837 11.0099 84.7948 11.0072C84.7439 11.0039 84.6861 11 84.6276 11C84.1118 11 84.0138 11.3533 84.0012 11.5639C83.9723 12.0506 84.4609 12.0848 84.6957 12.1014Z" fill="white"/>
<path d="M89.4853 21.1435C89.4192 21.0934 89.351 21.0415 89.287 20.9903C88.9479 20.719 88.5871 20.469 88.2382 20.2272C88.1658 20.177 88.0933 20.1269 88.0212 20.0765C87.5742 19.7645 87.1724 19.6128 86.7928 19.6128C86.2814 19.6128 85.8356 19.8937 85.4676 20.4474C85.3046 20.6929 85.1068 20.8123 84.8631 20.8123C84.719 20.8123 84.5552 20.7714 84.3764 20.6907C82.9337 20.0405 81.9035 19.0434 81.3144 17.7274C81.0297 17.0913 81.122 16.6755 81.6232 16.3371C81.9078 16.1451 82.4375 15.7876 82.4 15.1032C82.3575 14.3259 80.632 11.9871 79.905 11.7215C79.5972 11.609 79.2738 11.6079 78.9421 11.7188C78.1063 11.9981 77.5066 12.4885 77.2075 13.137C76.9185 13.7636 76.9316 14.4994 77.2453 15.2648C78.1521 17.4776 79.4271 19.4069 81.0349 20.9991C82.6087 22.5576 84.543 23.8342 86.7841 24.7934C86.986 24.8797 87.1979 24.9269 87.3526 24.9612C87.4054 24.973 87.4509 24.9831 87.4841 24.9921C87.5023 24.9971 87.5211 24.9997 87.54 24.9999L87.5577 25C87.5577 25 87.5577 25 87.5578 25C88.6118 25 89.8774 24.0426 90.2661 22.9512C90.6067 21.9955 89.9849 21.5231 89.4853 21.1435Z" fill="white"/>
<path d="M85.4488 14.8186C85.2477 14.8235 84.8292 14.8336 84.6824 15.2478C84.6137 15.4413 84.6219 15.6093 84.7069 15.7472C84.8315 15.9495 85.0704 16.0115 85.2876 16.0455C86.0755 16.1683 86.4801 16.5917 86.561 17.3776C86.5986 17.7441 86.8526 18 87.1787 18H87.1787C87.2028 18 87.2274 17.9986 87.252 17.9957C87.6442 17.9504 87.8343 17.6704 87.8171 17.1636C87.8234 16.6347 87.5385 16.0343 87.054 15.556C86.5679 15.0763 85.9818 14.8061 85.4488 14.8186Z" fill="white"/>
</g>
<g filter="url(#filter7_d)">
<rect x="49" y="5" width="26" height="26" rx="5" fill="#0079FF"/>
<path d="M54 17.4076C54 19.7384 55.1627 21.8178 56.9808 23.1759V26.0007L59.7049 24.5059C60.4316 24.7066 61.2016 24.8159 61.9997 24.8159C66.4178 24.8159 70 21.4998 70 17.4083C70.0007 13.3168 66.4185 10 62.0003 10C57.5821 10 54 13.3161 54 17.4076V17.4076ZM61.1563 15.3329L63.2431 17.5056L67.1679 15.3329L62.7944 19.9744L60.7576 17.8023L56.7821 19.9751L61.1563 15.3329Z" fill="white"/>
</g>
<g filter="url(#filter8_d)">
<rect x="27" y="5" width="26" height="26" rx="5" fill="#2CD44A"/>
<path d="M44.1304 19.7307L44.1237 19.7869C42.4744 18.9649 42.3019 18.8554 42.0889 19.1749C41.9412 19.3962 41.5107 19.8979 41.3809 20.0464C41.2497 20.1927 41.1192 20.2039 40.8964 20.1027C40.6714 19.9902 39.9492 19.7539 39.0942 18.9889C38.4282 18.3927 37.9812 17.6614 37.8492 17.4364C37.6294 17.0569 38.0892 17.0029 38.5077 16.2109C38.5827 16.0534 38.5444 15.9297 38.4889 15.8179C38.4327 15.7054 37.9849 14.6029 37.7974 14.1634C37.6174 13.7254 37.4322 13.7809 37.2934 13.7809C36.8614 13.7434 36.5457 13.7494 36.2674 14.0389C35.0569 15.3694 35.3622 16.7419 36.3979 18.2014C38.4334 20.8654 39.5179 21.3559 41.5009 22.0369C42.0364 22.2072 42.5247 22.1832 42.9109 22.1277C43.3414 22.0594 44.2362 21.5869 44.4229 21.0582C44.6142 20.5294 44.6142 20.0907 44.5579 19.9894C44.5024 19.8882 44.3554 19.8319 44.1304 19.7307Z" fill="white"/>
<path d="M46.39 11.5871C40.6233 6.01232 31.0795 10.0556 31.0758 17.9201C31.0758 19.4921 31.4875 21.0251 32.272 22.3788L31 27.0003L35.7513 25.7613C41.68 28.9638 48.997 24.7113 49 17.9246C49 15.5426 48.07 13.3008 46.3787 11.6163L46.39 11.5871ZM47.5015 17.8998C47.497 23.6246 41.2127 27.1998 36.2425 24.2778L35.9725 24.1173L33.16 24.8486L33.9138 22.1148L33.7345 21.8336C30.6415 16.9098 34.195 10.4748 40.054 10.4748C42.0445 10.4748 43.9127 11.2511 45.3197 12.6573C46.726 14.0516 47.5015 15.9198 47.5015 17.8998Z" fill="white"/>
</g>
<g filter="url(#filter9_d)">
<rect x="5" y="5" width="26" height="26" rx="5" fill="#2CA3DB"/>
<path d="M15.2783 19.7878L15.0136 23.5106C15.3923 23.5106 15.5563 23.3479 15.7529 23.1526L17.5283 21.4559L21.2071 24.1499C21.8818 24.5259 22.3571 24.3279 22.5391 23.5292L24.9538 12.2143L24.9545 12.2136C25.1685 11.2163 24.5938 10.8263 23.9365 11.0709L9.7428 16.5051C8.77411 16.8811 8.78878 17.4211 9.57813 17.6658L13.2069 18.7945L21.6358 13.5203C22.0324 13.2577 22.3931 13.403 22.0964 13.6657L15.2783 19.7878Z" fill="white"/>
</g>
<defs>
<filter id="filter0_d" x="198" y="0" width="40" height="40" filterUnits="userSpaceOnUse" color-interpolation-filters="sRGB">
<feFlood flood-opacity="0" result="BackgroundImageFix"/>
<feColorMatrix in="SourceAlpha" type="matrix" values="0 0 0 0 0 0 0 0 0 0 0 0 0 0 0 0 0 0 127 0"/>
<feOffset dx="2" dy="2"/>
<feGaussianBlur stdDeviation="3.5"/>
<feColorMatrix type="matrix" values="0 0 0 0 0.109375 0 0 0 0 0.20191 0 0 0 0 0.3125 0 0 0 0.2 0"/>
<feBlend mode="normal" in2="BackgroundImageFix" result="effect1_dropShadow"/>
<feBlend mode="normal" in="SourceGraphic" in2="effect1_dropShadow" result="shape"/>
</filter>
<filter id="filter1_d" x="176" y="0" width="40" height="40" filterUnits="userSpaceOnUse" color-interpolation-filters="sRGB">
<feFlood flood-opacity="0" result="BackgroundImageFix"/>
<feColorMatrix in="SourceAlpha" type="matrix" values="0 0 0 0 0 0 0 0 0 0 0 0 0 0 0 0 0 0 127 0"/>
<feOffset dx="2" dy="2"/>
<feGaussianBlur stdDeviation="3.5"/>
<feColorMatrix type="matrix" values="0 0 0 0 0.109375 0 0 0 0 0.20191 0 0 0 0 0.3125 0 0 0 0.2 0"/>
<feBlend mode="normal" in2="BackgroundImageFix" result="effect1_dropShadow"/>
<feBlend mode="normal" in="SourceGraphic" in2="effect1_dropShadow" result="shape"/>
</filter>
<filter id="filter2_d" x="154" y="0" width="40" height="40" filterUnits="userSpaceOnUse" color-interpolation-filters="sRGB">
<feFlood flood-opacity="0" result="BackgroundImageFix"/>
<feColorMatrix in="SourceAlpha" type="matrix" values="0 0 0 0 0 0 0 0 0 0 0 0 0 0 0 0 0 0 127 0"/>
<feOffset dx="2" dy="2"/>
<feGaussianBlur stdDeviation="3.5"/>
<feColorMatrix type="matrix" values="0 0 0 0 0.109375 0 0 0 0 0.20191 0 0 0 0 0.3125 0 0 0 0.2 0"/>
<feBlend mode="normal" in2="BackgroundImageFix" result="effect1_dropShadow"/>
<feBlend mode="normal" in="SourceGraphic" in2="effect1_dropShadow" result="shape"/>
</filter>
<filter id="filter3_d" x="132" y="0" width="40" height="40" filterUnits="userSpaceOnUse" color-interpolation-filters="sRGB">
<feFlood flood-opacity="0" result="BackgroundImageFix"/>
<feColorMatrix in="SourceAlpha" type="matrix" values="0 0 0 0 0 0 0 0 0 0 0 0 0 0 0 0 0 0 127 0"/>
<feOffset dx="2" dy="2"/>
<feGaussianBlur stdDeviation="3.5"/>
<feColorMatrix type="matrix" values="0 0 0 0 0.109375 0 0 0 0 0.20191 0 0 0 0 0.3125 0 0 0 0.2 0"/>
<feBlend mode="normal" in2="BackgroundImageFix" result="effect1_dropShadow"/>
<feBlend mode="normal" in="SourceGraphic" in2="effect1_dropShadow" result="shape"/>
</filter>
<filter id="filter4_d" x="110" y="0" width="40" height="40" filterUnits="userSpaceOnUse" color-interpolation-filters="sRGB">
<feFlood flood-opacity="0" result="BackgroundImageFix"/>
<feColorMatrix in="SourceAlpha" type="matrix" values="0 0 0 0 0 0 0 0 0 0 0 0 0 0 0 0 0 0 127 0"/>
<feOffset dx="2" dy="2"/>
<feGaussianBlur stdDeviation="3.5"/>
<feColorMatrix type="matrix" values="0 0 0 0 0.109375 0 0 0 0 0.20191 0 0 0 0 0.3125 0 0 0 0.2 0"/>
<feBlend mode="normal" in2="BackgroundImageFix" result="effect1_dropShadow"/>
<feBlend mode="normal" in="SourceGraphic" in2="effect1_dropShadow" result="shape"/>
</filter>
<filter id="filter5_d" x="88" y="0" width="40" height="40" filterUnits="userSpaceOnUse" color-interpolation-filters="sRGB">
<feFlood flood-opacity="0" result="BackgroundImageFix"/>
<feColorMatrix in="SourceAlpha" type="matrix" values="0 0 0 0 0 0 0 0 0 0 0 0 0 0 0 0 0 0 127 0"/>
<feOffset dx="2" dy="2"/>
<feGaussianBlur stdDeviation="3.5"/>
<feColorMatrix type="matrix" values="0 0 0 0 0.109375 0 0 0 0 0.20191 0 0 0 0 0.3125 0 0 0 0.2 0"/>
<feBlend mode="normal" in2="BackgroundImageFix" result="effect1_dropShadow"/>
<feBlend mode="normal" in="SourceGraphic" in2="effect1_dropShadow" result="shape"/>
</filter>
<filter id="filter6_d" x="66" y="0" width="40" height="40" filterUnits="userSpaceOnUse" color-interpolation-filters="sRGB">
<feFlood flood-opacity="0" result="BackgroundImageFix"/>
<feColorMatrix in="SourceAlpha" type="matrix" values="0 0 0 0 0 0 0 0 0 0 0 0 0 0 0 0 0 0 127 0"/>
<feOffset dx="2" dy="2"/>
<feGaussianBlur stdDeviation="3.5"/>
<feColorMatrix type="matrix" values="0 0 0 0 0.109375 0 0 0 0 0.20191 0 0 0 0 0.3125 0 0 0 0.2 0"/>
<feBlend mode="normal" in2="BackgroundImageFix" result="effect1_dropShadow"/>
<feBlend mode="normal" in="SourceGraphic" in2="effect1_dropShadow" result="shape"/>
</filter>
<filter id="filter7_d" x="44" y="0" width="40" height="40" filterUnits="userSpaceOnUse" color-interpolation-filters="sRGB">
<feFlood flood-opacity="0" result="BackgroundImageFix"/>
<feColorMatrix in="SourceAlpha" type="matrix" values="0 0 0 0 0 0 0 0 0 0 0 0 0 0 0 0 0 0 127 0"/>
<feOffset dx="2" dy="2"/>
<feGaussianBlur stdDeviation="3.5"/>
<feColorMatrix type="matrix" values="0 0 0 0 0.109375 0 0 0 0 0.20191 0 0 0 0 0.3125 0 0 0 0.2 0"/>
<feBlend mode="normal" in2="BackgroundImageFix" result="effect1_dropShadow"/>
<feBlend mode="normal" in="SourceGraphic" in2="effect1_dropShadow" result="shape"/>
</filter>
<filter id="filter8_d" x="22" y="0" width="40" height="40" filterUnits="userSpaceOnUse" color-interpolation-filters="sRGB">
<feFlood flood-opacity="0" result="BackgroundImageFix"/>
<feColorMatrix in="SourceAlpha" type="matrix" values="0 0 0 0 0 0 0 0 0 0 0 0 0 0 0 0 0 0 127 0"/>
<feOffset dx="2" dy="2"/>
<feGaussianBlur stdDeviation="3.5"/>
<feColorMatrix type="matrix" values="0 0 0 0 0.109375 0 0 0 0 0.20191 0 0 0 0 0.3125 0 0 0 0.2 0"/>
<feBlend mode="normal" in2="BackgroundImageFix" result="effect1_dropShadow"/>
<feBlend mode="normal" in="SourceGraphic" in2="effect1_dropShadow" result="shape"/>
</filter>
<filter id="filter9_d" x="0" y="0" width="40" height="40" filterUnits="userSpaceOnUse" color-interpolation-filters="sRGB">
<feFlood flood-opacity="0" result="BackgroundImageFix"/>
<feColorMatrix in="SourceAlpha" type="matrix" values="0 0 0 0 0 0 0 0 0 0 0 0 0 0 0 0 0 0 127 0"/>
<feOffset dx="2" dy="2"/>
<feGaussianBlur stdDeviation="3.5"/>
<feColorMatrix type="matrix" values="0 0 0 0 0.109375 0 0 0 0 0.20191 0 0 0 0 0.3125 0 0 0 0.2 0"/>
<feBlend mode="normal" in2="BackgroundImageFix" result="effect1_dropShadow"/>
<feBlend mode="normal" in="SourceGraphic" in2="effect1_dropShadow" result="shape"/>
</filter>
<clipPath id="clip0">
<rect width="15.1667" height="15.1667" fill="white" transform="translate(164.417 10.4167)"/>
</clipPath>
<clipPath id="clip1">
<rect width="17.3333" height="17.3333" fill="white" transform="translate(141.333 9.33331)"/>
</clipPath>
</defs>
</svg>
