<svg width="22" height="22" viewBox="0 0 22 22" fill="none" xmlns="http://www.w3.org/2000/svg">
<path fill-rule="evenodd" clip-rule="evenodd" d="M4 16.8125C4 17.3993 4.47968 17.875 5.07143 17.875H9.35714C9.35714 19.0486 10.3165 20 11.5 20C12.6835 20 13.6429 19.0486 13.6429 17.875H17.9286C18.5203 17.875 19 17.3993 19 16.8125C19 16.2257 18.5203 15.75 17.9286 15.75V10.4375C17.9286 7.27869 15.6118 4.65644 12.5714 4.15058V4.0625C12.5714 3.47568 12.0918 3 11.5 3C10.9082 3 10.4286 3.47568 10.4286 4.0625V4.15058C7.38818 4.65644 5.07143 7.27869 5.07143 10.4375V15.75C4.47968 15.75 4 16.2257 4 16.8125ZM11.5 6L12.2527 6.12399C14.3793 6.47411 16 8.29317 16 10.4793V16H7V10.4793C7 8.29317 8.62068 6.47411 10.7473 6.12399L11.5 6Z" fill="#4C4E5A"/>
<path d="M16 10C18.2091 10 20 8.20914 20 6C20 3.79086 18.2091 2 16 2C13.7909 2 12 3.79086 12 6C12 8.20914 13.7909 10 16 10Z" fill="url(#paint0_linear)" fill-opacity="0.75"/>
<path d="M16 10C18.2091 10 20 8.20914 20 6C20 3.79086 18.2091 2 16 2C13.7909 2 12 3.79086 12 6C12 8.20914 13.7909 10 16 10Z" fill="#7165E3"/>
<path d="M16 10C18.2091 10 20 8.20914 20 6C20 3.79086 18.2091 2 16 2C13.7909 2 12 3.79086 12 6C12 8.20914 13.7909 10 16 10Z" fill="url(#paint1_linear)" fill-opacity="0.5"/>
<path d="M16 10C18.2091 10 20 8.20914 20 6C20 3.79086 18.2091 2 16 2C13.7909 2 12 3.79086 12 6C12 8.20914 13.7909 10 16 10Z" stroke="#FAFAFC" stroke-width="2"/>
<defs>
<linearGradient id="paint0_linear" x1="13" y1="6" x2="19" y2="6" gradientUnits="userSpaceOnUse">
<stop stop-color="#7165E3" stop-opacity="0.2"/>
<stop offset="1" stop-color="#A465E3" stop-opacity="0.1"/>
</linearGradient>
<linearGradient id="paint1_linear" x1="20.0435" y1="8.04241" x2="17.0236" y2="1.97023" gradientUnits="userSpaceOnUse">
<stop stop-color="#5E52D2"/>
<stop offset="1" stop-color="#B697F9"/>
</linearGradient>
</defs>
</svg>
