<svg width="26" height="26" viewBox="0 0 26 26" fill="none" xmlns="http://www.w3.org/2000/svg">
<rect width="26" height="26" rx="5" fill="#0079FF"/>
<path d="M17.2849 19.5H8.86607C7.84687 19.5 6.94727 18.8864 6.94727 17.8776V18.616C6.94727 19.6248 7.84687 20.3892 8.86607 20.3892H17.2849C18.3041 20.3892 19.2037 19.6248 19.2037 18.616V17.8776C19.2037 18.8864 18.3041 19.5 17.2849 19.5Z" fill="#185ABC"/>
<path d="M13.0004 11.8196C11.4768 11.8144 10.2756 10.7588 10.1924 9.30804V9.90084C10.1924 11.4036 11.4508 12.7088 13.0004 12.7088C14.55 12.7088 15.8084 11.4036 15.8084 9.90084V9.30804C15.6888 10.7692 14.524 11.8248 13.0004 11.8196Z" fill="#185ABC"/>
<path d="M13.0004 13.5927C10.0364 13.5927 6.94238 15.0383 6.94238 16.9883V17.8723C6.94238 18.8811 7.76918 19.6455 8.78838 19.6455H17.3528C18.372 19.6455 19.1988 18.8811 19.1988 17.8723V16.9883C19.204 15.0331 15.9644 13.5927 13.0004 13.5927Z" fill="white"/>
<path d="M13.0004 11.9652C14.5512 11.9652 15.8084 10.708 15.8084 9.15718C15.8084 7.60637 14.5512 6.34918 13.0004 6.34918C11.4496 6.34918 10.1924 7.60637 10.1924 9.15718C10.1924 10.708 11.4496 11.9652 13.0004 11.9652Z" fill="white"/>
</svg>
