<svg width="26" height="26" viewBox="0 0 26 26" fill="none" xmlns="http://www.w3.org/2000/svg">
<rect width="26" height="26" rx="5" fill="#CB2027"/>
<path d="M13.829 16.8164C12.8462 16.7404 12.4333 16.2531 11.6625 15.7852C11.2389 18.0078 10.7212 20.1383 9.18786 21.2513C8.71397 17.8921 9.8826 15.369 10.4253 12.6909C9.50024 11.1336 10.5366 7.99921 12.4877 8.77158C14.8892 9.72122 10.4086 14.5619 13.4165 15.1665C16.5567 15.7977 17.8387 9.71774 15.8912 7.74013C13.0775 4.88495 7.70106 7.67525 8.3622 11.7626C8.52325 12.7618 9.55586 13.0651 8.77468 14.4439C6.97389 14.0451 6.43673 12.6248 6.50578 10.7313C6.61725 7.63191 9.29075 5.46173 11.9724 5.1614C15.3638 4.78183 18.5469 6.40674 18.9862 9.59678C19.4805 13.1972 17.4552 17.0964 13.829 16.8164Z" fill="#F1F2F2"/>
</svg>
