<svg width="15" height="15" viewBox="0 0 15 15" fill="none" xmlns="http://www.w3.org/2000/svg">
<g opacity="0.5">
<path d="M12.5 7.5C12.5 7.875 12.25 8.125 11.875 8.125H8.125V11.875C8.125 12.25 7.875 12.5 7.5 12.5C7.125 12.5 6.875 12.25 6.875 11.875V8.125H3.125C2.75 8.125 2.5 7.875 2.5 7.5C2.5 7.125 2.75 6.875 3.125 6.875H6.875V3.125C6.875 2.75 7.125 2.5 7.5 2.5C7.875 2.5 8.125 2.75 8.125 3.125V6.875H11.875C12.25 6.875 12.5 7.125 12.5 7.5Z" fill="#2E3140"/>
<mask id="mask0" mask-type="alpha" maskUnits="userSpaceOnUse" x="2" y="2" width="11" height="11">
<path d="M12.5 7.5C12.5 7.875 12.25 8.125 11.875 8.125H8.125V11.875C8.125 12.25 7.875 12.5 7.5 12.5C7.125 12.5 6.875 12.25 6.875 11.875V8.125H3.125C2.75 8.125 2.5 7.875 2.5 7.5C2.5 7.125 2.75 6.875 3.125 6.875H6.875V3.125C6.875 2.75 7.125 2.5 7.5 2.5C7.875 2.5 8.125 2.75 8.125 3.125V6.875H11.875C12.25 6.875 12.5 7.125 12.5 7.5Z" fill="white"/>
</mask>
<g mask="url(#mask0)">
<g filter="url(#filter0_d)">
<rect width="15" height="15" fill="white"/>
</g>
</g>
</g>
<defs>
<filter id="filter0_d" x="-25" y="-18" width="65" height="65" filterUnits="userSpaceOnUse" color-interpolation-filters="sRGB">
<feFlood flood-opacity="0" result="BackgroundImageFix"/>
<feColorMatrix in="SourceAlpha" type="matrix" values="0 0 0 0 0 0 0 0 0 0 0 0 0 0 0 0 0 0 127 0"/>
<feOffset dy="7"/>
<feGaussianBlur stdDeviation="12.5"/>
<feColorMatrix type="matrix" values="0 0 0 0 0 0 0 0 0 0 0 0 0 0 0 0 0 0 0.1 0"/>
<feBlend mode="normal" in2="BackgroundImageFix" result="effect1_dropShadow"/>
<feBlend mode="normal" in="SourceGraphic" in2="effect1_dropShadow" result="shape"/>
</filter>
</defs>
</svg>
