<svg width="20" height="20" viewBox="0 0 20 20" fill="none" xmlns="http://www.w3.org/2000/svg">
<path fill-rule="evenodd" clip-rule="evenodd" d="M14.3333 13.1666L18.0833 16.9166C18.4166 17.25 18.4166 17.75 18.0833 18.0833C17.9166 18.25 17.6666 18.3333 17.5 18.3333C17.3333 18.3333 17.0833 18.25 16.9166 18.0833L13.1666 14.3333C11.9166 15.25 10.4166 15.8333 8.74996 15.8333C4.83329 15.8333 1.66663 12.6666 1.66663 8.74996C1.66663 4.83329 4.83329 1.66663 8.74996 1.66663C12.6666 1.66663 15.8333 4.83329 15.8333 8.74996C15.8333 10.4166 15.25 12 14.3333 13.1666ZM8.74996 3.33329C5.74996 3.33329 3.33329 5.74996 3.33329 8.74996C3.33329 11.75 5.74996 14.1666 8.74996 14.1666C10.25 14.1666 11.5833 13.5833 12.5833 12.5833C13.5833 11.5833 14.1666 10.25 14.1666 8.74996C14.1666 5.74996 11.75 3.33329 8.74996 3.33329Z" fill="#959BAD"/>
<mask id="mask0" mask-type="alpha" maskUnits="userSpaceOnUse" x="1" y="1" width="18" height="18">
<path fill-rule="evenodd" clip-rule="evenodd" d="M14.3333 13.1666L18.0833 16.9166C18.4166 17.25 18.4166 17.75 18.0833 18.0833C17.9166 18.25 17.6666 18.3333 17.5 18.3333C17.3333 18.3333 17.0833 18.25 16.9166 18.0833L13.1666 14.3333C11.9166 15.25 10.4166 15.8333 8.74996 15.8333C4.83329 15.8333 1.66663 12.6666 1.66663 8.74996C1.66663 4.83329 4.83329 1.66663 8.74996 1.66663C12.6666 1.66663 15.8333 4.83329 15.8333 8.74996C15.8333 10.4166 15.25 12 14.3333 13.1666ZM8.74996 3.33329C5.74996 3.33329 3.33329 5.74996 3.33329 8.74996C3.33329 11.75 5.74996 14.1666 8.74996 14.1666C10.25 14.1666 11.5833 13.5833 12.5833 12.5833C13.5833 11.5833 14.1666 10.25 14.1666 8.74996C14.1666 5.74996 11.75 3.33329 8.74996 3.33329Z" fill="white"/>
</mask>
<g mask="url(#mask0)">
<g filter="url(#filter0_d)">
<rect width="20" height="20" fill="#959BAD"/>
</g>
</g>
<defs>
<filter id="filter0_d" x="-25" y="-18" width="70" height="70" filterUnits="userSpaceOnUse" color-interpolation-filters="sRGB">
<feFlood flood-opacity="0" result="BackgroundImageFix"/>
<feColorMatrix in="SourceAlpha" type="matrix" values="0 0 0 0 0 0 0 0 0 0 0 0 0 0 0 0 0 0 127 0"/>
<feOffset dy="7"/>
<feGaussianBlur stdDeviation="12.5"/>
<feColorMatrix type="matrix" values="0 0 0 0 0 0 0 0 0 0 0 0 0 0 0 0 0 0 0.1 0"/>
<feBlend mode="normal" in2="BackgroundImageFix" result="effect1_dropShadow"/>
<feBlend mode="normal" in="SourceGraphic" in2="effect1_dropShadow" result="shape"/>
</filter>
</defs>
</svg>
