<svg width="48" height="48" viewBox="0 0 48 48" fill="none" xmlns="http://www.w3.org/2000/svg">
<rect width="48" height="48" rx="7" fill="#3A76F0"/>
<path d="M20.1588 8.46713L20.5179 9.92178C19.1025 10.2716 17.7479 10.8325 16.4995 11.5855L15.7312 10.2991C17.1054 9.4669 18.5984 8.84915 20.1588 8.46713ZM27.8412 8.46713L27.4821 9.92178C28.8974 10.2716 30.2521 10.8325 31.5005 11.5855L32.2779 10.2991C30.9001 9.46763 29.4042 8.84996 27.8412 8.46713ZM10.299 15.7267C9.46763 17.1029 8.84994 18.5973 8.46708 20.1589L9.92172 20.518C10.2715 19.1026 10.8324 17.7479 11.5855 16.4995L10.299 15.7267ZM9.49897 24.0001C9.49886 23.2727 9.55356 22.5463 9.66262 21.8272L8.18069 21.5999C7.93977 23.1894 7.93977 24.8062 8.18069 26.3957L9.66262 26.1729C9.55373 25.4538 9.49903 24.7274 9.49897 24.0001ZM32.2688 37.6965L31.5005 36.4146C30.2541 37.1683 28.9008 37.7293 27.4866 38.0783L27.8457 39.533C29.4042 39.1473 30.8954 38.5281 32.2688 37.6965ZM38.501 24.0001C38.501 24.7274 38.4463 25.4538 38.3374 26.1729L39.8193 26.3957C40.0602 24.8062 40.0602 23.1894 39.8193 21.5999L38.3374 21.8272C38.4464 22.5463 38.5011 23.2727 38.501 24.0001ZM39.5329 27.8367L38.0783 27.4776C37.7293 28.8947 37.1684 30.2509 36.4145 31.5006L37.701 32.2734C38.5332 30.896 39.1509 29.4 39.5329 27.8367ZM26.1729 38.3374C24.7325 38.5557 23.2675 38.5557 21.8271 38.3374L21.6044 39.8194C23.1924 40.0603 24.8076 40.0603 26.3956 39.8194L26.1729 38.3374ZM35.6736 32.6007C34.8095 33.7723 33.7735 34.8068 32.6006 35.6691L33.4916 36.8782C34.7835 35.9272 35.9265 34.7888 36.8827 33.5007L35.6736 32.6007ZM32.6006 12.3265C33.7736 13.1904 34.8096 14.2264 35.6736 15.3994L36.8827 14.4994C35.9298 13.2101 34.7899 12.0702 33.5007 11.1173L32.6006 12.3265ZM12.3264 15.3994C13.1904 14.2264 14.2263 13.1904 15.3994 12.3265L14.4993 11.1173C13.2101 12.0702 12.0702 13.2101 11.1173 14.4994L12.3264 15.3994ZM37.701 15.7267L36.4145 16.4995C37.1683 17.746 37.7292 19.0992 38.0783 20.5134L39.5329 20.1543C39.15 18.5942 38.5323 17.1013 37.701 15.7267ZM21.8271 9.66267C23.2675 9.44444 24.7325 9.44444 26.1729 9.66267L26.3956 8.18074C24.8076 7.93979 23.1924 7.93979 21.6044 8.18074L21.8271 9.66267ZM13.0947 37.2783L9.999 37.9965L10.7218 34.9008L9.26259 34.5599L8.53981 37.6556C8.49459 37.8475 8.48765 38.0465 8.51939 38.2411C8.55113 38.4357 8.62092 38.6221 8.72478 38.7897C8.82865 38.9574 8.96454 39.1029 9.12468 39.2179C9.28482 39.333 9.46607 39.4153 9.65807 39.4602C9.88261 39.5103 10.1154 39.5103 10.3399 39.4602L13.4356 38.7466L13.0947 37.2783ZM9.5717 33.2234L11.0354 33.5598L11.5355 31.4142C10.8053 30.1893 10.2614 28.8626 9.92172 27.4776L8.46708 27.8367C8.79427 29.1624 9.28921 30.441 9.93991 31.6415L9.5717 33.2234ZM16.5722 36.4691L14.4266 36.9692L14.7675 38.4329L16.3449 38.0647C17.5445 38.7173 18.8233 39.2124 20.1497 39.5375L20.5088 38.0829C19.1282 37.7388 17.8061 37.1919 16.5858 36.46L16.5722 36.4691ZM24 10.9991C16.8177 11.0037 11.0036 16.8268 11.0036 24.0046C11.0076 26.4494 11.6991 28.8437 12.9992 30.9142L11.7491 36.2509L17.0813 35.0008C23.159 38.8238 31.1869 37.001 35.0099 30.9278C38.8329 24.8547 37.0146 16.8268 30.9414 12.9993C28.8623 11.6918 26.456 10.9985 24 10.9991Z" fill="white"/>
<rect width="48" height="48" rx="7" stroke="white"/>
</svg>
