<svg width="48" height="48" viewBox="0 0 48 48" fill="none" xmlns="http://www.w3.org/2000/svg">
<rect width="48" height="48" rx="5" fill="#03A9F4"/>
<g clip-path="url(#clip0)">
<path d="M37.1938 26.9714C39.2215 17.8597 31.2392 9.58218 21.865 11.1712C16.776 8.01301 10 11.5818 10 17.6368C10 19.045 10.3885 20.3634 11.064 21.4997C9.17983 30.6324 17.2275 38.7909 26.5935 37.0934C27.6855 37.6709 28.9315 37.9999 30.2557 37.9999C36.0295 37.9999 39.7267 32.0114 37.1938 26.9714ZM24.112 33.192C21.3797 33.192 18.7103 32.5329 17.1307 30.2765C14.7763 26.9469 17.8808 25.2809 19.4045 26.5502C20.6762 27.6224 20.2772 30.2159 24.0117 30.2159C25.6578 30.2159 27.6902 29.5135 27.6902 27.8814C27.6902 24.5972 20.4043 26.1512 17.5075 22.5707C16.4435 21.2594 16.2428 18.9459 17.5495 17.2682C19.8268 14.3375 26.5095 14.159 29.383 16.3722C32.036 18.4255 31.3197 21.1509 29.1788 21.1509C26.604 21.1509 27.9573 17.7815 23.8005 17.7815C20.787 17.7815 19.6017 19.9247 21.7238 20.9677C24.5483 22.37 31.9322 21.9325 31.9322 27.5045C31.9228 31.421 28.144 33.192 24.112 33.192Z" fill="white"/>
</g>
<rect width="48" height="48" rx="5" stroke="white"/>
<defs>
<clipPath id="clip0">
<rect width="28" height="28" fill="white" transform="translate(10 10)"/>
</clipPath>
</defs>
</svg>
