<svg width="48" height="48" viewBox="0 0 48 48" fill="none" xmlns="http://www.w3.org/2000/svg">
<rect width="48" height="48" rx="5" fill="#FFFA37"/>
<circle cx="24" cy="24" r="21" fill="#FFFA37"/>
<path d="M14.8658 21.3377L14.866 21.3378C15.0891 21.4452 15.3551 21.5689 15.6997 21.5689C15.9382 21.5689 16.1475 21.5014 16.2887 21.3518C16.4257 21.2066 16.4722 21.0117 16.4569 20.7992C16.3918 19.8916 16.3134 18.6102 16.3134 17.6796C16.3134 16.597 16.7251 14.8303 17.916 13.3396C19.0996 11.8581 21.0564 10.6428 24.1777 10.6428C27.2989 10.6428 29.2473 11.8579 30.4227 13.3392C31.6054 14.8297 32.0093 16.5964 32.0093 17.6796C32.0093 18.6102 31.9309 19.8916 31.8658 20.7992L31.3671 20.7634L31.8658 20.7992C31.8505 21.0117 31.8971 21.2066 32.034 21.3518C32.1753 21.5014 32.3846 21.5689 32.623 21.5689C32.9676 21.5689 33.2336 21.4452 33.4568 21.3378L33.457 21.3377L33.4834 21.325L33.4838 21.3248C33.736 21.204 33.9618 21.0975 34.2833 21.0975C34.5876 21.0975 34.9143 21.2209 35.1668 21.4252C35.4218 21.6314 35.5782 21.9009 35.5782 22.1736C35.5782 22.323 35.5488 22.4916 35.4435 22.6579C35.3465 22.8111 35.2098 22.9224 35.0711 23.0121L34.7996 22.5923L35.0711 23.0121C34.7468 23.2219 34.3088 23.3668 33.8449 23.519L33.8448 23.5191L33.8027 23.5328L33.8027 23.5328C33.3889 23.6684 32.9525 23.8141 32.6209 24.0208L32.3564 23.5965L32.6209 24.0208C32.2624 24.2443 32.0093 24.5492 32.0093 24.9915C32.0093 25.0847 32.0365 25.1926 32.0759 25.3032C32.1163 25.4168 32.1739 25.5447 32.2438 25.6813C32.3838 25.9546 32.5779 26.2723 32.7973 26.5962C33.235 27.2425 33.7837 27.9289 34.2242 28.3527C34.6664 28.778 35.3505 29.2721 36.0506 29.6604C36.4013 29.8549 36.7602 30.0252 37.0987 30.1474C37.4054 30.258 37.7088 30.3342 37.9806 30.3458L38.0704 30.3496L38.1533 30.3846C38.1716 30.3923 38.1914 30.4013 38.2119 30.4116L38.2119 30.4116C38.2443 30.4279 38.2774 30.4469 38.3097 30.4686L38.315 30.4722L38.3149 30.4722L38.3215 30.4768L38.575 30.6521L38.5322 30.9574C38.5284 30.985 38.5233 31.01 38.5175 31.0325L38.0331 30.9088L38.5175 31.0326C38.5036 31.0872 38.4839 31.1343 38.4604 31.1769C38.4603 31.177 38.4603 31.177 38.4603 31.177L38.0227 30.9351C38.0124 30.9539 37.9973 30.9743 37.9516 31.025L14.8658 21.3377ZM14.8658 21.3377L14.8394 21.325L14.8389 21.3248M14.8658 21.3377L14.8389 21.3248M38.2463 31.4427C38.1132 31.5859 37.9226 31.7125 37.7104 31.8229C37.4907 31.9372 37.2178 32.0494 36.8953 32.1525C36.2833 32.3481 35.569 32.4869 34.8967 32.5507C34.7794 32.5618 34.7081 32.6332 34.6705 32.6851C34.6323 32.7378 34.6054 32.8014 34.5846 32.8615L34.112 32.6983L34.5846 32.8615C34.5446 32.9774 34.5113 33.131 34.4787 33.2848L34.4787 33.2849L34.474 33.3072L34.474 33.3073C34.433 33.5002 34.3902 33.7012 34.3307 33.877C34.3086 33.9421 34.2856 33.9998 34.2614 34.0501L34.1419 34.299L33.8675 34.3304C33.8151 34.3364 33.7483 34.3405 33.6632 34.3402C33.4142 34.3391 33.1048 34.3022 32.7375 34.2579L32.7374 34.2579L32.7234 34.2562C32.7234 34.2562 32.7233 34.2562 32.7233 34.2562C32.2536 34.1996 31.7035 34.1338 31.1253 34.1338C29.8753 34.1338 29.0535 34.6847 28.1451 35.3054L28.145 35.3055L28.0942 35.3402L28.0941 35.3402C27.7604 35.5681 27.412 35.806 27.0184 36.0386C25.8358 36.7374 24.8873 36.7323 24.2635 36.7289H24.2632C24.2413 36.7288 24.2202 36.7287 24.1996 36.7286C24.181 36.7285 24.1629 36.7285 24.145 36.7285C24.1073 36.7285 24.0683 36.7287 24.0265 36.7289H24.0262C23.4059 36.7324 22.4859 36.7368 21.3044 36.0386C20.9108 35.806 20.5623 35.5681 20.2286 35.3402L20.2285 35.3402L20.1777 35.3055L20.1777 35.3054C19.2692 34.6847 18.4475 34.1338 17.1974 34.1338C16.6193 34.1338 16.0691 34.1996 15.5994 34.2562C15.5994 34.2562 15.5994 34.2562 15.5993 34.2562L38.2463 31.4427ZM38.2463 31.4427L38.268 31.4194L38.2463 31.4427ZM14.8389 21.3248C14.5868 21.204 14.361 21.0975 14.0394 21.0975C13.7352 21.0975 13.4084 21.2209 13.1559 21.4252L13.4704 21.8139M14.8389 21.3248L13.4704 21.8139M13.4704 21.8139L13.1559 21.4252C12.901 21.6314 12.7445 21.9009 12.7445 22.1736C12.7445 22.323 12.774 22.4916 12.8793 22.6579C12.9763 22.8111 13.1129 22.9224 13.2516 23.0121L13.5231 22.5923M13.4704 21.8139L13.5231 22.5923M13.5231 22.5923L13.2516 23.0121C13.576 23.2219 14.0139 23.3668 14.4778 23.519L14.478 23.519M13.5231 22.5923L14.478 23.519M14.478 23.519L14.52 23.5328L14.5201 23.5328M14.478 23.519L14.5201 23.5328M14.5201 23.5328C14.9338 23.6684 15.3702 23.8141 15.7018 24.0208C16.0603 24.2443 16.3134 24.5492 16.3134 24.9915C16.3134 25.0847 16.2863 25.1926 16.2469 25.3032C16.2064 25.4168 16.1488 25.5447 16.0789 25.6813C15.9389 25.9546 15.7448 26.2723 15.5255 26.5962C15.0878 27.2425 14.539 27.9289 14.0985 28.3527C13.6564 28.778 12.9722 29.2721 12.2721 29.6604C11.9214 29.8549 11.5626 30.0252 11.224 30.1474C10.9174 30.258 10.6139 30.3342 10.3422 30.3458L10.2523 30.3496M14.5201 23.5328L10.2523 30.3496M10.2523 30.3496L10.1694 30.3845M10.2523 30.3496L10.1694 30.3845M10.1694 30.3845C10.1511 30.3923 10.1314 30.4013 10.1108 30.4116C10.0785 30.4279 10.0453 30.4469 10.0131 30.4686L10.0131 30.4685M10.1694 30.3845L10.0131 30.4685M10.0131 30.4685L10.0077 30.4722M10.0131 30.4685L10.0077 30.4722M10.0077 30.4722L10.0011 30.4768L9.74778 30.6521M10.0077 30.4722L9.74778 30.6521M9.74778 30.6521L9.79047 30.9572M9.74778 30.6521L9.79047 30.9572M9.79047 30.9572C9.79439 30.9853 9.7995 31.0102 9.80519 31.0325L9.80519 31.0326L9.79047 30.9572ZM9.86239 31.177C9.91123 31.2654 9.97874 31.338 10.0545 31.4191L9.86237 31.1769C9.86238 31.1769 9.86238 31.177 9.86239 31.177ZM10.0547 31.4194L10.0765 31.4427C10.2095 31.5858 10.4001 31.7125 10.6123 31.8228C10.832 31.9372 11.1049 32.0494 11.4274 32.1525L11.5796 31.6762L11.4274 32.1525C12.0395 32.3481 12.7537 32.4869 13.426 32.5507C13.5433 32.5618 13.6146 32.6332 13.6523 32.6852L14.0572 32.3918L10.0547 31.4194Z" fill="white" stroke="black"/>
<rect width="48" height="48" rx="5" stroke="white"/>
</svg>
