<svg width="42" height="42" viewBox="0 0 42 42" fill="none" xmlns="http://www.w3.org/2000/svg">
<rect width="42" height="42" rx="10" fill="url(#paint0_linear)"/>
<path d="M26.9388 24.0538L25.4974 22.6123L26.9388 21.1708C27.3175 20.7922 27.6179 20.3426 27.8228 19.8479C28.0277 19.3532 28.1332 18.8229 28.1332 18.2874C28.1332 17.7519 28.0277 17.2216 27.8228 16.7269C27.6179 16.2321 27.3175 15.7826 26.9388 15.4039C26.5602 15.0253 26.1106 14.7249 25.6159 14.52C25.1212 14.3151 24.5909 14.2096 24.0554 14.2096C23.5199 14.2096 22.9896 14.3151 22.4949 14.52C22.0001 14.7249 21.5506 15.0253 21.1719 15.4039L19.7305 16.8454L18.289 15.4039L19.7305 13.9625C20.8807 12.8308 22.4315 12.1995 24.0451 12.2061C25.6586 12.2127 27.2042 12.8566 28.3452 13.9976C29.4862 15.1385 30.1301 16.6841 30.1367 18.2977C30.1432 19.9113 29.5119 21.4621 28.3803 22.6123L26.9388 24.0538ZM24.0549 26.9377L22.6134 28.3792C22.0471 28.9548 21.3725 29.4125 20.6284 29.7261C19.8844 30.0396 19.0856 30.2027 18.2782 30.206C17.4708 30.2093 16.6707 30.0527 15.9241 29.7452C15.1775 29.4377 14.4992 28.9855 13.9282 28.4146C13.3573 27.8436 12.905 27.1653 12.5976 26.4187C12.2901 25.6721 12.1335 24.872 12.1368 24.0646C12.1401 23.2572 12.3032 22.4584 12.6167 21.7143C12.9303 20.9703 13.388 20.2956 13.9636 19.7294L15.405 18.2879L16.8465 19.7294L15.405 21.1708C15.0264 21.5495 14.726 21.999 14.5211 22.4938C14.3162 22.9885 14.2107 23.5188 14.2107 24.0543C14.2107 24.5898 14.3162 25.12 14.5211 25.6148C14.726 26.1095 15.0264 26.5591 15.405 26.9377C15.7837 27.3164 16.2332 27.6168 16.728 27.8217C17.2227 28.0266 17.753 28.1321 18.2885 28.1321C18.824 28.1321 19.3543 28.0266 19.849 27.8217C20.3437 27.6168 20.7933 27.3164 21.1719 26.9377L22.6134 25.4963L24.0549 26.9377Z" fill="white"/>
<path d="M24.055 16.8452L25.4975 18.2877L18.2892 25.495L16.8467 24.0536L24.055 16.8462V16.8452Z" fill="white"/>
<defs>
<linearGradient id="paint0_linear" x1="49.3043" y1="35.2969" x2="28.1654" y2="-7.20836" gradientUnits="userSpaceOnUse">
<stop stop-color="#5E52D2"/>
<stop offset="1" stop-color="#B697F9"/>
</linearGradient>
</defs>
</svg>
