<svg width="44" height="44" viewBox="0 0 44 44" fill="none" xmlns="http://www.w3.org/2000/svg">
<rect width="44" height="44" rx="10" fill="url(#paint0_linear)"/>
<path d="M17.125 20.3333C17.125 19.4493 17.4674 18.6014 18.0769 17.9763C18.6864 17.3512 19.513 17 20.375 17C21.237 17 22.0636 17.3512 22.6731 17.9763C23.2826 18.6014 23.625 19.4493 23.625 20.3333C23.625 21.2174 23.2826 22.0652 22.6731 22.6904C22.0636 23.3155 21.237 23.6667 20.375 23.6667C19.513 23.6667 18.6864 23.3155 18.0769 22.6904C17.4674 22.0652 17.125 21.2174 17.125 20.3333ZM20.375 18.6667C19.944 18.6667 19.5307 18.8423 19.226 19.1548C18.9212 19.4674 18.75 19.8913 18.75 20.3333C18.75 20.7754 18.9212 21.1993 19.226 21.5118C19.5307 21.8244 19.944 22 20.375 22C20.806 22 21.2193 21.8244 21.524 21.5118C21.8288 21.1993 22 20.7754 22 20.3333C22 19.8913 21.8288 19.4674 21.524 19.1548C21.2193 18.8423 20.806 18.6667 20.375 18.6667Z" fill="white"/>
<path d="M11.4375 12C10.791 12 10.171 12.2634 9.71393 12.7322C9.25681 13.2011 9 13.837 9 14.5V26.1667C9 26.8297 9.25681 27.4656 9.71393 27.9344C10.171 28.4033 10.791 28.6667 11.4375 28.6667H29.3125C29.959 28.6667 30.579 28.4033 31.0361 27.9344C31.4932 27.4656 31.75 26.8297 31.75 26.1667V14.5C31.75 13.837 31.4932 13.2011 31.0361 12.7322C30.579 12.2634 29.959 12 29.3125 12H11.4375ZM10.625 14.5C10.625 14.279 10.7106 14.067 10.863 13.9107C11.0153 13.7545 11.222 13.6667 11.4375 13.6667H13.875V15.3333C13.875 15.7754 13.7038 16.1993 13.399 16.5118C13.0943 16.8244 12.681 17 12.25 17H10.625V14.5ZM10.625 18.6667H12.25C13.112 18.6667 13.9386 18.3155 14.5481 17.6904C15.1576 17.0652 15.5 16.2174 15.5 15.3333V13.6667H25.25V15.3333C25.25 16.2174 25.5924 17.0652 26.2019 17.6904C26.8114 18.3155 27.638 18.6667 28.5 18.6667H30.125V22H28.5C27.638 22 26.8114 22.3512 26.2019 22.9763C25.5924 23.6014 25.25 24.4493 25.25 25.3333V27H15.5V25.3333C15.5 24.4493 15.1576 23.6014 14.5481 22.9763C13.9386 22.3512 13.112 22 12.25 22H10.625V18.6667ZM26.875 13.6667H29.3125C29.528 13.6667 29.7347 13.7545 29.887 13.9107C30.0394 14.067 30.125 14.279 30.125 14.5V17H28.5C28.069 17 27.6557 16.8244 27.351 16.5118C27.0462 16.1993 26.875 15.7754 26.875 15.3333V13.6667ZM30.125 23.6667V26.1667C30.125 26.3877 30.0394 26.5996 29.887 26.7559C29.7347 26.9122 29.528 27 29.3125 27H26.875V25.3333C26.875 24.8913 27.0462 24.4674 27.351 24.1548C27.6557 23.8423 28.069 23.6667 28.5 23.6667H30.125ZM13.875 27H11.4375C11.222 27 11.0153 26.9122 10.863 26.7559C10.7106 26.5996 10.625 26.3877 10.625 26.1667V23.6667H12.25C12.681 23.6667 13.0943 23.8423 13.399 24.1548C13.7038 24.4674 13.875 24.8913 13.875 25.3333V27Z" fill="white"/>
<path opacity="0.65" d="M33.3751 26.1668C33.3751 27.2718 32.947 28.3316 32.1852 29.113C31.4233 29.8944 30.39 30.3334 29.3126 30.3334H12.3882C12.5563 30.8211 12.8677 31.2432 13.2795 31.5417C13.6913 31.8402 14.1833 32.0004 14.6876 32.0001H29.3126C30.821 32.0001 32.2676 31.3855 33.3342 30.2916C34.4008 29.1976 35.0001 27.7139 35.0001 26.1668V17.8334C35.0003 17.3162 34.8442 16.8117 34.5531 16.3893C34.2621 15.9669 33.8505 15.6475 33.3751 15.4751V26.1668Z" fill="white"/>
<defs>
<linearGradient id="paint0_linear" x1="51.6522" y1="36.9777" x2="29.5067" y2="-7.55161" gradientUnits="userSpaceOnUse">
<stop stop-color="#5E52D2"/>
<stop offset="1" stop-color="#B697F9"/>
</linearGradient>
</defs>
</svg>
