<svg width="42" height="42" viewBox="0 0 42 42" fill="none" xmlns="http://www.w3.org/2000/svg">
<rect width="42" height="42" rx="10" fill="url(#paint0_linear)"/>
<path d="M14 24V21H17V19H14V16H12V19H9V21H12V24H14Z" fill="white"/>
<path d="M21 21C22.93 21 24.5 19.43 24.5 17.5C24.5 15.57 22.93 14 21 14C19.07 14 17.5 15.57 17.5 17.5C17.5 19.43 19.07 21 21 21ZM21 16C21.83 16 22.5 16.67 22.5 17.5C22.5 18.33 21.83 19 21 19C20.17 19 19.5 18.33 19.5 17.5C19.5 16.67 20.17 16 21 16ZM21 22.75C18.66 22.75 14 23.92 14 26.25V28H28V26.25C28 23.92 23.34 22.75 21 22.75ZM16.34 26C17.18 25.42 19.21 24.75 21 24.75C22.79 24.75 24.82 25.42 25.66 26H16.34ZM26 21C27.93 21 29.5 19.43 29.5 17.5C29.5 15.57 27.93 14 26 14C25.76 14 25.52 14.02 25.29 14.07C26.0765 15.0392 26.5041 16.2504 26.5005 17.4986C26.4968 18.7468 26.0622 19.9554 25.27 20.92C25.51 20.97 25.75 21 26 21ZM28.32 23.02C29.32 23.83 30 24.89 30 26.25V28H33V26.25C33 24.56 30.56 23.49 28.32 23.02Z" fill="white"/>
<defs>
<linearGradient id="paint0_linear" x1="49.3043" y1="35.2969" x2="28.1654" y2="-7.20836" gradientUnits="userSpaceOnUse">
<stop stop-color="#5E52D2"/>
<stop offset="1" stop-color="#B697F9"/>
</linearGradient>
</defs>
</svg>
