<svg width="48" height="44" viewBox="0 0 48 44" fill="none" xmlns="http://www.w3.org/2000/svg">
<path d="M45.1122 33.9323C44.8781 33.8903 44.644 33.7644 44.4489 33.6385L42.4168 32.3777C39.8994 30.8158 38.3613 28.0183 38.3613 25.0013C38.3613 21.9757 39.9082 19.1715 42.4372 17.6123L44.4879 16.3481C45.6195 15.6346 47.0244 16.0543 47.6877 17.2713C47.8829 17.649 47.9999 18.0687 47.9999 18.5304L47.9999 31.4982C47.9999 33.051 46.6341 34.31 45.1122 33.9323Z" fill="url(#paint0_linear)"/>
<path d="M45.1122 27.9323C44.8781 27.8903 44.644 27.7644 44.4489 27.6385L42.4168 26.3777C39.8994 24.8158 38.3613 22.0183 38.3613 19.0013C38.3613 15.9757 39.9082 13.1715 42.4372 11.6123L44.4879 10.3481C45.6195 9.63462 47.0244 10.0543 47.6877 11.2713C47.8829 11.649 47.9999 12.0687 47.9999 12.5304L47.9999 25.4982C47.9999 27.051 46.6341 28.31 45.1122 27.9323Z" fill="url(#paint1_linear)"/>
<rect width="40.2893" height="44" rx="4" fill="url(#paint2_linear)"/>
<mask id="mask0" mask-type="alpha" maskUnits="userSpaceOnUse" x="0" y="0" width="41" height="44">
<rect width="40.2893" height="44" rx="4" fill="url(#paint3_linear)"/>
</mask>
<g mask="url(#mask0)">
</g>
<path d="M22.3254 7H23.0316C24.1152 7.0401 25.1994 7.22724 26.2044 7.6133C26.885 7.8743 27.5566 8.2053 28.0589 8.71756C28.3513 9.01481 28.5802 9.3662 28.7288 9.74501C28.8984 10.1845 28.9618 10.6569 28.9375 11.1223C28.9115 11.5577 28.8096 11.9932 28.6086 12.3885C28.4508 12.6799 28.2939 12.974 28.0884 13.2397C27.8308 13.5773 27.5009 13.8741 27.1042 14.066C26.6294 14.2939 26.0704 14.3834 25.5457 14.2744C24.8625 14.1432 24.2765 13.6579 24.0439 13.0476C24.0021 12.8602 24.0301 12.6575 24.1172 12.4844C24.1704 12.3727 24.3105 12.3412 24.4288 12.3271C24.6861 12.2993 24.9306 12.3987 25.1835 12.4205C25.3545 12.4413 25.4942 12.3156 25.5742 12.1887C25.6637 12.0614 25.6812 11.9059 25.6819 11.7576C25.6824 11.5063 25.6868 11.2521 25.6304 11.0049C25.5854 10.7953 25.4662 10.6084 25.3424 10.4317C25.1497 10.1637 24.8581 9.97792 24.5601 9.82385C24.0855 9.56558 23.5346 9.46181 22.9919 9.42647C22.5276 9.3918 22.0576 9.41355 21.6013 9.50282C20.7519 9.67682 19.9908 10.1342 19.4026 10.7233C18.9108 11.2045 18.5051 11.7843 18.3421 12.4377C18.1847 13.0671 18.2543 13.7474 18.5549 14.3315C18.8106 14.8306 19.2112 15.2552 19.6755 15.5957C20.3549 16.1204 21.0929 16.5767 21.8601 16.9818C22.3213 17.231 22.81 17.4302 23.2901 17.6445C23.7727 17.8622 24.2497 18.0908 24.7211 18.3287C25.0128 18.4798 25.3103 18.6219 25.5971 18.7807C26.0162 19.0145 26.4139 19.2819 26.7831 19.5796C27.0597 19.7968 27.3041 20.0461 27.5717 20.2724C27.9295 20.5898 28.2569 20.9362 28.5598 21.2998C28.7512 21.5323 28.9387 21.7686 29.101 22.0201C29.5206 22.6642 29.8042 23.3858 29.9244 24.1314C29.9674 24.3815 29.9842 24.6346 30 24.8872V25.295C29.9766 25.8569 29.9236 26.4197 29.7974 26.9704C29.6067 27.8311 29.2625 28.6644 28.7629 29.4109C28.3306 30.0598 27.785 30.6405 27.1677 31.1419C26.5749 31.6149 25.9303 32.0311 25.2555 32.3963C24.4018 32.8549 23.4894 33.2219 22.539 33.4668C21.7677 33.6705 20.9713 33.7698 20.1761 33.8502C20.0776 33.9943 19.9866 34.1429 19.8942 34.2906C19.6719 34.6581 19.4909 35.0555 19.1808 35.3697C18.8634 35.7053 18.4211 35.962 17.9342 35.9955C17.5333 36.027 17.1298 35.8915 16.8216 35.6552C16.4302 35.348 16.2023 34.8833 16.1502 34.4136C16.1239 34.2709 16.2256 34.1121 16.384 34.0883C16.8469 34.0031 17.3034 33.8753 17.7264 33.6787C17.7853 33.6499 17.8485 33.6272 17.8996 33.5869C17.9256 33.5183 17.8369 33.4845 17.7812 33.47C17.3983 33.3796 17.0108 33.3046 16.6323 33.1986C16.1269 33.0622 15.6304 32.8977 15.1444 32.7097C14.7754 32.5656 14.4069 32.4154 14.0685 32.2151C13.5154 31.8324 12.9868 31.4051 12.5818 30.882C12.1841 30.3659 12.0535 29.7218 12 29.101V28.7159C12.017 28.5675 12.0394 28.4191 12.0783 28.2741C12.2384 27.6383 12.6473 27.0722 13.1763 26.6499C13.8924 26.0751 14.8489 25.7511 15.7968 25.8125C16.5647 25.8585 17.3 26.1464 17.9137 26.5721C18.5462 27.0092 19.0628 27.5801 19.4676 28.2068C19.9117 28.8967 20.2338 29.6552 20.4072 30.4434C20.4247 30.5179 20.4323 30.5952 20.4624 30.667C20.8256 30.5934 21.1759 30.4742 21.522 30.3496C22.268 30.0691 22.9756 29.6948 23.6015 29.2227C24.1062 28.8409 24.5608 28.3971 24.9172 27.8894C25.2864 27.3635 25.5542 26.7704 25.6569 26.1476C25.6875 25.9432 25.7301 25.7377 25.7136 25.5306C25.6926 25.2884 25.6404 25.049 25.5591 24.8181C25.3275 24.1609 24.8826 23.5883 24.3682 23.0974C23.7114 22.4585 22.9579 21.9082 22.1452 21.4516C20.9146 20.7905 19.6809 20.1342 18.4413 19.4876C17.2302 18.8713 16.1171 18.0781 15.203 17.1123C14.6696 16.564 14.25 15.9138 14.0199 15.2038C13.7509 14.3857 13.7596 13.5109 13.9029 12.6729C14.0885 11.6121 14.6025 10.6028 15.3748 9.80369C15.8744 9.28011 16.4698 8.84126 17.1066 8.47106C17.8133 8.06257 18.5666 7.72092 19.3591 7.48348C20.3165 7.19054 21.3196 7.03806 22.3254 7ZM14.3833 28.4549C14.2704 28.6393 14.2461 28.8579 14.2541 29.0666C14.2721 29.382 14.4499 29.6756 14.6973 29.8858C15.034 30.1756 15.4592 30.3537 15.8846 30.4998C16.1086 30.5725 16.3285 30.6568 16.5574 30.7153C16.9374 30.8163 17.328 30.8757 17.7165 30.94C17.8459 30.9599 17.9743 30.9901 18.1064 30.9889C17.8651 30.1955 17.4345 29.4515 16.8546 28.8285C16.6674 28.6243 16.4596 28.4347 16.2188 28.2856C15.9491 28.1162 15.6362 27.9934 15.3084 27.9786C14.9367 27.9644 14.5752 28.1624 14.3833 28.4549Z" fill="white"/>
<defs>
<linearGradient id="paint0_linear" x1="22.2648" y1="43.9999" x2="49.8013" y2="41.7774" gradientUnits="userSpaceOnUse">
<stop offset="0.651042" stop-color="#037AE3"/>
<stop offset="0.921875" stop-color="#0385E7"/>
<stop offset="1" stop-color="#03A2F3"/>
</linearGradient>
<linearGradient id="paint1_linear" x1="22.2648" y1="43.9999" x2="49.8013" y2="41.7774" gradientUnits="userSpaceOnUse">
<stop offset="0.651042" stop-color="#037AE3"/>
<stop offset="0.921875" stop-color="#0385E7"/>
<stop offset="1" stop-color="#03A2F3"/>
</linearGradient>
<linearGradient id="paint2_linear" x1="5.56376" y1="6.06487" x2="33.7454" y2="59.7801" gradientUnits="userSpaceOnUse">
<stop stop-color="#00C2FF"/>
<stop offset="0.798649" stop-color="#005CDB"/>
</linearGradient>
<linearGradient id="paint3_linear" x1="5.56376" y1="6.06487" x2="33.7454" y2="59.7801" gradientUnits="userSpaceOnUse">
<stop stop-color="#00C2FF"/>
<stop offset="0.798649" stop-color="#005CDB"/>
</linearGradient>
</defs>
</svg>
