<svg width="50" height="54" viewBox="0 0 50 54" fill="none" xmlns="http://www.w3.org/2000/svg">
<rect x="15.5" y="7" width="20" height="20" rx="5" fill="#0079FF"/>
<path fill-rule="evenodd" clip-rule="evenodd" d="M19.5909 6.09091C16.8295 6.09091 14.5909 8.32949 14.5909 11.0909V22.9091C14.5909 25.6705 16.8295 27.9091 19.5909 27.9091H20.9291L20.3316 29.3455C20.0587 30.0015 20.5398 30.7052 21.2402 30.5857C23.1623 30.2576 25.3881 29.3688 26.8648 28.379C27.0934 28.2258 27.3143 28.0691 27.5277 27.9091H31.4091C34.1705 27.9091 36.4091 25.6705 36.4091 22.9091V11.0909C36.4091 8.32949 34.1705 6.09091 31.4091 6.09091H19.5909Z" fill="url(#paint0_linear)"/>
<path fill-rule="evenodd" clip-rule="evenodd" d="M19.5909 6.09091C16.8295 6.09091 14.5909 8.32949 14.5909 11.0909V22.9091C14.5909 25.6705 16.8295 27.9091 19.5909 27.9091H20.9291L20.3316 29.3455C20.0587 30.0015 20.5398 30.7052 21.2402 30.5857C23.1623 30.2576 25.3881 29.3688 26.8648 28.379C27.0934 28.2258 27.3143 28.0691 27.5277 27.9091H31.4091C34.1705 27.9091 36.4091 25.6705 36.4091 22.9091V11.0909C36.4091 8.32949 34.1705 6.09091 31.4091 6.09091H19.5909Z" fill="url(#paint1_linear)"/>
<path fill-rule="evenodd" clip-rule="evenodd" d="M19.5909 6.09091C16.8295 6.09091 14.5909 8.32949 14.5909 11.0909V22.9091C14.5909 25.6705 16.8295 27.9091 19.5909 27.9091H20.9291L20.3316 29.3455C20.0587 30.0015 20.5398 30.7052 21.2402 30.5857C23.1623 30.2576 25.3881 29.3688 26.8648 28.379C27.0934 28.2258 27.3143 28.0691 27.5277 27.9091H31.4091C34.1705 27.9091 36.4091 25.6705 36.4091 22.9091V11.0909C36.4091 8.32949 34.1705 6.09091 31.4091 6.09091H19.5909Z" fill="url(#paint2_linear)" fill-opacity="0.5"/>
<mask id="mask0" mask-type="alpha" maskUnits="userSpaceOnUse" x="14" y="6" width="23" height="25">
<path fill-rule="evenodd" clip-rule="evenodd" d="M19.5909 6.09091C16.8295 6.09091 14.5909 8.32949 14.5909 11.0909V22.9091C14.5909 25.6705 16.8295 27.9091 19.5909 27.9091H20.9291L20.3316 29.3455C20.0587 30.0015 20.5398 30.7052 21.2402 30.5857C23.1623 30.2576 25.3881 29.3688 26.8648 28.379C27.0934 28.2258 27.3143 28.0691 27.5277 27.9091H31.4091C34.1705 27.9091 36.4091 25.6705 36.4091 22.9091V11.0909C36.4091 8.32949 34.1705 6.09091 31.4091 6.09091H19.5909Z" fill="url(#paint3_linear)"/>
<path fill-rule="evenodd" clip-rule="evenodd" d="M19.5909 6.09091C16.8295 6.09091 14.5909 8.32949 14.5909 11.0909V22.9091C14.5909 25.6705 16.8295 27.9091 19.5909 27.9091H20.9291L20.3316 29.3455C20.0587 30.0015 20.5398 30.7052 21.2402 30.5857C23.1623 30.2576 25.3881 29.3688 26.8648 28.379C27.0934 28.2258 27.3143 28.0691 27.5277 27.9091H31.4091C34.1705 27.9091 36.4091 25.6705 36.4091 22.9091V11.0909C36.4091 8.32949 34.1705 6.09091 31.4091 6.09091H19.5909Z" fill="url(#paint4_linear)"/>
<path fill-rule="evenodd" clip-rule="evenodd" d="M19.5909 6.09091C16.8295 6.09091 14.5909 8.32949 14.5909 11.0909V22.9091C14.5909 25.6705 16.8295 27.9091 19.5909 27.9091H20.9291L20.3316 29.3455C20.0587 30.0015 20.5398 30.7052 21.2402 30.5857C23.1623 30.2576 25.3881 29.3688 26.8648 28.379C27.0934 28.2258 27.3143 28.0691 27.5277 27.9091H31.4091C34.1705 27.9091 36.4091 25.6705 36.4091 22.9091V11.0909C36.4091 8.32949 34.1705 6.09091 31.4091 6.09091H19.5909Z" fill="url(#paint5_linear)" fill-opacity="0.35"/>
</mask>
<g mask="url(#mask0)">
<g filter="url(#filter0_f)">
<ellipse cx="24.5541" cy="27" rx="4.72973" ry="2.27028" fill="#E97618"/>
</g>
</g>
<g filter="url(#filter1_dd)">
<path d="M25.8922 10H26.2609C26.8268 10.0194 27.393 10.1097 27.9179 10.2961C28.2733 10.4221 28.624 10.5819 28.8863 10.8292C29.039 10.9727 29.1585 11.1423 29.2362 11.3252C29.3247 11.5374 29.3578 11.7654 29.3451 11.9901C29.3316 12.2003 29.2783 12.4105 29.1734 12.6014C29.091 12.742 29.009 12.884 28.9017 13.0123C28.7672 13.1752 28.5949 13.3185 28.3877 13.4112C28.1398 13.5212 27.8479 13.5644 27.5739 13.5118C27.2171 13.4485 26.9111 13.2142 26.7896 12.9195C26.7678 12.8291 26.7824 12.7312 26.8279 12.6476C26.8557 12.5937 26.9288 12.5785 26.9906 12.5717C27.125 12.5583 27.2526 12.6063 27.3847 12.6168C27.474 12.6268 27.547 12.5661 27.5887 12.5049C27.6355 12.4434 27.6446 12.3684 27.645 12.2967C27.6453 12.1755 27.6476 12.0527 27.6181 11.9334C27.5946 11.8322 27.5323 11.742 27.4677 11.6567C27.3671 11.5273 27.2148 11.4376 27.0592 11.3632C26.8113 11.2386 26.5236 11.1885 26.2402 11.1714C25.9977 11.1547 25.7523 11.1652 25.514 11.2083C25.0704 11.2923 24.673 11.5131 24.3658 11.7975C24.109 12.0298 23.8971 12.3097 23.812 12.6251C23.7298 12.9289 23.7661 13.2574 23.9231 13.5393C24.0566 13.7803 24.2658 13.9853 24.5083 14.1497C24.8631 14.403 25.2485 14.6232 25.6492 14.8188C25.89 14.9391 26.1452 15.0353 26.396 15.1387C26.648 15.2438 26.8971 15.3542 27.1433 15.469C27.2956 15.542 27.4509 15.6106 27.6007 15.6872C27.8196 15.8001 28.0272 15.9292 28.2201 16.0729C28.3645 16.1778 28.4922 16.2981 28.6319 16.4074C28.8187 16.5606 28.9897 16.7278 29.1479 16.9034C29.2478 17.0156 29.3458 17.1297 29.4305 17.2511C29.6496 17.562 29.7977 17.9104 29.8605 18.2703C29.883 18.3911 29.8917 18.5133 29.9 18.6352V18.8321C29.8878 19.1033 29.8601 19.375 29.7942 19.6409C29.6946 20.0564 29.5149 20.4587 29.2539 20.8191C29.0282 21.1323 28.7433 21.4127 28.4209 21.6547C28.1113 21.8831 27.7747 22.084 27.4223 22.2603C26.9765 22.4817 26.5 22.6589 26.0037 22.7771C25.6009 22.8754 25.185 22.9233 24.7698 22.9622C24.7183 23.0317 24.6708 23.1035 24.6225 23.1748C24.5064 23.3522 24.4119 23.544 24.25 23.6957C24.0842 23.8577 23.8533 23.9816 23.599 23.9978C23.3896 24.013 23.1789 23.9476 23.0179 23.8335C22.8135 23.6852 22.6945 23.4609 22.6673 23.2342C22.6536 23.1653 22.7067 23.0886 22.7894 23.0771C23.0311 23.036 23.2696 22.9743 23.4905 22.8794C23.5212 22.8655 23.5542 22.8545 23.5809 22.8351C23.5945 22.8019 23.5481 22.7856 23.5191 22.7786C23.3191 22.735 23.1168 22.6988 22.9191 22.6476C22.6551 22.5818 22.3959 22.5023 22.1421 22.4116C21.9494 22.342 21.7569 22.2695 21.5802 22.1728C21.2914 21.9881 21.0153 21.7818 20.8038 21.5292C20.5962 21.2801 20.5279 20.9691 20.5 20.6695V20.4835C20.5089 20.4119 20.5206 20.3402 20.5409 20.2702C20.6245 19.9633 20.838 19.69 21.1143 19.4861C21.4883 19.2087 21.9877 19.0522 22.4828 19.0819C22.8838 19.1041 23.2678 19.2431 23.5883 19.4486C23.9186 19.6596 24.1884 19.9352 24.3997 20.2378C24.6317 20.5708 24.7999 20.937 24.8904 21.3175C24.8996 21.3535 24.9035 21.3908 24.9193 21.4254C25.1089 21.3899 25.2918 21.3324 25.4726 21.2722C25.8622 21.1368 26.2317 20.9561 26.5586 20.7282C26.8221 20.5439 27.0595 20.3296 27.2456 20.0845C27.4385 19.8307 27.5783 19.5443 27.6319 19.2437C27.6479 19.145 27.6702 19.0458 27.6615 18.9458C27.6506 18.8289 27.6233 18.7133 27.5809 18.6018C27.4599 18.2846 27.2276 18.0082 26.9589 17.7711C26.616 17.4627 26.2224 17.197 25.798 16.9767C25.1554 16.6575 24.5111 16.3406 23.8638 16.0285C23.2313 15.731 22.6501 15.3481 22.1727 14.8818C21.8941 14.6171 21.675 14.3032 21.5548 13.9604C21.4143 13.5655 21.4189 13.1432 21.4937 12.7386C21.5907 12.2265 21.8591 11.7393 22.2624 11.3535C22.5233 11.1007 22.8342 10.8889 23.1668 10.7102C23.5358 10.513 23.9292 10.348 24.3431 10.2334C24.8431 10.092 25.3669 10.0184 25.8922 10ZM21.7446 20.3575C21.6857 20.4465 21.673 20.5521 21.6772 20.6528C21.6866 20.8051 21.7794 20.9468 21.9086 21.0483C22.0844 21.1882 22.3065 21.2742 22.5286 21.3447C22.6456 21.3798 22.7604 21.4205 22.88 21.4487C23.0784 21.4975 23.2824 21.5262 23.4853 21.5572C23.5528 21.5669 23.6199 21.5814 23.6889 21.5809C23.5629 21.1978 23.338 20.8387 23.0352 20.5379C22.9374 20.4393 22.8289 20.3478 22.7032 20.2758C22.5623 20.194 22.3989 20.1347 22.2277 20.1276C22.0336 20.1207 21.8448 20.2163 21.7446 20.3575Z" fill="white"/>
</g>
<defs>
<filter id="filter0_f" x="-54.1757" y="-49.2703" width="157.459" height="152.541" filterUnits="userSpaceOnUse" color-interpolation-filters="sRGB">
<feFlood flood-opacity="0" result="BackgroundImageFix"/>
<feBlend mode="normal" in="SourceGraphic" in2="BackgroundImageFix" result="shape"/>
<feGaussianBlur stdDeviation="37" result="effect1_foregroundBlur"/>
</filter>
<filter id="filter1_dd" x="0.5" y="0" width="49.4" height="54" filterUnits="userSpaceOnUse" color-interpolation-filters="sRGB">
<feFlood flood-opacity="0" result="BackgroundImageFix"/>
<feColorMatrix in="SourceAlpha" type="matrix" values="0 0 0 0 0 0 0 0 0 0 0 0 0 0 0 0 0 0 127 0"/>
<feOffset dy="10"/>
<feGaussianBlur stdDeviation="10"/>
<feColorMatrix type="matrix" values="0 0 0 0 0.886275 0 0 0 0 0.482353 0 0 0 0 0.133333 0 0 0 0.1 0"/>
<feBlend mode="normal" in2="BackgroundImageFix" result="effect1_dropShadow"/>
<feColorMatrix in="SourceAlpha" type="matrix" values="0 0 0 0 0 0 0 0 0 0 0 0 0 0 0 0 0 0 127 0"/>
<feOffset dy="10"/>
<feGaussianBlur stdDeviation="10"/>
<feColorMatrix type="matrix" values="0 0 0 0 0.886275 0 0 0 0 0.482353 0 0 0 0 0.133333 0 0 0 0.1 0"/>
<feBlend mode="normal" in2="effect1_dropShadow" result="effect2_dropShadow"/>
<feBlend mode="normal" in="SourceGraphic" in2="effect2_dropShadow" result="shape"/>
</filter>
<linearGradient id="paint0_linear" x1="15.5" y1="6.99929" x2="38.1105" y2="26.8866" gradientUnits="userSpaceOnUse">
<stop stop-color="#00B1FF"/>
<stop offset="1" stop-color="#006BFF"/>
</linearGradient>
<linearGradient id="paint1_linear" x1="15.5" y1="6.99929" x2="24.4343" y2="31.5353" gradientUnits="userSpaceOnUse">
<stop stop-color="#FCBF22"/>
<stop offset="1" stop-color="#DD7021"/>
</linearGradient>
<linearGradient id="paint2_linear" x1="25.5392" y1="6.99929" x2="25.5392" y2="29.8675" gradientUnits="userSpaceOnUse">
<stop stop-color="#FD9D04"/>
<stop offset="1" stop-color="#FA7302"/>
</linearGradient>
<linearGradient id="paint3_linear" x1="15.5" y1="6.99929" x2="38.1105" y2="26.8866" gradientUnits="userSpaceOnUse">
<stop stop-color="#00B1FF"/>
<stop offset="1" stop-color="#006BFF"/>
</linearGradient>
<linearGradient id="paint4_linear" x1="15.5" y1="6.99929" x2="24.4343" y2="31.5353" gradientUnits="userSpaceOnUse">
<stop stop-color="#FCBF22"/>
<stop offset="1" stop-color="#DD7021"/>
</linearGradient>
<linearGradient id="paint5_linear" x1="25.5392" y1="6.99929" x2="25.5392" y2="29.8675" gradientUnits="userSpaceOnUse">
<stop stop-color="#FD9D04"/>
<stop offset="1" stop-color="#FA7302"/>
</linearGradient>
</defs>
</svg>
