<svg width="23" height="25" viewBox="0 0 23 25" fill="none" xmlns="http://www.w3.org/2000/svg">
<rect x="1.5" y="1" width="20" height="20" rx="5" fill="#0079FF"/>
<path fill-rule="evenodd" clip-rule="evenodd" d="M5.59082 0.0909119C2.8294 0.0909119 0.59082 2.32949 0.59082 5.09091V16.9091C0.59082 19.6705 2.8294 21.9091 5.59082 21.9091H6.92896L6.33146 23.3455C6.05858 24.0015 6.53968 24.7052 7.24004 24.5857C9.16217 24.2576 11.388 23.3688 12.8647 22.379C13.0933 22.2259 13.3142 22.0691 13.5276 21.9091H17.409C20.1704 21.9091 22.409 19.6705 22.409 16.9091V5.09091C22.409 2.32949 20.1704 0.0909119 17.409 0.0909119H5.59082Z" fill="url(#paint0_linear)"/>
<path fill-rule="evenodd" clip-rule="evenodd" d="M5.59082 0.0909119C2.8294 0.0909119 0.59082 2.32949 0.59082 5.09091V16.9091C0.59082 19.6705 2.8294 21.9091 5.59082 21.9091H6.92896L6.33146 23.3455C6.05858 24.0015 6.53968 24.7052 7.24004 24.5857C9.16217 24.2576 11.388 23.3688 12.8647 22.379C13.0933 22.2259 13.3142 22.0691 13.5276 21.9091H17.409C20.1704 21.9091 22.409 19.6705 22.409 16.9091V5.09091C22.409 2.32949 20.1704 0.0909119 17.409 0.0909119H5.59082Z" fill="url(#paint1_linear)"/>
<path fill-rule="evenodd" clip-rule="evenodd" d="M5.59082 0.0909119C2.8294 0.0909119 0.59082 2.32949 0.59082 5.09091V16.9091C0.59082 19.6705 2.8294 21.9091 5.59082 21.9091H6.92896L6.33146 23.3455C6.05858 24.0015 6.53968 24.7052 7.24004 24.5857C9.16217 24.2576 11.388 23.3688 12.8647 22.379C13.0933 22.2259 13.3142 22.0691 13.5276 21.9091H17.409C20.1704 21.9091 22.409 19.6705 22.409 16.9091V5.09091C22.409 2.32949 20.1704 0.0909119 17.409 0.0909119H5.59082Z" fill="url(#paint2_linear)" fill-opacity="0.5"/>
<mask id="mask0" mask-type="alpha" maskUnits="userSpaceOnUse" x="0" y="0" width="23" height="25">
<path fill-rule="evenodd" clip-rule="evenodd" d="M5.59082 0.0909119C2.8294 0.0909119 0.59082 2.32949 0.59082 5.09091V16.9091C0.59082 19.6705 2.8294 21.9091 5.59082 21.9091H6.92896L6.33146 23.3455C6.05858 24.0015 6.53968 24.7052 7.24004 24.5857C9.16217 24.2576 11.388 23.3688 12.8647 22.379C13.0933 22.2259 13.3142 22.0691 13.5276 21.9091H17.409C20.1704 21.9091 22.409 19.6705 22.409 16.9091V5.09091C22.409 2.32949 20.1704 0.0909119 17.409 0.0909119H5.59082Z" fill="url(#paint3_linear)"/>
<path fill-rule="evenodd" clip-rule="evenodd" d="M5.59082 0.0909119C2.8294 0.0909119 0.59082 2.32949 0.59082 5.09091V16.9091C0.59082 19.6705 2.8294 21.9091 5.59082 21.9091H6.92896L6.33146 23.3455C6.05858 24.0015 6.53968 24.7052 7.24004 24.5857C9.16217 24.2576 11.388 23.3688 12.8647 22.379C13.0933 22.2259 13.3142 22.0691 13.5276 21.9091H17.409C20.1704 21.9091 22.409 19.6705 22.409 16.9091V5.09091C22.409 2.32949 20.1704 0.0909119 17.409 0.0909119H5.59082Z" fill="url(#paint4_linear)"/>
<path fill-rule="evenodd" clip-rule="evenodd" d="M5.59082 0.0909119C2.8294 0.0909119 0.59082 2.32949 0.59082 5.09091V16.9091C0.59082 19.6705 2.8294 21.9091 5.59082 21.9091H6.92896L6.33146 23.3455C6.05858 24.0015 6.53968 24.7052 7.24004 24.5857C9.16217 24.2576 11.388 23.3688 12.8647 22.379C13.0933 22.2259 13.3142 22.0691 13.5276 21.9091H17.409C20.1704 21.9091 22.409 19.6705 22.409 16.9091V5.09091C22.409 2.32949 20.1704 0.0909119 17.409 0.0909119H5.59082Z" fill="url(#paint5_linear)" fill-opacity="0.35"/>
</mask>
<g mask="url(#mask0)">
<g filter="url(#filter0_f)">
<ellipse cx="10.5539" cy="21" rx="4.72973" ry="2.27028" fill="#E97618"/>
</g>
</g>
<path d="M11.8922 4H12.2609C12.8268 4.01936 13.393 4.1097 13.9179 4.29608C14.2733 4.42208 14.624 4.58187 14.8863 4.82917C15.039 4.97266 15.1585 5.1423 15.2362 5.32518C15.3247 5.53736 15.3578 5.76541 15.3451 5.99006C15.3316 6.20028 15.2783 6.4105 15.1734 6.60136C15.091 6.74201 15.009 6.88398 14.9017 7.01228C14.7672 7.17524 14.5949 7.31852 14.3877 7.41116C14.1398 7.52119 13.8479 7.5644 13.5739 7.51179C13.2171 7.44846 12.9111 7.21418 12.7896 6.91953C12.7678 6.82907 12.7824 6.73118 12.8279 6.64762C12.8557 6.5937 12.9288 6.5785 12.9906 6.57172C13.125 6.55826 13.2526 6.60628 13.3847 6.61678C13.474 6.62684 13.547 6.56614 13.5887 6.50489C13.6355 6.44342 13.6446 6.36839 13.645 6.29675C13.6453 6.17545 13.6476 6.05274 13.6181 5.93341C13.5946 5.83224 13.5323 5.742 13.4677 5.65669C13.3671 5.5273 13.2148 5.43761 13.0592 5.36324C12.8113 5.23855 12.5236 5.18846 12.2402 5.1714C11.9977 5.15466 11.7523 5.16516 11.514 5.20826C11.0704 5.29226 10.673 5.51308 10.3658 5.79746C10.109 6.02977 9.89708 6.30966 9.81198 6.62509C9.72979 6.92893 9.76612 7.25738 9.92312 7.53935C10.0566 7.7803 10.2658 7.98527 10.5083 8.14966C10.8631 8.40297 11.2485 8.62325 11.6492 8.81881C11.89 8.93912 12.1452 9.03526 12.396 9.13873C12.648 9.24384 12.8971 9.3542 13.1433 9.46904C13.2956 9.54199 13.4509 9.61057 13.6007 9.68724C13.8196 9.80011 14.0272 9.92918 14.2201 10.0729C14.3645 10.1778 14.4922 10.2981 14.6319 10.4074C14.8187 10.5606 14.9897 10.7278 15.1479 10.9034C15.2478 11.0156 15.3458 11.1297 15.4305 11.2511C15.6496 11.562 15.7977 11.9104 15.8605 12.2703C15.883 12.3911 15.8917 12.5133 15.9 12.6352V12.8321C15.8878 13.1033 15.8601 13.375 15.7942 13.6409C15.6946 14.0564 15.5149 14.4587 15.2539 14.8191C15.0282 15.1323 14.7433 15.4127 14.4209 15.6547C14.1113 15.8831 13.7747 16.084 13.4223 16.2603C12.9765 16.4817 12.5 16.6589 12.0037 16.7771C11.6009 16.8754 11.185 16.9233 10.7698 16.9622C10.7183 17.0317 10.6708 17.1035 10.6225 17.1748C10.5064 17.3522 10.4119 17.544 10.25 17.6957C10.0842 17.8577 9.85326 17.9816 9.59895 17.9978C9.38961 18.013 9.17887 17.9476 9.01793 17.8335C8.81354 17.6852 8.69452 17.4609 8.66734 17.2342C8.65362 17.1653 8.70671 17.0886 8.78941 17.0771C9.03114 17.036 9.26957 16.9743 9.49047 16.8794C9.52121 16.8655 9.55424 16.8545 9.58091 16.8351C9.59451 16.8019 9.54814 16.7856 9.51905 16.7786C9.31911 16.735 9.11676 16.6988 8.9191 16.6476C8.65514 16.5818 8.39588 16.5023 8.14208 16.4116C7.94938 16.342 7.75693 16.2695 7.58024 16.1728C7.29138 15.9881 7.01535 15.7818 6.80385 15.5292C6.59616 15.2801 6.52795 14.9691 6.5 14.6695V14.4835C6.50889 14.4119 6.52058 14.3402 6.5409 14.2702C6.62449 13.9633 6.83802 13.69 7.1143 13.4861C7.48827 13.2087 7.98774 13.0522 8.48276 13.0819C8.88379 13.1041 9.26779 13.2431 9.58828 13.4486C9.91855 13.6596 10.1884 13.9352 10.3997 14.2378C10.6317 14.5708 10.7999 14.937 10.8904 15.3175C10.8996 15.3535 10.9035 15.3908 10.9193 15.4254C11.1089 15.3899 11.2918 15.3324 11.4726 15.2722C11.8622 15.1368 12.2317 14.9561 12.5586 14.7282C12.8221 14.5439 13.0595 14.3296 13.2456 14.0845C13.4385 13.8307 13.5783 13.5443 13.6319 13.2437C13.6479 13.145 13.6702 13.0458 13.6615 12.9458C13.6506 12.8289 13.6233 12.7133 13.5809 12.6018C13.4599 12.2846 13.2276 12.0082 12.9589 11.7711C12.616 11.4627 12.2224 11.197 11.798 10.9767C11.1554 10.6575 10.5111 10.3406 9.8638 10.0285C9.23134 9.73099 8.65006 9.34807 8.17269 8.88181C7.89412 8.61712 7.675 8.30322 7.55483 7.96044C7.41434 7.56549 7.41891 7.1432 7.49373 6.73862C7.59065 6.22653 7.85906 5.73927 8.26237 5.35351C8.52329 5.10074 8.83425 4.88888 9.16681 4.71017C9.53582 4.51297 9.92922 4.34803 10.3431 4.2334C10.8431 4.09198 11.3669 4.01837 11.8922 4ZM7.74461 14.3575C7.68567 14.4465 7.67297 14.5521 7.67716 14.6528C7.68656 14.8051 7.77942 14.9468 7.9086 15.0483C8.08441 15.1882 8.30645 15.2742 8.52862 15.3447C8.64561 15.3798 8.76045 15.4205 8.87998 15.4487C9.07839 15.4975 9.2824 15.5262 9.48526 15.5572C9.55284 15.5669 9.61991 15.5814 9.68889 15.5809C9.56288 15.1978 9.33804 14.8387 9.03521 14.5379C8.93739 14.4393 8.82891 14.3478 8.70316 14.2758C8.56228 14.194 8.39893 14.1347 8.22769 14.1276C8.0336 14.1207 7.84484 14.2163 7.74461 14.3575Z" fill="white"/>
<defs>
<filter id="filter0_f" x="-68.1758" y="-55.2703" width="157.459" height="152.541" filterUnits="userSpaceOnUse" color-interpolation-filters="sRGB">
<feFlood flood-opacity="0" result="BackgroundImageFix"/>
<feBlend mode="normal" in="SourceGraphic" in2="BackgroundImageFix" result="shape"/>
<feGaussianBlur stdDeviation="37" result="effect1_foregroundBlur"/>
</filter>
<linearGradient id="paint0_linear" x1="1.49991" y1="0.999292" x2="24.1103" y2="20.8866" gradientUnits="userSpaceOnUse">
<stop stop-color="#00B1FF"/>
<stop offset="1" stop-color="#006BFF"/>
</linearGradient>
<linearGradient id="paint1_linear" x1="1.49991" y1="0.999293" x2="10.4342" y2="25.5353" gradientUnits="userSpaceOnUse">
<stop stop-color="#FCBF22"/>
<stop offset="1" stop-color="#DD7021"/>
</linearGradient>
<linearGradient id="paint2_linear" x1="11.5391" y1="0.999293" x2="11.5391" y2="23.8675" gradientUnits="userSpaceOnUse">
<stop stop-color="#FD9D04"/>
<stop offset="1" stop-color="#FA7302"/>
</linearGradient>
<linearGradient id="paint3_linear" x1="1.49991" y1="0.999292" x2="24.1103" y2="20.8866" gradientUnits="userSpaceOnUse">
<stop stop-color="#00B1FF"/>
<stop offset="1" stop-color="#006BFF"/>
</linearGradient>
<linearGradient id="paint4_linear" x1="1.49991" y1="0.999293" x2="10.4342" y2="25.5353" gradientUnits="userSpaceOnUse">
<stop stop-color="#FCBF22"/>
<stop offset="1" stop-color="#DD7021"/>
</linearGradient>
<linearGradient id="paint5_linear" x1="11.5391" y1="0.999293" x2="11.5391" y2="23.8675" gradientUnits="userSpaceOnUse">
<stop stop-color="#FD9D04"/>
<stop offset="1" stop-color="#FA7302"/>
</linearGradient>
</defs>
</svg>
