<svg width="26" height="26" viewBox="0 0 26 26" fill="none" xmlns="http://www.w3.org/2000/svg">
<rect width="26" height="26" rx="5" fill="#DD1C5D"/>
<path d="M19.1025 9.52859C18.3076 9.52859 17.5742 9.26525 16.9852 8.82101C16.3097 8.31175 15.8244 7.56472 15.653 6.7037C15.6106 6.49097 15.5877 6.27143 15.5856 6.04645H13.3148V12.2512L13.3121 15.6498C13.3121 16.5584 12.7204 17.3289 11.9002 17.5998C11.6622 17.6784 11.4051 17.7157 11.1374 17.701C10.7957 17.6822 10.4755 17.5791 10.1972 17.4127C9.60499 17.0585 9.20346 16.4159 9.19257 15.6808C9.17544 14.532 10.1042 13.5954 11.2522 13.5954C11.4788 13.5954 11.6965 13.6324 11.9002 13.6995V12.0036V11.394C11.6853 11.3622 11.4666 11.3456 11.2454 11.3456C9.98884 11.3456 8.81362 11.8679 7.97355 12.8089C7.33861 13.52 6.95775 14.4273 6.89898 15.3786C6.822 16.6284 7.2793 17.8164 8.16616 18.6929C8.29647 18.8216 8.4333 18.941 8.5764 19.0512C9.33676 19.6363 10.2663 19.9535 11.2454 19.9535C11.4666 19.9535 11.6853 19.9372 11.9002 19.9054C12.8148 19.7699 13.6587 19.3512 14.3247 18.6929C15.143 17.8841 15.5951 16.8104 15.6 15.6675L15.5883 10.5923C15.9787 10.8934 16.4055 11.1426 16.8636 11.336C17.5761 11.6366 18.3316 11.789 19.1091 11.7887V10.1399V9.52805C19.1096 9.52859 19.1031 9.52859 19.1025 9.52859Z" fill="white"/>
</svg>
