<svg width="170" height="181" viewBox="0 0 170 181" fill="none" xmlns="http://www.w3.org/2000/svg">
<path d="M85.7779 0.670116C86.2322 0.585953 86.6919 0.505372 87.157 0.5C87.5774 0.532232 87.547 1.20195 87.1266 1.19658C86.2233 1.2879 85.3396 1.47593 84.4756 1.74632C84.0857 1.98986 83.7225 1.33446 84.1214 1.14107C84.6491 0.910069 85.2162 0.788302 85.7779 0.670116Z" fill="url(#paint0_linear)"/>
<path d="M89.6911 0.791847C89.7609 0.766778 89.8986 0.718429 89.9684 0.693359C90.9612 0.87601 91.9361 1.19117 92.8537 1.61557C93.2902 1.78747 92.9109 2.48763 92.5192 2.2244C91.6552 1.87701 90.7698 1.59587 89.8664 1.37382C89.5892 1.31652 89.5409 0.995986 89.6911 0.791847Z" fill="url(#paint1_linear)"/>
<path d="M79.1172 4.16402C79.8738 3.48355 80.7074 2.8783 81.5857 2.36437C81.9864 2.10651 82.3012 2.83353 81.8755 2.99469C81.0258 3.54981 80.2244 4.17118 79.4123 4.77822C79.2299 4.65287 78.8793 4.41829 79.1172 4.16402Z" fill="url(#paint2_linear)"/>
<path d="M94.894 3.13389C95.0765 2.93154 95.2696 2.92438 95.4718 3.1124C96.2249 3.67468 96.9028 4.33545 97.4949 5.06426C97.7883 5.30063 97.5003 5.80919 97.1371 5.6713C96.5504 5.14663 96.0979 4.48228 95.4521 4.0185C95.216 3.77317 94.6776 3.54754 94.894 3.13389Z" fill="url(#paint3_linear)"/>
<path d="M77.1793 5.97629C77.5139 5.85094 77.8162 6.29862 77.5586 6.54931C76.9003 7.25843 76.2563 7.98187 75.5998 8.69098C75.3387 9.01331 74.7985 8.5334 75.0936 8.23436C75.7465 7.44466 76.4191 6.66034 77.1793 5.97629Z" fill="url(#paint4_linear)"/>
<path d="M98.4493 7.56594L98.5888 7.45312C98.6747 7.46745 98.8464 7.49252 98.9323 7.50685C99.4045 8.48098 99.6907 9.54645 99.8875 10.6101C99.8195 11.0148 99.2077 10.9844 99.1755 10.5797C98.977 9.60196 98.6049 8.67438 98.3438 7.71457L98.4493 7.56594Z" fill="url(#paint5_linear)"/>
<path d="M73.4328 10.305C73.7619 10.1653 74.0929 10.6076 73.8281 10.8744C73.2342 11.6444 72.6744 12.4484 72.0447 13.188C71.8157 13.4852 71.2648 13.0304 71.5402 12.7546C72.1323 11.913 72.7298 11.0553 73.4328 10.305Z" fill="url(#paint6_linear)"/>
<path d="M99.5364 13.3157C99.5703 12.9683 100.118 12.9433 100.205 13.2746C100.3 14.2093 100.275 15.153 100.247 16.0913C100.009 16.1038 99.7725 16.1218 99.5381 16.145C99.5847 15.2013 99.5185 14.2576 99.5364 13.3157Z" fill="url(#paint7_linear)"/>
<path d="M69.9881 14.918C70.269 14.7837 70.6446 15.1006 70.455 15.3943C69.9184 16.2127 69.337 17.0077 68.7521 17.7938C68.5285 18.1806 67.8845 17.7186 68.1993 17.3909C68.7717 16.5511 69.3334 15.6952 69.9881 14.918Z" fill="url(#paint8_linear)"/>
<path d="M66.635 19.625C66.8657 19.4083 67.3344 19.7682 67.1394 20.044C66.6314 20.857 66.0375 21.6144 65.4723 22.388C65.3596 22.6512 64.9374 22.6835 64.8337 22.4041C64.6441 22.1856 64.9338 21.9869 65.0179 21.8006C65.5724 21.088 66.0411 20.3054 66.635 19.625Z" fill="url(#paint9_linear)"/>
<path d="M22.0738 23.2118C23.054 22.9414 24.1166 22.9665 25.0861 23.2637C25.4743 23.3013 25.4689 23.9227 25.0771 23.9567C24.3133 23.8278 23.5352 23.638 22.7589 23.8063C22.4888 23.8045 22.1471 24.0015 21.9217 23.7795C21.7446 23.604 21.8359 23.2709 22.0738 23.2118Z" fill="url(#paint10_linear)"/>
<path d="M63.221 24.2551C63.4714 23.9524 64.0027 24.4144 63.7201 24.7081C63.1405 25.5068 62.5377 26.3 61.8776 27.036C61.6147 27.3709 61.0727 26.8301 61.4018 26.5489C61.9993 25.7789 62.586 24.9946 63.221 24.2551Z" fill="url(#paint11_linear)"/>
<path d="M27.4494 24.6108C27.5012 24.6126 27.6068 24.618 27.6604 24.6198C28.503 25.1964 29.2149 25.9574 29.8499 26.7543C30.1594 27.0301 29.6156 27.5762 29.3598 27.2253C28.7087 26.5699 28.1237 25.8446 27.3886 25.2752C27.1202 25.1301 27.1202 24.6771 27.4494 24.6108Z" fill="url(#paint12_linear)"/>
<path d="M19.4297 24.8161C19.5907 24.5188 20.0415 24.5922 20.1059 24.9253C20.0164 25.3264 19.6855 25.6183 19.5227 25.9908C19.2079 26.562 19.2025 27.2281 19.0487 27.8495C18.8484 28.1324 18.3833 27.9659 18.4029 27.6257C18.4512 26.6175 18.7732 25.5968 19.4297 24.8161Z" fill="url(#paint13_linear)"/>
<path d="M59.4238 28.7833C59.6278 28.6686 59.8694 28.5271 60.086 28.7134C60.2399 28.9212 60.1057 29.1505 60.0394 29.3601C59.8408 29.1613 59.635 28.9696 59.4238 28.7833Z" fill="url(#paint14_linear)"/>
<path d="M30.8956 29.1206C31.0691 28.9039 31.3982 28.963 31.4984 29.2137C31.9653 30.0715 32.3785 30.965 32.6701 31.898C32.8346 32.3331 32.0798 32.5032 32.0011 32.0663C31.6648 31.1316 31.2033 30.2541 30.8115 29.3462C30.833 29.2907 30.8741 29.1761 30.8956 29.1206Z" fill="url(#paint15_linear)"/>
<path d="M19.0067 30.1319C19.4664 29.9779 19.5397 30.5331 19.665 30.8375C19.8957 31.6576 20.4055 32.3631 20.6488 33.1743C20.5415 33.5665 19.9923 33.5253 19.9064 33.1475C19.4896 32.2342 18.9083 31.3228 18.8242 30.3092C18.8707 30.2645 18.962 30.1767 19.0067 30.1319Z" fill="url(#paint16_linear)"/>
<path d="M32.6652 34.496C32.8816 34.3313 33.2519 34.4763 33.2412 34.7628C33.2555 35.728 33.0856 36.6896 32.9532 37.6441C32.989 38.0219 32.3879 38.1455 32.2717 37.7784C32.2645 36.9457 32.4845 36.1291 32.5131 35.2983C32.5489 35.0315 32.497 34.7252 32.6652 34.496Z" fill="url(#paint17_linear)"/>
<path d="M21.6883 35.1607C22.1302 34.9745 22.3484 35.5099 22.6346 35.7355C23.1337 36.2835 23.8009 36.6291 24.3501 37.1161C24.622 37.4277 24.1265 37.8808 23.8403 37.5853C23.0281 37.0445 22.2196 36.4572 21.6204 35.6782C21.4558 35.5206 21.5542 35.295 21.6883 35.1607Z" fill="url(#paint18_linear)"/>
<path d="M97.073 35.8784C97.2877 35.9608 97.5059 36.0378 97.7259 36.1076C97.6472 36.9761 97.6007 37.8482 97.5381 38.7185C97.497 38.9566 97.5381 39.2754 97.2483 39.3631C97.0659 39.3846 96.7833 39.2807 96.828 39.0497C96.8154 37.9896 96.9264 36.9278 97.073 35.8784Z" fill="url(#paint19_linear)"/>
<path d="M26.3719 38.4256C26.5437 38.2018 26.8352 38.456 27.0463 38.4936C27.794 38.8285 28.5775 39.0667 29.3503 39.3371C29.7259 39.3657 29.7259 40.0121 29.3449 40.0354C28.3629 39.8241 27.4238 39.4338 26.5025 39.0416C26.2324 38.9682 26.1072 38.5903 26.3719 38.4256Z" fill="url(#paint20_linear)"/>
<path d="M31.8933 39.9946C32.895 40.0161 33.8931 40.2382 34.8985 40.299C35.36 40.2561 35.3814 41.0225 34.9199 40.9974C34.0631 40.967 33.2134 40.8398 32.3655 40.7288C32.133 41.6456 31.9344 42.5804 31.5928 43.465C31.3745 43.7264 30.9273 43.5277 30.981 43.1946C31.1152 42.5213 31.3692 41.8784 31.5123 41.2051C31.6518 40.8094 31.6089 40.3152 31.8933 39.9946Z" fill="url(#paint21_linear)"/>
<path d="M40.2582 40.1497C40.4997 40.1443 40.8145 40.0548 40.963 40.3127C41.0435 40.5705 40.9004 40.8284 40.6142 40.8266C39.6661 40.9501 38.7073 41.0361 37.7503 41.0415C37.3818 41.054 37.2977 40.5078 37.6251 40.3753C38.498 40.2679 39.3853 40.2697 40.2582 40.1497Z" fill="url(#paint22_linear)"/>
<path d="M96.8477 41.605C97.1052 41.3955 97.4988 41.5692 97.4684 41.913C97.5059 42.8692 97.5971 43.8237 97.6365 44.7781C97.6723 45.2025 96.9281 45.1721 96.9568 44.7817C96.8673 43.7324 96.6688 42.6472 96.8477 41.605Z" fill="url(#paint23_linear)"/>
<path d="M135.836 45.0182C136.267 44.8857 136.415 45.6557 135.948 45.6987C135.049 45.9637 134.17 46.2932 133.287 46.6084C132.868 46.8465 132.628 46.0891 133.031 45.9763C133.934 45.5769 134.872 45.2385 135.836 45.0182Z" fill="url(#paint24_linear)"/>
<path d="M30.1133 45.7098C30.3118 45.3785 30.8484 45.6829 30.7125 46.0178C30.4209 46.8648 30.0345 47.6778 29.6643 48.4925C29.5605 48.668 29.4621 48.9921 29.1885 48.908C28.9076 48.9008 28.8092 48.5319 28.9541 48.3313C29.3638 47.4682 29.7036 46.5711 30.1133 45.7098Z" fill="url(#paint25_linear)"/>
<path d="M97.5129 47.3004C97.7294 47.082 98.105 47.2431 98.1301 47.5368C98.3572 48.416 98.6345 49.2791 98.9279 50.1387C99.1872 50.5398 98.461 50.8926 98.3107 50.4556C97.919 49.4958 97.597 48.4966 97.4199 47.4759L97.5129 47.3004Z" fill="url(#paint26_linear)"/>
<path d="M130.295 47.3412C130.589 46.9759 131.211 47.4415 130.875 47.7835C130.263 48.2545 129.546 48.5696 128.92 49.0209C128.655 49.1588 128.419 49.4256 128.106 49.4113C127.818 49.4363 127.675 48.8937 127.972 48.7971C128.709 48.2581 129.503 47.7961 130.295 47.3412Z" fill="url(#paint27_linear)"/>
<path d="M125.664 50.4116C125.983 50.1645 126.428 50.7393 126.052 50.9685C125.305 51.5719 124.527 52.1414 123.752 52.709C123.441 53.0117 122.935 52.4673 123.305 52.1951C124.056 51.5576 124.854 50.9721 125.664 50.4116Z" fill="url(#paint28_linear)"/>
<path d="M27.685 50.8086C27.9301 50.565 28.3988 50.9124 28.2127 51.2169C27.7441 52.08 27.2021 52.9091 26.6225 53.7041C26.3882 54.1017 25.7567 53.6361 26.0716 53.2887C26.6261 52.4739 27.1234 51.6162 27.685 50.8086Z" fill="url(#paint29_linear)"/>
<path d="M159.635 52.0309C159.71 52.022 159.86 52.0041 159.935 51.9951C160.726 52.6111 161.434 53.3346 162.129 54.058C162.456 54.3087 162.066 54.8728 161.73 54.6203C161.041 54.0096 160.417 53.3256 159.719 52.7221C159.478 52.5753 159.354 52.2118 159.635 52.0309Z" fill="url(#paint30_linear)"/>
<path d="M99.7055 52.5517C100.094 52.3744 100.278 52.8453 100.469 53.0907C100.881 53.798 101.457 54.3836 101.918 55.0533C102.068 55.3828 101.591 55.7033 101.36 55.4311C100.695 54.7113 100.113 53.9126 99.6053 53.0746C99.4765 52.9062 99.5266 52.6609 99.7055 52.5517Z" fill="url(#paint31_linear)"/>
<path d="M120.995 53.9628C121.274 53.6065 121.852 54.0309 121.566 54.3819C121.047 54.885 120.427 55.2647 119.87 55.7213C119.58 55.9201 119.321 56.1994 118.969 56.2764C118.609 56.2764 118.536 55.7285 118.849 55.5924C119.561 55.0462 120.274 54.5001 120.995 53.9628Z" fill="url(#paint32_linear)"/>
<path d="M23.6357 55.3882C23.7789 55.4957 23.9203 55.6067 24.0617 55.7214C24.2871 55.5799 24.6307 55.2305 24.8616 55.5584C25.1032 55.7949 24.7399 56.0743 24.663 56.3072C24.3265 55.9919 23.9865 55.6856 23.6357 55.3882Z" fill="url(#paint33_linear)"/>
<path d="M163.497 56.2228C163.588 56.1996 163.773 56.1512 163.864 56.1279C164.495 56.7439 164.941 57.5211 165.451 58.2356C165.544 58.4612 165.846 58.6618 165.74 58.9286C165.728 59.276 165.186 59.267 165.087 58.9751C164.635 58.3412 164.227 57.6751 163.741 57.0663C163.58 56.8209 163.252 56.529 163.497 56.2228Z" fill="url(#paint34_linear)"/>
<path d="M103.452 56.8404C103.831 56.6667 104.112 57.0571 104.407 57.2326C105.001 57.7304 105.715 58.0581 106.317 58.5416C106.562 58.7708 106.226 59.2596 105.922 59.0716C105.017 58.572 104.135 57.9954 103.36 57.3096L103.309 57.1395C103.344 57.0643 103.416 56.9156 103.452 56.8404Z" fill="url(#paint35_linear)"/>
<path d="M116.553 57.2267C116.924 57.062 117.206 57.6834 116.825 57.8571C116.019 58.3907 115.185 58.8992 114.303 59.2968C113.89 59.5618 113.6 58.8008 114.029 58.6682C114.888 58.2152 115.707 57.6941 116.553 57.2267Z" fill="url(#paint36_linear)"/>
<path d="M108.291 59.7308C108.591 59.4765 108.983 59.6896 109.328 59.6985C110.049 59.8328 110.774 59.6806 111.493 59.6197C111.835 59.6072 111.784 59.9653 111.847 60.1963C110.765 60.5437 109.572 60.5652 108.479 60.2644C108.227 60.2089 108.237 59.9277 108.291 59.7308Z" fill="url(#paint37_linear)"/>
<path d="M166.556 61.084C166.785 60.8906 167.073 60.9927 167.174 61.2595C167.601 62.1369 168.014 63.0287 168.32 63.9563C168.365 64.2625 167.878 64.4917 167.714 64.2088C167.331 63.4889 167.104 62.6956 166.721 61.9758C166.623 61.6946 166.342 61.3777 166.556 61.084Z" fill="url(#paint38_linear)"/>
<path d="M168.551 66.4516C168.76 66.2528 169.089 66.3406 169.159 66.6181C169.402 67.5601 169.608 68.5145 169.722 69.4815C169.837 69.8683 169.186 70.0294 169.08 69.6731C168.864 68.9138 168.817 68.1152 168.601 67.3541C168.57 67.0569 168.365 66.7274 168.551 66.4516Z" fill="url(#paint39_linear)"/>
<path d="M92.6162 71.826C110.282 71.647 127.95 71.4339 145.618 71.2584C146.927 71.1599 148.003 72.5441 147.602 73.794C144.133 89.3802 140.658 104.963 137.18 120.545C137.014 121.527 136.062 122.279 135.066 122.173C131.56 121.953 128.054 121.727 124.55 121.482C124.467 121.219 124.385 120.957 124.305 120.698C127.426 120.877 130.548 121.102 133.669 121.298C134.291 121.326 134.923 121.444 135.545 121.344C136.078 121.226 136.365 120.699 136.456 120.2C139.849 104.977 143.237 89.7544 146.639 74.5336C146.759 73.8621 147.133 73.0383 146.604 72.4528C146.097 71.8529 145.237 72.0749 144.554 72.0427C127.256 72.2468 109.957 72.4295 92.6591 72.6104C92.6448 72.3489 92.6287 72.0875 92.6162 71.826Z" fill="url(#paint40_linear)"/>
<path d="M169.459 72.0599C169.674 71.9292 169.967 72.0814 169.974 72.3411C170.026 73.3063 169.996 74.2768 169.923 75.2402C169.942 75.6109 169.416 75.713 169.246 75.4085C169.196 74.5741 169.322 73.7378 169.277 72.9016C169.307 72.6222 169.177 72.2444 169.459 72.0599Z" fill="url(#paint41_linear)"/>
<path d="M169.065 77.7446C169.285 77.6318 169.577 77.8181 169.561 78.0688C169.42 79.0483 169.207 80.0188 168.965 80.9768C168.892 81.3278 168.345 81.3207 168.278 80.9679C168.364 80.2427 168.593 79.5425 168.706 78.8208C168.815 78.4735 168.749 77.9864 169.065 77.7446Z" fill="url(#paint42_linear)"/>
<path d="M167.638 83.3087C167.874 83.2192 168.221 83.3392 168.182 83.6436C167.89 84.6249 167.513 85.5883 167.06 86.5069C166.881 86.865 166.241 86.5248 166.47 86.1685C166.887 85.2284 167.173 84.2238 167.638 83.3087Z" fill="url(#paint43_linear)"/>
<path d="M126.191 86.6145C128.356 86.1185 130.765 86.4265 132.606 87.7229C134.636 89.1071 135.881 91.5622 135.786 94.0208C135.693 96.1034 134.931 98.2415 133.341 99.6489C130.558 102.376 125.631 102.321 122.83 99.6472C121.256 98.1842 120.376 96.0103 120.505 93.8632C120.633 91.906 121.335 89.9112 122.791 88.5467C123.717 87.603 124.91 86.935 126.191 86.6145ZM125.898 90.7582C126.375 91.9991 126.989 93.1828 127.526 94.4004C126.801 95.3746 125.917 96.2377 125.295 97.2799C127.635 96.4669 129.94 95.5536 132.268 94.6977C131.862 94.3574 131.4 94.0996 130.951 93.8256C129.261 92.8139 127.628 91.6983 125.898 90.7582Z" fill="url(#paint44_linear)"/>
<path d="M165.223 88.5834C165.467 88.2826 165.996 88.7141 165.742 89.0167C165.232 89.8781 164.662 90.7179 163.998 91.4682C163.744 91.7529 163.225 91.273 163.513 90.999C164.104 90.2093 164.655 89.3892 165.223 88.5834Z" fill="url(#paint45_linear)"/>
<path d="M161.592 93.0108C161.871 92.6687 162.433 93.2024 162.093 93.4746C161.377 94.1693 160.569 94.7746 159.728 95.31C159.361 95.5894 158.968 94.9161 159.377 94.7155C160.138 94.1765 160.875 93.6071 161.592 93.0108Z" fill="url(#paint46_linear)"/>
<path d="M156.797 96.1018C157.119 95.86 157.577 96.2594 157.33 96.6032C156.405 97.1046 155.387 97.4305 154.378 97.7206C153.983 97.8012 153.838 97.1708 154.207 97.0598C155.074 96.7536 155.949 96.4671 156.797 96.1018Z" fill="url(#paint47_linear)"/>
<path d="M137.014 97.4389C137.044 97.1738 136.974 96.7799 137.373 96.8408C138.305 97.0055 139.23 97.215 140.162 97.3923C140.538 97.3672 140.656 98.0477 140.233 98.0764C139.144 97.9653 138.074 97.7003 137.014 97.4389Z" fill="url(#paint48_linear)"/>
<path d="M142.702 97.7847C143.679 97.8348 144.656 97.9136 145.632 97.9709C145.879 97.9458 146.076 98.0801 146.228 98.2664C146.191 98.3648 146.115 98.5636 146.076 98.6621C144.987 98.6782 143.883 98.6388 142.811 98.4419C142.556 98.3004 142.704 98.0049 142.702 97.7847Z" fill="url(#paint49_linear)"/>
<path d="M150.276 97.8086C150.747 97.7603 151.216 97.6367 151.691 97.6654C152.069 97.7782 151.931 98.3763 151.552 98.3494C150.6 98.5106 149.634 98.6216 148.67 98.6485C148.343 98.6485 148.253 98.1793 148.502 98.002C149.085 97.8731 149.686 97.8874 150.276 97.8086Z" fill="url(#paint50_linear)"/>
<path d="M94.0977 18.5082C95.6432 17.2296 97.5393 16.3647 99.5392 16.1445C99.7735 16.1212 100.01 16.1033 100.248 16.0907C101.178 16.0782 102.129 16.0979 103.034 16.3396C103.12 16.3773 103.292 16.4507 103.376 16.4865C103.961 16.4811 104.485 16.7999 105.016 17.0094C108.794 18.698 111.356 22.8882 110.905 27.0355C110.75 27.4437 110.796 27.8878 110.755 28.314C110.102 31.8864 107.353 34.9181 103.929 36.0552C103.292 36.0534 102.99 35.3872 102.705 34.9199C101.816 33.0737 101.936 30.923 102.246 28.9515C102.668 28.9873 103.238 29.2398 103.551 28.8172C103.859 28.2263 103.966 27.5297 103.938 26.8707C103.89 26.355 103.369 26.0703 102.9 26.0416C100.661 25.884 98.2333 25.2824 96.6878 23.54C95.5036 22.0717 94.7023 20.3365 94.1155 18.5547L94.0977 18.5082Z" fill="url(#paint51_linear)"/>
<path d="M75.3035 106.3C79.3873 105.951 83.5158 105.946 87.5835 106.497C89.5065 106.794 91.4777 107.11 93.2236 108.018C99.166 111.423 104.792 115.345 110.367 119.313C111.48 120.189 112.798 120.764 113.87 121.698C116.158 123.537 117.431 126.326 118.14 129.114C118.256 129.475 118.274 129.912 118.594 130.17C118.821 129.916 118.685 129.565 118.66 129.271C118.217 126.852 117.465 124.343 115.698 122.545C114.562 121.337 113.061 120.586 111.593 119.868C111.854 119.874 112.117 119.881 112.382 119.892C112.539 118.38 112.657 116.867 112.822 115.358C112.956 114.299 113.53 113.318 114.396 112.695C116.324 111.495 118.862 112.068 120.589 113.368C121.667 114.224 122.533 115.358 122.996 116.659C123.465 117.993 123.86 119.353 124.306 120.696C124.386 120.955 124.468 121.217 124.551 121.48C125.905 125.838 127.159 130.233 128.177 134.683C128.69 137.041 129.177 139.421 129.284 141.838C129.312 143.779 128.769 145.817 127.425 147.266C125.953 148.885 123.669 149.725 121.499 149.406C120.476 149.277 119.53 148.852 118.564 148.519C111.326 145.932 104.094 143.326 96.8531 140.75C96.1322 142.547 95.3558 144.356 95.0929 146.292C94.6725 149.93 94.5974 153.594 94.6493 157.253C94.5759 157.269 94.4328 157.297 94.3613 157.313C93.229 150.957 91.9697 144.625 90.8052 138.275C90.0199 134.5 89.5941 130.621 88.2293 126.992C86.2008 121.412 82.523 116.462 77.8221 112.851C74.7883 110.482 71.2859 108.782 67.6367 107.597C70.1321 106.873 72.7276 106.578 75.3035 106.3Z" fill="url(#paint52_linear)"/>
<path d="M103.034 16.3402L103.177 16.2524L103.353 16.3295L103.376 16.4871C103.292 16.4513 103.12 16.3778 103.034 16.3402Z" fill="#4A3C2A"/>
<path d="M61.3897 54.4917C65.2105 51.7412 69.9473 50.4805 74.6178 50.4268C77.3672 50.425 80.1595 50.4662 82.8301 51.204C87.1053 52.3017 90.8904 55.0647 93.3125 58.7535C93.1908 58.8484 93.071 58.9433 92.9511 59.04C93.1407 59.0579 93.3303 59.0776 93.52 59.0991C92.9618 61.2677 92.6273 63.4863 92.3716 65.7086C92.275 66.6075 92.1641 67.5154 92.275 68.4215C91.9011 65.2251 91.445 62.0198 90.5327 58.9272C88.0606 59.3606 85.821 60.6123 83.7836 62.0287C81.5476 63.626 79.5334 65.5779 78.0541 67.9058C77.2384 69.2506 76.5729 70.7619 76.5497 72.361C76.4764 75.1545 76.8413 78.059 78.2526 80.5194C78.8537 81.635 79.7015 82.6056 80.2149 83.7695C81.2256 86.2639 81.705 89.0145 81.3311 91.6969C80.9626 94.5459 79.7176 97.257 77.8734 99.4506C77.6748 99.6906 77.4745 99.9305 77.3081 100.196C74.3602 100.559 71.4516 101.279 68.6862 102.368C66.0817 103.397 63.665 104.844 61.3414 106.395C62.4361 106.065 63.4343 105.492 64.4682 105.016C67.976 103.29 71.6949 101.995 75.5122 101.15C76.1275 101.016 76.7572 100.921 77.3439 100.679C78.7177 100.206 80.2006 100.23 81.6173 99.9627C81.8105 98.8525 81.8141 97.719 81.984 96.607C84.9034 96.3957 87.8173 94.9255 89.4165 92.4186C90.5506 90.6458 91.1427 88.599 91.7151 86.5916C92.0907 85.3238 92.2696 84.0113 92.4574 82.7058C92.5272 83.9575 92.7418 85.1949 92.901 86.4376C93.2445 88.7494 93.6523 91.0505 94.1675 93.33C94.3088 93.9854 94.4519 94.639 94.6183 95.289C95.112 97.1746 95.561 99.096 95.5359 101.059C95.4411 103.528 94.8472 106.03 93.5343 108.144C93.4573 108.112 93.3017 108.051 93.223 108.019C91.4772 107.111 89.5059 106.796 87.583 106.499C83.5152 105.947 79.3867 105.953 75.3029 106.302C72.727 106.579 70.1315 106.875 67.6361 107.598C63.987 106.642 60.1858 106.073 56.4133 106.461C53.7676 106.357 51.1077 106.228 48.4746 106.612C51.2258 103.265 54.0968 100.02 56.8658 96.6894C58.0876 95.1977 57.9659 93.1205 57.7352 91.3227C57.0715 87.0608 55.5976 82.9834 54.6781 78.7788C53.5601 74.0138 52.8589 68.9318 54.2238 64.1417C55.3221 60.1735 58.1055 56.8733 61.3897 54.4917Z" fill="#4A3C2A"/>
<path d="M90.6468 27.8691C90.103 24.4417 91.4428 20.7779 94.1153 18.5557C94.702 20.3374 95.5034 22.0726 96.6875 23.541C96.4783 25.1221 96.6124 26.7194 96.5784 28.3096C96.5927 29.4449 96.4031 30.7342 97.1759 31.6832C97.7876 32.489 98.8234 32.7039 99.7607 32.8758C99.7661 34.0846 99.7822 35.2933 99.7428 36.5002C99.0613 36.4232 98.3851 36.2978 97.725 36.108C97.505 36.0382 97.2868 35.9612 97.0721 35.8788C93.711 34.6021 91.1387 31.4451 90.6468 27.8691Z" fill="#FFBE2C"/>
<path d="M83.7828 62.0292C85.8202 60.6128 88.0598 59.3611 90.5319 58.9277C91.4442 62.0203 91.9003 65.2256 92.2742 68.422C92.4119 69.5537 92.5461 70.6872 92.6158 71.8261C92.6284 72.0875 92.6445 72.349 92.6588 72.6104C92.8716 75.9733 92.843 79.356 92.4566 82.7063C92.2688 84.0118 92.0899 85.3243 91.7143 86.5921C91.1419 88.5995 90.5498 90.6463 89.4157 92.4191C87.8165 94.926 84.9026 96.3962 81.9833 96.6075C81.8133 97.7195 81.8098 98.853 81.6166 99.9633C80.1998 100.23 78.7169 100.207 77.3431 100.68C77.3342 100.558 77.3163 100.318 77.3074 100.196C77.4737 99.931 77.6741 99.6911 77.8726 99.4511C79.7169 97.2575 80.9619 94.5464 81.3304 91.6974C81.7042 89.015 81.2248 86.2645 80.2141 83.77C79.7008 82.6061 78.8529 81.6355 78.2518 80.5199C76.8405 78.0595 76.4756 75.155 76.5489 72.3615C76.5722 70.7624 77.2376 69.2511 78.0533 67.9063C79.5326 65.5784 81.5468 63.6265 83.7828 62.0292Z" fill="#D6A27D"/>
<path d="M14.6553 73.3086C14.7573 73.348 14.9631 73.425 15.0651 73.4644C14.9631 73.425 14.7573 73.348 14.6553 73.3086Z" fill="#D6A27D"/>
<path d="M112.08 89.9137C112.037 89.2297 112.761 88.6334 113.425 88.8483C113.965 88.9521 114.303 89.4643 114.389 89.98C114.953 92.8916 115.516 95.8033 116.072 98.715C116.135 99.1018 116.214 99.4868 116.296 99.87C117.917 100.101 119.192 101.256 120.276 102.4C120.927 103.152 121.669 104.071 121.469 105.135C121.169 106.999 120.566 108.802 120.254 110.664C120.086 111.583 120.408 112.48 120.587 113.37C118.861 112.07 116.323 111.497 114.394 112.697C113.595 111.39 112.652 110.181 111.776 108.927C111.362 108.306 110.726 107.738 110.756 106.929C110.676 105.161 110.368 103.399 110.452 101.632C110.77 100.848 111.627 100.588 112.312 100.228C112.287 98.1026 112.212 95.9788 112.167 93.8532C112.158 93.4915 112.149 93.1316 112.141 92.7717C112.128 91.819 112.062 90.8664 112.08 89.9137Z" fill="#D6A27D"/>
<path d="M96.687 23.541C98.2325 25.2834 100.66 25.885 102.899 26.0426C103.368 26.0713 103.889 26.356 103.937 26.8717C103.966 27.5307 103.858 28.2273 103.551 28.8182C103.238 29.2408 102.667 28.9883 102.245 28.9525C101.935 30.924 101.815 33.0747 102.705 34.9209C102.989 35.3882 103.291 36.0544 103.928 36.0562C102.583 36.5003 101.15 36.6346 99.7423 36.5003C99.7816 35.2933 99.7655 34.0846 99.7602 32.8759C98.8228 32.704 97.7871 32.4891 97.1754 31.6833C96.4026 30.7342 96.5922 29.4449 96.5779 28.3096C96.6119 26.7195 96.4777 25.1222 96.687 23.541Z" fill="#F16868"/>
<path d="M149.103 39.1304C149.98 38.4302 151.135 38.2476 152.225 38.1938C153.3 38.1347 154.477 38.4857 155.124 39.399C155.911 40.4859 155.77 42.0295 155.051 43.1129C154.401 44.1461 153.258 44.7782 152.078 44.9877C150.802 45.2169 149.556 44.8015 148.3 44.6923C147.302 44.669 147.126 45.8562 146.581 46.4561C146.066 46.6853 145.373 46.5599 144.969 47.0022C144.695 47.5556 144.61 48.4814 145.252 48.8144C145.18 48.895 145.041 49.058 144.971 49.1403C145.266 49.7581 145.939 49.6901 146.495 49.5253C146.651 50.5711 146.679 51.7046 146.161 52.6626C145.849 53.2786 145.302 53.7353 144.694 54.0379C143.787 54.2528 142.776 54.319 141.928 53.8731C141.408 53.6063 141.086 53.0637 140.996 52.4979C140.748 51.1334 140.796 49.7366 140.694 48.356C140.748 46.5653 140.656 44.7746 140.692 42.9839C140.744 41.9149 141.002 40.6632 142.005 40.0848C143.044 39.4992 144.27 39.8556 145.363 40.0758C146.67 40.3946 148.075 39.9666 149.103 39.1304Z" fill="#F16868"/>
<path d="M14.8696 53.5334C17.8676 52.7616 21.2126 53.451 23.6347 55.3886C23.9853 55.6858 24.3251 55.992 24.6614 56.3072C25.0496 56.6797 25.3913 57.1005 25.7114 57.5338C25.6954 58.5778 25.0389 59.4642 24.309 60.15C23.4611 60.9415 22.4702 61.5647 21.4505 62.109C19.5455 62.9023 17.4526 63.0438 15.4152 63.1441C14.9071 63.1691 14.2829 63.3822 14.1755 63.9499C14.1058 64.573 14.2381 65.2087 14.4582 65.7907C14.6603 66.3852 15.4044 66.1059 15.8731 66.1471C16.1861 68.586 16.2559 71.0912 15.7336 73.5068C15.6048 73.5014 15.349 73.4889 15.2202 73.4817L15.0646 73.4638C14.9626 73.4244 14.7569 73.3474 14.6549 73.308C13.4779 73.0484 12.3885 72.4861 11.4601 71.7215L11.2831 71.6337C9.62664 70.5539 8.4514 68.8134 7.75556 66.9797C6.73953 64.197 6.98817 60.9666 8.47465 58.3969C9.83056 55.9974 12.1936 54.1924 14.8696 53.5334ZM17.8282 53.4689C17.4025 55.505 16.0466 57.2061 14.3651 58.3737C15.5797 57.6431 16.6011 56.5704 17.2433 55.3044C17.5581 54.7063 17.7048 54.0402 17.9839 53.426C17.9463 53.4367 17.8676 53.4582 17.8282 53.4689Z" fill="#F16868"/>
<path d="M51.203 26.4501C54.1098 25.9774 57.199 26.8476 59.4225 28.7816C59.6336 28.9678 59.8393 29.1594 60.0379 29.3582C61.6907 31.011 62.7336 33.2512 62.9482 35.5808C63.2004 38.2293 62.383 40.9672 60.6818 43.0176C58.8322 45.3043 55.9558 46.7082 53.0168 46.7566C53.0312 45.5729 53.0294 44.3893 53.0151 43.2074C53.7449 43.0588 54.5463 42.9907 55.1401 42.4911C55.8092 41.9879 56.1848 41.1553 56.1633 40.3226C56.1759 38.5086 56.1544 36.6929 56.1705 34.8789C58.0219 35.0257 60.1738 34.2289 60.8768 32.3755C59.9985 33.4571 58.8483 34.3775 57.4262 34.5709C58.1471 34.2611 58.893 33.9459 59.4422 33.364C60.0379 32.8142 60.3402 32.0424 60.5602 31.2796C60.4654 31.276 60.3724 31.2742 60.2793 31.2742C60.1649 32.4167 59.2418 33.278 58.3117 33.8439C58.8573 33.278 59.4136 32.6728 59.6032 31.8849C59.9287 30.8373 59.7177 29.5856 58.9038 28.8156C58.19 28.1172 57.1418 27.9059 56.1759 27.9686C55.1312 28.0384 54.0275 28.23 53.1886 28.9033C52.1797 29.7163 50.8202 30.1533 49.5359 29.8632C48.4089 29.6501 47.155 29.2507 46.0835 29.8632C45.0764 30.4469 44.8278 31.7058 44.7741 32.7784C44.7437 34.4652 44.8117 36.1539 44.8009 37.8407C44.8027 37.9822 44.8045 38.2669 44.8063 38.4101C44.8135 38.8041 44.8439 39.1962 44.8564 39.592C44.86 39.66 44.8635 39.7979 44.8671 39.866C44.8886 40.2868 44.9154 40.7058 44.9405 41.1266C44.9476 41.2054 44.9601 41.3648 44.9673 41.4436C45.0406 42.1509 45.1122 42.9639 45.7114 43.4474C46.5826 44.126 47.7918 44.058 48.8078 43.8055C48.7595 44.5254 48.7613 45.247 48.806 45.9669C47.7095 45.4798 46.6881 44.8244 45.8116 44.006C44.284 42.5431 43.1391 40.6288 42.776 38.5319C42.2197 35.7904 42.8565 32.8321 44.504 30.5723C46.071 28.3787 48.5359 26.8494 51.203 26.4501Z" fill="#7165E3"/>
<path d="M49.9194 106.766C52.605 106.335 55.318 106.48 58.0164 106.597C58.9523 106.911 59.9321 106.996 60.8844 107.235C67.2828 108.74 73.2616 112.444 77.6859 117.775C81.8621 122.633 84.659 128.877 85.7792 135.449C87.4796 145.32 89.1417 155.199 90.8548 165.066C90.9369 165.088 91.1012 165.129 91.1833 165.149C85.8777 167.094 81.0794 170.391 76.6605 174.119C75.668 174.883 74.8251 175.898 73.7122 176.458C69.2131 179.07 64.1375 180.415 59.0618 180.488C54.4277 180.613 49.8009 179.765 45.3729 178.275C38.0167 175.86 31.2516 171.479 25.5136 165.884C24.8824 162.138 24.2055 158.401 23.5633 154.655C22.9722 151.042 22.1311 147.455 21.9906 143.771C21.7936 139.35 22.3555 134.891 23.6326 130.696C25.5702 124.285 29.2155 118.52 33.9956 114.299C38.5494 110.247 44.1231 107.618 49.9194 106.766Z" fill="#FFBE2C"/>
<path d="M110.755 28.3141C110.866 28.0276 110.757 27.571 111.061 27.4116C118.148 28.1727 125.158 30.0601 131.535 33.2833C135.034 35.0328 138.313 37.2049 141.334 39.6886C140.05 41.0209 139.152 42.7095 138.735 44.5127C138.64 44.5772 138.449 44.7061 138.354 44.7706C138.742 45.6928 138.374 46.6938 138.529 47.6536C138.803 51.3603 141.302 54.734 144.701 56.1898C146.024 56.7861 147.488 57.0189 148.935 56.9849C150.783 56.9366 152.618 56.3886 154.176 55.3894C155.78 58.3351 157.333 61.3578 158.12 64.6401C159.081 68.465 159.022 72.5442 157.913 76.3316C156.428 81.7412 153.217 86.4239 150.189 91.0636C148.709 93.3682 147.185 95.6836 146.228 98.2658C146.076 98.0795 145.879 97.9452 145.633 97.9703C144.656 97.913 143.679 97.8342 142.703 97.7841C142.704 98.0043 142.556 98.2998 142.812 98.4413C143.883 98.6382 144.987 98.6776 146.076 98.6615C145.346 100.662 145.142 102.92 145.87 104.95C146.733 107.396 148.62 109.304 150.629 110.863C152.435 112.305 154.56 113.3 156.281 114.855C159.841 117.996 162.17 122.367 163.286 126.949C164.528 132.117 164.254 137.666 162.361 142.641C160.217 148.403 155.891 153.193 150.663 156.345C143.885 160.462 135.928 162.163 128.095 162.677C125.351 162.872 122.58 162.874 119.861 162.416C115.085 161.672 110.579 159.853 105.943 158.566C101.997 157.418 97.8164 156.807 93.7236 157.427C93.9347 157.387 94.1476 157.35 94.3604 157.314C94.432 157.298 94.5751 157.269 94.6484 157.253C94.5966 153.595 94.6717 149.931 95.0921 146.292C95.355 144.356 96.1313 142.548 96.8522 140.75C104.093 143.327 111.325 145.932 118.563 148.52C119.529 148.853 120.475 149.277 121.498 149.406C123.668 149.725 125.952 148.885 127.424 147.266C128.768 145.818 129.312 143.78 129.283 141.839C129.176 139.421 128.689 137.041 128.176 134.683C127.158 130.233 125.904 125.839 124.55 121.48C128.054 121.726 131.56 121.951 135.066 122.172C136.063 122.277 137.014 121.525 137.181 120.544C140.658 104.961 144.134 89.3786 147.602 73.7924C148.003 72.5425 146.928 71.1582 145.618 71.2567C127.95 71.4322 110.282 71.6453 92.6164 71.8244C92.5466 70.6855 92.4125 69.552 92.2747 68.4203C92.1638 67.5142 92.2747 66.6063 92.3713 65.7074C92.6271 63.4851 92.9616 61.2665 93.5197 59.0979C93.3301 59.0764 93.1405 59.0567 92.9509 59.0388C93.0707 58.9421 93.1906 58.8472 93.3122 58.7523C90.8902 55.0635 87.1051 52.3005 82.8299 51.2028C80.1592 50.465 77.3669 50.4238 74.6175 50.4256C69.947 50.4793 65.2103 51.74 61.3894 54.4905C58.1052 56.8721 55.3218 60.1723 54.2235 64.1405C52.8587 68.9306 53.5599 74.0126 54.6779 78.7776C55.5973 82.9822 57.0713 87.0596 57.7349 91.3215C57.9657 93.1193 58.0873 95.1965 56.8656 96.6882C54.0965 100.019 51.2255 103.264 48.4743 106.61C42.7914 107.368 37.3266 109.705 32.8618 113.308C28.1751 117.061 24.6011 122.186 22.7014 127.886C21.4493 131.616 20.8983 135.58 21.0915 139.511C21.2293 142.786 22.0539 145.975 22.6335 149.188C23.2631 152.518 23.9268 155.84 24.5457 159.171C19.4548 154.717 15.0329 149.515 11.382 143.823C7.28205 137.496 4.17134 130.522 2.24481 123.228C0.0320719 114.846 -0.531398 105.991 0.921102 97.4277C2.438 88.3435 6.21235 79.664 11.6986 72.2828C11.559 72.0661 11.4249 71.8477 11.2836 71.6328L11.4607 71.7205C12.389 72.4852 13.4784 73.0474 14.6554 73.3071C14.7574 73.3465 14.9631 73.4235 15.0651 73.4629L15.2207 73.4808C15.5731 73.5381 15.9219 73.6097 16.2761 73.6545C19.3081 73.9768 22.4671 72.8361 24.6065 70.6604C26.6368 68.6352 27.7369 65.7253 27.5508 62.8638C27.4614 61.0122 26.8067 59.2251 25.8014 57.6797C32.1319 52.6479 38.7845 48.01 45.8126 44.006C46.6891 44.8243 47.7105 45.4797 48.8071 45.9668C50.1326 46.5291 51.5779 46.8048 53.0179 46.7565C55.9569 46.7081 58.8332 45.3042 60.6829 43.0175C62.384 40.9672 63.2015 38.2292 62.9493 35.5808C71.836 31.9367 81.1287 29.2113 90.6469 27.8682C91.1388 31.4443 93.7111 34.6013 97.0723 35.878C96.9256 36.9274 96.8147 37.9892 96.8272 39.0493C96.7825 39.2803 97.0651 39.3842 97.2476 39.3627C97.5373 39.275 97.4962 38.9562 97.5373 38.7181C97.5999 37.8478 97.6464 36.9757 97.7252 36.1072C98.3852 36.297 99.0614 36.4224 99.7429 36.4994C101.151 36.6337 102.584 36.4994 103.929 36.0553C107.352 34.9182 110.102 31.8866 110.755 28.3141ZM96.8469 41.6047C96.668 42.6468 96.8665 43.732 96.956 44.7813C96.9274 45.1717 97.6715 45.2022 97.6357 44.7778C97.5964 43.8233 97.5051 42.8689 97.4676 41.9127C97.498 41.5688 97.1044 41.3951 96.8469 41.6047ZM135.835 45.0177C134.871 45.238 133.934 45.5764 133.031 45.9757C132.628 46.0885 132.868 46.846 133.286 46.6078C134.17 46.2927 135.048 45.9632 135.948 45.6982C136.415 45.6552 136.266 44.8852 135.835 45.0177ZM97.5123 47.2991L97.4193 47.4745C97.5964 48.4952 97.9184 49.4944 98.3101 50.4543C98.4604 50.8912 99.1866 50.5384 98.9272 50.1373C98.6339 49.2778 98.3566 48.4147 98.1294 47.5354C98.1044 47.2418 97.7287 47.0806 97.5123 47.2991ZM130.295 47.3402C129.503 47.7951 128.709 48.2571 127.972 48.7961C127.675 48.8928 127.818 49.4354 128.106 49.4103C128.419 49.4246 128.655 49.1578 128.92 49.0199C129.546 48.5687 130.263 48.2535 130.875 47.7825C131.211 47.4405 130.589 46.9749 130.295 47.3402ZM125.664 50.4113C124.854 50.9718 124.056 51.5573 123.305 52.1948C122.935 52.467 123.441 53.0114 123.752 52.7087C124.527 52.1411 125.305 51.5716 126.052 50.9682C126.428 50.739 125.983 50.1642 125.664 50.4113ZM99.7054 52.5512C99.5265 52.6604 99.4764 52.9057 99.6052 53.074C100.113 53.9121 100.695 54.7107 101.36 55.4306C101.591 55.7028 102.068 55.3822 101.918 55.0528C101.457 54.383 100.881 53.7975 100.469 53.0902C100.278 52.8448 100.094 52.3739 99.7054 52.5512ZM120.996 53.9622C120.275 54.4994 119.561 55.0456 118.849 55.5918C118.536 55.7278 118.609 56.2758 118.969 56.2758C119.321 56.1988 119.581 55.9195 119.87 55.7207C120.427 55.2641 121.047 54.8844 121.566 54.3812C121.852 54.0303 121.275 53.6059 120.996 53.9622ZM103.451 56.8399C103.415 56.9151 103.344 57.0637 103.308 57.1389L103.36 57.309C104.134 57.9949 105.016 58.5715 105.921 59.0711C106.226 59.2591 106.562 58.7702 106.317 58.541C105.714 58.0575 105 57.7298 104.406 57.232C104.111 57.0565 103.83 56.6662 103.451 56.8399ZM116.554 57.2267C115.708 57.694 114.889 58.2151 114.03 58.6682C113.601 58.8007 113.89 59.5617 114.304 59.2967C115.186 58.8992 116.019 58.3906 116.826 57.857C117.207 57.6833 116.924 57.0619 116.554 57.2267ZM108.292 59.73C108.238 59.927 108.227 60.2082 108.479 60.2637C109.572 60.5645 110.765 60.543 111.848 60.1956C111.785 59.9646 111.835 59.6065 111.493 59.619C110.774 59.6799 110.05 59.8321 109.329 59.6978C108.984 59.6889 108.592 59.4758 108.292 59.73Z" fill="#E8EAED"/>
<path d="M50.6135 33.1195C51.0375 32.8026 51.5723 32.7077 52.0875 32.6719C51.524 32.9817 50.8032 33.0963 50.4275 33.6711C50.0125 34.305 49.6011 35.0159 48.857 35.3078C47.5601 35.8253 46.2596 36.4592 45.3062 37.5103C45.0647 37.761 44.9252 38.0869 44.8071 38.4093C44.8053 38.266 44.8035 37.9813 44.8018 37.8398C45.6246 36.5666 46.9447 35.6874 48.3382 35.1484C48.6691 35.0123 49.0054 34.8744 49.2845 34.647C49.8157 34.2172 50.0572 33.5242 50.6135 33.1195Z" fill="#E8EAED"/>
<path d="M44.8574 39.5914C45.716 38.1607 47.3009 37.3656 48.8965 37.0684L48.7964 37.2277C47.3295 37.8294 45.8484 38.5707 44.8682 39.8654C44.8646 39.7974 44.861 39.6595 44.8574 39.5914Z" fill="#E8EAED"/>
<path d="M44.9414 41.1269C45.8412 39.7051 47.4189 38.8886 49.0199 38.5304C49.0878 38.5269 49.222 38.5197 49.29 38.5161C49.2524 38.6826 49.2166 38.8492 49.1826 39.0157C49.1522 38.9405 49.0896 38.7901 49.0592 38.7149C47.5298 39.3076 45.9342 40.0543 44.9682 41.4439C44.9611 41.3651 44.9486 41.2057 44.9414 41.1269Z" fill="#E8EAED"/>
<path d="M17.8293 53.4678C17.8687 53.457 17.9474 53.4355 17.9849 53.4248C17.7059 54.039 17.5592 54.7051 17.2444 55.3032C16.6022 56.5693 15.5808 57.6419 14.3662 58.3725C16.0477 57.205 17.4036 55.5038 17.8293 53.4678Z" fill="#E8EAED"/>
<path d="M92.6592 72.6085C109.957 72.4277 127.256 72.245 144.554 72.0409C145.237 72.0731 146.098 71.8511 146.604 72.4509C147.133 73.0365 146.759 73.8602 146.64 74.5317C143.237 89.7526 139.849 104.975 136.456 120.198C136.365 120.698 136.078 121.224 135.545 121.342C134.923 121.443 134.292 121.324 133.669 121.296C130.548 121.1 127.426 120.875 124.305 120.696C123.859 119.353 123.464 117.994 122.995 116.66C122.532 115.358 121.666 114.224 120.588 113.368C120.409 112.478 120.087 111.581 120.255 110.663C120.566 108.8 121.169 106.997 121.469 105.133C121.67 104.069 120.927 103.151 120.276 102.398C119.192 101.254 117.917 100.099 116.296 99.8682C116.214 99.485 116.135 99.1 116.073 98.7132C116.956 94.6412 117.886 90.5781 118.788 86.5097C110.159 86.5133 101.53 86.4327 92.9006 86.4363C92.7414 85.1935 92.5268 83.9561 92.457 82.7044C92.8434 79.3541 92.872 75.9714 92.6592 72.6085ZM126.19 86.6135C124.909 86.9341 123.716 87.602 122.79 88.5457C121.333 89.9102 120.632 91.905 120.503 93.8623C120.375 96.0093 121.255 98.1832 122.829 99.6462C125.63 102.32 130.557 102.375 133.34 99.648C134.93 98.2405 135.692 96.1024 135.785 94.0198C135.88 91.5612 134.635 89.1062 132.605 87.722C130.764 86.4255 128.354 86.1175 126.19 86.6135ZM137.014 97.4383C138.075 97.6997 139.144 97.9647 140.234 98.0758C140.656 98.0471 140.538 97.3666 140.162 97.3917C139.23 97.2144 138.306 97.0049 137.374 96.8402C136.975 96.7793 137.044 97.1732 137.014 97.4383Z" fill="#E8EAED"/>
<path d="M125.897 90.7568C127.627 91.697 129.26 92.8126 130.95 93.8243C131.399 94.0983 131.861 94.3561 132.267 94.6964C129.939 95.5523 127.634 96.4656 125.294 97.2786C125.916 96.2364 126.8 95.3733 127.525 94.3991C126.988 93.1814 126.374 91.9978 125.897 90.7568Z" fill="#E8EAED"/>
<path d="M99.9529 91.8229C100.817 91.2481 102.037 91.2427 102.86 91.9035C103.593 92.3941 104.185 93.3718 105.191 93.2035C106.387 92.9152 107.147 91.6635 108.434 91.6008C109.099 91.5167 109.595 92.027 110.104 92.3655C110.693 92.7845 111.453 92.7326 112.142 92.7702C112.151 93.1301 112.16 93.49 112.169 93.8518C111.441 93.8338 110.689 93.8285 110.004 93.5473C109.485 93.3396 109.095 92.9152 108.595 92.6753C107.695 92.763 107.097 93.5312 106.334 93.927C105.378 94.5089 104.065 94.4158 103.243 93.6405C102.584 93.1301 101.931 92.2473 100.985 92.5266C100.019 92.8436 99.5487 93.8374 98.9279 94.5644C98.3627 95.2968 97.5756 95.9701 96.6079 96.0095C95.8673 96.074 95.2108 95.6783 94.6187 95.2879C94.4524 94.6379 94.3093 93.9843 94.168 93.3289C94.6599 93.8894 95.2108 94.423 95.8691 94.7847C96.3879 95.073 97.039 94.9118 97.4665 94.5322C98.4003 93.7282 98.8868 92.489 99.9529 91.8229Z" fill="#E8EAED"/>
<path d="M68.6856 102.367C71.4511 101.278 74.3596 100.558 77.3076 100.195C77.3165 100.317 77.3344 100.557 77.3434 100.678C76.7566 100.92 76.127 101.015 75.5116 101.149C71.6943 101.994 67.9755 103.289 64.4676 105.015C63.4337 105.492 62.4356 106.065 61.3408 106.394C63.6645 104.843 66.0811 103.397 68.6856 102.367Z" fill="#E8EAED"/>
<path d="M95.5356 101.058C100.508 101.233 105.479 101.491 110.452 101.631C110.368 103.398 110.676 105.16 110.756 106.928C110.726 107.737 111.363 108.305 111.776 108.926C112.653 110.179 113.595 111.388 114.395 112.695C113.529 113.318 112.955 114.3 112.821 115.358C112.656 116.868 112.538 118.381 112.381 119.892C112.116 119.881 111.853 119.874 111.592 119.869C113.06 120.587 114.561 121.337 115.697 122.546C117.464 124.344 118.216 126.853 118.659 129.272C118.684 129.565 118.82 129.916 118.593 130.171C118.273 129.913 118.255 129.476 118.139 129.114C117.43 126.326 116.157 123.538 113.869 121.699C112.797 120.764 111.479 120.189 110.366 119.314C104.791 115.346 99.165 111.424 93.2227 108.018C93.3014 108.05 93.457 108.111 93.5339 108.143C94.8469 106.029 95.4408 103.527 95.5356 101.058Z" fill="#E8EAED"/>
<path d="M53.19 28.9047C54.0289 28.2314 55.1326 28.0398 56.1772 27.9699C57.1432 27.9073 58.1914 28.1186 58.9051 28.8169C59.7191 29.5869 59.9301 30.8386 59.6046 31.8862C59.415 32.6741 58.8586 33.2793 58.3131 33.8452C59.2432 33.2793 60.1662 32.418 60.2807 31.2755C60.3737 31.2755 60.4668 31.2773 60.5616 31.2809C60.3416 32.0438 60.0392 32.8155 59.4436 33.3653C58.8944 33.9473 58.1485 34.2624 57.4276 34.5722C58.8497 34.3788 59.9999 33.4584 60.8782 32.3768C60.1752 34.2302 58.0233 35.027 56.1719 34.8802C55.2864 34.8354 54.3902 34.8444 53.5227 34.6331C53.0164 34.5471 52.478 34.3484 51.97 34.5185C51.2742 34.8874 51.1472 35.7773 50.6052 36.2877C49.9916 36.4184 49.1831 36.379 48.8969 37.0702C47.3013 37.3675 45.7164 38.1625 44.8578 39.5933C44.8452 39.1976 44.8148 38.8054 44.8077 38.4115C44.9257 38.0891 45.0653 37.7632 45.3067 37.5125C46.2602 36.4614 47.5606 35.8275 48.8575 35.31C49.6016 35.0181 50.0131 34.3072 50.4281 33.6733C50.8037 33.0985 51.5246 32.9839 52.0881 32.6741C51.5729 32.7099 51.038 32.8048 50.6141 33.1217C50.0578 33.5264 49.8163 34.2194 49.285 34.6492C49.006 34.8766 48.6697 35.0145 48.3388 35.1506C46.9453 35.6896 45.6252 36.5688 44.8023 37.842C44.813 36.1552 44.7451 34.4666 44.7755 32.7797C44.8291 31.7071 45.0778 30.4482 46.0849 29.8645C47.1564 29.2521 48.4103 29.6514 49.5372 29.8645C50.8216 30.1546 52.1811 29.7176 53.19 28.9047Z" fill="#0C2340"/>
<path d="M44.8682 39.8667C45.8484 38.572 47.3295 37.8307 48.7963 37.229C48.8536 37.6641 48.9234 38.0993 49.0199 38.5308C47.419 38.889 45.8413 39.7055 44.9415 41.1273C44.9165 40.7065 44.8896 40.2875 44.8682 39.8667Z" fill="#0C2340"/>
<path d="M44.9697 41.4443C45.9357 40.0548 47.5313 39.3081 49.0607 38.7153C49.0911 38.7905 49.1537 38.941 49.1841 39.0162C49.3737 39.6411 50.1215 39.3976 50.5776 39.2973C50.9783 40.9627 50.4971 43.0524 48.8103 43.8063C47.7942 44.0588 46.585 44.1268 45.7139 43.4481C45.1146 42.9646 45.0431 42.1517 44.9697 41.4443Z" fill="#0C2340"/>
<path d="M51.97 34.5169C52.478 34.3468 53.0165 34.5456 53.5227 34.6315C54.3903 34.8428 55.2864 34.8339 56.1719 34.8786C56.1558 36.6926 56.1773 38.5084 56.1647 40.3223C56.1862 41.155 55.8106 41.9877 55.1415 42.4909C54.5477 42.9905 53.7463 43.0585 53.0165 43.2071C53.0308 44.389 53.0326 45.5726 53.0182 46.7563C51.5783 46.8046 50.1329 46.5289 48.8074 45.9666C48.7627 45.2467 48.7609 44.5251 48.8092 43.8052C50.496 43.0513 50.9772 40.9616 50.5765 39.2963C50.1204 39.3965 49.3727 39.6401 49.1831 39.0151C49.2171 38.8486 49.2528 38.6821 49.2904 38.5155C49.2224 38.5191 49.0883 38.5263 49.0203 38.5299C48.9237 38.0983 48.8539 37.6632 48.7967 37.228L48.8969 37.0686C49.1831 36.3774 49.9916 36.4168 50.6052 36.2861C51.1472 35.7758 51.2742 34.8858 51.97 34.5169Z" fill="#FFB9A3"/>
<path d="M146.58 46.4561C147.126 45.8562 147.301 44.669 148.299 44.6922C149.555 44.8015 150.802 45.2169 152.077 44.9877C152.07 46.8876 152.092 48.7893 152.07 50.6911C152.076 51.5273 151.618 52.3206 150.943 52.7987C150.36 53.232 149.612 53.2947 148.925 53.4326C148.949 54.6162 148.936 55.7999 148.934 56.9853C147.487 57.0194 146.024 56.7866 144.7 56.1903C144.681 55.4722 144.681 54.7541 144.693 54.0379C145.301 53.7352 145.849 53.2786 146.16 52.6626C146.679 51.7046 146.65 50.5711 146.495 49.5253C145.938 49.6901 145.266 49.7581 144.97 49.1403C145.04 49.0579 145.18 48.895 145.251 48.8144C144.609 48.4813 144.695 47.5555 144.969 47.0022C145.373 46.5599 146.065 46.6853 146.58 46.4561Z" fill="#FFB9A3"/>
<path d="M15.4156 63.1434C17.453 63.0431 19.5459 62.9017 21.4509 62.1084C21.4527 63.7934 21.4617 65.4803 21.4509 67.1671C21.4724 68.0427 21.0073 68.8897 20.2864 69.3768C19.7194 69.7923 19.0003 69.8549 18.3277 69.9552C18.2991 71.189 18.3223 72.4228 18.3116 73.6584C17.6337 73.6816 16.9539 73.6995 16.276 73.6548C15.9218 73.61 15.573 73.5384 15.2206 73.4811C15.3494 73.4882 15.6052 73.5008 15.734 73.5062C16.2563 71.0905 16.1865 68.5853 15.8735 66.1464C15.4048 66.1052 14.6607 66.3846 14.4585 65.7901C14.2385 65.2081 14.1062 64.5724 14.1759 63.9492C14.2832 63.3816 14.9075 63.1685 15.4156 63.1434Z" fill="#FFB9A3"/>
<path d="M141.334 39.689C143.137 37.8016 145.682 36.6448 148.294 36.5588C151.006 36.4353 153.739 37.4631 155.703 39.338C157.905 41.3937 159.105 44.4611 158.878 47.4659C158.69 50.6605 156.875 53.6868 154.175 55.3897C152.617 56.389 150.782 56.9369 148.934 56.9853C148.936 55.7998 148.949 54.6162 148.925 53.4325C149.612 53.2946 150.36 53.232 150.943 52.7986C151.617 52.3205 152.075 51.5272 152.07 50.691C152.091 48.7893 152.07 46.8875 152.077 44.9876C153.258 44.7781 154.401 44.146 155.05 43.1128C155.769 42.0294 155.911 40.4858 155.123 39.3989C154.476 38.4856 153.299 38.1346 152.224 38.1937C151.134 38.2474 149.979 38.4301 149.102 39.1303C148.074 39.9665 146.67 40.3945 145.362 40.0757C144.269 39.8555 143.044 39.4991 142.004 40.0847C141.001 40.6631 140.743 41.9148 140.691 42.9838C140.656 44.7745 140.747 46.5652 140.693 48.3559C140.795 49.7365 140.747 51.1333 140.996 52.4978C141.085 53.0636 141.407 53.6062 141.928 53.873C142.775 54.3189 143.786 54.2527 144.693 54.0378C144.68 54.7541 144.68 55.4721 144.7 56.1902C141.301 54.7344 138.803 51.3607 138.529 47.654C138.373 46.6941 138.742 45.6931 138.354 44.7709C138.448 44.7065 138.64 44.5775 138.735 44.5131C139.151 42.7098 140.049 41.0212 141.334 39.689Z" fill="url(#paint53_linear)"/>
<path d="M25.7113 57.5327C25.7345 57.5703 25.7792 57.6419 25.8007 57.6796C26.806 59.2249 27.4607 61.012 27.5501 62.8636C27.7362 65.7251 26.6361 68.635 24.6058 70.6603C22.4664 72.836 19.3074 73.9767 16.2754 73.6543C16.9533 73.6991 17.6331 73.6812 18.311 73.6579C18.3218 72.4223 18.2985 71.1885 18.3271 69.9548C18.9997 69.8545 19.7188 69.7918 20.2859 69.3764C21.0067 68.8893 21.4718 68.0423 21.4504 67.1666C21.4611 65.4798 21.4522 63.793 21.4504 62.1079C22.47 61.5636 23.461 60.9404 24.3089 60.1489C25.0387 59.4631 25.6952 58.5767 25.7113 57.5327Z" fill="#FFBE2C"/>
<path d="M92.9004 86.4366C101.53 86.4331 110.159 86.5136 118.788 86.5101C117.886 90.5785 116.956 94.6416 116.072 98.7136C115.516 95.802 114.953 92.8903 114.389 89.9786C114.303 89.4629 113.965 88.9508 113.425 88.8469C112.761 88.632 112.037 89.2283 112.08 89.9124C112.062 90.865 112.128 91.8177 112.141 92.7703C111.452 92.7327 110.692 92.7846 110.103 92.3656C109.593 92.0272 109.098 91.5168 108.432 91.601C107.146 91.6637 106.386 92.9154 105.189 93.2037C104.184 93.372 103.592 92.3943 102.859 91.9036C102.036 91.2429 100.816 91.2482 99.9518 91.823C98.8857 92.4892 98.3991 93.7283 97.4654 94.5324C97.0379 94.912 96.3867 95.0731 95.868 94.7848C95.2097 94.4231 94.6588 93.8895 94.1669 93.329C93.6517 91.0495 93.2438 88.7484 92.9004 86.4366Z" fill="url(#paint54_linear)"/>
<path d="M100.984 92.5261C101.93 92.2467 102.583 93.1295 103.241 93.6399C104.064 94.4152 105.377 94.5084 106.332 93.9264C107.096 93.5306 107.693 92.7624 108.593 92.6747C109.094 92.9146 109.484 93.339 110.003 93.5468C110.688 93.8279 111.439 93.8333 112.167 93.8512C112.212 95.9767 112.287 98.1005 112.312 100.226C111.627 100.586 110.77 100.846 110.452 101.63C105.479 101.49 100.508 101.232 95.5348 101.057C95.5599 99.0943 95.1109 97.1729 94.6172 95.2873C95.2093 95.6777 95.8658 96.0734 96.6063 96.009C97.5741 95.9696 98.3611 95.2963 98.9264 94.5639C99.5471 93.8368 100.018 92.843 100.984 92.5261Z" fill="url(#paint55_linear)"/>
<path d="M57.4502 106.475C61.3333 106.038 65.2459 106.679 69.002 107.756C72.7581 109.092 76.3632 111.006 79.486 113.674C84.3247 117.742 88.1103 123.317 90.1982 129.602C91.6031 133.691 92.0413 138.059 92.8496 142.311C94.0482 149.463 95.3444 156.595 96.5099 163.756C96.2908 163.796 96.0717 163.838 95.8544 163.883C94.1826 164.145 92.5402 164.591 90.9218 165.111C90.8389 165.091 90.6732 165.051 90.5904 165.028C88.8615 155.147 87.1841 145.254 85.4681 135.369C84.3376 128.787 81.515 122.535 77.3004 117.67C72.8355 112.331 66.8018 108.622 60.3446 107.115C59.3835 106.875 58.3947 106.79 57.4502 106.475Z" fill="#FFDB69"/>
<defs>
<linearGradient id="paint0_linear" x1="83.9482" y1="1.79985" x2="87.4575" y2="1.79985" gradientUnits="userSpaceOnUse">
<stop stop-color="#BB9BF1"/>
<stop offset="1" stop-color="#887BF2"/>
</linearGradient>
<linearGradient id="paint1_linear" x1="89.6074" y1="2.28292" x2="93.0485" y2="2.28292" gradientUnits="userSpaceOnUse">
<stop stop-color="#BB9BF1"/>
<stop offset="1" stop-color="#887BF2"/>
</linearGradient>
<linearGradient id="paint2_linear" x1="79.0371" y1="4.77822" x2="82.0787" y2="4.77822" gradientUnits="userSpaceOnUse">
<stop stop-color="#BB9BF1"/>
<stop offset="1" stop-color="#887BF2"/>
</linearGradient>
<linearGradient id="paint3_linear" x1="94.8438" y1="5.69463" x2="97.6158" y2="5.69463" gradientUnits="userSpaceOnUse">
<stop stop-color="#BB9BF1"/>
<stop offset="1" stop-color="#887BF2"/>
</linearGradient>
<linearGradient id="paint4_linear" x1="75.0078" y1="8.79807" x2="77.6552" y2="8.79807" gradientUnits="userSpaceOnUse">
<stop stop-color="#BB9BF1"/>
<stop offset="1" stop-color="#887BF2"/>
</linearGradient>
<linearGradient id="paint5_linear" x1="98.3438" y1="10.8988" x2="99.8875" y2="10.8988" gradientUnits="userSpaceOnUse">
<stop stop-color="#BB9BF1"/>
<stop offset="1" stop-color="#887BF2"/>
</linearGradient>
<linearGradient id="paint6_linear" x1="71.4648" y1="13.285" x2="73.9244" y2="13.285" gradientUnits="userSpaceOnUse">
<stop stop-color="#BB9BF1"/>
<stop offset="1" stop-color="#887BF2"/>
</linearGradient>
<linearGradient id="paint7_linear" x1="99.5332" y1="16.145" x2="100.272" y2="16.145" gradientUnits="userSpaceOnUse">
<stop stop-color="#BB9BF1"/>
<stop offset="1" stop-color="#887BF2"/>
</linearGradient>
<linearGradient id="paint8_linear" x1="68.1143" y1="17.9409" x2="70.5064" y2="17.9409" gradientUnits="userSpaceOnUse">
<stop stop-color="#BB9BF1"/>
<stop offset="1" stop-color="#887BF2"/>
</linearGradient>
<linearGradient id="paint9_linear" x1="64.7705" y1="22.5999" x2="67.1858" y2="22.5999" gradientUnits="userSpaceOnUse">
<stop stop-color="#BB9BF1"/>
<stop offset="1" stop-color="#887BF2"/>
</linearGradient>
<linearGradient id="paint10_linear" x1="21.8291" y1="23.9567" x2="25.3741" y2="23.9567" gradientUnits="userSpaceOnUse">
<stop stop-color="#BB9BF1"/>
<stop offset="1" stop-color="#887BF2"/>
</linearGradient>
<linearGradient id="paint11_linear" x1="61.2988" y1="27.142" x2="63.8008" y2="27.142" gradientUnits="userSpaceOnUse">
<stop stop-color="#BB9BF1"/>
<stop offset="1" stop-color="#887BF2"/>
</linearGradient>
<linearGradient id="paint12_linear" x1="27.1943" y1="27.3393" x2="29.9426" y2="27.3393" gradientUnits="userSpaceOnUse">
<stop stop-color="#BB9BF1"/>
<stop offset="1" stop-color="#887BF2"/>
</linearGradient>
<linearGradient id="paint13_linear" x1="18.4023" y1="27.9932" x2="20.1059" y2="27.9932" gradientUnits="userSpaceOnUse">
<stop stop-color="#BB9BF1"/>
<stop offset="1" stop-color="#887BF2"/>
</linearGradient>
<linearGradient id="paint14_linear" x1="59.4238" y1="29.3601" x2="60.157" y2="29.3601" gradientUnits="userSpaceOnUse">
<stop stop-color="#BB9BF1"/>
<stop offset="1" stop-color="#887BF2"/>
</linearGradient>
<linearGradient id="paint15_linear" x1="30.8115" y1="32.3212" x2="32.6935" y2="32.3212" gradientUnits="userSpaceOnUse">
<stop stop-color="#BB9BF1"/>
<stop offset="1" stop-color="#887BF2"/>
</linearGradient>
<linearGradient id="paint16_linear" x1="18.8242" y1="33.4502" x2="20.6488" y2="33.4502" gradientUnits="userSpaceOnUse">
<stop stop-color="#BB9BF1"/>
<stop offset="1" stop-color="#887BF2"/>
</linearGradient>
<linearGradient id="paint17_linear" x1="32.2715" y1="37.9988" x2="33.242" y2="37.9988" gradientUnits="userSpaceOnUse">
<stop stop-color="#BB9BF1"/>
<stop offset="1" stop-color="#887BF2"/>
</linearGradient>
<linearGradient id="paint18_linear" x1="21.5342" y1="37.6812" x2="24.429" y2="37.6812" gradientUnits="userSpaceOnUse">
<stop stop-color="#BB9BF1"/>
<stop offset="1" stop-color="#887BF2"/>
</linearGradient>
<linearGradient id="paint19_linear" x1="96.8232" y1="39.3659" x2="97.7259" y2="39.3659" gradientUnits="userSpaceOnUse">
<stop stop-color="#BB9BF1"/>
<stop offset="1" stop-color="#887BF2"/>
</linearGradient>
<linearGradient id="paint20_linear" x1="26.2256" y1="40.0354" x2="29.6314" y2="40.0354" gradientUnits="userSpaceOnUse">
<stop stop-color="#BB9BF1"/>
<stop offset="1" stop-color="#887BF2"/>
</linearGradient>
<linearGradient id="paint21_linear" x1="30.9766" y1="43.5853" x2="35.2555" y2="43.5853" gradientUnits="userSpaceOnUse">
<stop stop-color="#BB9BF1"/>
<stop offset="1" stop-color="#887BF2"/>
</linearGradient>
<linearGradient id="paint22_linear" x1="37.4209" y1="41.0417" x2="40.9852" y2="41.0417" gradientUnits="userSpaceOnUse">
<stop stop-color="#BB9BF1"/>
<stop offset="1" stop-color="#887BF2"/>
</linearGradient>
<linearGradient id="paint23_linear" x1="96.7754" y1="45.0855" x2="97.6378" y2="45.0855" gradientUnits="userSpaceOnUse">
<stop stop-color="#BB9BF1"/>
<stop offset="1" stop-color="#887BF2"/>
</linearGradient>
<linearGradient id="paint24_linear" x1="132.824" y1="46.6544" x2="136.236" y2="46.6544" gradientUnits="userSpaceOnUse">
<stop stop-color="#BB9BF1"/>
<stop offset="1" stop-color="#887BF2"/>
</linearGradient>
<linearGradient id="paint25_linear" x1="28.8877" y1="48.9216" x2="30.7343" y2="48.9216" gradientUnits="userSpaceOnUse">
<stop stop-color="#BB9BF1"/>
<stop offset="1" stop-color="#887BF2"/>
</linearGradient>
<linearGradient id="paint26_linear" x1="97.4199" y1="50.6569" x2="98.9833" y2="50.6569" gradientUnits="userSpaceOnUse">
<stop stop-color="#BB9BF1"/>
<stop offset="1" stop-color="#887BF2"/>
</linearGradient>
<linearGradient id="paint27_linear" x1="127.808" y1="49.4121" x2="130.972" y2="49.4121" gradientUnits="userSpaceOnUse">
<stop stop-color="#BB9BF1"/>
<stop offset="1" stop-color="#887BF2"/>
</linearGradient>
<linearGradient id="paint28_linear" x1="123.175" y1="52.798" x2="126.196" y2="52.798" gradientUnits="userSpaceOnUse">
<stop stop-color="#BB9BF1"/>
<stop offset="1" stop-color="#887BF2"/>
</linearGradient>
<linearGradient id="paint29_linear" x1="25.9854" y1="53.8567" x2="28.2554" y2="53.8567" gradientUnits="userSpaceOnUse">
<stop stop-color="#BB9BF1"/>
<stop offset="1" stop-color="#887BF2"/>
</linearGradient>
<linearGradient id="paint30_linear" x1="159.474" y1="54.6839" x2="162.252" y2="54.6839" gradientUnits="userSpaceOnUse">
<stop stop-color="#BB9BF1"/>
<stop offset="1" stop-color="#887BF2"/>
</linearGradient>
<linearGradient id="paint31_linear" x1="99.5332" y1="55.5335" x2="101.947" y2="55.5335" gradientUnits="userSpaceOnUse">
<stop stop-color="#BB9BF1"/>
<stop offset="1" stop-color="#887BF2"/>
</linearGradient>
<linearGradient id="paint32_linear" x1="118.651" y1="56.2764" x2="121.644" y2="56.2764" gradientUnits="userSpaceOnUse">
<stop stop-color="#BB9BF1"/>
<stop offset="1" stop-color="#887BF2"/>
</linearGradient>
<linearGradient id="paint33_linear" x1="23.6357" y1="56.3072" x2="24.9434" y2="56.3072" gradientUnits="userSpaceOnUse">
<stop stop-color="#BB9BF1"/>
<stop offset="1" stop-color="#887BF2"/>
</linearGradient>
<linearGradient id="paint34_linear" x1="163.409" y1="59.1918" x2="165.762" y2="59.1918" gradientUnits="userSpaceOnUse">
<stop stop-color="#BB9BF1"/>
<stop offset="1" stop-color="#887BF2"/>
</linearGradient>
<linearGradient id="paint35_linear" x1="103.309" y1="59.1137" x2="106.402" y2="59.1137" gradientUnits="userSpaceOnUse">
<stop stop-color="#BB9BF1"/>
<stop offset="1" stop-color="#887BF2"/>
</linearGradient>
<linearGradient id="paint36_linear" x1="113.817" y1="59.3524" x2="117.006" y2="59.3524" gradientUnits="userSpaceOnUse">
<stop stop-color="#BB9BF1"/>
<stop offset="1" stop-color="#887BF2"/>
</linearGradient>
<linearGradient id="paint37_linear" x1="108.26" y1="60.4746" x2="111.847" y2="60.4746" gradientUnits="userSpaceOnUse">
<stop stop-color="#BB9BF1"/>
<stop offset="1" stop-color="#887BF2"/>
</linearGradient>
<linearGradient id="paint38_linear" x1="166.478" y1="64.3373" x2="168.323" y2="64.3373" gradientUnits="userSpaceOnUse">
<stop stop-color="#BB9BF1"/>
<stop offset="1" stop-color="#887BF2"/>
</linearGradient>
<linearGradient id="paint39_linear" x1="168.474" y1="69.8712" x2="169.736" y2="69.8712" gradientUnits="userSpaceOnUse">
<stop stop-color="#BB9BF1"/>
<stop offset="1" stop-color="#887BF2"/>
</linearGradient>
<linearGradient id="paint40_linear" x1="92.6162" y1="122.183" x2="147.687" y2="122.183" gradientUnits="userSpaceOnUse">
<stop stop-color="#BB9BF1"/>
<stop offset="1" stop-color="#887BF2"/>
</linearGradient>
<linearGradient id="paint41_linear" x1="169.234" y1="75.5876" x2="170" y2="75.5876" gradientUnits="userSpaceOnUse">
<stop stop-color="#BB9BF1"/>
<stop offset="1" stop-color="#887BF2"/>
</linearGradient>
<linearGradient id="paint42_linear" x1="168.278" y1="81.2363" x2="169.561" y2="81.2363" gradientUnits="userSpaceOnUse">
<stop stop-color="#BB9BF1"/>
<stop offset="1" stop-color="#887BF2"/>
</linearGradient>
<linearGradient id="paint43_linear" x1="166.421" y1="86.6591" x2="168.185" y2="86.6591" gradientUnits="userSpaceOnUse">
<stop stop-color="#BB9BF1"/>
<stop offset="1" stop-color="#887BF2"/>
</linearGradient>
<linearGradient id="paint44_linear" x1="128.142" y1="88.5335" x2="134.61" y2="96.2529" gradientUnits="userSpaceOnUse">
<stop stop-color="#6B73FF"/>
<stop offset="1" stop-color="#2B35FF"/>
</linearGradient>
<linearGradient id="paint45_linear" x1="163.429" y1="91.5554" x2="165.809" y2="91.5554" gradientUnits="userSpaceOnUse">
<stop stop-color="#BB9BF1"/>
<stop offset="1" stop-color="#887BF2"/>
</linearGradient>
<linearGradient id="paint46_linear" x1="159.203" y1="95.3769" x2="162.199" y2="95.3769" gradientUnits="userSpaceOnUse">
<stop stop-color="#BB9BF1"/>
<stop offset="1" stop-color="#887BF2"/>
</linearGradient>
<linearGradient id="paint47_linear" x1="153.994" y1="97.7277" x2="157.4" y2="97.7277" gradientUnits="userSpaceOnUse">
<stop stop-color="#BB9BF1"/>
<stop offset="1" stop-color="#887BF2"/>
</linearGradient>
<linearGradient id="paint48_linear" x1="137.014" y1="98.0764" x2="140.501" y2="98.0764" gradientUnits="userSpaceOnUse">
<stop stop-color="#BB9BF1"/>
<stop offset="1" stop-color="#887BF2"/>
</linearGradient>
<linearGradient id="paint49_linear" x1="142.661" y1="98.6653" x2="146.228" y2="98.6653" gradientUnits="userSpaceOnUse">
<stop stop-color="#BB9BF1"/>
<stop offset="1" stop-color="#887BF2"/>
</linearGradient>
<linearGradient id="paint50_linear" x1="148.359" y1="98.6485" x2="151.915" y2="98.6485" gradientUnits="userSpaceOnUse">
<stop stop-color="#BB9BF1"/>
<stop offset="1" stop-color="#887BF2"/>
</linearGradient>
<linearGradient id="paint51_linear" x1="102.527" y1="18.8882" x2="111.11" y2="27.5276" gradientUnits="userSpaceOnUse">
<stop stop-color="#6B73FF"/>
<stop offset="1" stop-color="#2B35FF"/>
</linearGradient>
<linearGradient id="paint52_linear" x1="98.4608" y1="113.246" x2="119.138" y2="142.893" gradientUnits="userSpaceOnUse">
<stop stop-color="#6B73FF"/>
<stop offset="1" stop-color="#2B35FF"/>
</linearGradient>
<linearGradient id="paint53_linear" x1="148.629" y1="39.4149" x2="157.272" y2="49.7763" gradientUnits="userSpaceOnUse">
<stop stop-color="#6B73FF"/>
<stop offset="1" stop-color="#2B35FF"/>
</linearGradient>
<linearGradient id="paint54_linear" x1="105.844" y1="88.1583" x2="109.469" y2="97.2714" gradientUnits="userSpaceOnUse">
<stop stop-color="#6B73FF"/>
<stop offset="1" stop-color="#2B35FF"/>
</linearGradient>
<linearGradient id="paint55_linear" x1="103.465" y1="93.7569" x2="106.34" y2="100.382" gradientUnits="userSpaceOnUse">
<stop stop-color="#6B73FF"/>
<stop offset="1" stop-color="#2B35FF"/>
</linearGradient>
</defs>
</svg>
