<svg width="200" height="181" viewBox="0 0 200 181" fill="none" xmlns="http://www.w3.org/2000/svg">
<ellipse rx="91.565" ry="6.63065" transform="matrix(1.00004 0.00316616 -0.00460141 0.99994 96.4097 164.72)" fill="#D3D3D3"/>
<path d="M137.08 6.99602L141.694 7.22971C148.954 11.2571 157.216 13.2831 164.815 16.6892C174.684 20.3813 184.369 24.5657 194.276 28.18C195.67 29.1512 197.06 30.1793 198.114 31.5553C198.917 33.6253 197.996 35.836 197.684 37.8953C196.361 41.5108 194.992 45.1127 193.502 48.6513C191.914 51.8773 190.37 55.1396 189.552 58.6553C188.912 61.3591 187.68 63.8506 186.595 66.3837C184.158 66.4541 183.888 69.2679 184.385 71.0944C183.026 75.6088 181.646 80.3046 178.932 84.2146C177.552 84.5323 176.227 84.8756 174.902 85.219C172.799 84.3372 170.664 83.6362 168.554 82.8795C164.744 80.7256 160.579 79.2833 156.402 78.0571C151.59 76.8101 148.199 81.9285 143.666 82.098C139.077 78.525 140.769 68.441 133.163 68.4662C127.884 67.4464 123.077 64.7859 118.097 62.8236C117.944 62.7132 117.636 62.5038 117.482 62.4048C116.196 60.2305 115.743 57.5625 116.707 55.1829C122.344 40.9319 127.88 26.6303 133.371 12.3263C134.127 10.244 135.632 8.62144 137.08 6.99602ZM145.905 27.3607C143.298 28.9844 142.651 32.9079 144.55 35.3184C146.875 39.381 154.141 37.7993 154.525 33.0189C155.73 28.3941 149.67 24.4616 145.905 27.3607ZM162.661 36.3724C154.003 42.0107 144.509 46.4552 136.392 52.8392C137.799 55.7493 139.248 58.7186 141.418 61.1543C143.04 61.8863 144.41 60.2341 145.827 59.6447C155.607 53.6299 165.482 47.7568 175.357 41.8837C176.38 41.012 178.273 40.4466 178.109 38.7851C176.957 36.0133 175.231 33.5545 173.703 31.0031C169.443 31.175 166.312 34.5735 162.661 36.3724ZM162.645 55.5939C159.638 57.243 159.446 61.8393 161.841 64.0926C164.423 66.9254 169.71 66.0188 170.907 62.2259C173.372 57.4254 166.749 52.0621 162.645 55.5939Z" fill="#EE662A"/>
<path d="M49.5105 20.9851L50.3648 20.732C52.4703 20.4624 54.6617 20.2883 56.7858 20.7607L58.3388 21.284C58.8919 23.5581 59.1002 25.9058 59.1265 28.2558C59.1302 31.4825 59.82 34.6299 60.6142 37.7371C60.6701 38.1959 60.7597 39.1012 60.8161 39.5487C60.9524 42.8505 61.5916 46.098 62.3113 49.3267C61.9833 52.5936 64.5932 56.4198 61.9854 59.1494C60.9717 60.7284 58.824 59.8329 57.3403 60.1682C54.1188 60.2559 50.9244 60.6984 47.8611 61.6833C47.5145 61.7912 46.8339 61.9847 46.4993 62.0818C45.7835 63.1743 45.0467 64.2315 44.2993 65.2767C44.2009 65.4199 44.0151 65.7184 43.9167 65.8616L42.9287 67.6015C42.8542 67.7232 42.7064 67.9437 42.6439 68.0545C41.9714 68.0889 40.6265 68.1576 39.9541 68.1919C40.2256 66.6779 39.6186 65.8833 38.134 65.7967L36.7293 65.7028C35.9363 64.99 35.1542 64.2891 34.372 63.5882C33.5873 63.5941 31.9947 63.616 31.1987 63.6213C28.9844 63.5776 25.6939 62.362 24.4798 64.957C22.0652 65.2679 19.6306 65.3042 17.3006 64.639C16.6855 62.4644 16.4267 60.2167 16.4524 57.9606C16.3961 54.6514 15.8034 51.3835 14.9572 48.1825C14.9235 47.7362 14.8559 46.8435 14.8222 46.3971C14.7068 43.1306 14.1912 39.9121 13.3426 36.7567C13.189 33.3513 11.5125 29.7207 13.1139 26.4499C14.2851 25.5629 15.5957 25.2758 17.0692 25.5785C19.2535 25.9855 22.4053 26.8064 23.629 24.2462C24.3468 24.2141 25.7936 24.1506 26.5108 24.1299C29.6535 24.0268 32.738 23.2938 35.759 22.4663C36.5442 22.449 38.1141 22.4259 38.8994 22.4087C42.4653 22.4753 46.1325 22.3418 49.5105 20.9851ZM37.2777 34.8678C34.3311 33.1566 30.2236 32.5723 27.7465 35.4112C24.2089 38.7549 26.4752 44.3878 29.8927 46.8868C33.2186 49.1758 36.3851 51.9128 40.2348 53.3049C42.9364 49.8618 46.1418 46.7862 48.5275 43.0763C49.9906 40.0607 50.7132 35.3202 47.2676 33.3671C44.0941 30.7666 40.0393 32.6818 37.2777 34.8678Z" fill="#EE662A"/>
<path d="M38.8973 22.4087C42.0488 20.596 45.9697 20.6122 49.5084 20.9852C46.1304 22.3418 42.4632 22.4753 38.8973 22.4087Z" fill="#EF8F91"/>
<path d="M24.4777 64.9573C25.6918 62.3626 28.9823 63.578 31.1967 63.6218C30.2278 65.431 26.4286 65.2613 24.4777 64.9573Z" fill="#EF8F91"/>
<path d="M194.278 28.1812L195.351 28.5319C196.424 29.3159 197.425 30.1874 198.484 31.039C199.159 33.3761 198.662 35.7222 197.686 37.8958C197.997 35.8367 198.918 33.6261 198.116 31.5562C197.062 30.1804 195.671 29.1523 194.278 28.1812Z" fill="#F4F8E6"/>
<path d="M36.7503 73.8679C44.1009 73.7272 51.469 73.6899 58.8395 73.8238C57.7397 75.3072 55.8537 74.8468 54.3161 74.9058C48.0643 74.6803 41.8212 74.7289 35.594 74.6872L36.7503 73.8679Z" fill="#F4F8E6"/>
<path d="M33.6488 167.073C41.4327 167.126 49.2085 167.337 57.0091 167.288C56.5205 167.502 55.5536 167.955 55.0764 168.17C48.3082 168.26 41.5411 168.328 34.7875 168.134L33.6488 167.073Z" fill="#F4F8E6"/>
<path d="M145.906 27.3614C149.67 24.4626 155.731 28.3948 154.525 33.0193C154.142 37.7994 146.876 39.3808 144.551 35.3186C142.652 32.9082 143.298 28.985 145.906 27.3614Z" fill="#FDD444"/>
<path d="M17.0678 25.5791C18.2086 23.9611 21.6581 23.8622 23.6275 24.2469C22.4039 26.807 19.252 25.9862 17.0678 25.5791Z" fill="#D28359"/>
<path d="M162.661 36.3738C166.312 34.5749 169.443 31.1764 173.703 31.0045C175.231 33.5559 176.956 36.0147 178.109 38.7866C178.273 40.448 176.38 41.0134 175.357 41.8851C165.482 47.7582 155.607 53.6313 145.827 59.646C144.41 60.2355 143.04 61.8876 141.418 61.1556C139.248 58.7199 137.799 55.7506 136.392 52.8405C144.509 46.4565 154.003 42.0121 162.661 36.3738Z" fill="#FED443"/>
<path d="M37.2775 34.8674C40.0391 32.6814 44.094 30.7662 47.2674 33.3668C50.7131 35.3198 49.9905 40.0603 48.5273 43.0759C46.1417 46.7858 42.9362 49.8614 40.2347 53.3045C36.3849 51.9124 33.2185 49.1754 29.8925 46.8864C26.4751 44.3875 24.2087 38.7545 27.7463 35.4108C30.2234 32.5719 34.3309 33.1562 37.2775 34.8674Z" fill="#FED443"/>
<path d="M13.3408 36.7573C14.1894 39.9126 14.7051 43.1308 14.8204 46.3971C14.2814 43.1891 13.6733 40.0004 13.3408 36.7573Z" fill="#FFFFF3"/>
<path d="M60.8145 39.5498C61.351 42.8032 62.0595 46.0312 62.3097 49.3271C61.5899 46.0986 60.9507 42.8514 60.8145 39.5498Z" fill="#FFFFF3"/>
<path d="M130.104 111.385C130.46 110.434 131.116 110.046 132.084 110.232C141.71 110.719 151.371 110.308 160.992 110.875C160.906 112.33 160.819 113.785 160.733 115.239C157.067 115.134 153.388 115.05 149.729 115.013C149.298 115.88 148.631 116.245 147.741 116.098C134.038 115.54 120.295 115.973 106.594 115.382C106.929 113.962 107.287 112.533 107.667 111.127C115.14 111.46 122.622 110.984 130.104 111.385Z" fill="#FFFFF3"/>
<path d="M135.122 151.27C143.768 152.015 152.46 151.213 161.114 151.811C160.847 153.245 161.568 156.223 159.246 156.071C150.729 156.119 142.198 156.006 133.693 155.826C133.553 154.132 134.03 152.617 135.122 151.27Z" fill="#FFFFF3"/>
<path d="M189.552 58.6546C190.37 55.1392 191.914 51.8771 193.502 48.6514C192.248 52.0194 191.039 55.3897 189.552 58.6546Z" fill="#D2D2D2"/>
<path d="M162.645 55.5941C166.749 52.0627 173.372 57.4256 170.907 62.2256C169.71 66.0183 164.423 66.9248 161.841 64.0922C159.446 61.839 159.638 57.243 162.645 55.5941Z" fill="#FDD541"/>
<path opacity="0.93" d="M117.482 62.4062C117.636 62.5054 117.944 62.715 118.097 62.8254L117.636 62.7336L117.482 62.4062Z" fill="#EE9A6B"/>
<path opacity="0.86" d="M184.384 71.0947C183.888 69.2683 184.158 66.4547 186.594 66.3843C186.379 68.129 185.937 70.0789 184.384 71.0947Z" fill="#BF7C57"/>
<path d="M133.163 68.4676C140.769 68.4424 139.077 78.5265 143.666 82.0995C148.199 81.93 151.59 76.8116 156.402 78.0586C160.579 79.2849 164.744 80.7272 168.554 82.8811L166.648 82.8188C166.773 90.7375 166.806 98.6629 166.965 106.595C165.634 113.425 165.272 120.874 167.506 127.566C167.412 138.609 169.183 149.655 167.965 160.687L166.842 161.964C166.453 162.446 166.098 162.941 165.787 163.461C161.496 163.996 155.956 161.663 152.573 165.095C149.662 165.118 146.771 164.972 143.895 164.746C138.985 164.52 134.034 163.757 129.156 164.433C121.146 167.003 112.712 164.569 104.497 165.373C101.938 161.447 100.174 156.432 95.6208 154.355C93.2909 153.028 90.5412 153.003 87.9623 152.975C84.8452 152.361 82.4397 154.257 80.4221 156.344C77.6886 158.645 76.7528 162.235 74.9853 165.201C69.9191 169.528 62.9941 166.714 57.0079 167.289C49.2073 167.339 41.4315 167.127 33.6476 167.075C30.922 165.706 29.7729 162.866 29.8679 159.929C29.0736 135.274 28.6661 110.615 27.9058 85.9617C27.7057 82.5769 28.2645 79.2419 29.0699 75.9763C27.6619 76.1672 26.2533 76.3695 24.8679 76.5616C24.8701 77.8386 24.9171 79.1293 24.9533 80.4081C24.2439 80.4976 22.8476 80.6777 22.1382 80.7672C22.4286 78.228 24.3833 76.48 25.9118 74.6193C29.1298 74.5998 32.3509 74.7402 35.5933 74.6878C41.8204 74.7295 48.0636 74.6809 54.3154 74.9063C55.853 74.8474 57.739 75.3077 58.8387 73.8243C61.5305 73.8694 64.2448 73.9156 66.9652 74.0648C67.4873 74.0799 68.5537 74.1225 69.0871 74.1381C69.913 74.2141 71.5876 74.3673 72.4248 74.4439C74.1505 77.564 75.6603 80.9012 78.2466 83.4264C79.6416 84.147 80.9228 85.0897 82.0103 86.2621C83.3607 86.3077 84.7229 86.3425 86.1085 86.3671C88.7453 86.3752 91.6736 86.6831 93.9552 84.9859C98.181 82.6233 99.9053 77.8537 102.059 73.8014C101.352 73.6174 99.9381 73.2608 99.2315 73.0768C107.294 70.6006 115.945 72.5779 124.242 72.3711C127.857 69.9433 132.559 72.017 136.616 71.3788C136.004 69.7973 134.861 68.8273 133.163 68.4676ZM144.396 91.2801C134.156 91.2517 123.919 91.1551 113.695 91.0249C111.148 91.694 108.558 92.1101 105.93 91.92C103.783 95.4254 107.397 97.8431 109.568 100.051C108.268 101.239 105.333 101.717 106.711 104.307C118.506 104.836 130.316 104.613 142.123 104.698C148.126 103.36 154.299 104.22 160.388 104.084C160.461 102.446 160.455 100.804 160.358 99.1686C159.471 95.863 155.027 96.9491 152.547 95.8886C154.91 94.3779 157.802 95.1742 160.449 94.989C160.298 93.5106 160.17 92.022 160.064 90.5459C154.765 89.9355 149.664 91.6381 144.396 91.2801ZM86.7234 91.4033C85.0553 92.4475 86.6377 95.4805 88.4047 94.2817C90.1063 93.2506 88.4553 90.2255 86.7234 91.4033ZM87.4744 97.1077C85.2048 97.4716 85.8581 101.107 88.1769 100.45C90.4089 100.152 89.5021 96.5833 87.4744 97.1077ZM87.0696 103.837C86.3717 105.682 86.9624 106.351 88.8297 105.853C89.4935 104.005 88.9029 103.337 87.0696 103.837ZM130.103 111.386C122.621 110.984 115.139 111.46 107.666 111.128C107.286 112.533 106.928 113.963 106.593 115.383C120.294 115.974 134.037 115.541 147.74 116.099C148.63 116.246 149.297 115.881 149.728 115.014C153.387 115.051 157.066 115.134 160.732 115.24C160.818 113.785 160.905 112.33 160.991 110.875C151.37 110.308 141.709 110.72 132.083 110.232C131.115 110.046 130.459 110.435 130.103 111.386ZM86.4259 109.254C86.5088 110.067 86.6628 111.706 86.7344 112.519C87.3854 112.46 88.6873 112.344 89.3382 112.286C89.4857 111.632 89.792 110.325 89.9389 109.683C89.0695 109.57 87.3067 109.367 86.4259 109.254ZM86.4514 115.355C86.3945 117.336 87.3541 119.003 89.5945 118.763C89.6064 117.874 89.6294 116.108 89.6299 115.219C88.8441 115.248 87.2492 115.315 86.4514 115.355ZM87.4256 122.017C86.6955 123.827 87.2754 124.483 89.1767 123.986C89.8848 122.164 89.2935 121.507 87.4256 122.017ZM87.2034 127.854C85.8256 129.437 88.5631 131.457 89.7946 129.844C91.2194 128.229 88.4026 126.205 87.2034 127.854ZM87.8284 133.575C86.1394 134.584 87.699 137.616 89.4554 136.405C91.1898 135.398 89.6127 132.263 87.8284 133.575ZM87.1283 142.501C87.9941 142.465 89.7268 142.37 90.6045 142.323C90.668 141.095 90.289 140.073 89.4428 139.289C87.2219 138.492 87.1045 140.983 87.1283 142.501ZM134.886 142.206C134.388 142.842 133.401 144.115 132.902 144.751L133.65 146.111C142.449 146.978 151.472 146.592 160.361 146.597C160.439 145.53 160.595 143.394 160.672 142.338C152.075 142.176 143.474 142.105 134.886 142.206ZM87.1604 147.815C88.0126 148.041 89.7178 148.481 90.5814 148.707C90.4936 147.767 90.3173 145.9 90.2294 144.961C88.6382 145.177 86.7417 145.799 87.1604 147.815ZM135.123 151.27C134.03 152.617 133.554 154.133 133.693 155.827C142.198 156.007 150.729 156.12 159.246 156.072C161.568 156.224 160.847 153.246 161.115 151.812C152.461 151.214 143.769 152.016 135.123 151.27Z" fill="#FED444"/>
<path opacity="0.69" d="M43.9161 65.8631C44.0144 65.7197 44.2003 65.421 44.2987 65.2776C44.2003 65.421 44.0144 65.7197 43.9161 65.8631Z" fill="#B17A63"/>
<path opacity="0.91" d="M38.1337 65.7972C39.6184 65.8838 40.2253 66.6784 39.9538 68.1923C38.2616 68.1636 37.6546 67.369 38.1337 65.7972Z" fill="#D17C57"/>
<path opacity="0.58" d="M42.6438 68.0556C42.7064 67.9446 42.8542 67.7238 42.9287 67.6021C42.8542 67.7238 42.7064 67.9446 42.6438 68.0556Z" fill="#936E5B"/>
<path d="M109.569 100.05C107.398 97.8426 103.783 95.4251 105.931 91.92C106.291 93.5343 106.731 95.1298 107.253 96.6952C109.657 96.1444 112.099 95.5157 114.61 95.5516C127.247 95.6216 139.895 95.6922 152.548 95.8884C155.028 96.9489 159.472 95.8629 160.358 99.1683C155.114 101.217 149.48 100.27 144.031 100.348C132.544 100.245 121.057 100.358 109.569 100.05Z" fill="#FBD448"/>
<path d="M96.3443 73.9558C97.291 73.6731 98.261 73.3802 99.2316 73.0759C99.9383 73.26 101.352 73.6166 102.059 73.8006C99.9054 77.8529 98.1811 82.6225 93.9554 84.9851C91.6737 86.6823 88.7454 86.3744 86.1086 86.3663C87.0844 85.0817 88.4115 84.2597 90.008 83.9415L90.5968 83.1048C90.7196 82.9286 90.976 82.5882 91.0982 82.4234C91.5363 81.8641 92.4119 80.7569 92.8495 80.209C94.6043 78.5877 96.3057 76.4621 96.3443 73.9558Z" fill="#D8A62D"/>
<path d="M24.8674 76.5609C26.2528 76.3689 27.6613 76.1666 29.0694 75.9757C28.264 79.2412 27.7051 82.5762 27.9053 85.9611C28.6655 110.615 29.0731 135.273 29.8673 159.928C29.7723 162.865 30.9214 165.705 33.647 167.074L34.7858 168.135C32.149 168.127 29.5407 168.006 26.9383 167.772C26.0774 166.394 24.8908 165.16 24.5774 163.525C24.2253 156.484 24.2604 149.429 23.5891 142.406C23.5116 131.81 22.3428 121.217 22.8912 110.607C22.9169 100.655 21.4867 90.7209 22.1377 80.7665C22.8471 80.677 24.2433 80.4969 24.9527 80.4074C24.9165 79.1287 24.8696 77.838 24.8674 76.5609Z" fill="#D9A325"/>
<path opacity="0.69" d="M90.5973 83.1062C90.7201 82.9298 90.9765 82.5889 91.0987 82.4239C90.9765 82.5889 90.7201 82.9298 90.5973 83.1062Z" fill="#B19663"/>
<path d="M144.398 91.279C149.666 91.6369 154.767 89.9345 160.066 90.5449C160.172 92.0209 160.3 93.5094 160.451 94.9876C157.804 95.1728 154.912 94.3765 152.549 95.8871C139.896 95.6909 127.248 95.6203 114.611 95.5503C112.101 95.5143 109.658 96.1431 107.254 96.6939C106.733 95.1285 106.292 93.5329 105.932 91.9187C108.56 92.1087 111.15 91.6927 113.697 91.0237C123.921 91.1539 134.158 91.2505 144.398 91.279Z" fill="#FFFEFB"/>
<path d="M86.7245 91.4029C88.4563 90.2252 90.1074 93.2501 88.4058 94.2811C86.6387 95.4799 85.0563 92.4471 86.7245 91.4029Z" fill="#DCAE25"/>
<path d="M144.029 100.348C149.478 100.27 155.113 101.217 160.357 99.1682C160.454 100.803 160.46 102.445 160.387 104.083C154.298 104.219 148.125 103.36 142.122 104.697C130.316 104.612 118.505 104.835 106.71 104.306C105.332 101.717 108.267 101.238 109.567 100.05C121.055 100.358 132.542 100.245 144.029 100.348Z" fill="#FFFEFF"/>
<path d="M87.4746 97.107C89.5024 96.5827 90.4092 100.151 88.1772 100.449C85.8584 101.106 85.2051 97.4709 87.4746 97.107Z" fill="#DEB026"/>
<path d="M87.0697 103.835C88.9029 103.335 89.4936 104.004 88.8297 105.851C86.9625 106.349 86.3718 105.681 87.0697 103.835Z" fill="#D6A81D"/>
<path opacity="0.98" d="M166.966 106.594C168.123 113.448 167.571 120.602 167.507 127.565C165.273 120.874 165.635 113.424 166.966 106.594Z" fill="#F4D266"/>
<path d="M86.4258 109.252C87.3066 109.365 89.0694 109.569 89.9389 109.681C89.792 110.324 89.4857 111.63 89.3382 112.284C88.6872 112.342 87.3853 112.459 86.7343 112.517C86.6627 111.704 86.5088 110.066 86.4258 109.252Z" fill="#DFB329"/>
<path d="M86.45 115.352C87.2478 115.313 88.8428 115.245 89.6286 115.217C89.6281 116.106 89.605 117.872 89.5932 118.761C87.3528 119 86.3931 117.333 86.45 115.352Z" fill="#DFB329"/>
<path d="M87.4251 122.016C89.293 121.506 89.8842 122.163 89.1762 123.986C87.2749 124.482 86.695 123.826 87.4251 122.016Z" fill="#D4A81E"/>
<path d="M87.2032 127.853C88.4024 126.204 91.2192 128.227 89.7944 129.842C88.5629 131.456 85.8254 129.436 87.2032 127.853Z" fill="#DBAE26"/>
<path d="M87.8292 133.574C89.6135 132.263 91.1905 135.398 89.4561 136.404C87.6998 137.615 86.1401 134.583 87.8292 133.574Z" fill="#DBAD25"/>
<path d="M87.1294 142.5C87.1055 140.982 87.2229 138.492 89.4439 139.288C90.29 140.072 90.669 141.094 90.6055 142.322C89.7278 142.369 87.9952 142.464 87.1294 142.5Z" fill="#E0B228"/>
<path d="M134.886 142.205C143.474 142.104 152.075 142.175 160.672 142.337C160.594 143.393 160.439 145.529 160.361 146.596C151.472 146.591 142.449 146.977 133.65 146.11L132.902 144.75C133.401 144.114 134.387 142.841 134.886 142.205Z" fill="#FFFFF4"/>
<path d="M87.1595 147.814C86.7408 145.798 88.6373 145.176 90.2285 144.96C90.3164 145.899 90.4926 147.767 90.5805 148.706C89.7169 148.48 88.0117 148.04 87.1595 147.814Z" fill="#E5B02A"/>
<path d="M80.4219 156.343C82.4395 154.256 84.8451 152.36 87.9621 152.974C89.8112 154.367 91.7085 155.706 93.4473 157.253C89.3763 155.303 84.7056 154.838 80.4219 156.343Z" fill="#FFF6BF"/>
<path d="M87.9613 152.975C90.5402 153.003 93.2899 153.028 95.6198 154.354C100.173 156.432 101.937 161.446 104.496 165.372C102.993 165.432 101.499 165.516 100.027 165.624C96.6374 163.914 95.9862 159.799 93.4465 157.254C91.7077 155.707 89.8103 154.368 87.9613 152.975Z" fill="#DAA525"/>
<path d="M152.574 165.094C155.957 161.663 161.497 163.995 165.788 163.46C165.516 163.88 164.984 164.719 164.711 165.15C160.669 165.72 156.606 165.378 152.574 165.094Z" fill="#EED17E"/>
<path d="M104.498 165.372C112.712 164.568 121.146 167.002 129.157 164.432C134.034 163.756 138.985 164.52 143.895 164.745C143.594 165.3 142.991 166.41 142.689 166.964C141.419 166.9 140.159 166.87 138.91 166.853C138.433 167.057 137.467 167.487 136.99 167.702C129.846 167.591 122.731 166.9 115.587 167.017C109.778 166.802 103.807 167.731 98.1712 165.93C98.6413 165.851 99.5696 165.704 100.028 165.625C101.5 165.517 102.994 165.433 104.498 165.372Z" fill="#EDD185"/>
</svg>
