<svg width="354" height="221" viewBox="0 0 354 221" fill="none" xmlns="http://www.w3.org/2000/svg">
<path d="M45.6567 59.856V124.233H118.43V59.856H45.6567ZM59.6516 117.585C59.6516 117.863 59.5411 118.13 59.3442 118.327C59.1474 118.524 58.8804 118.635 58.602 118.635H52.3043C52.0259 118.635 51.759 118.524 51.5621 118.327C51.3653 118.13 51.2547 117.863 51.2547 117.585V115.486C51.2547 115.207 51.3653 114.94 51.5621 114.744C51.759 114.547 52.0259 114.436 52.3043 114.436H58.602C58.8804 114.436 59.1474 114.547 59.3442 114.744C59.5411 114.94 59.6516 115.207 59.6516 115.486V117.585ZM59.6516 107.788C59.6516 108.067 59.5411 108.334 59.3442 108.531C59.1474 108.728 58.8804 108.838 58.602 108.838H52.3043C52.0259 108.838 51.759 108.728 51.5621 108.531C51.3653 108.334 51.2547 108.067 51.2547 107.788V105.689C51.2547 105.411 51.3653 105.144 51.5621 104.947C51.759 104.75 52.0259 104.64 52.3043 104.64H58.602C58.8804 104.64 59.1474 104.75 59.3442 104.947C59.5411 105.144 59.6516 105.411 59.6516 105.689V107.788ZM59.6516 97.9921C59.6516 98.2704 59.5411 98.5374 59.3442 98.7343C59.1474 98.9311 58.8804 99.0417 58.602 99.0417H52.3043C52.0259 99.0417 51.759 98.9311 51.5621 98.7343C51.3653 98.5374 51.2547 98.2704 51.2547 97.9921V95.8928C51.2547 95.6145 51.3653 95.3475 51.5621 95.1506C51.759 94.9538 52.0259 94.8432 52.3043 94.8432H58.602C58.8804 94.8432 59.1474 94.9538 59.3442 95.1506C59.5411 95.3475 59.6516 95.6145 59.6516 95.8928V97.9921ZM59.6516 88.1956C59.6516 88.474 59.5411 88.741 59.3442 88.9378C59.1474 89.1347 58.8804 89.2453 58.602 89.2453H52.3043C52.0259 89.2453 51.759 89.1347 51.5621 88.9378C51.3653 88.741 51.2547 88.474 51.2547 88.1956V86.0964C51.2547 85.818 51.3653 85.5511 51.5621 85.3542C51.759 85.1574 52.0259 85.0468 52.3043 85.0468H58.602C58.8804 85.0468 59.1474 85.1574 59.3442 85.3542C59.5411 85.5511 59.6516 85.818 59.6516 86.0964V88.1956ZM59.6516 78.3992C59.6516 78.6776 59.5411 78.9445 59.3442 79.1414C59.1474 79.3382 58.8804 79.4488 58.602 79.4488H52.3043C52.0259 79.4488 51.759 79.3382 51.5621 79.1414C51.3653 78.9445 51.2547 78.6776 51.2547 78.3992V76.3C51.2547 76.0216 51.3653 75.7546 51.5621 75.5578C51.759 75.3609 52.0259 75.2503 52.3043 75.2503H58.602C58.8804 75.2503 59.1474 75.3609 59.3442 75.5578C59.5411 75.7546 59.6516 76.0216 59.6516 76.3V78.3992ZM59.6516 68.6028C59.6516 68.8811 59.5411 69.1481 59.3442 69.345C59.1474 69.5418 58.8804 69.6524 58.602 69.6524H52.3043C52.0259 69.6524 51.759 69.5418 51.5621 69.345C51.3653 69.1481 51.2547 68.8811 51.2547 68.6028V66.5035C51.2547 66.2252 51.3653 65.9582 51.5621 65.7613C51.759 65.5645 52.0259 65.4539 52.3043 65.4539H58.602C58.8804 65.4539 59.1474 65.5645 59.3442 65.7613C59.5411 65.9582 59.6516 66.2252 59.6516 66.5035V68.6028ZM112.832 117.585C112.832 117.863 112.722 118.13 112.525 118.327C112.328 118.524 112.061 118.635 111.783 118.635H105.485C105.207 118.635 104.94 118.524 104.743 118.327C104.546 118.13 104.435 117.863 104.435 117.585V115.486C104.435 115.207 104.546 114.94 104.743 114.744C104.94 114.547 105.207 114.436 105.485 114.436H111.783C112.061 114.436 112.328 114.547 112.525 114.744C112.722 114.94 112.832 115.207 112.832 115.486V117.585ZM112.832 107.788C112.832 108.067 112.722 108.334 112.525 108.531C112.328 108.728 112.061 108.838 111.783 108.838H105.485C105.207 108.838 104.94 108.728 104.743 108.531C104.546 108.334 104.435 108.067 104.435 107.788V105.689C104.435 105.411 104.546 105.144 104.743 104.947C104.94 104.75 105.207 104.64 105.485 104.64H111.783C112.061 104.64 112.328 104.75 112.525 104.947C112.722 105.144 112.832 105.411 112.832 105.689V107.788ZM112.832 97.9921C112.832 98.2704 112.722 98.5374 112.525 98.7343C112.328 98.9311 112.061 99.0417 111.783 99.0417H105.485C105.207 99.0417 104.94 98.9311 104.743 98.7343C104.546 98.5374 104.435 98.2704 104.435 97.9921V95.8928C104.435 95.6145 104.546 95.3475 104.743 95.1506C104.94 94.9538 105.207 94.8432 105.485 94.8432H111.783C112.061 94.8432 112.328 94.9538 112.525 95.1506C112.722 95.3475 112.832 95.6145 112.832 95.8928V97.9921ZM112.832 88.1956C112.832 88.474 112.722 88.741 112.525 88.9378C112.328 89.1347 112.061 89.2453 111.783 89.2453H105.485C105.207 89.2453 104.94 89.1347 104.743 88.9378C104.546 88.741 104.435 88.474 104.435 88.1956V86.0964C104.435 85.818 104.546 85.5511 104.743 85.3542C104.94 85.1574 105.207 85.0468 105.485 85.0468H111.783C112.061 85.0468 112.328 85.1574 112.525 85.3542C112.722 85.5511 112.832 85.818 112.832 86.0964V88.1956ZM112.832 78.3992C112.832 78.6776 112.722 78.9445 112.525 79.1414C112.328 79.3382 112.061 79.4488 111.783 79.4488H105.485C105.207 79.4488 104.94 79.3382 104.743 79.1414C104.546 78.9445 104.435 78.6776 104.435 78.3992V76.3C104.435 76.0216 104.546 75.7546 104.743 75.5578C104.94 75.3609 105.207 75.2503 105.485 75.2503H111.783C112.061 75.2503 112.328 75.3609 112.525 75.5578C112.722 75.7546 112.832 76.0216 112.832 76.3V78.3992ZM112.832 68.6028C112.832 68.8811 112.722 69.1481 112.525 69.345C112.328 69.5418 112.061 69.6524 111.783 69.6524H105.485C105.207 69.6524 104.94 69.5418 104.743 69.345C104.546 69.1481 104.435 68.8811 104.435 68.6028V66.5035C104.435 66.2252 104.546 65.9582 104.743 65.7613C104.94 65.5645 105.207 65.4539 105.485 65.4539H111.783C112.061 65.4539 112.328 65.5645 112.525 65.7613C112.722 65.9582 112.832 66.2252 112.832 66.5035V68.6028Z" fill="#5F6368"/>
<path d="M96.0388 65.4541H68.049C66.5031 65.4541 65.25 66.7072 65.25 68.2531V96.2428C65.25 97.7887 66.5031 99.0418 68.049 99.0418H96.0388C97.5846 99.0418 98.8378 97.7887 98.8378 96.2428V68.2531C98.8378 66.7072 97.5846 65.4541 96.0388 65.4541Z" fill="#FBBC04"/>
<path d="M68.049 104.64H96.0388C96.7811 104.64 97.493 104.935 98.018 105.46C98.5429 105.985 98.8378 106.697 98.8378 107.439V124.233H65.25V107.439C65.25 106.697 65.5449 105.985 66.0698 105.46C66.5947 104.935 67.3066 104.64 68.049 104.64Z" fill="#FBBC04"/>
<path d="M112.833 54.2583H40.0591C41.5438 54.2583 42.9676 54.8481 44.0174 55.8979C45.0673 56.9477 45.657 58.3716 45.657 59.8563H118.431C118.431 58.3716 117.841 56.9477 116.791 55.8979C115.741 54.8481 114.317 54.2583 112.833 54.2583Z" fill="#5F6368"/>
<path d="M42.5075 79.4491C42.2291 79.4491 41.9622 79.3385 41.7653 79.1417C41.5685 78.9449 41.4579 78.6779 41.4579 78.3995V76.3003C41.4579 76.0219 41.5685 75.7549 41.7653 75.5581C41.9622 75.3612 42.2291 75.2507 42.5075 75.2507H45.6564V69.6527H42.5075C42.2291 69.6527 41.9622 69.5421 41.7653 69.3453C41.5685 69.1484 41.4579 68.8815 41.4579 68.6031V66.5038C41.4579 66.2255 41.5685 65.9585 41.7653 65.7616C41.9622 65.5648 42.2291 65.4542 42.5075 65.4542H45.6564V59.8563C45.6564 58.3716 45.0666 56.9477 44.0168 55.8979C42.9669 54.8481 41.5431 54.2583 40.0584 54.2583C38.5737 54.2583 37.1499 54.8481 36.1001 55.8979C35.0502 56.9477 34.4604 58.3716 34.4604 59.8563V85.0471H45.6564V79.4491H42.5075Z" fill="#5F6368"/>
<path style="mix-blend-mode:multiply" opacity="0.5" d="M42.5075 79.4491C42.2291 79.4491 41.9622 79.3385 41.7653 79.1417C41.5685 78.9449 41.4579 78.6779 41.4579 78.3995V76.3003C41.4579 76.0219 41.5685 75.7549 41.7653 75.5581C41.9622 75.3612 42.2291 75.2507 42.5075 75.2507H45.6564V69.6527H42.5075C42.2291 69.6527 41.9622 69.5421 41.7653 69.3453C41.5685 69.1484 41.4579 68.8815 41.4579 68.6031V66.5038C41.4579 66.2255 41.5685 65.9585 41.7653 65.7616C41.9622 65.5648 42.2291 65.4542 42.5075 65.4542H45.6564V59.8563C45.6564 58.3716 45.0666 56.9477 44.0168 55.8979C42.9669 54.8481 41.5431 54.2583 40.0584 54.2583C38.5737 54.2583 37.1499 54.8481 36.1001 55.8979C35.0502 56.9477 34.4604 58.3716 34.4604 59.8563V85.0471H45.6564V79.4491H42.5075Z" fill="url(#paint0_linear)"/>
<path d="M66.6489 104.64V87.8461C66.6489 83.3921 68.4183 79.1205 71.5677 75.9711C74.7172 72.8216 78.9888 71.0522 83.4428 71.0522C87.8968 71.0522 92.1684 72.8216 95.3179 75.9711C98.4673 79.1205 100.237 83.3921 100.237 87.8461V104.64" stroke="white" stroke-width="2" stroke-miterlimit="10"/>
<path d="M129.627 104.64H51.2554V205.403H129.627V104.64Z" fill="#34A853"/>
<path d="M51.2542 104.64H28.8623V205.403H51.2542V104.64Z" fill="#34A853"/>
<path style="mix-blend-mode:multiply" opacity="0.5" d="M51.2542 104.64H28.8623V205.403H51.2542V104.64Z" fill="url(#paint1_linear)"/>
<path style="mix-blend-mode:multiply" d="M28.8629 197.006H0.873047V205.403H28.8629V197.006Z" fill="url(#paint2_linear)"/>
<path d="M82.0429 138.227L98.8368 148.024L82.0429 157.82V138.227ZM82.0429 135.413C81.2965 135.413 80.5806 135.71 80.0528 136.237C79.525 136.765 79.2285 137.481 79.2285 138.227V157.82C79.2286 158.315 79.3592 158.802 79.6072 159.23C79.8552 159.658 80.2118 160.014 80.6411 160.26C81.0703 160.507 81.5571 160.636 82.0521 160.634C82.5471 160.633 83.0329 160.501 83.4606 160.251L100.254 150.455C100.679 150.207 101.032 149.852 101.277 149.426C101.522 148.999 101.651 148.516 101.651 148.024C101.651 147.532 101.522 147.049 101.277 146.622C101.032 146.196 100.679 145.841 100.254 145.593L83.4606 135.797C83.0303 135.545 82.5411 135.413 82.0429 135.413Z" fill="white"/>
<path d="M298.964 83.6475H161.814V170.416H298.964V83.6475Z" fill="#DADCE0"/>
<path d="M298.964 150.823H262.577V153.622H298.964V150.823Z" fill="#9AA0A6"/>
<path d="M262.578 150.823H161.814V153.622H262.578V150.823Z" fill="#EA4335"/>
<path d="M262.578 156.421C264.897 156.421 266.776 154.541 266.776 152.222C266.776 149.904 264.897 148.024 262.578 148.024C260.259 148.024 258.379 149.904 258.379 152.222C258.379 154.541 260.259 156.421 262.578 156.421Z" fill="#EA4335"/>
<path style="mix-blend-mode:multiply" d="M230.39 134.029H202.4V139.627H230.39V134.029Z" fill="url(#paint3_linear)"/>
<path d="M216.394 117.235C217.501 117.235 218.583 117.563 219.504 118.178C220.424 118.794 221.142 119.668 221.565 120.691C221.989 121.714 222.1 122.839 221.884 123.925C221.668 125.011 221.135 126.008 220.352 126.791C219.569 127.574 218.572 128.107 217.486 128.323C216.4 128.539 215.274 128.429 214.251 128.005C213.228 127.581 212.354 126.864 211.739 125.943C211.124 125.022 210.796 123.94 210.796 122.833C210.796 121.348 211.385 119.924 212.435 118.875C213.485 117.825 214.909 117.235 216.394 117.235ZM216.394 114.436C214.733 114.436 213.109 114.929 211.728 115.851C210.348 116.774 209.271 118.085 208.636 119.62C208 121.154 207.834 122.842 208.158 124.471C208.482 126.1 209.282 127.596 210.456 128.771C211.63 129.945 213.127 130.745 214.755 131.069C216.384 131.393 218.073 131.226 219.607 130.591C221.141 129.955 222.453 128.879 223.375 127.498C224.298 126.117 224.791 124.494 224.791 122.833C224.791 120.606 223.906 118.47 222.331 116.895C220.756 115.321 218.621 114.436 216.394 114.436Z" fill="#D93025"/>
<g style="mix-blend-mode:multiply" opacity="0.6">
<path style="mix-blend-mode:multiply" opacity="0.6" d="M216.394 117.235C217.501 117.235 218.583 117.563 219.504 118.178C220.424 118.794 221.142 119.668 221.565 120.691C221.989 121.714 222.1 122.839 221.884 123.925C221.668 125.011 221.135 126.008 220.352 126.791C219.569 127.574 218.572 128.107 217.486 128.323C216.4 128.539 215.274 128.429 214.251 128.005C213.228 127.581 212.354 126.864 211.739 125.943C211.124 125.022 210.796 123.94 210.796 122.833C210.796 121.348 211.385 119.924 212.435 118.875C213.485 117.825 214.909 117.235 216.394 117.235ZM216.394 114.436C214.733 114.436 213.109 114.929 211.728 115.851C210.348 116.774 209.271 118.085 208.636 119.62C208 121.154 207.834 122.842 208.158 124.471C208.482 126.1 209.282 127.596 210.456 128.771C211.63 129.945 213.127 130.745 214.755 131.069C216.384 131.393 218.073 131.226 219.607 130.591C221.141 129.955 222.453 128.879 223.375 127.498C224.298 126.117 224.791 124.494 224.791 122.833C224.791 120.606 223.906 118.47 222.331 116.895C220.756 115.321 218.621 114.436 216.394 114.436Z" fill="url(#paint4_linear)"/>
</g>
<path d="M217.793 110.238H242.984V127.032C242.984 130.372 241.657 133.576 239.295 135.938C236.933 138.3 233.729 139.627 230.388 139.627C227.048 139.627 223.844 138.3 221.482 135.938C219.12 133.576 217.793 130.372 217.793 127.032V110.238Z" fill="#EA4335"/>
<path style="mix-blend-mode:multiply" opacity="0.5" d="M230.388 139.627C227.048 139.627 223.844 138.3 221.482 135.938C219.12 133.576 217.793 130.372 217.793 127.032V110.238H242.984V127.032C242.984 130.372 241.657 133.576 239.295 135.938C236.933 138.3 233.729 139.627 230.388 139.627Z" fill="url(#paint5_linear)"/>
<path style="mix-blend-mode:multiply" opacity="0.5" d="M221.992 127.032V110.238H217.793V127.032C217.783 128.866 218.176 130.68 218.944 132.346C219.712 134.012 220.837 135.489 222.239 136.672C223.64 137.855 225.285 138.716 227.056 139.194C228.827 139.672 230.681 139.756 232.488 139.438C229.554 138.944 226.891 137.427 224.97 135.156C223.048 132.884 221.993 130.006 221.992 127.032Z" fill="url(#paint6_linear)"/>
<path d="M226.55 104.64C226.23 104.391 225.971 104.073 225.793 103.709C225.615 103.345 225.523 102.945 225.523 102.54C225.523 102.135 225.615 101.736 225.793 101.372C225.971 101.008 226.23 100.69 226.55 100.441C229.564 97.6422 228.057 96.2428 226.55 94.8433" stroke="white" stroke-linecap="round" stroke-linejoin="round"/>
<path d="M233.547 104.64C233.227 104.391 232.968 104.073 232.791 103.709C232.613 103.345 232.52 102.945 232.52 102.54C232.52 102.135 232.613 101.736 232.791 101.372C232.968 101.008 233.227 100.69 233.547 100.441C236.561 97.6422 235.054 96.2428 233.547 94.8433" stroke="white" stroke-linecap="round" stroke-linejoin="round"/>
<path d="M254.284 19.6679C254.09 19.584 253.88 19.545 253.669 19.554C253.457 19.563 253.251 19.6196 253.065 19.7197L231.534 31.2851C231.256 31.4345 231.037 31.6734 230.912 31.963C230.787 32.2526 230.763 32.5759 230.845 32.8805L232.732 39.9214L236.641 54.5096L237.696 58.4562C236.036 58.0117 234.288 58.0223 232.634 58.487C228.528 59.587 225.848 62.8996 226.648 65.8861C227.449 68.8726 231.426 70.4009 235.532 69.3009C239.638 68.2009 242.318 64.8883 241.518 61.9017L239.344 53.7847L236.009 41.3376L255.007 31.134L258.534 44.2976L259.589 48.2371C257.93 47.7926 256.181 47.8033 254.527 48.2679C250.421 49.3679 247.741 52.6805 248.542 55.667C249.342 58.6535 253.32 60.1818 257.426 59.0818C261.532 57.9818 264.212 54.6692 263.411 51.6827L261.238 43.5656L256.796 26.9957L255.08 20.5916C255.026 20.3875 254.926 20.1984 254.788 20.0385C254.65 19.8785 254.478 19.7518 254.284 19.6679ZM235.265 38.561L233.836 33.2276L252.834 23.0239L254.263 28.3574L235.265 38.561Z" fill="#EA4335"/>
<path d="M218.582 11.7751L212.644 1.49727C212.505 1.25754 212.299 1.06422 212.051 0.941762C211.802 0.819307 211.523 0.773217 211.249 0.809319C210.975 0.845421 210.717 0.962095 210.509 1.14458C210.301 1.32707 210.151 1.56718 210.08 1.83455L203.222 27.4032C202.007 26.1887 200.487 25.3238 198.822 24.8995C194.716 23.7995 190.739 25.3278 189.938 28.3143C189.138 31.3008 191.818 34.612 195.924 35.7134C200.03 36.8148 204.007 35.2852 204.808 32.2986L211.916 5.8161L216.165 13.1746C216.256 13.3351 216.378 13.4759 216.524 13.589C216.67 13.702 216.837 13.7852 217.015 13.8335C217.193 13.8819 217.379 13.8945 217.562 13.8707C217.745 13.8469 217.921 13.7872 218.081 13.6949C218.241 13.6026 218.381 13.4796 218.493 13.333C218.605 13.1864 218.687 13.0191 218.734 12.8406C218.782 12.6622 218.793 12.4762 218.768 12.2933C218.743 12.1105 218.682 11.9343 218.589 11.7751H218.582Z" fill="#EA4335"/>
<path style="mix-blend-mode:multiply" opacity="0.5" d="M197.33 34.3082C193.224 33.2082 190.544 29.8942 191.344 26.9091C191.462 26.4924 191.644 26.0967 191.884 25.7363C190.945 26.3275 190.255 27.2427 189.945 28.3086C189.144 31.2951 191.824 34.6063 195.93 35.7077C199.453 36.6509 202.866 35.6517 204.274 33.4685C203.239 34.0854 202.087 34.4788 200.891 34.6234C199.695 34.768 198.482 34.6606 197.33 34.3082Z" fill="url(#paint7_linear)"/>
<path style="mix-blend-mode:multiply" opacity="0.5" d="M236.93 67.8961C232.824 68.9961 228.846 67.4665 228.046 64.4814C227.877 63.7395 227.883 62.9686 228.064 62.2296C228.245 61.4907 228.596 60.804 229.088 60.2241C228.17 60.822 227.448 61.6777 227.014 62.684C226.579 63.6902 226.451 64.8023 226.646 65.8809C227.447 68.8674 231.424 70.3956 235.53 69.2956C237.476 68.8133 239.211 67.7104 240.473 66.1538C239.421 66.966 238.216 67.5585 236.93 67.8961Z" fill="url(#paint8_linear)"/>
<path style="mix-blend-mode:multiply" opacity="0.5" d="M258.825 57.6827C254.719 58.7827 250.742 57.2545 249.941 54.268C249.773 53.5261 249.779 52.7552 249.96 52.0162C250.141 51.2773 250.491 50.5906 250.984 50.0107C250.065 50.6086 249.344 51.4643 248.909 52.4706C248.475 53.4768 248.347 54.5889 248.542 55.6675C249.342 58.654 253.32 60.1822 257.426 59.0822C259.371 58.5999 261.106 57.497 262.369 55.9404C261.316 56.7526 260.111 57.3451 258.825 57.6827Z" fill="url(#paint9_linear)"/>
<path style="mix-blend-mode:multiply" d="M178.609 212.4H122.629V220.797H178.609V212.4Z" fill="url(#paint10_linear)"/>
<g clip-path="url(#clip0)">
<path d="M175.225 187.209H317.158V220.797H175.225C171.669 220.797 168.257 219.028 165.742 215.878C163.227 212.729 161.814 208.457 161.814 204.003C161.814 199.549 163.227 195.278 165.742 192.128C168.257 188.979 171.669 187.209 175.225 187.209Z" fill="#E8EAED"/>
<path d="M298.964 187.209H317.158C321.612 187.209 325.883 188.979 329.033 192.128C332.182 195.278 333.952 199.549 333.952 204.003C333.952 208.457 332.182 212.729 329.033 215.878C325.883 219.028 321.612 220.797 317.158 220.797H298.964V187.209Z" fill="#4285F4"/>
<path d="M309.282 201.848C309.282 200.994 309.535 200.159 310.01 199.448C310.484 198.738 311.159 198.184 311.948 197.857C312.738 197.53 313.607 197.444 314.445 197.611C315.283 197.778 316.052 198.189 316.657 198.793C317.261 199.398 317.672 200.167 317.839 201.005C318.006 201.843 317.92 202.712 317.593 203.502C317.266 204.291 316.712 204.966 316.002 205.44C315.291 205.915 314.456 206.168 313.602 206.168C313.034 206.169 312.472 206.058 311.948 205.841C311.423 205.624 310.947 205.306 310.545 204.905C310.144 204.503 309.826 204.027 309.609 203.502C309.392 202.978 309.281 202.416 309.282 201.848ZM323.44 210.255L318.654 205.469C319.177 204.757 319.54 203.941 319.718 203.077C319.897 202.212 319.887 201.319 319.688 200.459C319.44 199.371 318.905 198.37 318.138 197.56C317.372 196.749 316.402 196.159 315.331 195.85C314.259 195.542 313.124 195.526 312.044 195.804C310.964 196.083 309.978 196.646 309.19 197.435C308.401 198.223 307.838 199.209 307.559 200.289C307.281 201.369 307.296 202.504 307.605 203.576C307.914 204.648 308.504 205.617 309.315 206.383C310.125 207.15 311.126 207.685 312.213 207.933C313.074 208.132 313.967 208.142 314.832 207.964C315.696 207.785 316.512 207.422 317.224 206.899L322.01 211.685C322.2 211.875 322.457 211.981 322.725 211.981C322.993 211.981 323.25 211.875 323.44 211.685C323.63 211.496 323.736 211.238 323.736 210.97C323.736 210.702 323.63 210.445 323.44 210.255Z" fill="white"/>
<path d="M282.444 201.205H183.933C182.538 201.205 181.407 202.458 181.407 204.004C181.407 205.549 182.538 206.803 183.933 206.803H282.444C283.839 206.803 284.97 205.549 284.97 204.004C284.97 202.458 283.839 201.205 282.444 201.205Z" fill="#BDC1C6"/>
</g>
<path style="mix-blend-mode:multiply" d="M161.814 162.019H133.825V170.415H161.814V162.019Z" fill="url(#paint11_linear)"/>
<defs>
<linearGradient id="paint0_linear" x1="40.0584" y1="54.2583" x2="40.0584" y2="85.0471" gradientUnits="userSpaceOnUse">
<stop stop-color="#202124"/>
<stop offset="1" stop-color="#202124" stop-opacity="0"/>
</linearGradient>
<linearGradient id="paint1_linear" x1="40.0582" y1="104.64" x2="40.0582" y2="205.403" gradientUnits="userSpaceOnUse">
<stop stop-color="#188038"/>
<stop offset="1" stop-color="#188038" stop-opacity="0"/>
</linearGradient>
<linearGradient id="paint2_linear" x1="0.873047" y1="201.205" x2="28.8629" y2="201.205" gradientUnits="userSpaceOnUse">
<stop stop-color="#9AA0A6" stop-opacity="0"/>
<stop offset="0.15" stop-color="#9AA0A6" stop-opacity="0.025"/>
<stop offset="0.306" stop-color="#9AA0A6" stop-opacity="0.1"/>
<stop offset="0.464" stop-color="#9AA0A6" stop-opacity="0.225"/>
<stop offset="0.624" stop-color="#9AA0A6" stop-opacity="0.4"/>
<stop offset="0.786" stop-color="#9AA0A6" stop-opacity="0.626"/>
<stop offset="0.946" stop-color="#9AA0A6" stop-opacity="0.898"/>
<stop offset="1" stop-color="#9AA0A6"/>
</linearGradient>
<linearGradient id="paint3_linear" x1="202.4" y1="136.828" x2="230.39" y2="136.828" gradientUnits="userSpaceOnUse">
<stop stop-color="#BDC1C6" stop-opacity="0"/>
<stop offset="0.137" stop-color="#BDC1C6" stop-opacity="0.021"/>
<stop offset="0.279" stop-color="#BDC1C6" stop-opacity="0.084"/>
<stop offset="0.424" stop-color="#BDC1C6" stop-opacity="0.189"/>
<stop offset="0.57" stop-color="#BDC1C6" stop-opacity="0.336"/>
<stop offset="0.718" stop-color="#BDC1C6" stop-opacity="0.525"/>
<stop offset="0.864" stop-color="#BDC1C6" stop-opacity="0.753"/>
<stop offset="1" stop-color="#BDC1C6"/>
</linearGradient>
<linearGradient id="paint4_linear" x1="224.791" y1="122.833" x2="207.997" y2="122.833" gradientUnits="userSpaceOnUse">
<stop stop-color="#5F6368"/>
<stop offset="0.191" stop-color="#5F6368" stop-opacity="0.96"/>
<stop offset="0.389" stop-color="#5F6368" stop-opacity="0.84"/>
<stop offset="0.59" stop-color="#5F6368" stop-opacity="0.641"/>
<stop offset="0.794" stop-color="#5F6368" stop-opacity="0.362"/>
<stop offset="0.997" stop-color="#5F6368" stop-opacity="0.01"/>
<stop offset="1" stop-color="#5F6368" stop-opacity="0"/>
</linearGradient>
<linearGradient id="paint5_linear" x1="217.793" y1="124.932" x2="242.984" y2="124.932" gradientUnits="userSpaceOnUse">
<stop stop-color="#C5221F"/>
<stop offset="1" stop-color="#C5221F" stop-opacity="0"/>
</linearGradient>
<linearGradient id="paint6_linear" x1="217.793" y1="124.932" x2="232.488" y2="124.932" gradientUnits="userSpaceOnUse">
<stop stop-color="#BDC1C6"/>
<stop offset="1" stop-color="#BDC1C6" stop-opacity="0"/>
</linearGradient>
<linearGradient id="paint7_linear" x1="2523.72" y1="387.25" x2="2567.27" y2="326.218" gradientUnits="userSpaceOnUse">
<stop stop-color="#C5221F"/>
<stop offset="1" stop-color="#C5221F" stop-opacity="0"/>
</linearGradient>
<linearGradient id="paint8_linear" x1="2828.56" y1="621.539" x2="2873.48" y2="555.261" gradientUnits="userSpaceOnUse">
<stop stop-color="#C5221F"/>
<stop offset="1" stop-color="#C5221F" stop-opacity="0"/>
</linearGradient>
<linearGradient id="paint9_linear" x1="3068.17" y1="542.527" x2="3113.07" y2="476.245" gradientUnits="userSpaceOnUse">
<stop stop-color="#C5221F"/>
<stop offset="1" stop-color="#C5221F" stop-opacity="0"/>
</linearGradient>
<linearGradient id="paint10_linear" x1="6336.37" y1="1597.9" x2="8575.56" y2="1597.9" gradientUnits="userSpaceOnUse">
<stop stop-color="#9AA0A6" stop-opacity="0"/>
<stop offset="0.15" stop-color="#9AA0A6" stop-opacity="0.025"/>
<stop offset="0.306" stop-color="#9AA0A6" stop-opacity="0.1"/>
<stop offset="0.464" stop-color="#9AA0A6" stop-opacity="0.225"/>
<stop offset="0.624" stop-color="#9AA0A6" stop-opacity="0.4"/>
<stop offset="0.786" stop-color="#9AA0A6" stop-opacity="0.626"/>
<stop offset="0.946" stop-color="#9AA0A6" stop-opacity="0.898"/>
<stop offset="1" stop-color="#9AA0A6"/>
</linearGradient>
<linearGradient id="paint11_linear" x1="3464.61" y1="1245.22" x2="4024.4" y2="1245.22" gradientUnits="userSpaceOnUse">
<stop stop-color="#9AA0A6" stop-opacity="0"/>
<stop offset="0.15" stop-color="#9AA0A6" stop-opacity="0.025"/>
<stop offset="0.306" stop-color="#9AA0A6" stop-opacity="0.1"/>
<stop offset="0.464" stop-color="#9AA0A6" stop-opacity="0.225"/>
<stop offset="0.624" stop-color="#9AA0A6" stop-opacity="0.4"/>
<stop offset="0.786" stop-color="#9AA0A6" stop-opacity="0.626"/>
<stop offset="0.946" stop-color="#9AA0A6" stop-opacity="0.898"/>
<stop offset="1" stop-color="#9AA0A6"/>
</linearGradient>
<clipPath id="clip0">
<rect width="172.137" height="33.5878" fill="white" transform="translate(161.814 187.209)"/>
</clipPath>
</defs>
</svg>
