<svg width="335" height="220" viewBox="0 0 335 220" fill="none" xmlns="http://www.w3.org/2000/svg">
<path d="M261.138 67.7866L283.506 88.4603V68.7107" fill="#FBBC04"/>
<path d="M202.69 0.597168H291.724C300.995 0.609599 309.882 4.29988 316.437 10.8588C322.992 17.4178 326.681 26.31 326.693 35.5858C326.681 44.8615 322.992 53.7538 316.437 60.3127C309.882 66.8717 300.995 70.562 291.724 70.5744H202.69C193.42 70.5578 184.536 66.8662 177.981 60.3082C171.427 53.7501 167.737 44.8603 167.721 35.5858C167.737 26.3113 171.427 17.4214 177.981 10.8634C184.536 4.30534 193.42 0.61373 202.69 0.597168Z" fill="#FBBC04"/>
<path d="M291.724 0.597168H202.69C193.42 0.61373 184.536 4.30534 177.981 10.8634C171.427 17.4214 167.737 26.3113 167.721 35.5858C167.7 44.8392 171.352 53.7223 177.874 60.283C184.395 66.8438 193.254 70.5454 202.502 70.5744H264.05L283.319 88.4603V70.5744H291.568C300.837 70.5578 309.722 66.8662 316.276 60.3082C322.831 53.7501 326.52 44.8603 326.537 35.5858C326.557 30.9984 325.672 26.4522 323.932 22.2081C322.192 17.9639 319.631 14.1056 316.396 10.8545C313.161 7.60348 309.317 5.02376 305.083 3.2635C300.849 1.50324 296.309 0.597122 291.724 0.597168Z" fill="url(#paint0_linear)"/>
<path d="M90.5796 208.106H33.479V218.384H90.5796V208.106Z" fill="url(#paint1_linear)"/>
<path d="M210.491 208.106H267.591V218.384H210.491V208.106Z" fill="url(#paint2_linear)"/>
<path d="M83.6478 208.509H0.342285V218H83.6478V208.509Z" fill="url(#paint3_linear)"/>
<path d="M77.746 101.992H226.935C230.19 101.996 233.311 103.291 235.614 105.592C237.917 107.894 239.215 111.014 239.223 114.271V205.548C239.215 208.807 237.917 211.929 235.615 214.233C233.312 216.537 230.192 217.835 226.935 217.843H77.746C74.4897 217.835 71.3691 216.537 69.0665 214.233C66.7639 211.929 65.4666 208.807 65.4584 205.548V114.428C65.446 112.803 65.7544 111.192 66.3657 109.687C66.9771 108.182 67.8795 106.812 69.0212 105.657C70.1628 104.501 71.5212 103.583 73.0184 102.954C74.5156 102.325 76.1222 101.998 77.746 101.992Z" fill="#5F6368"/>
<path d="M221.973 109.447H80.2349V210.686H221.973V109.447Z" fill="#F8F9FA"/>
<path d="M229.894 166.206C231.952 166.206 233.62 164.537 233.62 162.479C233.62 160.42 231.952 158.751 229.894 158.751C227.837 158.751 226.169 160.42 226.169 162.479C226.169 164.537 227.837 166.206 229.894 166.206Z" stroke="#3C4043" stroke-miterlimit="10"/>
<path d="M127.476 109.447H80.2349V210.686H127.476V109.447Z" fill="#E9EAED"/>
<path d="M90.1748 126.707H121.418" stroke="#BEC1C6" stroke-width="2" stroke-miterlimit="10" stroke-linecap="round"/>
<path d="M90.1748 156.26H121.418" stroke="white" stroke-width="2" stroke-miterlimit="10" stroke-linecap="round"/>
<path d="M90.1748 168.696H121.418" stroke="white" stroke-width="2" stroke-miterlimit="10" stroke-linecap="round"/>
<path d="M90.1748 180.99H121.418" stroke="white" stroke-width="2" stroke-miterlimit="10" stroke-linecap="round"/>
<path d="M142.081 156.26H212.175" stroke="#E9EAED" stroke-width="2" stroke-linecap="round" stroke-linejoin="round"/>
<path d="M142.081 168.696H212.175" stroke="#E9EAED" stroke-width="2" stroke-linecap="round" stroke-linejoin="round"/>
<path d="M142.081 180.99H174.561" stroke="#E9EAED" stroke-width="2" stroke-linecap="round" stroke-linejoin="round"/>
<path d="M90.1748 193.27H121.418" stroke="white" stroke-width="2" stroke-miterlimit="10" stroke-linecap="round"/>
<path d="M161.052 193.27H140.688V199.487H161.052V193.27Z" stroke="#E9EAED" stroke-miterlimit="10"/>
<path d="M212.958 117.857H140.688V126.722H212.958V117.857Z" stroke="#E9EAED" stroke-miterlimit="10"/>
<path d="M187.005 193.27H166.64V199.487H187.005V193.27Z" stroke="#E9EAED" stroke-miterlimit="10"/>
<path d="M212.958 193.27H192.593V199.487H212.958V193.27Z" stroke="#E9EAED" stroke-miterlimit="10"/>
<path d="M92.5077 137.749H119.118C120.104 137.765 121.044 138.165 121.74 138.864C122.435 139.563 122.831 140.505 122.843 141.492C122.831 142.477 122.435 143.418 121.739 144.114C121.043 144.81 120.102 145.207 119.118 145.219H92.5077C91.5234 145.207 90.5829 144.81 89.8868 144.114C89.1908 143.418 88.7944 142.477 88.7822 141.492C88.7943 140.505 89.1902 139.563 89.8858 138.864C90.5814 138.165 91.522 137.765 92.5077 137.749Z" fill="#BEC1C6"/>
<path d="M156.701 137.749H183.311C184.298 137.765 185.24 138.164 185.938 138.863C186.636 139.561 187.036 140.504 187.052 141.492C187.036 142.478 186.636 143.419 185.937 144.115C185.239 144.811 184.296 145.207 183.311 145.219H156.701C155.714 145.211 154.769 144.816 154.07 144.119C153.37 143.423 152.972 142.479 152.959 141.492C152.972 140.503 153.37 139.558 154.069 138.858C154.768 138.159 155.712 137.761 156.701 137.749Z" fill="#4285F4"/>
<path d="M144.413 145.219C146.47 145.219 148.138 143.55 148.138 141.491C148.138 139.433 146.47 137.764 144.413 137.764C142.355 137.764 140.688 139.433 140.688 141.491C140.688 143.55 142.355 145.219 144.413 145.219Z" fill="#4285F4"/>
<path d="M72.9253 168.085V151.907" stroke="#3C4043" stroke-miterlimit="10"/>
<path d="M77.746 101.992H226.935C230.19 101.996 233.311 103.291 235.614 105.592C237.917 107.894 239.215 111.014 239.223 114.271V205.548C239.215 208.807 237.917 211.929 235.615 214.233C233.312 216.537 230.192 217.835 226.935 217.843H77.746C74.4897 217.835 71.3691 216.537 69.0665 214.233C66.7639 211.929 65.4666 208.807 65.4584 205.548V114.428C65.446 112.803 65.7544 111.192 66.3657 109.687C66.9771 108.182 67.8795 106.812 69.0212 105.657C70.1628 104.501 71.5212 103.583 73.0184 102.954C74.5156 102.325 76.1222 101.998 77.746 101.992Z" fill="url(#paint4_linear)"/>
<path d="M65.1618 23.6201H154.212C163.481 23.6367 172.366 27.3283 178.921 33.8863C185.475 40.4444 189.164 49.3343 189.181 58.6087C189.181 67.8941 185.499 76.8 178.943 83.3716C172.386 89.9432 163.492 93.6434 154.212 93.66H65.1618C55.8804 93.6475 46.9837 89.9486 40.4267 83.3762C33.8696 76.8037 30.1887 67.8953 30.1929 58.6087C30.23 49.3406 33.9261 40.4627 40.476 33.909C47.0259 27.3554 55.8989 23.6572 65.1618 23.6201Z" fill="#4285F4"/>
<path d="M293.16 107.633L241.553 133.693L280.696 211.294L332.302 185.233L293.16 107.633Z" fill="#E8EAED"/>
<path d="M333.987 188.602C334.359 189.324 334.581 190.114 334.641 190.924C334.7 191.734 334.596 192.548 334.335 193.317C334.073 194.086 333.66 194.794 333.118 195.399C332.577 196.005 331.92 196.495 331.185 196.84L290.659 217.389C289.938 217.76 289.148 217.983 288.339 218.043C287.529 218.103 286.716 217.998 285.947 217.737C285.179 217.475 284.471 217.061 283.866 216.52C283.261 215.978 282.771 215.32 282.426 214.585L280.767 211.312L332.422 185.188L333.987 188.602Z" fill="#5F6368"/>
<path d="M239.834 130.45C239.463 129.728 239.24 128.938 239.18 128.128C239.121 127.318 239.225 126.504 239.486 125.735C239.748 124.967 240.161 124.258 240.703 123.653C241.244 123.047 241.901 122.557 242.636 122.212L283.193 101.679C283.916 101.309 284.706 101.088 285.517 101.03C286.327 100.971 287.141 101.075 287.91 101.337C288.679 101.598 289.388 102.011 289.995 102.551C290.601 103.092 291.094 103.749 291.442 104.483L293.148 107.756L241.493 133.88L239.834 130.45Z" fill="#5F6368"/>
<path d="M261.138 172.439L312.73 146.456" stroke="#BEC1C6" stroke-miterlimit="10"/>
<path d="M274.489 180.207L293.304 170.716" stroke="#BEC1C6" stroke-width="2" stroke-miterlimit="10" stroke-linecap="round"/>
<path d="M278.387 187.976L314.906 169.479" stroke="#BEC1C6" stroke-width="2" stroke-miterlimit="10" stroke-linecap="round"/>
<path d="M282.269 195.603L311.321 180.99" stroke="#BEC1C6" stroke-width="2" stroke-miterlimit="10" stroke-linecap="round"/>
<path d="M255.534 142.728L266.569 137.137" stroke="#FBBC04" stroke-width="2" stroke-miterlimit="10" stroke-linecap="round"/>
<path d="M259.416 150.513L296.091 132" stroke="#BEC1C6" stroke-width="2" stroke-miterlimit="10" stroke-linecap="round"/>
<path d="M263.313 158.124L287.09 146.159" stroke="white" stroke-width="2" stroke-miterlimit="10" stroke-linecap="round"/>
<path d="M261.279 118.312L269.058 114.271" stroke="#3C4043" stroke-miterlimit="10"/>
<path d="M333.986 188.602L332.28 185.345L293.148 107.756L291.441 104.498C290.674 103.076 289.397 101.996 287.867 101.476C286.337 100.956 284.667 101.034 283.192 101.695L242.635 122.212C241.212 122.974 240.131 124.249 239.611 125.778C239.091 127.307 239.17 128.977 239.833 130.45L241.555 133.708L280.688 211.312L282.394 214.57C283.156 215.994 284.43 217.076 285.958 217.596C287.487 218.116 289.155 218.037 290.627 217.373L331.184 196.841C331.915 196.49 332.568 195.997 333.105 195.391C333.643 194.785 334.054 194.078 334.315 193.31C334.576 192.543 334.681 191.732 334.625 190.923C334.568 190.115 334.351 189.326 333.986 188.602Z" fill="url(#paint5_linear)"/>
<path d="M84.5868 72.7516C84.5868 67.7868 75.8837 63.5738 65.8032 63.3545C55.707 63.4954 47.0195 67.7085 47.0195 72.7516V73.2998C44.1242 69.7536 42.2939 65.4582 41.7414 60.9126C41.1888 56.3671 41.9367 51.7579 43.898 47.6207C45.8594 43.4835 48.9537 39.988 52.8215 37.5404C56.6894 35.0927 61.1719 33.7935 65.7484 33.7935C70.3249 33.7935 74.8074 35.0927 78.6753 37.5404C82.5431 39.988 85.6375 43.4835 87.5988 47.6207C89.5602 51.7579 90.308 56.3671 89.7554 60.9126C89.2029 65.4582 87.3726 69.7536 84.4773 73.2998L84.6338 72.8299L84.5868 72.7516Z" fill="#185ABC"/>
<path d="M47.1295 72.7516C47.1295 67.7868 55.8326 63.5738 65.9131 63.3545C76.025 63.4954 84.6968 67.7085 84.6968 72.7516V73.2998C80.6236 78.2949 74.7402 81.4742 68.3319 82.1432C61.9236 82.8123 55.511 80.9168 50.4949 76.8707C49.2432 75.8529 48.0998 74.7087 47.0825 73.4564L47.1295 72.7516Z" fill="white"/>
<path d="M65.7722 58.9219C71.0974 58.9219 75.4144 54.6025 75.4144 49.2742C75.4144 43.9459 71.0974 39.6265 65.7722 39.6265C60.4469 39.6265 56.1299 43.9459 56.1299 49.2742C56.1299 54.6025 60.4469 58.9219 65.7722 58.9219Z" fill="white"/>
<path d="M104.623 48.9614H144.726" stroke="white" stroke-width="2" stroke-linecap="round" stroke-linejoin="round"/>
<path d="M104.623 58.6084H144.726" stroke="white" stroke-width="2" stroke-linecap="round" stroke-linejoin="round"/>
<path d="M104.623 68.2412H126.083" stroke="white" stroke-width="2" stroke-linecap="round" stroke-linejoin="round"/>
<path d="M137.73 91.2632L115.361 111.937V92.1872" fill="#4285F4"/>
<path d="M272.314 49.5872C272.314 44.6068 281.017 40.4094 291.097 40.1901C301.037 40.3467 309.881 44.5441 309.881 49.5872V50.0571C312.776 46.5109 314.607 42.2155 315.159 37.67C315.712 33.1244 314.964 28.5152 313.003 24.378C311.041 20.2408 307.947 16.7453 304.079 14.2977C300.211 11.8501 295.729 10.5508 291.152 10.5508C286.576 10.5508 282.093 11.8501 278.225 14.2977C274.358 16.7453 271.263 20.2408 269.302 24.378C267.34 28.5152 266.593 33.1244 267.145 37.67C267.698 42.2155 269.528 46.5109 272.423 50.0571V49.5872H272.314Z" fill="#E37400"/>
<path d="M309.772 49.588C309.772 44.6076 301.069 40.4102 290.988 40.1909C280.876 40.3475 272.205 44.5449 272.205 49.588V50.0579C274.204 52.5359 276.675 54.5919 279.475 56.1069C282.275 57.6218 285.347 58.5655 288.514 58.8831C291.681 59.2007 294.88 58.886 297.924 57.9571C300.969 57.0283 303.799 55.5038 306.25 53.4722C307.502 52.4544 308.645 51.3102 309.662 50.0579V49.588H309.772Z" fill="white"/>
<path d="M290.973 35.9151C296.298 35.9151 300.615 31.5956 300.615 26.2673C300.615 20.9391 296.298 16.6196 290.973 16.6196C285.648 16.6196 281.331 20.9391 281.331 26.2673C281.331 31.5956 285.648 35.9151 290.973 35.9151Z" fill="white"/>
<path d="M252.278 25.7974H212.175" stroke="white" stroke-width="2" stroke-linecap="round" stroke-linejoin="round"/>
<path d="M252.278 35.4287H212.175" stroke="white" stroke-width="2" stroke-linecap="round" stroke-linejoin="round"/>
<path d="M230.364 45.0767H212.175" stroke="white" stroke-width="2" stroke-linecap="round" stroke-linejoin="round"/>
<path d="M168.816 26.8779C168.058 29.6642 167.69 32.5419 167.72 35.4293C167.698 42.1373 169.605 48.7101 173.213 54.3639C176.821 60.0178 181.978 64.5141 188.069 67.3169C188.827 64.4239 189.195 61.4427 189.165 58.4523C189.142 51.7942 187.213 45.2819 183.607 39.6863C180.001 34.0907 174.868 29.6459 168.816 26.8779Z" fill="#185ABC"/>
<path d="M154.212 23.6201H65.1618C55.8913 23.6325 47.004 27.3228 40.4488 33.8818C33.8935 40.4407 30.2053 49.333 30.1929 58.6087C30.1887 67.8953 33.8696 76.8037 40.4267 83.3762C46.9837 89.9487 55.8804 93.6476 65.1618 93.66H115.345V111.937L135.194 93.66H154.165C163.434 93.6434 172.319 89.9518 178.874 83.3938C185.428 76.8357 189.117 67.9459 189.134 58.6714C189.134 49.3942 185.458 40.4953 178.912 33.9251C172.366 27.3548 163.484 23.6491 154.212 23.6201Z" fill="url(#paint6_linear)"/>
<path d="M32.5077 97.4957C32.5108 99.2354 32.1694 100.959 31.5031 102.566C30.8368 104.174 29.8586 105.635 28.6247 106.865C27.3908 108.096 25.9255 109.071 24.3127 109.735C22.7 110.399 20.9715 110.74 19.2266 110.736C20.9711 110.735 22.6988 111.076 24.3109 111.741C25.9229 112.406 27.3876 113.381 28.6212 114.611C29.8548 115.841 30.833 117.301 31.4999 118.908C32.1668 120.516 32.5092 122.238 32.5077 123.977C32.5045 122.237 32.8463 120.512 33.5134 118.904C34.1804 117.295 35.1596 115.834 36.3948 114.603C37.63 113.373 39.0967 112.398 40.7109 111.735C42.325 111.071 44.0547 110.732 45.8007 110.736C44.0503 110.757 42.3134 110.429 40.692 109.771C39.0706 109.113 37.5974 108.139 36.359 106.905C35.1206 105.672 34.142 104.204 33.4806 102.588C32.8192 100.972 32.4884 99.2408 32.5077 97.4957ZM292.086 123.692C292.08 125.419 291.391 127.075 290.167 128.299C288.944 129.523 287.286 130.216 285.553 130.229C287.279 130.244 288.93 130.934 290.151 132.149C291.373 133.365 292.068 135.009 292.086 136.73C292.102 135.01 292.794 133.366 294.014 132.15C295.233 130.934 296.883 130.244 298.607 130.229C296.885 130.213 295.237 129.525 294.018 128.311C292.798 127.098 292.105 125.457 292.086 123.739V123.692ZM317.096 91.7803C317.096 94.474 316.023 97.0575 314.112 98.9622C312.201 100.867 309.61 101.937 306.908 101.937C309.611 101.94 312.202 103.013 314.113 104.92C316.023 106.826 317.096 109.411 317.096 112.106C317.099 109.41 318.175 106.825 320.087 104.919C321.999 103.013 324.591 101.94 327.296 101.937C325.959 101.947 324.633 101.692 323.395 101.188C322.157 100.684 321.032 99.9407 320.083 99.0009C319.135 98.061 318.383 96.9433 317.87 95.7122C317.357 94.4811 317.094 93.1609 317.096 91.8279V91.7803Z" fill="#FBBC04"/>
<defs>
<linearGradient id="paint0_linear" x1="247.144" y1="177.028" x2="247.144" y2="27.5356" gradientUnits="userSpaceOnUse">
<stop offset="0.41" stop-color="#F49102"/>
<stop offset="1" stop-color="#FAB704"/>
</linearGradient>
<linearGradient id="paint1_linear" x1="97.972" y1="213.245" x2="43.9507" y2="213.245" gradientUnits="userSpaceOnUse">
<stop stop-color="#9AA0A6"/>
<stop offset="1" stop-color="#9AA0A6" stop-opacity="0"/>
</linearGradient>
<linearGradient id="paint2_linear" x1="203.098" y1="213.245" x2="257.12" y2="213.245" gradientUnits="userSpaceOnUse">
<stop stop-color="#9AA0A6"/>
<stop offset="1" stop-color="#9AA0A6" stop-opacity="0"/>
</linearGradient>
<linearGradient id="paint3_linear" x1="8746.59" y1="9759.96" x2="4550.49" y2="9759.96" gradientUnits="userSpaceOnUse">
<stop stop-color="#9AA0A6"/>
<stop offset="1" stop-color="#9AA0A6" stop-opacity="0"/>
</linearGradient>
<linearGradient id="paint4_linear" x1="308.785" y1="-54.7675" x2="173.897" y2="130.127" gradientUnits="userSpaceOnUse">
<stop stop-color="white"/>
<stop offset="1" stop-color="white" stop-opacity="0"/>
</linearGradient>
<linearGradient id="paint5_linear" x1="24612.6" y1="100045" x2="20883.9" y2="112886" gradientUnits="userSpaceOnUse">
<stop stop-color="#F0F0F4"/>
<stop offset="1" stop-color="white" stop-opacity="0"/>
</linearGradient>
<linearGradient id="paint6_linear" x1="161.099" y1="-32.1831" x2="114.617" y2="49.8" gradientUnits="userSpaceOnUse">
<stop stop-color="#BDC1C6"/>
<stop offset="1" stop-color="#BDC1C6" stop-opacity="0"/>
</linearGradient>
</defs>
</svg>
