<svg width="283" height="180" viewBox="0 0 283 180" fill="none" xmlns="http://www.w3.org/2000/svg">
<path style="mix-blend-mode:multiply" d="M95.7445 172.8H62.2339V180H95.7445V172.8Z" fill="url(#paint0_linear)"/>
<path style="mix-blend-mode:multiply" d="M57.4468 172.8H0V180H57.4468V172.8Z" fill="url(#paint1_linear)"/>
<path d="M80.8449 87.0254L43.8516 77.087C42.012 76.5929 40.0521 76.8518 38.4029 77.8067C36.7536 78.7615 35.5503 80.3341 35.0574 82.1786L34.4375 84.497L85.3018 98.1625L85.9218 95.8442C86.166 94.9309 86.2283 93.9783 86.1053 93.0408C85.9823 92.1034 85.6764 91.1994 85.205 90.3805C84.7335 89.5616 84.1058 88.8438 83.3577 88.2681C82.6096 87.6925 81.7558 87.2702 80.8449 87.0254Z" fill="#5F6368"/>
<path d="M13.995 160.998C13.5023 162.843 13.7605 164.808 14.7128 166.462C15.6651 168.115 17.2335 169.322 19.0731 169.816L56.0664 179.754C57.906 180.248 59.8659 179.989 61.5151 179.035C63.1643 178.08 64.3677 176.507 64.8605 174.663L65.4805 172.344L14.6162 158.679L13.995 160.998Z" fill="#5F6368"/>
<path d="M34.4372 84.4967L14.6128 158.68L65.478 172.345L85.3024 98.1623L34.4372 84.4967Z" fill="#E8EAED"/>
<path d="M68.3149 89.872C68.6341 89.9577 68.9622 89.7678 69.0478 89.4477C69.1333 89.1276 68.9439 88.7986 68.6246 88.7129L53.5963 84.6753C53.277 84.5895 52.9489 84.7795 52.8634 85.0996C52.7778 85.4196 52.9673 85.7486 53.2865 85.8344L68.3149 89.872Z" fill="#3C4043"/>
<path d="M51.6016 99.0819L40.0404 95.9739C39.4019 95.8022 38.7455 96.1821 38.5743 96.8223C38.4031 97.4625 38.7819 98.1206 39.4204 98.2923L50.9816 101.4C51.6201 101.572 52.2765 101.192 52.4477 100.552C52.6189 99.9117 52.2401 99.2535 51.6016 99.0819Z" fill="#FBBC04"/>
<path d="M72.8754 112.216L38.1946 102.899C37.5561 102.727 36.8999 103.107 36.7288 103.747C36.5577 104.388 36.9366 105.046 37.5751 105.217L72.2559 114.535C72.8944 114.706 73.5506 114.326 73.7217 113.686C73.8928 113.046 73.5139 112.388 72.8754 112.216Z" fill="#BDC1C6"/>
<path d="M57.1447 115.443L36.3362 109.852C35.6977 109.681 35.0415 110.06 34.8704 110.701C34.6993 111.341 35.0782 111.999 35.7167 112.17L56.5252 117.761C57.1636 117.932 57.8199 117.552 57.991 116.912C58.162 116.272 57.7832 115.614 57.1447 115.443Z" fill="white"/>
<path d="M76.0098 132.936L25.1445 119.271L24.8348 120.43L75.7 134.095L76.0098 132.936Z" fill="#BDC1C6"/>
<path d="M50.1032 137.155L29.2947 131.565C28.6562 131.393 28 131.773 27.8289 132.414C27.6578 133.054 28.0367 133.712 28.6752 133.883L49.4837 139.474C50.1221 139.645 50.7784 139.265 50.9495 138.625C51.1205 137.985 50.7417 137.327 50.1032 137.155Z" fill="#BDC1C6"/>
<path d="M64.4287 148.457L27.4358 138.519C26.7974 138.347 26.1411 138.727 25.97 139.367C25.799 140.007 26.1778 140.665 26.8163 140.837L63.8092 150.775C64.4476 150.947 65.1039 150.567 65.275 149.927C65.446 149.287 65.0671 148.629 64.4287 148.457Z" fill="#BDC1C6"/>
<path d="M51.0095 152.308L25.5769 145.475C24.9385 145.304 24.2822 145.684 24.1111 146.324C23.9401 146.964 24.319 147.622 24.9574 147.793L50.39 154.626C51.0285 154.798 51.6847 154.418 51.8558 153.778C52.0269 153.137 51.648 152.479 51.0095 152.308Z" fill="#BDC1C6"/>
<path d="M84.9717 21.6001H61.0356C56.5918 21.6001 52.33 23.3701 49.1878 26.5207C46.0456 29.6713 44.2803 33.9445 44.2803 38.4001C44.2803 42.8557 46.0456 47.1289 49.1878 50.2795C52.33 53.4301 56.5918 55.2001 61.0356 55.2001V64.8001L70.61 55.2001H84.9717C89.4155 55.2001 93.6773 53.4301 96.8195 50.2795C99.9618 47.1289 101.727 42.8557 101.727 38.4001C101.727 33.9445 99.9618 29.6713 96.8195 26.5207C93.6773 23.3701 89.4155 21.6001 84.9717 21.6001Z" fill="#FBBC04"/>
<path d="M73.0042 27.6001L62.2329 46.8001H83.7755L73.0042 27.6001Z" stroke="white" stroke-linecap="round" stroke-linejoin="round"/>
<path d="M73.6021 34.7997C73.6021 34.4683 73.3342 34.1997 73.0037 34.1997C72.6732 34.1997 72.4053 34.4683 72.4053 34.7997V40.7997C72.4053 41.1311 72.6732 41.3997 73.0037 41.3997C73.3342 41.3997 73.6021 41.1311 73.6021 40.7997V34.7997Z" fill="white"/>
<path d="M73.0037 44.3997C73.3342 44.3997 73.6021 44.1311 73.6021 43.7997C73.6021 43.4683 73.3342 43.1997 73.0037 43.1997C72.6732 43.1997 72.4053 43.4683 72.4053 43.7997C72.4053 44.1311 72.6732 44.3997 73.0037 44.3997Z" fill="white"/>
<path d="M46.6738 35.9999C46.6746 32.1329 48.0134 28.3859 50.4617 25.3979C47.7776 27.5848 45.8351 30.5519 44.9015 33.891C43.9679 37.2301 44.089 40.7771 45.2483 44.0444C46.4075 47.3116 48.5478 50.1385 51.3749 52.1361C54.202 54.1338 57.5769 55.2041 61.0355 55.1999V64.7999L63.4291 62.3999V52.7999C58.9893 52.7869 54.7351 51.0128 51.5956 47.865C48.4562 44.7172 46.6868 40.4516 46.6738 35.9999Z" fill="url(#paint2_linear)"/>
<path d="M187.899 14.3999H168.75C164.941 14.3999 161.288 15.917 158.595 18.6176C155.902 21.3181 154.389 24.9808 154.389 28.7999C154.389 32.619 155.902 36.2817 158.595 38.9822C161.288 41.6827 164.941 43.1999 168.75 43.1999H178.325L187.899 52.7999V43.1999C191.708 43.1999 195.361 41.6827 198.055 38.9822C200.748 36.2817 202.261 32.619 202.261 28.7999C202.261 24.9808 200.748 21.3181 198.055 18.6176C195.361 15.917 191.708 14.3999 187.899 14.3999Z" fill="#34A853"/>
<path d="M187.898 20.3999H168.75C168.089 20.3999 167.553 20.9372 167.553 21.5999V35.9999C167.553 36.6626 168.089 37.1999 168.75 37.1999H187.898C188.559 37.1999 189.095 36.6626 189.095 35.9999V21.5999C189.095 20.9372 188.559 20.3999 187.898 20.3999Z" fill="white"/>
<path d="M168.75 21.6001L178.324 28.8001L187.898 21.6001H168.75Z" fill="#34A853"/>
<path d="M168.75 23.4004L178.324 30.6004L187.898 23.4004V36.0004H168.75V23.4004Z" fill="#34A853"/>
<path d="M180.718 40.8003H171.143C168.447 40.8068 165.803 40.0502 163.516 38.6175C161.229 37.1848 159.392 35.1341 158.216 32.7011C157.039 30.2682 156.572 27.5518 156.866 24.8642C157.161 22.1766 158.206 19.6269 159.881 17.5083C157.531 19.3546 155.815 21.8904 154.971 24.7619C154.127 27.6334 154.199 30.6973 155.175 33.5262C156.152 36.3551 157.985 38.8077 160.418 40.542C162.852 42.2762 165.764 43.2056 168.75 43.2003H178.324L187.899 52.8003V48.0003L180.718 40.8003Z" fill="url(#paint3_linear)"/>
<path d="M156.781 25.2003C160.747 25.2003 163.962 21.9767 163.962 18.0003C163.962 14.0238 160.747 10.8003 156.781 10.8003C152.816 10.8003 149.601 14.0238 149.601 18.0003C149.601 21.9767 152.816 25.2003 156.781 25.2003Z" fill="#EA4335"/>
<path d="M205.625 7.60809L207.048 7.20009L205.625 6.79209C205.205 6.67205 204.824 6.44686 204.515 6.13779C204.207 5.82872 203.983 5.44597 203.863 5.0257L203.457 3.6001L203.05 5.0269C202.93 5.44717 202.706 5.82992 202.398 6.13899C202.089 6.44806 201.708 6.67324 201.289 6.79329L199.867 7.20009L201.29 7.60809C201.709 7.72814 202.091 7.95333 202.399 8.2624C202.707 8.57147 202.932 8.95421 203.051 9.37449L203.457 10.8001L203.864 9.37329C203.984 8.95338 204.208 8.57097 204.516 8.26213C204.824 7.9533 205.206 7.72821 205.625 7.60809Z" fill="#FBBC04"/>
<path d="M221.432 19.8794L223.803 19.2002L221.432 18.521C220.734 18.321 220.098 17.9457 219.584 17.4307C219.07 16.9156 218.696 16.2778 218.496 15.5774L217.819 13.2002L217.142 15.5774C216.942 16.2778 216.568 16.9156 216.054 17.4307C215.54 17.9457 214.904 18.321 214.206 18.521L211.835 19.2002L214.206 19.8794C214.904 20.0794 215.54 20.4547 216.054 20.9697C216.568 21.4848 216.942 22.1226 217.142 22.823L217.819 25.2002L218.496 22.823C218.696 22.1226 219.07 21.4848 219.584 20.9697C220.098 20.4547 220.734 20.0794 221.432 19.8794Z" fill="#FBBC04"/>
<path d="M219.016 2.4C219.677 2.4 220.213 1.86274 220.213 1.2C220.213 0.537258 219.677 0 219.016 0C218.355 0 217.819 0.537258 217.819 1.2C217.819 1.86274 218.355 2.4 219.016 2.4Z" fill="#FBBC04"/>
<path d="M143.617 40.8004C144.278 40.8004 144.814 40.2631 144.814 39.6004C144.814 38.9376 144.278 38.4004 143.617 38.4004C142.956 38.4004 142.42 38.9376 142.42 39.6004C142.42 40.2631 142.956 40.8004 143.617 40.8004Z" fill="#FBBC04"/>
<path d="M152.965 49.6076L154.388 49.1996L152.965 48.7916C152.546 48.6716 152.164 48.4464 151.856 48.1373C151.548 47.8282 151.323 47.4455 151.203 47.0252L150.797 45.5996L150.391 47.0264C150.271 47.4467 150.046 47.8294 149.738 48.1385C149.43 48.4476 149.048 48.6728 148.629 48.7928L147.207 49.1996L148.63 49.6076C149.049 49.7277 149.431 49.9528 149.739 50.2619C150.047 50.571 150.272 50.9537 150.392 51.374L150.797 52.7996L151.204 51.3728C151.324 50.9529 151.549 50.5705 151.857 50.2616C152.165 49.9528 152.546 49.7277 152.965 49.6076Z" fill="#FBBC04"/>
<path d="M246.542 67.2002H95.7439C90.4561 67.2002 86.1694 71.4983 86.1694 76.8002V170.4C86.1694 175.702 90.4561 180 95.7439 180H246.542C251.83 180 256.116 175.702 256.116 170.4V76.8002C256.116 71.4983 251.83 67.2002 246.542 67.2002Z" fill="#5F6368"/>
<path d="M238.164 74.3999H99.3345V172.8H238.164V74.3999Z" fill="white"/>
<path d="M93.3511 117C93.3511 116.669 93.0832 116.4 92.7527 116.4C92.4222 116.4 92.1543 116.669 92.1543 117V130.2C92.1543 130.532 92.4222 130.8 92.7527 130.8C93.0832 130.8 93.3511 130.532 93.3511 130.2V117Z" fill="#3C4043"/>
<path d="M246.543 127.2C248.525 127.2 250.133 125.588 250.133 123.6C250.133 121.612 248.525 120 246.543 120C244.56 120 242.952 121.612 242.952 123.6C242.952 125.588 244.56 127.2 246.543 127.2Z" stroke="#3C4043" stroke-miterlimit="10"/>
<path d="M147.207 74.3999H99.3345V172.8H147.207V74.3999Z" fill="#E8EAED"/>
<path d="M138.231 90H108.31C107.319 90 106.515 90.8059 106.515 91.8C106.515 92.7941 107.319 93.6 108.31 93.6H138.231C139.222 93.6 140.026 92.7941 140.026 91.8C140.026 90.8059 139.222 90 138.231 90Z" fill="#BDC1C6"/>
<path d="M138.829 120H107.712C107.051 120 106.515 120.537 106.515 121.2C106.515 121.863 107.051 122.4 107.712 122.4H138.829C139.49 122.4 140.026 121.863 140.026 121.2C140.026 120.537 139.49 120 138.829 120Z" fill="white"/>
<path d="M138.829 132H107.712C107.051 132 106.515 132.537 106.515 133.2C106.515 133.863 107.051 134.4 107.712 134.4H138.829C139.49 134.4 140.026 133.863 140.026 133.2C140.026 132.537 139.49 132 138.829 132Z" fill="white"/>
<path d="M138.829 144H107.712C107.051 144 106.515 144.537 106.515 145.2C106.515 145.863 107.051 146.4 107.712 146.4H138.829C139.49 146.4 140.026 145.863 140.026 145.2C140.026 144.537 139.49 144 138.829 144Z" fill="white"/>
<path d="M136.435 103.2H110.106C108.123 103.2 106.515 104.812 106.515 106.8C106.515 108.788 108.123 110.4 110.106 110.4H136.435C138.418 110.4 140.026 108.788 140.026 106.8C140.026 104.812 138.418 103.2 136.435 103.2Z" fill="#BDC1C6"/>
<path d="M138.829 156H107.712C107.051 156 106.515 156.537 106.515 157.2C106.515 157.863 107.051 158.4 107.712 158.4H138.829C139.49 158.4 140.026 157.863 140.026 157.2C140.026 156.537 139.49 156 138.829 156Z" fill="white"/>
<path d="M229.787 120H155.585C154.924 120 154.388 120.537 154.388 121.2C154.388 121.863 154.924 122.4 155.585 122.4H229.787C230.448 122.4 230.983 121.863 230.983 121.2C230.983 120.537 230.448 120 229.787 120Z" fill="#E8EAED"/>
<path d="M210.039 105H170.545C169.553 105 168.75 105.806 168.75 106.8C168.75 107.794 169.553 108.6 170.545 108.6H210.039C211.031 108.6 211.835 107.794 211.835 106.8C211.835 105.806 211.031 105 210.039 105Z" fill="#34A853"/>
<path d="M229.787 132H155.585C154.924 132 154.388 132.537 154.388 133.2C154.388 133.863 154.924 134.4 155.585 134.4H229.787C230.448 134.4 230.983 133.863 230.983 133.2C230.983 132.537 230.448 132 229.787 132Z" fill="#E8EAED"/>
<path d="M191.489 144H155.585C154.924 144 154.388 144.537 154.388 145.2C154.388 145.863 154.924 146.4 155.585 146.4H191.489C192.15 146.4 192.686 145.863 192.686 145.2C192.686 144.537 192.15 144 191.489 144Z" fill="#E8EAED"/>
<path d="M157.978 110.4C159.961 110.4 161.569 108.788 161.569 106.8C161.569 104.811 159.961 103.2 157.978 103.2C155.995 103.2 154.388 104.811 154.388 106.8C154.388 108.788 155.995 110.4 157.978 110.4Z" fill="#34A853"/>
<path d="M229.787 85.2V92.4H155.585V85.2H229.787ZM229.787 84H155.585C155.267 84 154.963 84.1264 154.738 84.3515C154.514 84.5765 154.388 84.8817 154.388 85.2V92.4C154.388 92.7183 154.514 93.0235 154.738 93.2485C154.963 93.4736 155.267 93.6 155.585 93.6H229.787C230.104 93.6 230.408 93.4736 230.633 93.2485C230.857 93.0235 230.983 92.7183 230.983 92.4V85.2C230.983 84.8817 230.857 84.5765 230.633 84.3515C230.408 84.1264 230.104 84 229.787 84Z" fill="#E8EAED"/>
<path d="M172.34 157.2V162H155.585V157.2H172.34ZM172.34 156H155.585C155.267 156 154.963 156.126 154.738 156.351C154.514 156.577 154.388 156.882 154.388 157.2V162C154.388 162.318 154.514 162.623 154.738 162.849C154.963 163.074 155.267 163.2 155.585 163.2H172.34C172.657 163.2 172.962 163.074 173.186 162.849C173.411 162.623 173.537 162.318 173.537 162V157.2C173.537 156.882 173.411 156.577 173.186 156.351C172.962 156.126 172.657 156 172.34 156Z" fill="#E8EAED"/>
<path d="M196.275 157.2V162H179.52V157.2H196.275ZM196.275 156H179.52C179.203 156 178.898 156.126 178.674 156.351C178.449 156.577 178.323 156.882 178.323 157.2V162C178.323 162.318 178.449 162.623 178.674 162.849C178.898 163.074 179.203 163.2 179.52 163.2H196.275C196.593 163.2 196.897 163.074 197.122 162.849C197.346 162.623 197.472 162.318 197.472 162V157.2C197.472 156.882 197.346 156.577 197.122 156.351C196.897 156.126 196.593 156 196.275 156Z" fill="#E8EAED"/>
<path d="M220.212 157.2V162H203.457V157.2H220.212ZM220.212 156H203.457C203.14 156 202.835 156.126 202.611 156.351C202.386 156.577 202.26 156.882 202.26 157.2V162C202.26 162.318 202.386 162.623 202.611 162.849C202.835 163.074 203.14 163.2 203.457 163.2H220.212C220.53 163.2 220.834 163.074 221.059 162.849C221.283 162.623 221.409 162.318 221.409 162V157.2C221.409 156.882 221.283 156.577 221.059 156.351C220.834 156.126 220.53 156 220.212 156Z" fill="#E8EAED"/>
<path d="M39.4946 66V54" stroke="#DADCE0" stroke-width="2" stroke-miterlimit="10" stroke-linecap="round"/>
<path d="M28.4924 70.5692L20.0298 62.084" stroke="#DADCE0" stroke-width="2" stroke-miterlimit="10" stroke-linecap="round"/>
<path d="M23.9354 81.6001H11.9673" stroke="#DADCE0" stroke-width="2" stroke-miterlimit="10" stroke-linecap="round"/>
<path d="M269.282 69.6001H281.25" stroke="#DADCE0" stroke-width="2" stroke-miterlimit="10" stroke-linecap="round"/>
<path d="M264.725 58.5697L273.187 50.0845" stroke="#DADCE0" stroke-width="2" stroke-miterlimit="10" stroke-linecap="round"/>
<path d="M253.723 54V42" stroke="#DADCE0" stroke-width="2" stroke-miterlimit="10" stroke-linecap="round"/>
<defs>
<linearGradient id="paint0_linear" x1="62.2339" y1="176.4" x2="95.7445" y2="176.4" gradientUnits="userSpaceOnUse">
<stop stop-color="#9AA0A6" stop-opacity="0"/>
<stop offset="0.15" stop-color="#9AA0A6" stop-opacity="0.025"/>
<stop offset="0.306" stop-color="#9AA0A6" stop-opacity="0.1"/>
<stop offset="0.464" stop-color="#9AA0A6" stop-opacity="0.225"/>
<stop offset="0.624" stop-color="#9AA0A6" stop-opacity="0.4"/>
<stop offset="0.786" stop-color="#9AA0A6" stop-opacity="0.626"/>
<stop offset="0.946" stop-color="#9AA0A6" stop-opacity="0.898"/>
<stop offset="1" stop-color="#9AA0A6"/>
</linearGradient>
<linearGradient id="paint1_linear" x1="3848.93" y1="1360.8" x2="6606.38" y2="1360.8" gradientUnits="userSpaceOnUse">
<stop stop-color="#9AA0A6" stop-opacity="0"/>
<stop offset="0.15" stop-color="#9AA0A6" stop-opacity="0.025"/>
<stop offset="0.306" stop-color="#9AA0A6" stop-opacity="0.1"/>
<stop offset="0.464" stop-color="#9AA0A6" stop-opacity="0.225"/>
<stop offset="0.624" stop-color="#9AA0A6" stop-opacity="0.4"/>
<stop offset="0.786" stop-color="#9AA0A6" stop-opacity="0.626"/>
<stop offset="0.946" stop-color="#9AA0A6" stop-opacity="0.898"/>
<stop offset="1" stop-color="#9AA0A6"/>
</linearGradient>
<linearGradient id="paint2_linear" x1="48.5373" y1="52.2683" x2="62.9372" y2="37.9067" gradientUnits="userSpaceOnUse">
<stop stop-color="#F29900"/>
<stop offset="0.086" stop-color="#F29900" stop-opacity="0.84"/>
<stop offset="0.218" stop-color="#F29900" stop-opacity="0.619"/>
<stop offset="0.352" stop-color="#F29900" stop-opacity="0.43"/>
<stop offset="0.486" stop-color="#F29900" stop-opacity="0.275"/>
<stop offset="0.617" stop-color="#F29900" stop-opacity="0.154"/>
<stop offset="0.748" stop-color="#F29900" stop-opacity="0.069"/>
<stop offset="0.876" stop-color="#F29900" stop-opacity="0.017"/>
<stop offset="1" stop-color="#F29900" stop-opacity="0"/>
</linearGradient>
<linearGradient id="paint3_linear" x1="164.311" y1="44.6895" x2="175.681" y2="33.3498" gradientUnits="userSpaceOnUse">
<stop stop-color="#188038"/>
<stop offset="1" stop-color="#188038" stop-opacity="0"/>
</linearGradient>
</defs>
</svg>
