<svg width="296" height="99" viewBox="0 0 296 99" fill="none" xmlns="http://www.w3.org/2000/svg">
<path fill-rule="evenodd" clip-rule="evenodd" d="M6.20508 29.1074H83.795V72.8972C83.795 76.0433 81.2354 78.618 78.108 78.618H11.8921C8.76468 78.618 6.20508 76.0433 6.20508 72.8972V29.1074Z" fill="#4A8AF4"/>
<path fill-rule="evenodd" clip-rule="evenodd" d="M1.39156 24.2241L0.0126106 29.1075C0.00398795 29.2893 0 29.4753 0 29.6614C0 35.8809 5.06481 40.9249 11.3116 40.9249C17.427 40.9249 22.4083 36.0923 22.6186 30.0545C22.6139 29.9235 22.61 29.7924 22.61 29.6614C22.61 29.5303 22.6139 29.3992 22.6186 29.2681C22.6186 29.2132 22.6139 29.1624 22.61 29.1075H22.5721L26.2925 0.38623H11.8873C9.24349 0.38623 7.00692 2.22545 6.3768 4.69041L1.39156 24.2241Z" fill="#80ADF7"/>
<path fill-rule="evenodd" clip-rule="evenodd" d="M44.9883 29.1075H45.001V0.38623H26.2964L22.5761 29.1075C22.5674 29.2893 22.5635 29.4753 22.5635 29.6614C22.5635 35.8808 27.5825 40.9249 33.7782 40.9249C39.8393 40.9249 44.7781 36.0922 44.9844 30.0546C44.9804 29.9235 44.9757 29.7924 44.9757 29.6614C44.9757 29.5303 44.9804 29.3992 44.9844 29.2681C44.9844 29.2132 44.9804 29.1625 44.9757 29.1075H44.9883Z" fill="#4A5BB9"/>
<path fill-rule="evenodd" clip-rule="evenodd" d="M22.6193 30.139C22.3672 36.1387 17.4026 40.9206 11.3163 40.9206C9.47903 40.9206 7.74323 40.4852 6.20508 39.7114V39.7453L45.0024 78.618H78.112C81.2394 78.618 83.7996 76.0433 83.7996 72.8972V39.5973C87.2043 37.758 89.5582 34.1896 89.6969 30.0545C89.6922 29.9234 89.6882 29.7924 89.6882 29.6613C89.6882 29.5302 89.6922 29.3991 89.6969 29.2681L89.6882 29.1074H83.7996H67.5241H67.3728C67.3728 29.1074 67.3728 29.1074 67.3728 29.1116C67.3768 29.1624 67.3768 29.2174 67.3808 29.2681C67.3768 29.3991 67.3728 29.5302 67.3728 29.6613C67.3728 29.7924 67.3768 29.9234 67.3808 30.0545C67.3808 30.1053 67.3768 30.1602 67.3728 30.2109C67.087 36.1768 62.19 40.9206 56.1873 40.9206C50.1342 40.9206 45.204 36.088 44.9977 30.0503C44.7921 36.088 39.8613 40.9206 33.8088 40.9206C27.7809 40.9206 22.8674 36.1344 22.6193 30.139Z" fill="#4A7DE2"/>
<path fill-rule="evenodd" clip-rule="evenodd" d="M67.0281 26.8453L63.6023 0.381836H45.0026V29.1031H44.9979C44.99 29.2849 44.9854 29.4709 44.9854 29.6569C44.9854 35.8764 50.0004 40.9205 56.1835 40.9205C62.2359 40.9205 67.1708 36.0879 67.3731 30.0501C67.3684 29.9191 67.3644 29.7881 67.3644 29.6569C67.3644 29.5259 67.3684 29.3948 67.3731 29.2638C67.3731 29.2088 67.3684 29.158 67.3644 29.1031H67.318L67.0281 26.8453Z" fill="#80ADF7"/>
<path fill-rule="evenodd" clip-rule="evenodd" d="M67.3681 29.1075C67.3595 29.2893 67.3556 29.4753 67.3556 29.6614C67.3556 35.8808 72.3574 40.9249 78.5285 40.9249C84.5683 40.9249 89.4905 36.0922 89.6968 30.0546C89.6922 29.9235 89.6882 29.7924 89.6882 29.6614C89.6882 29.5303 89.6922 29.3992 89.6968 29.2681C89.6968 29.2132 89.6922 29.1625 89.6882 29.1075L88.5069 24.224L83.5177 4.69041C82.8869 2.22122 80.651 0.38623 78.0072 0.38623H63.6021L67.3217 29.1075H67.3681Z" fill="#4A5BB9"/>
<path d="M77.1244 61.4351V61.359C77.1205 60.5769 77.0488 59.8285 76.9228 59.1055H66.3594V63.4689H72.3959C72.1352 64.8768 71.3446 66.0733 70.1593 66.8725V69.7009H73.7828C75.8974 67.7437 77.1205 64.8599 77.1244 61.4351Z" fill="white"/>
<path d="M66.3599 72.4362C69.3858 72.4362 71.9248 71.4256 73.7787 69.7047L70.1552 66.8764C69.1503 67.5532 67.8689 67.9544 66.3599 67.9544C63.4381 67.9544 60.9668 65.9716 60.0839 63.3037H56.3384V66.2253C58.1843 69.9083 61.9756 72.4362 66.3599 72.4362Z" fill="white"/>
<path d="M60.0877 63.2992C59.8649 62.6227 59.7348 61.8997 59.7348 61.1556C59.7348 60.4115 59.8609 59.6885 60.0877 59.012V56.0903H56.3428C55.5821 57.6125 55.1489 59.3375 55.1489 61.1556C55.1489 62.9736 55.5821 64.6987 56.3428 66.2208L60.0877 63.2992Z" fill="white"/>
<path d="M66.3592 54.3663C68.0075 54.3663 69.4826 54.9371 70.6473 56.0533L73.8629 52.8188C71.9209 51.0008 69.3818 49.8804 66.3592 49.8804C61.9756 49.8804 58.1843 52.4088 56.3384 56.0956L60.0839 59.0172C60.9668 56.3493 63.4381 54.3663 66.3592 54.3663Z" fill="white"/>
<path fill-rule="evenodd" clip-rule="evenodd" d="M22.6139 29.1074H0.0126106C0.00398795 29.2893 0 29.4753 0 29.6613C0 35.8808 5.06481 40.9249 11.3116 40.9249C17.4271 40.9249 22.4083 36.0922 22.6186 30.0545C22.6139 29.9234 22.61 29.7924 22.61 29.6613C22.61 29.5302 22.6139 29.3991 22.6186 29.2681C22.6186 29.2131 22.6186 29.1582 22.6139 29.1074Z" fill="#78A1E4"/>
<path fill-rule="evenodd" clip-rule="evenodd" d="M67.3673 29.1074H45.0141C45.0055 29.2893 45.0015 29.4753 45.0015 29.6613C45.0015 35.8808 50.0119 40.9249 56.1904 40.9249C62.2395 40.9249 67.1697 36.0922 67.372 30.0545C67.3673 29.9234 67.3634 29.7924 67.3634 29.6613C67.3634 29.5302 67.3673 29.3991 67.372 29.2681C67.372 29.2131 67.372 29.1582 67.3673 29.1074Z" fill="#78A1E4"/>
<path fill-rule="evenodd" clip-rule="evenodd" d="M44.9474 29.1074H22.6274C22.6187 29.2893 22.6147 29.4753 22.6147 29.6613C22.6147 35.8808 27.6165 40.9249 33.787 40.9249C39.8275 40.9249 44.7497 36.0922 44.9554 30.0545C44.9514 29.9234 44.9474 29.7924 44.9474 29.6613C44.9474 29.5302 44.9514 29.3991 44.9554 29.2681C44.9514 29.2131 44.9514 29.1582 44.9474 29.1074Z" fill="#4857AD"/>
<path fill-rule="evenodd" clip-rule="evenodd" d="M89.6881 29.1074H67.3681C67.3594 29.2893 67.3555 29.4753 67.3555 29.6613C67.3555 35.8808 72.3573 40.9249 78.5284 40.9249C84.5683 40.9249 89.4905 36.0922 89.6967 30.0545C89.6921 29.9234 89.6881 29.7924 89.6881 29.6613C89.6881 29.5302 89.6921 29.3991 89.6967 29.2681C89.6921 29.2131 89.6921 29.1582 89.6881 29.1074Z" fill="#4857AD"/>
<path d="M141.633 24.6804V30.6343H155.768C155.332 33.9713 154.232 36.4126 152.54 38.1338C150.48 40.2063 147.252 42.4895 141.633 42.4895C132.925 42.4895 126.136 35.4291 126.136 26.665C126.136 17.9011 132.942 10.8407 141.633 10.8407C146.327 10.8407 149.747 12.7024 152.278 15.091L156.431 10.9109C152.924 7.4685 148.212 4.86914 141.633 4.86914C129.714 4.86914 119.697 14.6343 119.697 26.6299C119.697 38.6256 129.714 48.3907 141.633 48.3907C148.072 48.3907 152.924 46.2655 156.728 42.2963C160.619 38.3797 161.841 32.8473 161.841 28.3862C161.841 27.0163 161.736 25.7342 161.527 24.6628H141.633V24.6804Z" fill="#4285F4"/>
<path d="M179.52 42.4017C175.296 42.4017 171.632 38.8891 171.632 33.8836C171.632 28.8254 175.279 25.3654 179.52 25.3654C183.76 25.3654 187.407 28.8254 187.407 33.8836C187.39 38.9066 183.743 42.4017 179.52 42.4017ZM179.52 19.833C171.806 19.833 165.506 25.7342 165.506 33.8836C165.506 41.9626 171.806 47.9341 179.52 47.9341C187.233 47.9341 193.533 41.9802 193.533 33.8836C193.515 25.7342 187.233 19.833 179.52 19.833Z" fill="#EA4335"/>
<path d="M241.155 42.4017C236.931 42.4017 233.703 38.7661 233.703 33.8836C233.703 28.9307 236.931 25.3654 241.155 25.3654C245.343 25.3654 248.607 29.001 248.607 33.9362C248.624 38.8539 245.343 42.4017 241.155 42.4017ZM248.188 22.9768H247.978C246.599 21.3258 243.964 19.833 240.631 19.833C233.668 19.833 227.578 25.945 227.578 33.8836C227.578 41.7694 233.651 47.9341 240.631 47.9341C243.964 47.9341 246.617 46.4412 247.978 44.7376H248.188V46.7047C248.188 52.079 245.326 54.9594 240.736 54.9594C236.984 54.9594 234.663 52.2546 233.686 49.9538L228.346 52.1844C229.882 55.9078 233.948 60.4742 240.718 60.4742C247.908 60.4742 253.981 56.2239 253.981 45.8441V20.5706H248.17V22.9768H248.188Z" fill="#4285F4"/>
<path d="M210.755 42.4017C206.532 42.4017 202.868 38.8891 202.868 33.8836C202.868 28.8254 206.515 25.3654 210.755 25.3654C214.979 25.3654 218.643 28.8254 218.643 33.8836C218.643 38.9066 214.979 42.4017 210.755 42.4017ZM210.755 19.833C203.042 19.833 196.742 25.7342 196.742 33.8836C196.742 41.9626 203.042 47.9341 210.755 47.9341C218.469 47.9341 224.769 41.9802 224.769 33.8836C224.769 25.7342 218.469 19.833 210.755 19.833Z" fill="#FBBC05"/>
<path d="M264.854 5.44873H258.816V47.9516H264.854V5.44873Z" fill="#34A853"/>
<path d="M283.038 25.1195C285.516 25.1195 287.627 26.4017 288.325 28.2106L275.708 33.462C275.708 27.5608 279.862 25.1195 283.038 25.1195ZM283.474 42.4017C280.35 42.4017 278.134 40.979 276.703 38.1514L295.375 30.3885L294.747 28.7902C293.595 25.6464 290.035 19.833 282.81 19.833C275.621 19.833 269.635 25.5235 269.635 33.8836C269.635 41.7694 275.551 47.9341 283.474 47.9341C289.861 47.9341 293.56 43.9999 295.114 41.7167L290.35 38.5202C288.761 40.8562 286.597 42.4017 283.474 42.4017Z" fill="#EA4335"/>
<path d="M122.628 61.3267L122.558 58.9205H122.628L127.078 66.7885H128.143L132.593 58.9205H132.68L132.593 61.3267V69.8094H134.425V55.5132H132.593L127.654 64.2245H127.567L122.628 55.5132H120.796V69.8094H122.628V61.3267Z" fill="#676767"/>
<path d="M143.481 60.0273L140.654 67.0529H140.619L137.722 60.0273H135.732L139.746 69.1951L137.478 74.1306H139.362L145.453 60.0273H143.481Z" fill="#676767"/>
<path d="M156.762 63.3632C157.46 63.3632 158.054 63.592 158.507 64.0657C158.979 64.5401 159.205 65.0848 159.205 65.6995C159.205 66.3316 158.979 66.8937 158.525 67.3501C158.054 67.8244 157.495 68.0526 156.832 68.0526H153.167V63.3632H156.762ZM156.553 57.269C157.181 57.269 157.705 57.4973 158.123 57.9364C158.542 58.3931 158.752 58.9024 158.752 59.4469C158.752 60.0264 158.525 60.5357 158.089 60.9923C157.652 61.4313 157.111 61.6595 156.466 61.6595H153.15V57.2866H156.553V57.269ZM156.762 69.8089C157.966 69.8089 158.979 69.423 159.799 68.65C160.654 67.877 161.073 66.911 161.073 65.7342C161.073 64.9791 160.846 64.2945 160.41 63.7145C159.973 63.1177 159.397 62.7139 158.664 62.4678V62.3799C159.956 61.8005 160.584 60.8166 160.584 59.3942C160.584 58.2701 160.183 57.3568 159.38 56.6192C158.577 55.8816 157.6 55.4951 156.483 55.4951H151.335V69.8089H156.762Z" fill="#676767"/>
<path d="M171.352 60.0273H169.519V65.437C169.519 66.262 169.275 66.9651 168.786 67.5619C168.298 68.1592 167.687 68.4579 166.954 68.4579C165.383 68.4579 164.598 67.6497 164.546 66.0517V60.0098H162.713V66.1568C162.713 67.4215 163.027 68.4048 163.673 69.0899C164.319 69.7751 165.226 70.1264 166.43 70.1264C167.059 70.1264 167.652 69.9681 168.228 69.6521C168.804 69.336 169.223 68.9317 169.502 68.4579H169.589V69.8098H171.334V60.0273H171.352Z" fill="#676767"/>
<path d="M178.019 64.1543L176.553 63.7678C175.506 63.5222 174.982 63.1357 174.982 62.5736C174.982 62.2224 175.174 61.9416 175.541 61.6955C175.925 61.4499 176.344 61.3442 176.814 61.3442C177.338 61.3442 177.792 61.4673 178.21 61.6955C178.629 61.9237 178.926 62.2576 179.118 62.6614L180.741 61.9768C180.462 61.2916 179.973 60.7296 179.275 60.3256C178.577 59.9041 177.809 59.7109 176.937 59.7109C175.82 59.7109 174.895 59.9743 174.162 60.5188C173.447 61.0634 173.08 61.7833 173.08 62.6614C173.08 64.0139 174.022 64.9446 175.925 65.4189L177.6 65.8406C178.559 66.1393 179.031 66.5957 179.031 67.2277C179.031 67.579 178.839 67.8777 178.438 68.1238C178.054 68.3693 177.565 68.5103 176.972 68.5103C176.431 68.5103 175.925 68.352 175.471 68.0181C175.017 67.6847 174.668 67.2277 174.424 66.6483L172.801 67.3508C173.115 68.1937 173.656 68.8615 174.389 69.3705C175.122 69.8801 175.995 70.1435 176.972 70.1435C178.089 70.1435 179.031 69.8448 179.764 69.2654C180.497 68.6859 180.881 67.9655 180.881 67.1053C180.933 65.6298 179.956 64.6459 178.019 64.1543Z" fill="#676767"/>
<path d="M182.572 60.0268V69.8272H184.405V60.0268H182.572ZM184.405 55.7238C184.16 55.4779 183.846 55.3374 183.497 55.3374C183.148 55.3374 182.834 55.4603 182.59 55.7238C182.346 55.9697 182.206 56.2858 182.206 56.6371C182.206 56.9884 182.328 57.3045 182.59 57.5504C182.834 57.7962 183.148 57.9367 183.497 57.9367C183.846 57.9367 184.16 57.8138 184.405 57.5504C184.649 57.3045 184.789 56.9884 184.789 56.6371C184.771 56.2858 184.649 55.9872 184.405 55.7238Z" fill="#676767"/>
<path d="M186.778 69.8096H188.611V64.4004C188.611 63.5748 188.855 62.8723 189.344 62.2749C189.832 61.6781 190.443 61.3795 191.176 61.3795C192.729 61.3795 193.532 62.1871 193.585 63.7857V69.8275H195.417V63.68C195.417 62.4159 195.102 61.432 194.457 60.7471C193.811 60.0622 192.904 59.7109 191.7 59.7109C191.072 59.7109 190.478 59.869 189.902 60.1851C189.326 60.5013 188.907 60.9052 188.628 61.3795H188.523V60.0271H186.778V69.8096Z" fill="#676767"/>
<path d="M199.971 62.0294C200.459 61.6077 201.052 61.3968 201.75 61.3968C202.588 61.3968 203.251 61.6256 203.74 62.0646C204.228 62.5037 204.508 63.0653 204.56 63.7504H198.976C199.15 63.0306 199.482 62.4506 199.971 62.0294ZM204.543 69.441C205.31 68.9667 205.921 68.3346 206.357 67.5091L204.734 66.7009C204.071 67.8777 203.164 68.4571 201.995 68.4571C201.139 68.4571 200.424 68.159 199.813 67.579C199.203 66.9995 198.889 66.2271 198.854 65.2612H206.497L206.515 65.0676C206.515 63.3818 206.096 62.0646 205.241 61.116C204.385 60.1851 203.234 59.7109 201.803 59.7109C200.407 59.7109 199.255 60.2027 198.347 61.2038C197.44 62.205 197.003 63.4344 197.003 64.9272C197.003 66.4374 197.475 67.6847 198.4 68.668C199.325 69.6519 200.511 70.1435 201.942 70.1435C202.885 70.1435 203.775 69.8974 204.543 69.441Z" fill="#676767"/>
<path d="M212.831 64.1543L211.366 63.7678C210.319 63.5222 209.795 63.1357 209.795 62.5736C209.795 62.2224 209.987 61.9416 210.353 61.6955C210.737 61.4499 211.156 61.3442 211.627 61.3442C212.151 61.3442 212.604 61.4673 213.023 61.6955C213.442 61.9237 213.739 62.2576 213.931 62.6614L215.554 61.9768C215.274 61.2916 214.786 60.7296 214.088 60.3256C213.39 59.9041 212.622 59.7109 211.75 59.7109C210.633 59.7109 209.708 59.9743 208.975 60.5188C208.259 61.0634 207.893 61.7833 207.893 62.6614C207.893 64.0139 208.835 64.9446 210.737 65.4189L212.413 65.8406C213.372 66.1393 213.844 66.5957 213.844 67.2277C213.844 67.579 213.651 67.8777 213.25 68.1238C212.866 68.3693 212.378 68.5103 211.784 68.5103C211.243 68.5103 210.737 68.352 210.284 68.0181C209.83 67.6847 209.481 67.2277 209.237 66.6483L207.614 67.3508C207.928 68.1937 208.469 68.8615 209.202 69.3705C209.935 69.8801 210.807 70.1435 211.784 70.1435C212.901 70.1435 213.844 69.8448 214.576 69.2654C215.309 68.6859 215.693 67.9655 215.693 67.1053C215.728 65.6298 214.769 64.6459 212.831 64.1543Z" fill="#676767"/>
<path d="M221.873 64.1543L220.408 63.7678C219.361 63.5222 218.837 63.1357 218.837 62.5736C218.837 62.2224 219.029 61.9416 219.396 61.6955C219.779 61.4499 220.198 61.3442 220.669 61.3442C221.193 61.3442 221.646 61.4673 222.065 61.6955C222.485 61.9237 222.781 62.2576 222.973 62.6614L224.596 61.9768C224.317 61.2916 223.828 60.7296 223.13 60.3256C222.432 59.9041 221.664 59.7109 220.792 59.7109C219.675 59.7109 218.75 59.9743 218.017 60.5188C217.301 61.0634 216.935 61.7833 216.935 62.6614C216.935 64.0139 217.877 64.9446 219.779 65.4189L221.455 65.8406C222.414 66.1393 222.886 66.5957 222.886 67.2277C222.886 67.579 222.693 67.8777 222.292 68.1238C221.908 68.3693 221.42 68.5103 220.826 68.5103C220.285 68.5103 219.779 68.352 219.326 68.0181C218.872 67.6847 218.523 67.2277 218.279 66.6483L216.656 67.3508C216.97 68.1937 217.511 68.8615 218.244 69.3705C218.977 69.8801 219.849 70.1435 220.826 70.1435C221.943 70.1435 222.886 69.8448 223.619 69.2654C224.351 68.6859 224.735 67.9655 224.735 67.1053C224.77 65.6298 223.793 64.6459 221.873 64.1543Z" fill="#676767"/>
</svg>
