<svg width="184" height="168" viewBox="0 0 184 168" fill="none" xmlns="http://www.w3.org/2000/svg">
<g filter="url(#filter0_d)">
<path d="M59.4217 2.31948C62.6795 -1.53469 68.2934 0.50989 72.4732 0.803653C73.682 3.43577 77.0116 1.76722 78.0975 4.7166C78.7224 4.8106 79.9927 4.99862 80.6278 5.09262C80.0439 8.10076 84.0802 6.37341 83.4246 9.47555C83.9163 9.5108 84.91 9.59306 85.4017 9.62831C85.4325 10.1923 85.5042 11.3321 85.5349 11.8962C86.0164 11.9079 86.9794 11.9432 87.4506 11.9549C87.635 14.2698 89.4176 15.7503 90.6982 17.4424C91.2924 18.97 91.4255 21.0851 93.0237 21.7549C93.4539 25.1978 95.2365 28.1824 95.6258 31.6253C95.759 35.1035 95.677 38.5934 95.6361 42.0715C94.7141 43.5873 93.5564 45.0561 93.4642 46.995C92.2349 47.089 91.6407 47.8645 91.6919 49.3098C90.3396 49.3333 89.6123 50.0971 89.5303 51.6012C88.3215 51.8832 87.6453 52.7527 87.5019 54.2333L86.6926 53.7515C83.7626 51.9184 80.2693 53.1523 77.1652 52.036C66.6646 48.7458 58.4485 38.8519 54.3302 27.5479C52.3223 22.3659 52.5476 16.5964 52.3223 11.0619C53.6336 9.06429 54.9551 7.06669 56.2459 5.03385L56.922 4.45809C56.7376 2.54275 58.1002 2.42524 59.4217 2.31948ZM65.8143 11.5671C66.0704 12.2839 66.5929 13.7057 66.849 14.4225C64.7591 20.0275 69.656 25.139 74.1533 26.032C76.8169 27.0073 81.4577 27.2071 81.1094 31.6135C79.1936 31.5195 77.2779 31.3668 75.3827 31.1905C75.0343 35.691 79.2961 35.221 81.9392 35.9025C83.1275 37.0423 84.1212 39.3219 86.0574 38.3936C84.91 36.3138 84.531 33.9989 85.6477 31.7898C85.0228 29.5337 84.07 27.3481 82.4309 25.8675C79.3575 22.7302 74.9319 23.0709 71.4385 20.9676C71.3361 20.2155 71.1516 18.688 71.0594 17.9242C72.4322 18.1357 73.8357 18.3707 75.229 18.6057C75.2392 17.8302 75.2699 16.2673 75.2904 15.4918C72.4732 14.493 69.3077 14.0818 67.5763 11.0031C67.1358 11.1441 66.2548 11.4261 65.8143 11.5671Z" fill="#FCD839"/>
<path d="M52.3328 10.2285L52.3226 11.0628C52.548 16.5973 52.3226 22.3668 54.3305 27.5488C58.4488 38.8528 66.6649 48.7467 77.1655 52.0369C80.2695 53.1532 83.7629 51.9193 86.6928 53.7524C85.4737 55.7383 83.6195 56.8546 82.4414 58.8639C81.878 58.9227 80.7716 59.0284 80.2081 59.0872C77.2987 59.5924 74.3585 59.522 71.449 59.1694C69.1133 59.0872 66.6444 58.8992 64.9643 56.8076C59.7806 56.1378 56.7482 50.286 52.8348 46.9019C52.8655 44.9043 50.8883 44.5635 50.3351 42.9184C48.0301 38.5002 46.6369 33.565 45.6227 28.5711C44.5368 25.4454 46.1247 22.3785 46.7086 19.3587C48.1838 16.0098 50.2532 13.1074 52.3328 10.2285Z" fill="#D7A329"/>
<path d="M127.21 26.4552C128.06 25.4565 128.911 24.4224 129.843 23.5059C130.15 25.0334 130.458 26.5728 130.775 28.1121C131.994 28.3353 132.64 29.1696 132.722 30.6267C134.832 30.1214 136.738 32.6595 136.287 34.9744C132.773 34.9509 130.99 39.0871 130.058 42.4712C129.638 42.4359 128.788 42.3654 128.358 42.3419C128.317 40.5088 126.595 39.8626 126.401 38.1235C125.12 37.8885 124.516 37.0424 124.577 35.5854C123.082 35.5854 121.78 34.8568 120.428 34.2928C121.791 33.6818 122.088 31.7665 123.348 31.0967C125.202 30.4151 126.616 28.5586 127.21 26.4552Z" fill="#FDD444"/>
<path d="M52.3325 10.2274C53.4594 8.44136 54.6273 6.10299 56.2459 5.03369C54.9551 7.06653 53.6336 9.06413 52.3223 11.0617L52.3325 10.2274Z" fill="#D1D2D2"/>
<path d="M71.4502 59.1682C74.3596 59.5207 77.2998 59.5912 80.2093 59.0859C79.7688 59.4385 78.8877 60.1317 78.4472 60.4842C76.4905 60.4842 74.544 60.4372 72.6078 60.4137C72.321 60.1082 71.737 59.4855 71.4502 59.1682Z" fill="#DFEAF2"/>
<path d="M112.54 155.205C116.085 151.304 119.537 147.238 123.338 143.666C122.129 144.959 120.951 146.298 119.824 147.661C127.395 148.86 135.088 147.755 142.7 148.296C143.13 148.542 143.981 149.036 144.401 149.283C149.666 149.459 154.932 149.306 160.208 149.33C161.775 149.447 163.65 148.966 164.9 150.47C168.916 151.233 173.567 149.177 177.183 151.645C177.828 151.668 179.109 151.715 179.754 151.739L179.652 153.008C176.773 153.019 173.905 152.972 171.047 153.09C170.606 153.337 169.725 153.842 169.285 154.089C163.732 154.418 158.169 154.018 152.617 154.277C152.176 154.523 151.305 155.005 150.865 155.252C139.842 155.558 128.819 155.252 117.806 155.405C116.3 157.508 114.302 155.24 112.54 155.205Z" fill="#DFEAF2"/>
<path d="M41.4225 145.946C45.7047 146.463 50.0074 146.311 54.2998 146.029C67.8943 147.956 81.7551 145.171 95.3393 147.227C95.0525 149.037 94.8476 150.87 94.653 152.703C96.6609 153.878 98.6278 155.17 100.585 156.498C92.1328 156.439 83.6811 156.604 75.2396 156.416C74.8196 156.169 73.9796 155.676 73.5493 155.429C62.3623 155.323 51.1753 155.37 39.9985 155.429C40.7874 152.374 43.7889 151.504 45.1924 149.142C43.8811 148.144 42.4674 147.309 41.4225 145.946Z" fill="#DFEAF2"/>
<path d="M19.295 150.459C22.6348 148.062 26.9477 150.059 30.6767 149.143C32.869 150.929 35.5941 152.409 36.598 155.511C34.9384 155.147 32.828 156.017 31.6192 154.242C26.3535 154.043 21.0878 154.383 15.8427 154.101C15.4226 153.855 14.5826 153.337 14.1728 153.079C10.8638 152.433 6.77626 154.313 4 151.904C4.74785 151.822 6.24353 151.657 6.99138 151.575C10.7101 149.342 15.2485 151.105 19.295 150.459Z" fill="#DFEAF2"/>
<path d="M152.452 70.1907C153.507 69.4622 154.716 69.1097 155.873 68.6396C155.628 70.602 155.351 72.5526 155.044 74.5149C154.388 73.6806 153.784 72.8111 153.251 71.8945C153.251 75.6782 153.077 81.6827 148.344 80.9425C148.446 79.0624 148.426 77.0883 149.286 75.4197C149.686 76.0895 150.505 77.429 150.905 78.0988C151.294 75.4549 150.761 72.3293 152.452 70.1907Z" fill="#BD9726"/>
<path d="M130.929 103.08C135.221 100.942 140.507 105.207 140.097 110.577C140.108 116.852 132.691 120.365 128.859 115.9C125.222 112.41 126.421 104.808 130.929 103.08Z" fill="#FFFEFF"/>
<path d="M105.318 105.396C110.02 103.281 115.47 108.604 114.097 114.256C113.319 120.131 105.994 122.411 102.705 117.875C99.3862 114.197 100.872 106.912 105.318 105.396Z" fill="#FFFEFF"/>
<path d="M79.6452 107.757C83.8864 106.018 88.9062 110.166 88.3735 115.418C88.5477 121.857 80.5365 125.3 76.9714 120.353C73.4166 116.687 75.0967 109.202 79.6452 107.757Z" fill="#FFFEFF"/>
<path d="M65.8154 11.5679C66.2559 11.4269 67.137 11.1449 67.5775 11.0039C69.3088 14.0825 72.4744 14.4938 75.2916 15.4926C75.2711 16.2681 75.2404 17.831 75.2301 18.6065C73.8369 18.3715 72.4334 18.1365 71.0606 17.9249C71.1528 18.6887 71.3373 20.2163 71.4397 20.9683C74.9331 23.0717 79.3587 22.7309 82.432 25.8683C84.0712 27.3489 85.0239 29.5345 85.6488 31.7906C84.5322 33.9997 84.9112 36.3145 86.0586 38.3944C84.1224 39.3226 83.1287 37.0431 81.9403 35.9033C79.2972 35.2217 75.0355 35.6917 75.3838 31.1913C77.2791 31.3675 79.1948 31.5203 81.1105 31.6143C81.4588 27.2078 76.818 27.0081 74.1545 26.0328C69.6571 25.1398 64.7603 20.0283 66.8501 14.4233C66.594 13.7065 66.0715 12.2847 65.8154 11.5679Z" fill="#AB832D"/>
<path d="M97.2452 141.74C101.896 141.352 106.547 140.635 111.208 141.082C110.594 147.063 108.739 152.726 107.817 158.637C108.924 157.991 110.051 157.368 111.137 156.663C110.307 157.438 108.658 158.989 107.838 159.765L109.733 160H106.291C104.396 158.801 102.48 157.662 100.585 156.498C98.6282 155.171 96.6612 153.878 94.6533 152.703C94.848 150.87 95.0528 149.037 95.3397 147.227C95.4933 146.581 95.7905 145.277 95.9441 144.619C96.3539 143.643 96.7944 142.68 97.2452 141.74Z" fill="#27695D"/>
<path d="M140.047 80.7311C140.498 79.6853 140.959 78.6512 141.43 77.6172C141.297 82.0824 143.018 86.8648 146.87 88.5334C150.66 89.873 155.465 90.7778 159.091 88.5922C158.876 88.9447 158.466 89.6615 158.262 90.014C167.523 101.294 166.805 120.988 156.346 130.941C149.451 138.45 139.432 138.837 130.499 138.873C127.333 138.309 125.602 141.869 123.338 143.667C119.537 147.239 116.085 151.305 112.54 155.206C112.192 155.57 111.485 156.299 111.137 156.663C110.051 157.368 108.924 157.991 107.818 158.637C108.74 152.727 110.594 147.063 111.209 141.082C106.547 140.635 101.896 141.352 97.2453 141.74C96.7945 142.68 96.354 143.643 95.9442 144.619L96.4359 142.468C82.36 143.103 68.3557 145.006 54.3003 146.029C50.0078 146.311 45.7051 146.464 41.4229 145.947C40.0604 144.63 39.6609 141.646 37.7042 141.505C36.9358 142.774 36.3519 144.172 35.604 145.453C35.5528 144.865 35.4606 143.667 35.4196 143.068C34.0469 142.292 32.6946 141.528 31.3526 140.776C30.3691 138.873 29.3242 137.028 28.2075 135.242C23.0545 127.651 21.5896 116.923 24.6527 107.934C27.4597 99.2734 34.1084 92.2936 41.9864 90.1667C45.5003 89.215 49.1371 89.1092 52.7329 88.7802C81.8375 86.1011 110.942 83.3749 140.047 80.7311ZM150.363 90.954C150.517 92.5991 153.139 91.6238 154.184 91.9293C154.881 92.2466 158.046 91.5298 156.141 90.4605C154.236 90.3548 152.166 90.2607 150.363 90.954ZM130.929 103.081C126.422 104.808 125.223 112.411 128.86 115.9C132.691 120.366 140.108 116.852 140.098 110.577C140.508 105.207 135.222 100.942 130.929 103.081ZM105.318 105.395C100.872 106.911 99.3864 114.197 102.706 117.874C105.994 122.41 113.319 120.131 114.097 114.255C115.47 108.603 110.02 103.28 105.318 105.395ZM79.6452 107.757C75.0966 109.203 73.4165 116.688 76.9714 120.354C80.5365 125.301 88.5477 121.858 88.3735 115.419C88.9062 110.166 83.8864 106.018 79.6452 107.757ZM54.0954 110.084C50.8274 111.012 48.7375 115.207 49.2702 118.92C50.0591 122.187 52.5075 125.289 55.6935 125.089C60.0474 125.571 63.6945 120.107 62.3729 115.395C61.4919 111.341 57.5478 108.956 54.0954 110.084Z" fill="#43904C"/>
<path d="M36.7814 54.5977C37.7752 54.6094 38.7894 54.6212 39.8036 54.6329C40.0187 55.996 40.2544 57.359 40.5002 58.7221C41.9549 58.7221 42.713 59.4976 42.7847 61.0605C43.4301 61.2485 44.7414 61.6127 45.3868 61.8007C45.3561 63.4576 43.8502 63.4928 42.8462 64.0569C42.6311 65.4904 41.8832 66.2072 40.6129 66.1719C40.3158 67.5233 40.0392 68.8746 39.7933 70.2376C39.0557 70.2611 37.5805 70.3081 36.8429 70.3316C36.5356 68.8863 36.218 67.441 35.9106 66.0075C35.4804 66.0075 34.6198 65.9957 34.1793 65.9957C34.5481 63.6221 32.7349 63.5163 31.2187 63.2343C31.0445 61.46 32.5812 61.4247 33.6569 60.9077C33.8925 59.4507 34.6915 58.7221 36.0438 58.7221C36.2897 57.3473 36.5356 55.9725 36.7814 54.5977Z" fill="#FDD344"/>
<path d="M152.648 61.6483C154.389 61.5896 156.203 61.2136 157.934 61.7776C158.733 63.2699 160.075 63.7869 161.53 64.1512L161.714 65.2675C164.152 76.078 156.899 88.5688 146.87 88.5335C143.018 86.8649 141.297 82.0825 141.43 77.6173L141.86 76.548C142.782 73.8454 143.448 70.9782 145.241 68.8161C146.061 68.2051 146.685 67.3943 147.116 66.372C148.212 65.996 148.939 65.1735 149.288 63.8927C150.712 63.7987 151.879 63.0584 152.648 61.6483ZM152.453 70.191C150.763 72.3296 151.295 75.4552 150.906 78.099C150.507 77.4293 149.687 76.0897 149.288 75.4199C148.427 77.0885 148.447 79.0626 148.345 80.9427C153.078 81.683 153.252 75.6784 153.252 71.8948C153.785 72.8113 154.389 73.6809 155.045 74.5151C155.352 72.5528 155.629 70.6022 155.875 68.6399C154.717 69.1099 153.508 69.4624 152.453 70.191Z" fill="#FDD839"/>
<path d="M54.0963 110.084C57.5487 108.956 61.4929 111.341 62.3739 115.395C63.6954 120.107 60.0484 125.571 55.6945 125.089C52.5084 125.289 50.06 122.187 49.2712 118.92C48.7385 115.207 50.8283 111.012 54.0963 110.084Z" fill="#FFFDFF"/>
<path d="M161.715 65.2671C162.381 65.6901 163.067 66.1014 163.764 66.5126C164.184 67.1002 165.013 68.2635 165.433 68.851C166.776 74.1622 165.802 79.8847 162.944 84.3147C162.596 84.9492 161.889 86.2065 161.53 86.841C161.09 87.0056 160.188 87.3463 159.748 87.5226L159.092 88.5919C155.465 90.7775 150.661 89.8727 146.87 88.5331C156.9 88.5684 164.153 76.0776 161.715 65.2671Z" fill="#D9A427"/>
<path d="M92.7683 77.5461C103.966 75.3253 115.398 76.0421 126.606 74.0092C131.851 73.1514 136.779 75.5838 141.86 76.5473L141.43 77.6166C140.958 78.6507 140.498 79.6847 140.047 80.7305C110.942 83.3744 81.8374 86.1005 52.7328 88.7796C49.1369 89.1087 45.5001 89.2144 41.9863 90.1662C34.1082 92.293 27.4595 99.2729 24.6525 107.933C21.5894 116.922 23.0544 127.65 28.2074 135.241C29.324 137.027 30.369 138.872 31.3525 140.776C25.3901 137.568 19.7147 133.114 16.1701 126.616C12.2874 119.049 10.7302 109.378 13.8958 101.118C16.252 93.9851 21.0567 87.9688 27.2341 85.0195C33.135 81.2828 40.0705 82.9749 46.4631 81.8116C53.5728 80.6953 60.7235 80.0842 67.8946 79.861C76.1415 78.5802 84.4395 77.7694 92.7683 77.5461Z" fill="#68B557"/>
<path d="M150.364 90.9537C152.167 90.2604 154.236 90.3545 156.142 90.4602C158.047 91.5295 154.882 92.2463 154.185 91.9291C153.14 91.6235 150.517 92.5988 150.364 90.9537Z" fill="#7A8322"/>
<path d="M54.2993 146.029C68.3548 145.006 82.3591 143.103 96.4351 142.468L95.9433 144.619C95.7897 145.277 95.4926 146.581 95.3389 147.227C81.7546 145.171 67.8938 147.956 54.2993 146.029Z" fill="#F6F7F9"/>
<path d="M37.7045 141.505C39.6611 141.646 40.0607 144.631 41.4232 145.947C42.4681 147.31 43.8819 148.144 45.1932 149.143C43.7897 151.505 40.7881 152.374 39.9993 155.429L39.5075 156.357C38.8928 156.393 37.6738 156.487 37.0591 156.534L36.5981 155.511C35.5941 152.409 32.8691 150.929 30.6768 149.143C32.0085 148.473 33.8731 148.391 34.4877 146.569C34.7746 146.287 35.3277 145.735 35.6043 145.453C36.3522 144.172 36.9361 142.774 37.7045 141.505Z" fill="#FFD447"/>
<path d="M37.0605 156.534C37.6752 156.487 38.8942 156.393 39.5089 156.357L39.386 157.098C38.8635 157.121 37.7981 157.168 37.2654 157.192L37.0605 156.534Z" fill="#E8D18B"/>
</g>
<defs>
<filter id="filter0_d" x="0" y="0" width="183.754" height="168" filterUnits="userSpaceOnUse" color-interpolation-filters="sRGB">
<feFlood flood-opacity="0" result="BackgroundImageFix"/>
<feColorMatrix in="SourceAlpha" type="matrix" values="0 0 0 0 0 0 0 0 0 0 0 0 0 0 0 0 0 0 127 0"/>
<feOffset dy="4"/>
<feGaussianBlur stdDeviation="2"/>
<feColorMatrix type="matrix" values="0 0 0 0 0 0 0 0 0 0 0 0 0 0 0 0 0 0 0.25 0"/>
<feBlend mode="normal" in2="BackgroundImageFix" result="effect1_dropShadow"/>
<feBlend mode="normal" in="SourceGraphic" in2="effect1_dropShadow" result="shape"/>
</filter>
</defs>
</svg>
