<svg width="26" height="26" viewBox="0 0 26 26" fill="none" xmlns="http://www.w3.org/2000/svg">
<rect width="26" height="26" rx="5" fill="#00ACED"/>
<path d="M19.8413 8.42358L19.5076 8.54885C19.5076 8.54885 19.8955 7.86501 20.0123 7.53668C20.0709 7.37192 19.9825 7.28482 19.8799 7.23891C19.7715 7.19044 19.6467 7.20103 19.5419 7.25661C18.8406 7.62816 17.8251 7.74772 17.8251 7.74772C17.2914 7.12812 16.4231 6.97258 15.5417 6.96443C13.8881 6.94913 12.5015 8.25244 12.4737 9.90593C12.4704 10.1005 12.4859 10.2909 12.5181 10.4755C9.39353 10.3792 7.06018 7.62403 7.06018 7.62403C5.29048 8.38131 6.72585 11.1619 6.72585 11.1619C5.34681 11.9011 7.37726 14.0167 7.37726 14.0167C6.89128 15.5395 9.3525 16.5446 9.3525 16.5446C7.97635 17.4535 5.87307 17.2655 5.87307 17.2655C5.33287 17.4454 5.68267 17.8223 5.68267 17.8223C10.9246 20.8031 15.2015 17.7186 15.2015 17.7186C19.2946 14.7268 18.9636 10.36 18.9636 10.36L20.3654 8.80013C20.4943 8.62035 20.4046 8.51072 20.2827 8.44603C20.1469 8.37399 19.9852 8.36956 19.8413 8.42358Z" fill="white"/>
</svg>
