<svg width="48" height="48" viewBox="0 0 48 48" fill="none" xmlns="http://www.w3.org/2000/svg">
<rect width="48" height="48" rx="7" fill="#644382"/>
<path d="M33.4543 22.3261C33.4876 18.5698 30.1636 15.1262 26.0447 14.6501C25.9627 14.6407 25.8735 14.6265 25.779 14.6114C25.5751 14.5789 25.3642 14.5455 25.1515 14.5455C24.3073 14.5455 24.0816 15.1162 24.0222 15.4566C23.9644 15.7876 24.0195 16.0655 24.1857 16.283C24.4653 16.6489 24.9572 16.7139 25.3523 16.7659C25.4681 16.7813 25.5773 16.7956 25.6688 16.8154C29.3695 17.6113 30.6156 18.8626 31.2246 22.3942C31.2395 22.4805 31.2462 22.5868 31.2533 22.6996C31.2799 23.1217 31.3352 24 32.3163 24H32.3164C32.398 24 32.4858 23.9932 32.5772 23.9798C33.4907 23.8462 33.4621 23.0434 33.4484 22.6576C33.4445 22.549 33.4408 22.4462 33.4503 22.3779C33.4529 22.3607 33.4542 22.3434 33.4543 22.3261Z" fill="white"/>
<path d="M25.292 13.0454C25.3974 13.0527 25.4971 13.0597 25.5801 13.072C31.4207 13.9376 34.1066 16.6043 34.851 22.2769C34.8636 22.3733 34.8656 22.4909 34.8677 22.6154C34.8751 23.0586 34.8904 23.9806 35.9178 23.9997L35.9497 24C36.2719 24 36.5282 23.9064 36.7116 23.7215C37.0314 23.3991 37.0091 22.9201 36.9911 22.5352C36.9867 22.4408 36.9825 22.3519 36.9836 22.274C37.0578 16.4725 31.8468 11.2116 25.8321 11.016C25.8072 11.0152 25.7834 11.0165 25.7593 11.0197C25.7475 11.0214 25.7256 11.0235 25.6881 11.0235C25.6281 11.0235 25.5544 11.0185 25.4761 11.0134C25.3815 11.0072 25.2743 11 25.1655 11C24.2077 11 24.0256 11.6561 24.0023 12.0472C23.9486 12.9511 24.8559 13.0147 25.292 13.0454Z" fill="white"/>
<path d="M34.187 29.838C34.0643 29.7449 33.9375 29.6485 33.8188 29.5535C33.189 29.0497 32.5189 28.5853 31.8709 28.1362C31.7364 28.0431 31.6019 27.9499 31.4679 27.8565C30.6379 27.2769 29.8916 26.9953 29.1865 26.9953C28.2369 26.9953 27.409 27.5168 26.7256 28.5453C26.4229 29.0012 26.0556 29.2229 25.6029 29.2229C25.3353 29.2229 25.0311 29.1469 24.6991 28.9971C22.0198 27.7895 20.1066 25.9378 19.0125 23.4937C18.4836 22.3124 18.6551 21.5402 19.5859 20.9118C20.1144 20.5552 21.0982 19.8914 21.0285 18.6202C20.9496 17.1766 17.7452 12.8332 16.3951 12.3399C15.8234 12.1309 15.2228 12.129 14.6067 12.335C13.0546 12.8536 11.9408 13.7644 11.3854 14.9688C10.8487 16.1325 10.873 17.4989 11.4555 18.9203C13.1397 23.0299 15.5075 26.6129 18.4934 29.5697C21.4162 32.4641 25.0084 34.835 29.1704 36.6163C29.5455 36.7767 29.939 36.8642 30.2263 36.9281C30.3243 36.95 30.4088 36.9686 30.4704 36.9854C30.5043 36.9946 30.5392 36.9995 30.5742 36.9998L30.6071 37C30.6072 37 30.6071 37 30.6073 37C32.5648 37 34.9152 35.222 35.6371 33.1951C36.2695 31.4202 35.1148 30.5429 34.187 29.838Z" fill="white"/>
<path d="M26.6905 18.0917C26.317 18.1008 25.5398 18.1196 25.2671 18.8887C25.1395 19.2481 25.1548 19.5602 25.3126 19.8162C25.5441 20.1919 25.9877 20.307 26.3911 20.3702C27.8543 20.5983 28.6057 21.3845 28.756 22.8441C28.8259 23.5247 29.2975 24 29.9031 24H29.9032C29.9479 24 29.9937 23.9974 30.0392 23.992C30.7676 23.9078 31.1207 23.3879 31.0887 22.4467C31.1004 21.4645 30.5714 20.3494 29.6716 19.4611C28.7688 18.5702 27.6804 18.0684 26.6905 18.0917Z" fill="white"/>
<rect width="48" height="48" rx="7" stroke="white"/>
</svg>
