<svg width="48" height="48" viewBox="0 0 48 48" fill="none" xmlns="http://www.w3.org/2000/svg">
<rect width="48" height="48" rx="7" fill="#2CD44A"/>
<path d="M31.6256 27.1951L31.6131 27.2989C28.5683 25.7814 28.2499 25.5792 27.8567 26.1691C27.5839 26.5775 26.7891 27.5039 26.5496 27.778C26.3073 28.048 26.0663 28.0688 25.6551 27.8819C25.2397 27.6742 23.9063 27.238 22.3279 25.8257C21.0983 24.7249 20.2731 23.3749 20.0294 22.9596C19.6237 22.2589 20.4725 22.1592 21.2451 20.6971C21.3836 20.4063 21.313 20.1779 21.2105 19.9716C21.1067 19.7639 20.28 17.7285 19.9339 16.9171C19.6016 16.1085 19.2596 16.2109 19.0034 16.2109C18.2059 16.1417 17.623 16.1528 17.1093 16.6872C14.8745 19.1436 15.438 21.6774 17.3502 24.3719C21.108 29.29 23.1102 30.1955 26.7711 31.4528C27.7597 31.7671 28.6611 31.7228 29.3742 31.6203C30.169 31.4943 31.8208 30.622 32.1656 29.6459C32.5187 28.6697 32.5187 27.8597 32.4148 27.6728C32.3124 27.4859 32.041 27.382 31.6256 27.1951Z" fill="white"/>
<path d="M35.7971 12.1608C25.1508 1.8689 7.53153 9.33337 7.52461 23.8525C7.52461 26.7546 8.28477 29.5848 9.73307 32.084L7.38477 40.616L16.1563 38.3286C27.1017 44.2409 40.61 36.3902 40.6155 23.8608C40.6155 19.4632 38.8986 15.3246 35.7763 12.2148L35.7971 12.1608ZM37.8491 23.8151C37.8408 34.3838 26.2391 40.9843 17.0632 35.5898L16.5648 35.2935L11.3725 36.6435L12.764 31.5966L12.4331 31.0774C6.72292 21.9874 13.2832 10.1074 24.0998 10.1074C27.7746 10.1074 31.2237 11.5404 33.8212 14.1366C36.4174 16.7106 37.8491 20.1597 37.8491 23.8151Z" fill="white"/>
<rect width="48" height="48" rx="7" stroke="white"/>
</svg>
