<svg width="26" height="26" viewBox="0 0 26 26" fill="none" xmlns="http://www.w3.org/2000/svg">
<g clip-path="url(#clip0)">
<rect width="26" height="26" rx="5" fill="#C4302B"/>
<g clip-path="url(#clip1)">
<g clip-path="url(#clip2)">
<path d="M37.2893 20.0525C35.936 15.4028 34.4099 13.0004 34.3853 12.9573C34.2983 12.8511 32.1416 10.2703 26.9438 8.36139L26.257 10.2314C28.7298 11.1396 30.4841 12.2475 31.4489 12.9633C28.5685 12.1032 25.1418 11.5764 22.1069 11.5764C19.072 11.5764 15.6454 12.1032 12.765 12.9633C13.7297 12.2475 15.484 11.1396 17.9568 10.2314L17.27 8.36139C12.0723 10.2703 9.91568 12.8511 9.82868 12.9573C9.80405 13.0004 8.27783 15.4028 6.92461 20.0525C5.62039 24.5333 5.12493 30.8544 5.10693 31.1079C5.22314 31.2896 7.896 35.853 15.1803 35.853L17.0267 33.1794C14.9581 32.6302 12.9856 31.7444 11.1801 30.5425L12.2839 28.8842C15.1968 30.823 18.5936 31.848 22.1069 31.848C25.6203 31.848 29.017 30.823 31.9299 28.8842L33.0338 30.5425C31.2283 31.7444 29.2558 32.6302 27.1872 33.1794L29.0336 35.853C36.3179 35.853 38.9907 31.2896 39.1069 31.1079C39.0889 30.8544 38.5935 24.5333 37.2893 20.0525ZM17.5011 25.2642H15.5089V21.9439H17.5011V25.2642ZM28.7049 25.2642H26.7127V21.9439H28.7049V25.2642Z" fill="white"/>
</g>
</g>
<path d="M24.5648 4.59478e-08H1.43398C0.641907 0.000396774 -0.000198318 0.642898 4.59478e-08 1.43517V24.566C0.000396774 25.3581 0.642898 26.0002 1.43517 26H24.5648C25.3573 26.0002 25.9998 25.3579 26 24.5654C26 24.5652 26 24.565 26 24.5648V1.43398C25.9996 0.641907 25.3571 -0.000198318 24.5648 4.59478e-08Z" fill="white"/>
<path d="M11.3809 15.4354L15.6096 12.9998L11.3809 10.5643V15.4354Z" fill="#C4302B"/>
<path d="M24.1249 0H1.87514C0.839478 0 0 0.839478 0 1.87514V24.1249C0 25.1605 0.839478 26 1.87514 26H24.1249C25.1605 26 26 25.1605 26 24.1249V1.87514C26 0.839478 25.1605 0 24.1249 0V0ZM21.123 13.0133C21.123 13.0133 21.123 15.6497 20.7886 16.9211C20.6011 17.6169 20.0524 18.1656 19.3566 18.3529C18.0853 18.6875 13 18.6875 13 18.6875C13 18.6875 7.92802 18.6875 6.64342 18.3396C5.94756 18.1523 5.39888 17.6034 5.21143 16.9076C4.87679 15.6497 4.87679 13 4.87679 13C4.87679 13 4.87679 10.3637 5.21143 9.09242C5.39868 8.39656 5.96085 7.8344 6.64342 7.64714C7.91473 7.3125 13 7.3125 13 7.3125C13 7.3125 18.0853 7.3125 19.3566 7.66043C20.0524 7.84769 20.6011 8.39656 20.7886 9.09242C21.1365 10.3637 21.123 13.0133 21.123 13.0133Z" fill="#C4302B"/>
</g>
<defs>
<clipPath id="clip0">
<rect width="26" height="26" rx="5" fill="white"/>
</clipPath>
<clipPath id="clip1">
<rect width="15.7857" height="15.7857" fill="white" transform="translate(5.10693 5.10712)"/>
</clipPath>
<clipPath id="clip2">
<rect width="34" height="34" fill="white" transform="translate(5.10693 5.10712)"/>
</clipPath>
</defs>
</svg>
