<svg width="35" height="27" viewBox="0 0 35 27" fill="none" xmlns="http://www.w3.org/2000/svg">
<path fill-rule="evenodd" clip-rule="evenodd" d="M8.25226 0C3.69466 0 0 3.6826 0 8.22533C0 12.2711 2.93059 15.6347 6.79134 16.3222L2.3516 23.687C2.06589 24.161 2.21945 24.7769 2.69422 25.0612L5.69411 26.8578C6.16695 27.141 6.77979 26.9882 7.06433 26.5162L13.3718 16.0531C13.3718 16.0531 16.5045 11.881 16.5045 8.22533C16.5045 3.6826 12.8099 0 8.25226 0ZM26.7476 0C22.19 0 18.4954 3.6826 18.4954 8.22533C18.4954 12.2711 21.426 15.6347 25.2867 16.3222L20.847 23.687C20.5613 24.161 20.7148 24.7769 21.1896 25.0612L24.1895 26.8578C24.6623 27.141 25.2752 26.9882 25.5597 26.5162L31.8672 16.0531C31.8672 16.0531 34.9999 11.881 34.9999 8.22533C34.9999 3.6826 31.3052 0 26.7476 0Z" fill="url(#paint0_linear)"/>
<defs>
<linearGradient id="paint0_linear" x1="17.5" y1="0" x2="17.5" y2="27" gradientUnits="userSpaceOnUse">
<stop stop-color="#FD9D04"/>
<stop offset="1" stop-color="#FA7302"/>
</linearGradient>
</defs>
</svg>
