<svg width="22" height="22" viewBox="0 0 22 22" fill="none" xmlns="http://www.w3.org/2000/svg">
<mask id="mask0" mask-type="alpha" maskUnits="userSpaceOnUse" x="3" y="3" width="16" height="16">
<path fill-rule="evenodd" clip-rule="evenodd" d="M14.6667 7.33329C14.6667 9.35913 13.0259 11 11.0001 11C8.97425 11 7.33341 9.35913 7.33341 7.33329C7.33341 5.30746 8.97425 3.66663 11.0001 3.66663C13.0259 3.66663 14.6667 5.30746 14.6667 7.33329ZM3.66675 16.5C3.66675 14.0616 8.55258 12.8333 11.0001 12.8333C13.4476 12.8333 18.3334 14.0616 18.3334 16.5V17.4166C18.3334 17.9208 17.9209 18.3333 17.4167 18.3333H4.58341C4.07925 18.3333 3.66675 17.9208 3.66675 17.4166V16.5Z" fill="black"/>
</mask>
<g mask="url(#mask0)">
<rect width="22" height="22" fill="#F8913A"/>
</g>
</svg>
