<svg width="22" height="20" viewBox="0 0 22 20" fill="none" xmlns="http://www.w3.org/2000/svg">
<mask id="mask0" mask-type="alpha" maskUnits="userSpaceOnUse" x="3" y="3" width="14" height="14">
<path fill-rule="evenodd" clip-rule="evenodd" d="M13.3335 6.66666C13.3335 8.50833 11.8418 9.99999 10.0002 9.99999C8.1585 9.99999 6.66683 8.50833 6.66683 6.66666C6.66683 4.82499 8.1585 3.33333 10.0002 3.33333C11.8418 3.33333 13.3335 4.82499 13.3335 6.66666ZM3.3335 15C3.3335 12.7833 7.77516 11.6667 10.0002 11.6667C12.2252 11.6667 16.6668 12.7833 16.6668 15V15.8333C16.6668 16.2917 16.2918 16.6667 15.8335 16.6667H4.16683C3.7085 16.6667 3.3335 16.2917 3.3335 15.8333V15Z" fill="black"/>
</mask>
<g mask="url(#mask0)">
<rect width="20" height="20" fill="#8B8B8B"/>
</g>
</svg>
