<svg width="22" height="22" viewBox="0 0 22 22" fill="none" xmlns="http://www.w3.org/2000/svg">
<mask id="mask0" mask-type="alpha" maskUnits="userSpaceOnUse" x="3" y="5" width="16" height="12">
<path d="M8.06226 14.5519L4.88143 11.3711C4.71016 11.1995 4.47765 11.103 4.23518 11.103C3.9927 11.103 3.76019 11.1995 3.58893 11.3711C3.23143 11.7286 3.23143 12.3061 3.58893 12.6636L7.42059 16.4953C7.77809 16.8528 8.35559 16.8528 8.71309 16.4953L18.4114 6.79694C18.7689 6.43944 18.7689 5.86194 18.4114 5.50444C18.2402 5.33279 18.0077 5.23633 17.7652 5.23633C17.5227 5.23633 17.2902 5.33279 17.1189 5.50444L8.06226 14.5519Z" fill="black"/>
</mask>
<g mask="url(#mask0)">
<rect width="22" height="22" fill="#419681"/>
</g>
</svg>
