<svg width="222" height="110" viewBox="0 0 222 110" fill="none" xmlns="http://www.w3.org/2000/svg">
<g filter="url(#filter0_dd)">
<path fill-rule="evenodd" clip-rule="evenodd" d="M37.1148 15C33.1854 15 30 18.1854 30 22.1148V51.7598C30 55.6892 33.1854 58.8746 37.1148 58.8746H43.5437L42.1826 62.6821C41.7704 63.8352 42.6237 65.022 43.8286 64.8036C47.5193 64.1353 51.8733 62.1375 54.7352 59.9056C55.1661 59.5695 55.5826 59.2258 55.9849 58.8746H66.7598C70.6892 58.8746 73.8746 55.6892 73.8746 51.7598V22.1148C73.8746 18.1854 70.6892 15 66.7598 15H37.1148Z" fill="url(#paint0_linear)"/>
<path fill-rule="evenodd" clip-rule="evenodd" d="M37.1148 15C33.1854 15 30 18.1854 30 22.1148V51.7598C30 55.6892 33.1854 58.8746 37.1148 58.8746H43.5437L42.1826 62.6821C41.7704 63.8352 42.6237 65.022 43.8286 64.8036C47.5193 64.1353 51.8733 62.1375 54.7352 59.9056C55.1661 59.5695 55.5826 59.2258 55.9849 58.8746H66.7598C70.6892 58.8746 73.8746 55.6892 73.8746 51.7598V22.1148C73.8746 18.1854 70.6892 15 66.7598 15H37.1148Z" fill="url(#paint1_linear)"/>
<path fill-rule="evenodd" clip-rule="evenodd" d="M37.1148 15C33.1854 15 30 18.1854 30 22.1148V51.7598C30 55.6892 33.1854 58.8746 37.1148 58.8746H43.5437L42.1826 62.6821C41.7704 63.8352 42.6237 65.022 43.8286 64.8036C47.5193 64.1353 51.8733 62.1375 54.7352 59.9056C55.1661 59.5695 55.5826 59.2258 55.9849 58.8746H66.7598C70.6892 58.8746 73.8746 55.6892 73.8746 51.7598V22.1148C73.8746 18.1854 70.6892 15 66.7598 15H37.1148Z" fill="url(#paint2_linear)" fill-opacity="0.5"/>
<mask id="mask0" mask-type="alpha" maskUnits="userSpaceOnUse" x="30" y="15" width="44" height="50">
<path fill-rule="evenodd" clip-rule="evenodd" d="M37.1148 15C33.1854 15 30 18.1854 30 22.1148V51.7598C30 55.6892 33.1854 58.8746 37.1148 58.8746H43.5437L42.1826 62.6821C41.7704 63.8352 42.6237 65.022 43.8286 64.8036C47.5193 64.1353 51.8733 62.1375 54.7352 59.9056C55.1661 59.5695 55.5826 59.2258 55.9849 58.8746H66.7598C70.6892 58.8746 73.8746 55.6892 73.8746 51.7598V22.1148C73.8746 18.1854 70.6892 15 66.7598 15H37.1148Z" fill="url(#paint3_linear)"/>
<path fill-rule="evenodd" clip-rule="evenodd" d="M37.1148 15C33.1854 15 30 18.1854 30 22.1148V51.7598C30 55.6892 33.1854 58.8746 37.1148 58.8746H43.5437L42.1826 62.6821C41.7704 63.8352 42.6237 65.022 43.8286 64.8036C47.5193 64.1353 51.8733 62.1375 54.7352 59.9056C55.1661 59.5695 55.5826 59.2258 55.9849 58.8746H66.7598C70.6892 58.8746 73.8746 55.6892 73.8746 51.7598V22.1148C73.8746 18.1854 70.6892 15 66.7598 15H37.1148Z" fill="url(#paint4_linear)"/>
<path fill-rule="evenodd" clip-rule="evenodd" d="M37.1148 15C33.1854 15 30 18.1854 30 22.1148V51.7598C30 55.6892 33.1854 58.8746 37.1148 58.8746H43.5437L42.1826 62.6821C41.7704 63.8352 42.6237 65.022 43.8286 64.8036C47.5193 64.1353 51.8733 62.1375 54.7352 59.9056C55.1661 59.5695 55.5826 59.2258 55.9849 58.8746H66.7598C70.6892 58.8746 73.8746 55.6892 73.8746 51.7598V22.1148C73.8746 18.1854 70.6892 15 66.7598 15H37.1148Z" fill="url(#paint5_linear)" fill-opacity="0.35"/>
</mask>
<g mask="url(#mask0)">
<g style="mix-blend-mode:soft-light">
<path d="M30 22.1148C30 18.1854 33.1854 15 37.1148 15H66.7598C70.6892 15 73.8746 18.1854 73.8746 22.1148V51.7598C73.8746 55.6892 70.6892 58.8746 66.7598 58.8746H37.1148C33.1854 58.8746 30 55.6892 30 51.7598V22.1148Z" fill="white" fill-opacity="0.05"/>
</g>
<g filter="url(#filter1_f)">
<path d="M49.8621 63.855C55.5925 63.855 60.2378 61.6252 60.2378 58.8747C60.2378 56.1241 55.5925 53.8943 49.8621 53.8943C44.1317 53.8943 39.4863 56.1241 39.4863 58.8747C39.4863 61.6252 44.1317 63.855 49.8621 63.855Z" fill="#E97618"/>
</g>
<g filter="url(#filter2_dd)">
<path d="M53.2296 22.352H53.918C54.9746 22.394 56.0316 22.5899 57.0116 22.994C57.6751 23.2672 58.3299 23.6137 58.8197 24.1499C59.1047 24.4611 59.3279 24.8289 59.4728 25.2254C59.6381 25.6855 59.7 26.18 59.6763 26.6671C59.6509 27.1229 59.5515 27.5788 59.3557 27.9926C59.2017 28.2976 59.0488 28.6054 58.8484 28.8836C58.5972 29.237 58.2756 29.5477 57.8888 29.7485C57.4259 29.9871 56.8809 30.0808 56.3693 29.9667C55.7032 29.8294 55.1318 29.3214 54.9051 28.6825C54.8643 28.4864 54.8916 28.2741 54.9765 28.0929C55.0284 27.976 55.165 27.943 55.2803 27.9283C55.5312 27.8992 55.7696 28.0033 56.0162 28.026C56.1829 28.0479 56.3191 27.9162 56.3971 27.7834C56.4844 27.6501 56.5014 27.4875 56.5021 27.3321C56.5026 27.0691 56.5069 26.803 56.4519 26.5443C56.408 26.3249 56.2918 26.1292 56.1711 25.9443C55.9832 25.6637 55.6989 25.4692 55.4084 25.308C54.9457 25.0376 54.4085 24.929 53.8794 24.892C53.4267 24.8557 52.9685 24.8785 52.5235 24.9719C51.6954 25.154 50.9533 25.6329 50.3799 26.2495C49.9003 26.7532 49.5047 27.3601 49.3458 28.0441C49.1924 28.7029 49.2602 29.4151 49.5533 30.0265C49.8026 30.549 50.1932 30.9934 50.6459 31.3498C51.3083 31.8991 52.0279 32.3768 52.7759 32.8008C53.2255 33.0617 53.702 33.2701 54.1701 33.4945C54.6407 33.7224 55.1057 33.9617 55.5654 34.2107C55.8497 34.3689 56.1398 34.5176 56.4194 34.6838C56.828 34.9286 57.2158 35.2084 57.5758 35.5201C57.8454 35.7475 58.0838 36.0084 58.3446 36.2453C58.6935 36.5776 59.0127 36.9402 59.308 37.3208C59.4946 37.5642 59.6775 37.8115 59.8357 38.0748C60.2448 38.749 60.5213 39.5044 60.6385 40.2849C60.6804 40.5467 60.6968 40.8116 60.7122 41.076V41.5029C60.6894 42.0911 60.6377 42.6802 60.5147 43.2567C60.3287 44.1577 59.9931 45.03 59.506 45.8114C59.0846 46.4906 58.5526 47.0985 57.9507 47.6233C57.3728 48.1185 56.7443 48.5542 56.0864 48.9365C55.254 49.4165 54.3644 49.8007 53.4378 50.0571C52.6858 50.2703 51.9093 50.3741 51.134 50.4583C51.038 50.6092 50.9493 50.7647 50.8592 50.9194C50.6424 51.304 50.4659 51.72 50.1636 52.049C49.8541 52.4002 49.4229 52.6689 48.9481 52.704C48.5573 52.737 48.1638 52.5951 47.8633 52.3478C47.4818 52.0262 47.2595 51.5398 47.2088 51.0481C47.1832 50.8987 47.2823 50.7325 47.4367 50.7076C47.888 50.6184 48.3332 50.4846 48.7456 50.2788C48.803 50.2487 48.8646 50.225 48.9144 50.1827C48.9398 50.1109 48.8533 50.0755 48.7989 50.0604C48.4257 49.9657 48.0479 49.8872 47.6788 49.7763C47.186 49.6335 46.702 49.4613 46.2281 49.2645C45.8684 49.1136 45.5091 48.9564 45.1792 48.7467C44.6399 48.3462 44.1245 47.8989 43.7296 47.3513C43.3419 46.811 43.2145 46.1368 43.1624 45.487V45.0838C43.179 44.9285 43.2008 44.7731 43.2387 44.6213C43.3948 43.9559 43.7934 43.3632 44.3093 42.9211C45.0075 42.3195 45.94 41.9803 46.8642 42.0446C47.6129 42.0927 48.3298 42.3942 48.9282 42.8398C49.5448 43.2973 50.0485 43.8949 50.4432 44.5509C50.8762 45.2731 51.1902 46.0671 51.3593 46.8921C51.3764 46.9702 51.3838 47.051 51.4132 47.1262C51.7672 47.0491 52.1088 46.9244 52.4462 46.794C53.1736 46.5004 53.8635 46.1086 54.4737 45.6143C54.9658 45.2147 55.4091 44.7501 55.7565 44.2186C56.1165 43.6682 56.3776 43.0473 56.4777 42.3953C56.5076 42.1814 56.5491 41.9663 56.533 41.7496C56.5126 41.496 56.4616 41.2454 56.3824 41.0037C56.1566 40.3157 55.7228 39.7164 55.2212 39.2025C54.5809 38.5337 53.8462 37.9576 53.0538 37.4797C51.854 36.7877 50.6512 36.1006 49.4426 35.4238C48.2618 34.7787 47.1765 33.9484 46.2853 32.9374C45.7652 32.3635 45.3561 31.6828 45.1317 30.9396C44.8694 30.0832 44.878 29.1675 45.0177 28.2902C45.1986 27.1799 45.6997 26.1233 46.4527 25.2868C46.9398 24.7388 47.5204 24.2794 48.1413 23.8919C48.8302 23.4643 49.5647 23.1066 50.3374 22.8581C51.2709 22.5514 52.2489 22.3918 53.2296 22.352ZM45.486 44.8106C45.376 45.0036 45.3523 45.2325 45.3601 45.4509C45.3777 45.781 45.551 46.0884 45.7922 46.3085C46.1205 46.6118 46.535 46.7982 46.9498 46.9512C47.1682 47.0273 47.3826 47.1156 47.6058 47.1767C47.9762 47.2825 48.3571 47.3446 48.7359 47.412C48.862 47.4329 48.9872 47.4644 49.116 47.4632C48.8808 46.6327 48.461 45.8539 47.8956 45.2017C47.713 44.988 47.5105 44.7895 47.2757 44.6334C47.0127 44.456 46.7077 44.3275 46.388 44.3121C46.0256 44.2971 45.6732 44.5044 45.486 44.8106Z" fill="white"/>
</g>
</g>
</g>
<path d="M117.872 49.6553C117.528 49.6553 117.099 49.4262 116.583 48.9681C116.159 48.487 115.872 47.9773 115.723 47.439C115.689 47.2099 115.672 46.935 115.672 46.6143C115.672 45.9271 115.706 45.3258 115.775 44.8104H115.741C115.569 44.9822 115.288 45.343 114.898 45.8928C114.211 46.8663 113.535 47.7082 112.87 48.4183C112.297 49.0139 111.799 49.3117 111.375 49.3117H111.272C110.928 49.3117 110.504 49.0883 110 48.6416C109.461 48.0919 109.192 47.3531 109.192 46.4254C109.192 45.2456 109.73 42.9721 110.808 39.6048C111.151 38.6198 111.415 38.0872 111.598 38.007C111.69 37.9612 111.81 37.9383 111.959 37.9383C112.601 37.9383 113.225 38.2762 113.833 38.9519C114.073 39.2154 114.194 39.5303 114.194 39.8968C114.194 40.4237 113.884 41.5347 113.266 43.2298C112.314 45.9558 111.839 47.4447 111.839 47.6967C112.034 47.6967 112.756 46.9923 114.005 45.5835C114.864 44.5183 115.638 43.4589 116.325 42.4052C116.646 41.8783 116.915 41.2999 117.133 40.67C117.683 39.1008 118.153 38.3162 118.542 38.3162C119.024 38.3162 119.539 38.5854 120.089 39.1237C120.376 39.4673 120.519 39.8911 120.519 40.3951C120.519 41.0708 120.106 42.7602 119.281 45.4633C118.938 46.6773 118.766 47.3359 118.766 47.439C118.766 47.4505 118.772 47.4562 118.783 47.4562C118.943 47.3531 119.218 47.0668 119.608 46.5972C120.181 45.9214 121.315 44.5069 123.011 42.3536C123.687 41.5061 124.123 41.0823 124.318 41.0823H124.386C124.501 41.0823 124.633 41.1911 124.782 41.4087V41.4774C124.782 41.6263 124.197 42.4567 123.028 43.9686C121.631 45.8355 120.399 47.3817 119.333 48.6073C118.68 49.3059 118.193 49.6553 117.872 49.6553Z" fill="#2E3140"/>
<path d="M134.201 49.8958C133.846 49.8958 133.393 49.6553 132.843 49.1742C132.339 48.6015 132.087 47.9773 132.087 47.3016C132.087 46.5113 132.43 45.1368 133.118 43.1783C133.29 42.6285 133.376 42.3193 133.376 42.2505C133.364 42.2505 133.359 42.2448 133.359 42.2334C133.152 42.2906 132.614 42.7831 131.743 43.7109L130.523 45.1368C130.11 46.4655 129.812 47.4619 129.629 48.1262C129.629 48.3438 129.52 48.6932 129.302 49.1742C129.05 49.598 128.781 49.8099 128.494 49.8099C128.242 49.8099 127.881 49.6095 127.412 49.2086C126.873 48.6244 126.604 47.9601 126.604 47.2157C126.604 46.4368 126.988 44.9249 127.755 42.6801C128.065 41.7867 128.219 41.2827 128.219 41.1682C128.059 41.1682 127.515 41.655 126.586 42.6285C125.567 43.8426 124.988 44.6558 124.85 45.0681C124.667 45.5034 124.392 46.4082 124.025 47.7826C123.682 48.928 123.418 49.5293 123.235 49.5865C123.086 49.7125 122.948 49.7755 122.822 49.7755C122.501 49.7297 122.135 49.5407 121.722 49.2086C121.207 48.6932 120.949 48.1148 120.949 47.4734C120.949 47.0725 121.287 45.5148 121.963 42.8003C122.57 40.4065 123.04 38.8088 123.372 38.007C123.533 37.6749 123.727 37.5088 123.957 37.5088C124.381 37.5088 124.902 37.8982 125.521 38.677C125.819 39.0779 125.968 39.5017 125.968 39.9484C125.968 40.1545 125.87 40.6528 125.675 41.4431L125.658 41.5977C125.67 41.6206 125.681 41.6321 125.693 41.6321C125.922 41.4259 126.208 41.0995 126.552 40.6528C127.56 39.5418 128.305 38.9863 128.787 38.9863C129.279 38.9863 129.847 39.2841 130.488 39.8797C130.981 40.3836 131.227 40.962 131.227 41.6149C131.227 41.8783 131.21 42.1303 131.176 42.3708C132.448 40.8246 133.37 40.0515 133.943 40.0515C134.436 40.0515 134.997 40.3435 135.628 40.9277C136.166 41.466 136.435 42.1074 136.435 42.8519V43.0065C136.435 43.625 136.074 45.0051 135.353 47.1469C135.238 47.5364 135.152 47.8571 135.095 48.109C135.232 48.109 135.633 47.7769 136.298 47.1126L136.934 46.4082C137.656 45.5492 138.297 44.7245 138.859 43.9342C139.306 43.3043 139.827 42.6686 140.423 42.0272C140.549 41.9241 140.652 41.8726 140.732 41.8726C140.87 41.9642 140.939 42.0501 140.939 42.1303C140.939 42.3021 140.48 43.0122 139.564 44.2606C136.836 48.0174 135.049 49.8958 134.201 49.8958Z" fill="#2E3140"/>
<path d="M140.096 49.3117C139.672 49.3117 139.191 49.031 138.653 48.4698C138.297 48.0117 138.12 47.5077 138.12 46.958C138.12 46.6373 138.464 45.1139 139.151 42.388C139.724 40.1087 140.16 38.4709 140.457 37.4744C140.595 37.0964 140.75 36.9075 140.922 36.9075C141.151 36.9075 141.431 37.0105 141.764 37.2167C142.428 37.7321 142.841 38.2704 143.001 38.8317C143.036 38.992 143.053 39.1867 143.053 39.4158C143.053 39.9999 142.99 40.5153 142.864 40.962C142.864 41.1109 142.87 41.1854 142.881 41.1854C143.145 40.9334 143.442 40.5955 143.775 40.1717C145.104 38.7973 145.986 38.1101 146.422 38.1101H146.542C146.897 38.1101 147.356 38.3277 147.917 38.7629C148.364 39.1867 148.628 39.5131 148.708 39.7422C148.857 40.0056 148.931 40.3435 148.931 40.7559C148.931 41.3171 148.788 42.1475 148.502 43.247C148.364 43.7853 148.072 44.0545 147.625 44.0545C147.35 44.0545 147.012 43.9457 146.611 43.7281C145.832 43.3157 145.442 42.7889 145.442 42.1475C145.442 41.9298 145.488 41.7008 145.58 41.4602C145.797 40.7845 145.906 40.3893 145.906 40.2748C145.711 40.3092 144.978 40.9735 143.706 42.2677C142.743 43.4016 142.182 44.1976 142.022 44.6558C141.85 45.0681 141.58 45.9729 141.214 47.3703C140.916 48.3667 140.658 48.9566 140.44 49.1399C140.268 49.2544 140.154 49.3117 140.096 49.3117Z" fill="#2E3140"/>
<path d="M151.305 49.5694C150.686 49.5694 150.124 49.2487 149.62 48.6073C148.91 47.8055 148.555 46.8663 148.555 45.7897C148.555 44.5069 149.059 43.0237 150.067 41.34C150.376 40.8131 150.823 40.2404 151.408 39.622C152.714 38.2132 153.969 37.5088 155.172 37.5088H155.361C156.484 37.5088 157.481 38.0872 158.352 39.244C158.592 39.622 158.713 39.914 158.713 40.1202C158.713 40.3836 158.507 40.6127 158.094 40.8074H157.991C157.922 40.8074 157.848 40.7215 157.767 40.5497C157.664 40.4352 157.51 40.3779 157.303 40.3779C156.616 40.3779 155.791 40.7845 154.828 41.5977C153.957 42.4109 153.241 43.3501 152.68 44.4153C152.29 45.1254 151.923 45.9844 151.58 46.9923C151.419 47.4963 151.339 47.8227 151.339 47.9716C151.568 47.9716 152.187 47.5077 153.195 46.58C153.894 45.8584 154.45 45.2056 154.863 44.6214C155.31 43.9457 155.625 43.3787 155.808 42.9206C156.129 41.9585 156.427 41.34 156.702 41.0651C156.874 40.9277 157.046 40.8589 157.217 40.8589H157.355C157.733 40.8589 158.191 41.1052 158.73 41.5977C159.177 42.0787 159.4 42.514 159.4 42.9034C159.4 43.4761 158.936 44.7531 158.008 46.7346C157.63 47.4791 157.429 47.9258 157.406 48.0747C157.567 48.0747 158.146 47.5364 159.143 46.4597C160.082 45.3831 160.907 44.358 161.618 43.3844C162.076 42.6858 162.534 42.0558 162.993 41.4946C163.268 41.151 163.474 40.9792 163.611 40.9792C163.818 40.9792 163.921 41.0479 163.921 41.1854V41.2713C163.921 41.7523 162.62 43.6479 160.019 46.958C158.713 48.5844 157.722 49.3976 157.046 49.3976C156.656 49.3976 156.203 49.1685 155.688 48.7103C155.241 48.2522 155.017 47.6853 155.017 47.0095C155.017 46.8606 155.034 46.643 155.069 46.3566C154.656 46.9064 154.187 47.4676 153.659 48.0403C152.915 48.7848 152.451 49.2029 152.267 49.2945C151.969 49.4777 151.648 49.5694 151.305 49.5694Z" fill="#2E3140"/>
<path d="M164.282 49.6381C163.113 49.6381 162.128 48.9165 161.325 47.4734C161.005 46.8434 160.844 46.2192 160.844 45.6007C160.844 44.0774 161.726 42.3193 163.491 40.3263C164.144 39.6506 164.58 39.2497 164.797 39.1237C165.737 38.4136 166.516 38.0585 167.135 38.0585H167.273C167.891 38.0585 168.556 38.3964 169.266 39.0722C169.794 39.6334 170.057 40.1946 170.057 40.7559V40.8589C170.057 41.1796 169.851 41.529 169.438 41.9069C169.072 42.2849 168.779 42.4739 168.562 42.4739C168.447 42.4739 168.373 42.3823 168.338 42.199C168.338 42.0616 168.418 41.655 168.579 40.9792C168.613 40.8303 168.63 40.6871 168.63 40.5497C168.619 40.4466 168.59 40.3951 168.545 40.3951C167.983 40.4867 167.273 40.8876 166.413 41.5977C165.634 42.3536 165.147 42.8862 164.952 43.1955C164.425 43.8369 164.024 44.4038 163.749 44.8963C163.153 45.9729 162.855 46.8148 162.855 47.4218C162.855 47.9372 163.285 48.1949 164.144 48.1949C165.061 48.1949 165.995 47.8399 166.946 47.1298C167.576 46.7174 168.556 45.9042 169.885 44.6902C170.745 43.854 171.696 42.9149 172.738 41.8726C173.128 41.5175 173.374 41.3114 173.478 41.2541C173.615 41.3343 173.69 41.4144 173.701 41.4946C173.701 41.6435 173.197 42.2276 172.188 43.247C171.146 44.3465 170.263 45.3144 169.541 46.1505C168.59 47.2042 167.834 47.9544 167.273 48.4011C166.333 49.1456 165.565 49.5407 164.969 49.5865C164.775 49.6209 164.545 49.6381 164.282 49.6381Z" fill="#2E3140"/>
<path d="M178.531 27.2006C178.714 27.2006 179.408 27.0746 180.611 26.8226C181.264 26.6508 181.808 26.4561 182.244 26.2385C182.61 26.0667 182.96 25.809 183.292 25.4654C183.51 25.2019 183.619 24.9843 183.619 24.8125C183.619 24.5834 183.418 24.4231 183.017 24.3315L182.673 24.2971C181.791 24.2971 180.8 24.7781 179.7 25.7402C179.241 26.2213 178.852 26.7023 178.531 27.1834V27.2006ZM171.587 50.8579C171.255 50.8121 170.934 50.6689 170.624 50.4284C169.879 49.8557 169.507 49.2315 169.507 48.5557C169.507 47.8914 170.991 41.9757 173.959 30.8084C173.97 30.7855 173.976 30.7569 173.976 30.7225C173.036 30.6653 171.948 30.5851 170.71 30.482C169.484 30.3675 168.424 30.3102 167.53 30.3102C164.86 30.3102 162.5 30.6767 160.449 31.4098C159.75 31.6732 159.091 32.0225 158.472 32.4578C158.266 32.6181 158.1 32.767 157.974 32.9044C157.928 32.9044 157.893 33.1221 157.871 33.5573C157.825 33.6146 157.773 33.6432 157.716 33.6432C157.349 33.6432 157.063 33.2939 156.856 32.5952L156.839 32.2688C156.839 31.1921 157.67 30.1098 159.332 29.0217C159.939 28.6666 160.569 28.3631 161.222 28.1111C161.853 27.8935 162.494 27.7103 163.147 27.5614C164.545 27.2636 166.241 27.1147 168.235 27.1147C170 27.1147 172.229 27.1777 174.921 27.3037C175.357 25.975 175.672 25.0759 175.867 24.6063C176.119 24.068 176.463 23.5183 176.898 22.957C178.067 21.6742 179.35 21.0328 180.748 21.0328H180.989C182.066 21.0328 183.12 21.3936 184.151 22.1152C185.492 23.1689 186.163 24.4632 186.163 25.998C186.163 26.7195 185.951 27.4926 185.527 28.3173C185.378 28.6036 185.125 28.8957 184.77 29.1935C184.151 29.6974 183.315 30.0754 182.261 30.3274C181.035 30.6137 179.476 30.7913 177.586 30.86L177.431 31.4441C175.976 37.022 175.145 40.2519 174.939 41.1338C176.382 39.4043 177.385 38.5396 177.947 38.5396H178.032C178.365 38.5396 178.8 38.7343 179.339 39.1237C179.74 39.4444 180.009 39.7365 180.147 39.9999C180.33 40.3092 180.422 40.7158 180.422 41.2197C180.422 42.2162 179.958 44.1117 179.029 46.9064C178.903 47.3302 178.84 47.5822 178.84 47.6623C179.012 47.6165 179.413 47.2787 180.043 46.6487C180.055 46.6258 180.267 46.391 180.679 45.9443C181.447 45.028 182.192 44.0602 182.914 43.0408C183.258 42.5827 183.682 42.0902 184.186 41.5633C184.3 41.4602 184.381 41.4087 184.427 41.4087C184.484 41.4087 184.564 41.4774 184.667 41.6149L184.684 41.7008C184.684 41.884 184.014 42.869 182.673 44.6558C181.974 45.6179 181.184 46.6029 180.301 47.6108C179.556 48.424 179.041 48.9337 178.754 49.1399C178.468 49.3346 178.193 49.4319 177.929 49.4319C177.528 49.4319 177.041 49.157 176.468 48.6073C176.033 48.1148 175.815 47.4963 175.815 46.7518C175.815 45.9615 176.199 44.4439 176.967 42.199C177.265 41.3171 177.414 40.8188 177.414 40.7043C177.207 40.7043 176.526 41.3572 175.368 42.6629C174.509 43.6937 174.045 44.4439 173.976 44.9135C173.369 47.3416 172.928 48.9795 172.653 49.8271C172.4 50.5143 172.045 50.8579 171.587 50.8579Z" fill="#2E3140"/>
<path d="M184.65 49.5694C184.031 49.5694 183.47 49.2487 182.965 48.6073C182.255 47.8055 181.9 46.8663 181.9 45.7897C181.9 44.5069 182.404 43.0237 183.412 41.34C183.722 40.8131 184.169 40.2404 184.753 39.622C186.059 38.2132 187.314 37.5088 188.517 37.5088H188.706C189.829 37.5088 190.826 38.0872 191.697 39.244C191.938 39.622 192.058 39.914 192.058 40.1202C192.058 40.3836 191.852 40.6127 191.439 40.8074H191.336C191.267 40.8074 191.193 40.7215 191.113 40.5497C191.01 40.4352 190.855 40.3779 190.649 40.3779C189.961 40.3779 189.136 40.7845 188.174 41.5977C187.303 42.4109 186.587 43.3501 186.025 44.4153C185.635 45.1254 185.269 45.9844 184.925 46.9923C184.765 47.4963 184.684 47.8227 184.684 47.9716C184.914 47.9716 185.532 47.5077 186.541 46.58C187.24 45.8584 187.795 45.2056 188.208 44.6214C188.655 43.9457 188.97 43.3787 189.153 42.9206C189.474 41.9585 189.772 41.34 190.047 41.0651C190.219 40.9277 190.391 40.8589 190.563 40.8589H190.7C191.078 40.8589 191.537 41.1052 192.075 41.5977C192.522 42.0787 192.746 42.514 192.746 42.9034C192.746 43.4761 192.282 44.7531 191.353 46.7346C190.975 47.4791 190.775 47.9258 190.752 48.0747C190.912 48.0747 191.491 47.5364 192.488 46.4597C193.427 45.3831 194.252 44.358 194.963 43.3844C195.421 42.6858 195.88 42.0558 196.338 41.4946C196.613 41.151 196.819 40.9792 196.957 40.9792C197.163 40.9792 197.266 41.0479 197.266 41.1854V41.2713C197.266 41.7523 195.966 43.6479 193.364 46.958C192.058 48.5844 191.067 49.3976 190.391 49.3976C190.001 49.3976 189.549 49.1685 189.033 48.7103C188.586 48.2522 188.363 47.6853 188.363 47.0095C188.363 46.8606 188.38 46.643 188.414 46.3566C188.002 46.9064 187.532 47.4676 187.005 48.0403C186.26 48.7848 185.796 49.2029 185.613 49.2945C185.315 49.4777 184.994 49.5694 184.65 49.5694Z" fill="#2E3140"/>
<path d="M207.373 59.637C210.249 59.5225 211.991 59.4022 212.598 59.2762C213.687 59.1159 214.575 58.9326 215.262 58.7265C216.477 58.3714 217.451 57.9877 218.184 57.5754C218.666 57.3005 219.158 56.9455 219.663 56.5102C220.213 55.8803 220.488 55.4565 220.488 55.2389C220.488 55.0556 220.218 54.8265 219.68 54.5517C219.049 54.231 218.328 53.9332 217.514 53.6583C216.884 53.4636 216.082 53.2689 215.108 53.0742C214.306 52.9138 212.736 52.8336 210.398 52.8336C207.98 52.8336 205.952 52.9768 204.313 53.2631C203.236 53.412 200.652 53.79 196.561 54.397C196.642 54.9468 196.842 55.4966 197.163 56.0463C197.587 56.7565 198.509 57.4838 199.93 58.2282C200.549 58.5146 201.156 58.7437 201.752 58.9155C202.417 59.1102 203.488 59.2992 204.967 59.4824C205.998 59.5855 206.8 59.637 207.373 59.637ZM207.94 62.9528H207.356C203.139 62.9528 199.61 61.6414 196.768 59.0185C195.484 57.7587 194.619 56.3384 194.172 54.7578C191.457 55.1129 188.437 55.445 185.114 55.7543C183.693 55.9146 182.158 55.9948 180.508 55.9948C176.634 55.9948 173.993 55.823 172.584 55.4794C171.942 55.342 171.352 55.1873 170.813 55.0155C169.977 54.7635 168.734 54.1737 167.083 53.246C166.121 52.6962 165.456 52.0548 165.09 51.3218C165.009 51.1614 164.969 51.0068 164.969 50.8579C164.969 50.6632 165.032 50.5658 165.158 50.5658C165.25 50.5658 166.046 50.8808 167.548 51.5107C168.407 51.8658 169.53 52.198 170.916 52.5072C172.544 52.8394 174.772 53.0054 177.603 53.0054C180.628 53.0054 185.217 52.7191 191.371 52.1464L193.725 51.8715C193.714 51.6997 193.708 51.4077 193.708 50.9953L193.725 49.4147C193.806 48.4526 193.903 47.5421 194.018 46.6831C194.063 45.5721 194.774 42.4853 196.149 37.4229L196.579 35.8079C196.12 35.785 195.691 35.7736 195.29 35.7736C194.029 35.7736 193.244 35.9339 192.935 36.2546C192.855 36.3691 192.814 36.4608 192.814 36.5295C192.814 36.5639 192.855 36.6956 192.935 36.9246C192.935 37.0163 192.923 37.0621 192.9 37.0621C192.763 37.0621 192.608 36.833 192.436 36.3749C192.356 36.1343 192.316 35.8595 192.316 35.5502C192.316 34.4163 193.645 33.8494 196.304 33.8494H197.094C197.908 30.7684 198.481 28.6609 198.813 27.527C199.145 26.4504 199.438 25.6143 199.69 25.0187C199.85 24.6751 200.056 24.5033 200.309 24.5033C200.606 24.5033 200.996 24.6865 201.477 25.053C202.142 25.6601 202.474 26.2156 202.474 26.7195C202.474 27.1089 202.085 28.7697 201.305 31.7018L200.687 34.0899L201.546 34.1758C202.474 34.2331 203.265 34.2617 203.918 34.2617C206.221 34.2617 207.642 33.9181 208.181 33.2309L208.301 33.1793C208.461 33.1793 208.593 33.5859 208.696 34.3991V34.6225C208.696 35.2181 208.313 35.6991 207.545 36.0656C206.857 36.352 205.86 36.4951 204.554 36.4951C203.786 36.4951 202.32 36.3749 200.154 36.1343C198.721 41.655 197.73 45.532 197.18 47.7654C196.756 49.6553 196.544 50.8121 196.544 51.2359C196.544 51.2702 196.544 51.2989 196.544 51.3218C196.556 51.3561 196.561 51.3905 196.561 51.4248C196.573 51.4707 196.59 51.4936 196.613 51.4936C201.827 50.8522 204.674 50.5315 205.156 50.5315C206.439 50.4169 207.619 50.3597 208.696 50.3597C211.653 50.3597 214.449 50.7548 217.084 51.5451C218.058 51.8658 218.872 52.2094 219.525 52.5759C220.35 53.0341 220.94 53.6067 221.295 54.294C221.651 54.9926 221.828 55.6627 221.828 56.3041C221.828 57.4265 221.135 58.5375 219.748 59.637C218.179 60.7824 216.059 61.6815 213.389 62.3344C211.441 62.7467 209.625 62.9528 207.94 62.9528Z" fill="#2E3140"/>
<path d="M99.6439 46.5232C98.8296 46.7465 98.17 47.4339 98.17 48.2783V49.414C98.17 49.6575 98.3645 49.8568 98.6079 49.8568C101.1 49.8568 103.421 49.0496 105.564 47.4456C107.738 45.8194 108.827 43.5767 108.827 40.7472C108.827 39.3588 108.401 38.1116 107.554 37.0151C107.161 36.4871 106.723 36.0084 106.241 35.5793C105.593 34.9161 104.862 34.3774 104.047 33.9635C103.223 33.5091 102.393 33.0943 101.558 32.7189C101.44 32.6602 101.322 32.6022 101.204 32.5448C100.114 31.9692 99.1747 31.3356 98.3851 30.6455C97.6553 29.952 97.3073 29.1778 97.3073 28.3143C97.3073 27.4235 97.6974 26.5682 98.5285 25.7439C99.2238 25.0536 100.007 24.6495 100.883 24.5246C101.026 24.5184 101.161 24.5186 101.29 24.525C101.316 24.5263 101.341 24.519 101.361 24.504C101.38 24.4908 101.401 24.4834 101.424 24.4831C101.445 24.4828 101.466 24.4826 101.488 24.4826C102.493 24.4826 103.217 24.6856 103.698 25.0513C104.022 25.297 104.253 25.629 104.383 26.0614C104.505 26.4621 104.457 26.8893 104.38 27.3008L104.278 27.8451C104.274 27.8688 104.273 27.893 104.274 27.9171C104.294 28.2169 104.411 28.4746 104.647 28.6476C104.87 28.8114 105.165 28.8734 105.493 28.8734C106.204 28.8734 106.783 28.5892 107.197 28.0212C107.6 27.4703 107.792 26.7913 107.792 26.0033V25.9999L107.792 25.9965C107.776 25.3176 107.602 24.7133 107.262 24.1938C106.923 23.6756 106.429 23.2571 105.796 22.9319C104.554 22.2943 103.176 21.9778 101.668 21.9778C99.4244 21.9778 97.4047 22.6102 95.6172 23.8764L95.6163 23.877L95.6153 23.8777C93.8356 25.1605 92.9336 26.8933 92.9336 29.0538C92.9336 30.2989 93.3668 31.4126 94.219 32.3852C95.0509 33.3346 96.0505 34.1394 97.2152 34.8005L97.2165 34.8013L97.2179 34.802C98.387 35.4486 99.5411 36.0952 100.68 36.7417L100.683 36.7431L100.685 36.7444C101.8 37.3472 102.75 38.0833 103.537 38.9518C104.039 39.5051 104.372 40.0956 104.543 40.7258C104.566 40.8339 104.585 40.9389 104.599 41.0414C104.63 41.2615 104.618 41.4848 104.591 41.7054C104.298 44.0885 102.03 45.8688 99.6439 46.5232Z" fill="#2E3140"/>
<mask id="mask1" mask-type="alpha" maskUnits="userSpaceOnUse" x="90" y="40" width="11" height="10">
<path d="M91.7452 41.8701C90.122 43.6815 90.2369 46.5394 92.3623 47.7598C95.0453 49.3002 97.361 49.6628 98.9091 49.6751C100.011 49.6838 100.569 48.5759 100.134 47.5654C100.052 47.3763 100.003 47.1752 99.9877 46.9703L99.9074 45.8942C99.8168 44.6806 99.3616 43.5198 98.601 42.5628L98.0778 41.9045C97.4184 41.0748 96.4594 40.5343 95.4077 40.3995C94.0907 40.2308 92.7789 40.7166 91.8987 41.6988L91.7452 41.8701Z" fill="white"/>
</mask>
<g mask="url(#mask1)">
<path fill-rule="evenodd" clip-rule="evenodd" d="M96.5037 52.0478C96.8218 52.1859 97.1974 52.0523 97.349 51.7502C97.4362 51.5422 97.5209 51.3316 97.5966 51.1159C97.6853 50.8611 97.7637 50.6013 97.8312 50.3388C98.1496 48.9583 98.1909 47.8452 97.9229 46.4841C97.336 44.0073 95.1951 41.9328 93.2854 43.5027C91.3726 45.2524 94.4295 47.2608 94.7251 47.4551L94.7333 47.4605C95.0267 47.6552 95.3258 47.8332 95.6351 47.9996L95.635 47.9979C96.0369 48.2086 96.2978 48.3272 96.7383 48.5183C96.7287 48.8216 96.7021 49.1242 96.6539 49.4207C96.5842 49.8582 96.4807 50.2921 96.3496 50.7172C96.2887 50.9039 96.2239 51.09 96.1542 51.2757C96.0473 51.5767 96.1971 51.9116 96.5037 52.0478ZM96.5302 46.8781C96.1717 46.6917 95.721 46.4574 95.3936 46.2363C95.3886 46.2329 95.385 46.2279 95.3834 46.2221C94.8896 45.8949 93.731 45.07 94.2914 44.4946C94.7697 44.0597 95.4493 44.6656 95.7668 45.112C96.1544 45.6534 96.4294 46.2606 96.5754 46.9016L96.5302 46.8781Z" fill="#2E3140"/>
<path fill-rule="evenodd" clip-rule="evenodd" d="M98.5346 52.2668L98.5162 52.3035C98.0736 53.1853 96.9636 53.6031 95.9856 53.1785L95.9805 53.1763L95.9755 53.1741C95.058 52.7667 94.6079 51.7625 94.9289 50.8587L94.9324 50.8488L94.936 50.839C94.998 50.6738 95.0562 50.5071 95.1113 50.3386C95.1816 50.11 95.2422 49.8803 95.2924 49.6504C95.3419 49.4238 95.2251 49.1938 95.0159 49.0812C94.6738 48.8972 94.3401 48.6989 94.0112 48.4807L94.0057 48.4771L94.0056 48.477C94.0032 48.4755 94.0007 48.4738 93.998 48.472C93.8227 48.357 92.6343 47.6512 91.9361 46.7256C91.5778 46.2506 91.4088 45.6489 91.3694 44.8726C91.3269 44.0351 91.6734 43.2482 92.3854 42.5969L92.4097 42.5747L92.4353 42.5537C93.1167 41.9935 93.908 41.6942 94.7483 41.716C95.5696 41.7373 96.2972 42.0613 96.8842 42.4991C98.0312 43.3547 98.8419 44.7811 99.1843 46.2261L99.1897 46.2486L99.1941 46.2713C99.4983 47.8156 99.4466 49.0992 99.0947 50.625L99.0914 50.6396L99.0877 50.654C99.012 50.9481 98.9242 51.2395 98.8244 51.526L98.8239 51.5273L98.8234 51.5287C98.7365 51.7764 98.6416 52.0117 98.5505 52.2291L98.5346 52.2668ZM95.6343 47.9992C95.6346 47.9993 95.6348 47.9994 95.6351 47.9996L95.635 47.9979C95.6353 47.998 95.6356 47.9982 95.6358 47.9983C95.6366 47.9987 95.6374 47.9991 95.6381 47.9995C96.0383 48.2093 96.2989 48.3277 96.7383 48.5183C96.7287 48.8216 96.7021 49.1242 96.6539 49.4207C96.6277 49.5853 96.5967 49.7493 96.5613 49.9126C96.5025 50.1834 96.4314 50.452 96.3496 50.7172C96.3086 50.843 96.2657 50.9686 96.2209 51.0939C96.2099 51.1246 96.1987 51.1553 96.1875 51.1859C96.1861 51.1898 96.1846 51.1937 96.1832 51.1976C96.1738 51.2232 96.1643 51.2488 96.1547 51.2743C96.1546 51.2748 96.1544 51.2752 96.1542 51.2757C96.0473 51.5767 96.1971 51.9116 96.5037 52.0478C96.8218 52.1859 97.1974 52.0523 97.349 51.7502C97.3546 51.7368 97.3603 51.7234 97.3659 51.71C97.3685 51.7036 97.3712 51.6972 97.3738 51.6908C97.3815 51.6722 97.3892 51.6537 97.3968 51.6352C97.4103 51.6025 97.4236 51.5698 97.4368 51.537C97.4928 51.3984 97.5466 51.2582 97.5966 51.1159C97.6853 50.8611 97.7637 50.6013 97.8312 50.3388C97.9335 49.895 98.0073 49.4789 98.0513 49.0733C98.1 48.624 98.1123 48.1877 98.0868 47.7411C98.0636 47.3363 98.0093 46.9231 97.9229 46.4841C97.336 44.0073 95.1951 41.9328 93.2854 43.5027C91.7324 44.9233 93.4553 46.5145 94.3167 47.1667C94.5162 47.3178 94.6695 47.4185 94.7251 47.4551L94.7333 47.4605C95.0257 47.6546 95.3239 47.832 95.6321 47.998C95.6328 47.9984 95.6336 47.9988 95.6343 47.9992ZM95.3834 46.2221C95.385 46.2279 95.3886 46.2329 95.3936 46.2363C95.721 46.4574 96.1717 46.6917 96.5302 46.8781L96.5754 46.9016C96.5698 46.877 96.564 46.8524 96.558 46.8279C96.4899 46.5492 96.3974 46.2771 96.2818 46.0144C96.2805 46.0116 96.2793 46.0087 96.278 46.0059C96.1897 45.8062 96.088 45.612 95.9735 45.4244C95.9699 45.4185 95.9663 45.4126 95.9627 45.4067C95.901 45.3065 95.8357 45.2082 95.7668 45.112C95.6766 44.9852 95.5572 44.8455 95.4215 44.7205C95.0795 44.4054 94.6338 44.1833 94.2914 44.4946C93.9742 44.8202 94.2077 45.2258 94.5596 45.5758C94.6242 45.6401 94.6929 45.7026 94.7629 45.7623C94.7638 45.7631 94.7648 45.764 94.7658 45.7648C94.9871 45.9533 95.2211 46.1146 95.3834 46.2221Z" fill="#2E3140"/>
<path fill-rule="evenodd" clip-rule="evenodd" d="M96.4637 52.1394L96.4629 52.1391C96.1404 51.9959 95.966 51.6607 96.0313 51.3367C96.0422 51.2831 96.1007 51.2566 96.1535 51.2754L95.9713 51.207C95.9665 51.2052 95.964 51.1999 95.9657 51.1951C95.9743 51.1724 95.9827 51.1496 95.9911 51.1268C95.9924 51.1231 95.9938 51.1193 95.9952 51.1156C95.996 51.1135 95.9967 51.1114 95.9975 51.1094C96.0078 51.0811 96.018 51.0529 96.0282 51.0246C96.0314 51.0157 96.0346 51.0067 96.0377 50.9978C96.0783 50.8837 96.1172 50.7694 96.1546 50.6547C96.2347 50.395 96.3041 50.1323 96.3616 49.8677C96.3617 49.8673 96.3618 49.8668 96.3619 49.8663C96.3823 49.7722 96.4012 49.678 96.4185 49.5835C96.4383 49.475 96.5425 49.4019 96.6539 49.4207C96.5982 49.4111 96.5604 49.3592 96.5683 49.3046C96.5838 49.1984 96.5965 49.0914 96.6068 48.9839C96.6237 48.8069 96.5175 48.6409 96.3512 48.5668C96.0728 48.4428 95.8478 48.3352 95.5443 48.1762L95.5439 48.1759L95.5443 48.1762M95.8713 47.8951C96.1358 48.0305 96.3481 48.129 96.6303 48.253C96.734 48.2986 96.7825 48.417 96.7383 48.5183C96.7947 48.5209 96.839 48.5677 96.8366 48.6229C96.8252 48.8796 96.8015 49.1359 96.7626 49.3884C96.7584 49.4157 96.7774 49.4416 96.8053 49.4463C96.8331 49.451 96.8521 49.4769 96.8476 49.504C96.8226 49.6558 96.7936 49.807 96.7609 49.9574C96.7607 49.9587 96.7604 49.9599 96.7601 49.9611C96.7003 50.2364 96.6281 50.5091 96.5451 50.7782L96.5446 50.7797L96.5441 50.7812C96.5025 50.9087 96.4591 51.036 96.4136 51.1631M95.8713 47.8951C95.8258 47.8718 95.7788 47.8475 95.7296 47.8217C95.7292 47.8215 95.7288 47.8216 95.7286 47.8219M95.5362 48.1735L95.5392 48.1751L95.5992 48.0653L95.5975 48.0685L95.5392 48.1751M95.5988 48.0661L95.5975 48.0685L95.5412 48.1745L95.5988 48.0661ZM95.5362 48.1735C95.5176 48.1635 95.499 48.1534 95.4804 48.1433C95.2015 47.9913 94.9301 47.8295 94.6634 47.6542C94.6398 47.6387 94.6334 47.6076 94.6489 47.5848L94.6745 47.547C94.6759 47.5449 94.6753 47.5421 94.6732 47.5407C94.671 47.5393 94.6704 47.5365 94.6718 47.5344L94.7251 47.4551L94.6161 47.6174C94.6147 47.6195 94.6117 47.6201 94.6095 47.6186C94.5493 47.579 94.394 47.4766 94.1937 47.3248C94.1443 47.2874 94.0917 47.2467 94.0369 47.203C93.7862 47.0029 93.4919 46.7422 93.2262 46.44C93.0624 46.2536 92.909 46.0508 92.783 45.8358C92.8531 45.9555 92.9312 46.0705 93.0137 46.1799C93.0813 46.2695 93.1527 46.3563 93.2262 46.44C93.4938 46.7445 93.7889 47.005 94.0369 47.203C94.3128 47.4233 94.5358 47.5702 94.6095 47.6186M92.758 45.7923C92.726 45.7357 92.6959 45.6781 92.668 45.6195C92.5506 45.3734 92.4718 45.1108 92.4579 44.8378C92.4556 44.7915 92.4551 44.7451 92.4566 44.6987C92.4581 44.6513 92.4617 44.6038 92.4675 44.556C92.5174 44.1427 92.7283 43.7361 93.145 43.3549C92.6771 43.7829 92.4714 44.2409 92.4566 44.6987C92.4461 45.0221 92.5314 45.3331 92.668 45.6195C92.6829 45.6507 92.6984 45.6817 92.7145 45.7123C92.7285 45.7392 92.743 45.7658 92.758 45.7923ZM93.3557 43.5767C93.8156 43.1999 94.2828 43.0465 94.732 43.0582C95.1841 43.0699 95.6286 43.2491 96.0393 43.5554C96.8507 44.1606 97.5144 45.2516 97.8105 46.4519C97.8172 46.479 97.7994 46.5057 97.7716 46.5105C97.7444 46.5153 97.7267 46.5407 97.7319 46.5674C97.7447 46.6342 97.7568 46.7003 97.7681 46.7659C97.8267 47.106 97.8647 47.4306 97.8829 47.7491C97.8852 47.7889 97.8872 47.8285 97.8888 47.8681C97.9027 48.1974 97.8953 48.5222 97.8672 48.8527C97.8617 48.9178 97.8554 48.9832 97.8483 49.0488C97.8216 49.2945 97.7837 49.5448 97.7348 49.8037C97.7076 49.9475 97.677 50.0939 97.6431 50.2435C97.637 50.27 97.6541 50.2967 97.6812 50.3032C97.7089 50.3098 97.7259 50.3373 97.7189 50.3641C97.6594 50.5903 97.5918 50.8142 97.5164 51.0346C97.5074 51.0607 97.4784 51.0742 97.4517 51.0648C97.4251 51.0554 97.3961 51.0689 97.3868 51.0948C97.3454 51.2103 97.3014 51.3248 97.2556 51.4388C97.2527 51.4461 97.2498 51.4533 97.2469 51.4606C97.2341 51.4921 97.2213 51.5237 97.2083 51.5552C97.208 51.5559 97.2077 51.5567 97.2074 51.5574C97.2004 51.5744 97.1934 51.5914 97.1863 51.6084C97.1857 51.6098 97.1852 51.6112 97.1846 51.6125C97.182 51.6188 97.1794 51.6252 97.1767 51.6315C97.1675 51.6535 97.1784 51.679 97.201 51.6884L97.2053 51.6903C97.2317 51.7013 97.2435 51.732 97.2282 51.7555C97.0858 51.974 96.7931 52.0643 96.544 51.9563C96.3025 51.8488 96.1786 51.597 96.2358 51.3601C96.2423 51.3332 96.2719 51.3199 96.2985 51.3299L96.3446 51.3472C96.3453 51.3475 96.3461 51.3471 96.3464 51.3464L96.3465 51.3463C96.3551 51.3232 96.3637 51.3001 96.3722 51.277C96.3733 51.2741 96.3743 51.2713 96.3753 51.2684C96.3768 51.2646 96.3782 51.2607 96.3796 51.2569L96.3797 51.2566M97.349 51.7502C97.3997 51.7754 97.4212 51.8362 97.3898 51.8817C97.1912 52.1692 96.8004 52.2856 96.4637 52.1394M97.349 51.7502L97.5315 51.8264C97.5351 51.8279 97.5392 51.8263 97.5406 51.8228C97.5481 51.805 97.5556 51.7871 97.563 51.7692L97.563 51.7691C97.5704 51.7513 97.5778 51.7335 97.5851 51.7157C97.5855 51.7147 97.5859 51.7138 97.5863 51.7129C97.5988 51.6824 97.6113 51.6518 97.6237 51.6212C97.6247 51.6186 97.6258 51.6161 97.6268 51.6135C97.659 51.5336 97.6907 51.453 97.7214 51.3716C97.7603 51.2683 97.7033 51.1535 97.5966 51.1159C97.6499 51.1345 97.708 51.1075 97.7256 51.0552C97.7914 50.8596 97.8513 50.6614 97.9048 50.4614C97.9191 50.4081 97.8859 50.3532 97.8312 50.3388C97.9411 50.3649 98.0506 50.299 98.0738 50.1912C98.0879 50.1262 98.1012 50.0617 98.114 49.9976C98.1755 49.6891 98.2224 49.3911 98.2543 49.0977C98.2588 49.0556 98.2631 49.0136 98.267 48.9717C98.3035 48.5838 98.3132 48.2033 98.2949 47.8161C98.2936 47.7884 98.2922 47.7607 98.2906 47.733C98.2876 47.6805 98.2841 47.6279 98.28 47.5751C98.2666 47.3986 98.2474 47.2202 98.2224 47.0386C98.2046 46.9097 98.184 46.7791 98.1603 46.6464C98.1409 46.5372 98.0335 46.4647 97.9229 46.4841C97.9778 46.4724 98.012 46.419 97.9983 46.3652C97.6886 45.1473 97.0096 44.0293 96.1611 43.3964C95.7244 43.0707 95.239 42.8708 94.7342 42.8577C94.2548 42.8452 93.7675 43.0015 93.298 43.3626C93.2539 43.3965 93.2488 43.4599 93.2854 43.5027M93.3557 43.5767C93.3944 43.6174 93.3925 43.6806 93.3531 43.7196C93.0102 44.0591 92.8767 44.3948 92.8649 44.712C92.8557 44.9608 92.9208 45.2109 93.0386 45.457C93.0508 45.4825 93.0635 45.5079 93.0768 45.5333C93.0892 45.5569 93.102 45.5803 93.1151 45.6036C93.1228 45.6172 93.1306 45.6307 93.1385 45.6442C93.1984 45.7459 93.2663 45.8462 93.3404 45.9444C93.402 46.0261 93.4672 46.1054 93.5345 46.182C93.7782 46.459 94.0518 46.7019 94.2895 46.8918C94.5494 47.0993 94.7614 47.2394 94.8335 47.2869C94.8346 47.2875 94.8356 47.2882 94.8366 47.2889C94.8366 47.2889 94.8367 47.289 94.8366 47.289L94.7836 47.368C94.7821 47.3702 94.7827 47.3732 94.785 47.3747C94.7872 47.3762 94.7879 47.3791 94.7864 47.3813L94.7333 47.4605C94.7953 47.3691 94.922 47.3457 95.0172 47.4064C95.249 47.5539 95.4852 47.6917 95.7279 47.8224M95.3239 46.3099C95.2948 46.3529 95.2352 46.3641 95.1913 46.3344C95.0762 46.2565 94.9353 46.1574 94.7904 46.0436C94.7382 46.0026 94.6855 45.9597 94.6335 45.9154L94.6304 45.9128C94.5572 45.8503 94.4845 45.7842 94.4155 45.7156C94.337 45.6376 94.2605 45.5534 94.1925 45.4647C94.1013 45.3457 94.0255 45.2184 93.9809 45.0864C93.9792 45.0814 93.9775 45.0763 93.9759 45.0712C93.9721 45.0592 93.9685 45.0472 93.9653 45.0351C93.9623 45.0242 93.9596 45.0133 93.9571 45.0024C93.9543 44.9906 93.9519 44.9788 93.9497 44.967C93.9346 44.8841 93.9326 44.7982 93.9494 44.7113C93.9534 44.6903 93.9585 44.6695 93.9647 44.649C93.9945 44.549 94.05 44.4525 94.1347 44.3631C94.1374 44.3603 94.1401 44.3575 94.1428 44.3548L94.147 44.3505L94.1514 44.3464C94.1527 44.3452 94.154 44.3441 94.1553 44.3429C94.2707 44.2392 94.3966 44.1805 94.5252 44.1568C94.576 44.1474 94.6277 44.1433 94.6798 44.1443C94.7594 44.1459 94.8376 44.1591 94.9131 44.1808C94.9862 44.2018 95.0568 44.2307 95.1239 44.2645C95.1461 44.2757 95.168 44.2874 95.1894 44.2996C95.2043 44.308 95.2192 44.3168 95.234 44.3258C95.3522 44.398 95.4622 44.4853 95.5599 44.5753C95.5612 44.5765 95.5625 44.5776 95.5638 44.5788C95.6085 44.6202 95.6514 44.6629 95.6921 44.7059C95.7705 44.7889 95.8408 44.8734 95.9006 44.9537C95.9119 44.9688 95.9228 44.9838 95.9334 44.9987C96.0049 45.0986 96.0728 45.2008 96.1369 45.3049C96.1407 45.3111 96.1444 45.3172 96.1482 45.3233C96.1592 45.3413 96.17 45.3594 96.1808 45.3775C96.2866 45.5558 96.3815 45.7398 96.465 45.9284C96.4681 45.9353 96.4711 45.9422 96.4741 45.9491C96.5921 46.2189 96.6866 46.4981 96.7565 46.7841C96.757 46.7863 96.7575 46.7884 96.758 46.7906M95.6004 45.2256C95.6644 45.3149 95.7251 45.4061 95.7826 45.4989C95.7845 45.5021 95.7865 45.5053 95.7884 45.5084C95.7919 45.5141 95.7954 45.5197 95.7988 45.5254C95.902 45.6945 95.9943 45.8691 96.0753 46.0484C96.0806 46.06 96.0858 46.0717 96.091 46.0833C96.0922 46.0861 96.0934 46.0888 96.0946 46.0915C96.1836 46.2938 95.9677 46.4685 95.7744 46.3557C95.6765 46.2985 95.5826 46.2411 95.4963 46.1844C95.4667 46.165 95.427 46.1719 95.4072 46.2004L95.4 46.2107C95.3961 46.2164 95.3902 46.2204 95.3834 46.2221C95.4455 46.1305 95.4192 46.0062 95.3265 45.9415C95.2363 45.8786 95.1379 45.8071 95.0391 45.7294C94.992 45.6923 94.9447 45.6539 94.8981 45.6142L94.8953 45.6118C94.8286 45.5549 94.764 45.496 94.7037 45.436C94.6312 45.364 94.5678 45.2929 94.5153 45.2242C94.4578 45.1489 94.4144 45.0775 94.3859 45.0115C94.3792 44.996 94.3733 44.9808 94.3683 44.9657C94.3669 44.9617 94.3656 44.9578 94.3644 44.9538C94.3632 44.9499 94.362 44.9459 94.3609 44.942C94.3588 44.9346 94.3569 44.9273 94.3553 44.9201C94.3543 44.916 94.3535 44.9119 94.3526 44.9079C94.3441 44.8648 94.344 44.8265 94.3506 44.7921C94.3521 44.7842 94.3541 44.7762 94.3565 44.7681C94.3684 44.728 94.3921 44.6848 94.4358 44.6388C94.491 44.5899 94.5484 44.5616 94.6095 44.5506C94.6323 44.5465 94.6553 44.5449 94.6783 44.5454C94.7177 44.5461 94.76 44.5529 94.8048 44.5658C94.8368 44.575 94.87 44.5873 94.9044 44.6028C94.932 44.6152 94.9604 44.6296 94.9894 44.6461C94.9924 44.6478 94.9953 44.6495 94.9983 44.6512C95.01 44.6579 95.0216 44.6649 95.0332 44.6722C95.1192 44.7259 95.2038 44.7926 95.2832 44.8658C95.3114 44.8918 95.3391 44.9187 95.3658 44.946C95.4413 45.023 95.5101 45.104 95.5688 45.1822C95.5795 45.1966 95.59 45.2109 95.6 45.225L95.6004 45.2256ZM95.3239 46.3099L95.3288 46.3132L95.3239 46.3099ZM95.3288 46.3132C95.628 46.5164 96.0289 46.7297 96.3678 46.9063L95.3288 46.3132ZM96.3678 46.9063C96.3682 46.9078 96.3685 46.9094 96.3689 46.9109C96.373 46.9283 96.3905 46.9394 96.4082 46.9358C96.4157 46.9343 96.4236 46.9354 96.4305 46.9389C96.4473 46.9477 96.464 46.9564 96.4805 46.965C96.5071 46.9788 96.5398 46.969 96.5535 46.9431L96.5754 46.9016M98.6996 52.3945C98.21 53.3699 96.9851 53.8304 95.9057 53.3618L95.8997 53.3592L95.8939 53.3566C94.8809 52.9068 94.3792 51.7944 94.736 50.7899L94.7401 50.7784L94.7443 50.767C94.805 50.6052 94.8621 50.4417 94.9163 50.2761C94.984 50.0556 95.0425 49.8343 95.091 49.6132C95.1221 49.4717 95.0508 49.3271 94.92 49.2568C94.5728 49.07 94.2337 48.8685 93.8993 48.6466L93.8989 48.6464L93.8952 48.644L93.8951 48.6439L93.8941 48.6432L93.894 48.6431L93.8865 48.6382C93.8729 48.6293 93.8518 48.616 93.8243 48.5987C93.5223 48.4082 92.4371 47.724 91.7728 46.8434C91.3809 46.3239 91.206 45.6775 91.1655 44.8794C91.1196 43.9754 91.496 43.1342 92.245 42.4491L92.2732 42.4233L92.3028 42.399C93.0165 41.8123 93.8543 41.4922 94.7504 41.5155C95.6247 41.5382 96.3931 41.883 97.0059 42.3401C98.2007 43.2313 99.0326 44.7043 99.3831 46.1836L99.3893 46.2099L99.3945 46.2363C99.7046 47.8108 99.6513 49.1226 99.2939 50.6723L99.29 50.6893L99.2856 50.7061C99.2087 51.0053 99.1192 51.302 99.0176 51.5936L99.017 51.5954L99.0166 51.5967C98.9278 51.8497 98.8312 52.089 98.7394 52.3079L98.721 52.3519L98.6996 52.3945ZM95.3063 50.401L95.3058 50.4027C95.2498 50.5737 95.1908 50.743 95.1277 50.911L95.1247 50.9192L95.1218 50.9274C94.8365 51.7306 95.235 52.6265 96.057 52.9915L96.0606 52.9931L96.0621 52.9938L96.0656 52.9953C96.9421 53.3758 97.9372 53.0006 98.3329 52.2125L98.3483 52.1818L98.3615 52.1502C98.452 51.9343 98.5452 51.7031 98.6303 51.4606L98.6307 51.4596L98.6308 51.4593L98.6311 51.4584C98.7291 51.177 98.8154 50.8908 98.8897 50.6019L98.8928 50.5899L98.8956 50.5777C99.2419 49.0758 99.2919 47.8203 98.9937 46.3063L98.99 46.2874L98.9855 46.2686C98.6512 44.8578 97.8616 43.4781 96.7624 42.6581C96.2013 42.2396 95.5146 41.9364 94.7462 41.9165C93.9616 41.8961 93.2169 42.1747 92.5677 42.7083L92.5463 42.726L92.5258 42.7447C91.8508 43.3622 91.5342 44.0949 91.5733 44.8659C91.6116 45.6202 91.7746 46.1773 92.0994 46.6079C92.7121 47.4201 93.7239 48.0611 94.039 48.2608C94.0692 48.2799 94.093 48.295 94.1095 48.3058L94.116 48.3101L94.1161 48.3101L94.1171 48.3108L94.1173 48.3109L94.1236 48.3151C94.4467 48.5295 94.7749 48.7245 95.1117 48.9057L95.4615 49.0939C95.5389 49.1355 95.5814 49.2204 95.5673 49.305C95.5063 49.6708 95.4182 50.0369 95.3068 50.3994L95.3063 50.401Z" fill="#2E3140"/>
<path d="M95.3087 46.5093C95.7834 46.6923 96.4492 46.7918 97.0987 46.9037C97.1311 46.9091 97.1578 46.8795 97.148 46.8489C96.8474 45.908 96.3682 45.0951 95.7372 44.45C95.4391 44.1428 94.9639 43.8211 94.4883 43.7775C93.6727 43.7029 93.1243 44.7996 93.5688 45.4734C93.9937 46.1176 94.9841 46.384 95.3087 46.5093Z" fill="#FAFAFC"/>
</g>
<path d="M99.045 49.7608L97.5857 49.1711C97.5712 49.1652 97.5548 49.1666 97.5416 49.1748L97.4023 49.2614C97.3993 49.2633 97.4008 49.2679 97.4044 49.2678C97.4075 49.2677 97.4092 49.2716 97.407 49.2738C97.2196 49.4553 96.9884 49.593 96.7462 49.7116C96.3454 49.9008 95.9153 50.0308 95.4724 50.1174C95.3328 50.136 95.2235 50.2666 95.233 50.4317L95.2331 50.4335L95.2333 50.4353C95.2794 50.9599 95.5491 51.5171 95.9967 51.8222C96.454 52.146 97.0126 52.168 97.4566 51.9904L97.4568 51.9903C97.9916 51.7748 98.3851 51.3156 98.653 50.8025L98.6534 50.8015C98.9112 50.2952 98.9614 50.3482 99.045 49.7608C99.0149 49.9696 97.8915 49.1856 99.045 49.7608Z" fill="#2E3140"/>
<path d="M97.6982 49.3164C97.3054 49.0732 96.8806 49.469 96.5299 49.7579C96.3335 49.9197 96.1688 50.1285 96.1919 50.3835L96.1955 50.4228C96.22 50.6941 96.4207 50.9202 96.6888 50.9788L96.8676 51.0179C97.2184 51.0945 97.5767 50.9489 97.7686 50.6519L98.0167 50.2679C98.2078 49.9722 98.1144 49.5741 97.8098 49.3855L97.6982 49.3164Z" fill="#2E3140"/>
<path d="M98.9676 47.6589L97.6585 48.0407C97.6462 48.0443 97.6362 48.0533 97.6315 48.0652L97.5721 48.2126C97.571 48.2154 97.5744 48.2178 97.5767 48.2159C97.5788 48.2142 97.5819 48.216 97.5814 48.2187C97.5338 48.4616 97.4347 48.6963 97.3189 48.9228C97.1239 49.2922 96.8805 49.6335 96.6078 49.9494C96.5177 50.0425 96.5016 50.2028 96.5855 50.3217L96.5864 50.323L96.5873 50.3243C96.8654 50.6936 97.3167 50.9608 97.7759 50.9374C98.2508 50.9226 98.6562 50.6231 98.8871 50.238L98.8872 50.2379C99.1646 49.7728 99.2281 49.2041 99.1776 48.6658L99.1775 48.6648C99.1229 48.1373 99.1832 48.149 98.9676 47.6589C99.0439 47.8333 97.8828 47.8783 98.9676 47.6589Z" fill="#2E3140"/>
<path d="M97.8422 48.0827C97.4101 48.1258 97.2948 48.6451 97.1918 49.0636C97.1878 49.0798 97.1832 49.0961 97.1779 49.1126C97.1108 49.3229 97.1014 49.5583 97.2366 49.7368C97.392 49.942 97.6711 50.0093 97.8989 49.8963L98.0711 49.811C98.3261 49.6846 98.4853 49.4248 98.4826 49.1395L98.4778 48.6502C98.4746 48.3136 98.1785 48.0492 97.8422 48.0827Z" fill="#2E3140"/>
<path d="M98.9519 50.2817L97.4141 50.1594C97.4002 50.1583 97.3875 50.1511 97.3793 50.1397L97.2779 49.9982C97.2759 49.9954 97.2789 49.992 97.282 49.9935C97.2847 49.9949 97.2876 49.9922 97.2863 49.9894C97.1744 49.7453 97.0076 49.5207 96.8244 49.3083C96.519 48.963 96.1669 48.6573 95.7889 48.3845C95.6668 48.3062 95.6097 48.1418 95.673 47.9995L95.6737 47.998L95.6744 47.9965C95.8904 47.5511 96.3225 47.1758 96.8345 47.103C97.3616 47.0178 97.8819 47.2454 98.2308 47.5996L98.231 47.5997C98.6508 48.0277 98.8602 48.6094 98.9365 49.1835L98.9366 49.1846C99.0058 49.7482 99.0694 49.7232 98.9519 50.2817C98.9932 50.0831 97.7021 50.282 98.9519 50.2817Z" fill="#2E3140"/>
<path d="M97.573 50.0799C97.1084 50.1243 96.8667 49.5892 96.644 49.1768C96.6406 49.1706 96.6372 49.1644 96.6336 49.1582C96.5073 48.9386 96.4335 48.6797 96.5432 48.4553C96.6601 48.216 96.93 48.0924 97.1922 48.1582L97.4182 48.2149C97.7404 48.2957 97.9908 48.5518 98.0629 48.8742L98.164 49.326C98.2455 49.6907 97.992 50.0399 97.6199 50.0754L97.573 50.0799Z" fill="#2E3140"/>
<path d="M107.673 26.6804L105.733 26.1225C105.716 26.1176 105.698 26.1206 105.683 26.1308L105.494 26.263C105.49 26.2656 105.492 26.2715 105.497 26.2708C105.501 26.2702 105.503 26.275 105.501 26.278C105.259 26.5296 104.952 26.7369 104.626 26.9233C104.086 27.2235 103.498 27.4581 102.886 27.6431C102.692 27.6911 102.555 27.8676 102.588 28.0636L102.588 28.0658L102.589 28.0679C102.717 28.6881 103.163 29.3062 103.829 29.5896C104.51 29.8937 105.297 29.8176 105.899 29.5233L105.899 29.5232C106.624 29.1669 107.122 28.5446 107.436 27.8805L107.436 27.8793C107.737 27.2253 107.626 27.3995 107.673 26.6804C107.655 26.936 107.723 26.3391 107.673 26.6804Z" fill="#2E3140"/>
<path d="M105.562 26.3893C105.02 26.1651 104.538 26.7408 104.096 27.126C104.087 27.1341 104.078 27.1421 104.068 27.15C103.808 27.3605 103.606 27.6587 103.663 27.9884C103.719 28.3059 103.981 28.5465 104.302 28.574L104.763 28.6137C105.209 28.652 105.64 28.4407 105.882 28.0645L106.113 27.7073C106.401 27.2594 106.214 26.6594 105.722 26.4555L105.562 26.3893Z" fill="#2E3140"/>
<defs>
<filter id="filter0_dd" x="0" y="0" width="103.875" height="109.83" filterUnits="userSpaceOnUse" color-interpolation-filters="sRGB">
<feFlood flood-opacity="0" result="BackgroundImageFix"/>
<feColorMatrix in="SourceAlpha" type="matrix" values="0 0 0 0 0 0 0 0 0 0 0 0 0 0 0 0 0 0 127 0"/>
<feOffset dy="15"/>
<feGaussianBlur stdDeviation="15"/>
<feColorMatrix type="matrix" values="0 0 0 0 0.937255 0 0 0 0 0.470588 0 0 0 0 0.0509804 0 0 0 0.15 0"/>
<feBlend mode="normal" in2="BackgroundImageFix" result="effect1_dropShadow"/>
<feColorMatrix in="SourceAlpha" type="matrix" values="0 0 0 0 0 0 0 0 0 0 0 0 0 0 0 0 0 0 127 0"/>
<feOffset dy="15"/>
<feGaussianBlur stdDeviation="15"/>
<feColorMatrix type="matrix" values="0 0 0 0 0.937255 0 0 0 0 0.47451 0 0 0 0 0.0588235 0 0 0 0.1 0"/>
<feBlend mode="normal" in2="effect1_dropShadow" result="effect2_dropShadow"/>
<feBlend mode="normal" in="SourceGraphic" in2="effect2_dropShadow" result="shape"/>
</filter>
<filter id="filter1_f" x="-34.5137" y="-20.1057" width="168.752" height="157.961" filterUnits="userSpaceOnUse" color-interpolation-filters="sRGB">
<feFlood flood-opacity="0" result="BackgroundImageFix"/>
<feBlend mode="normal" in="SourceGraphic" in2="BackgroundImageFix" result="shape"/>
<feGaussianBlur stdDeviation="37" result="effect1_foregroundBlur"/>
</filter>
<filter id="filter2_dd" x="23.1624" y="12.352" width="57.5499" height="70.3567" filterUnits="userSpaceOnUse" color-interpolation-filters="sRGB">
<feFlood flood-opacity="0" result="BackgroundImageFix"/>
<feColorMatrix in="SourceAlpha" type="matrix" values="0 0 0 0 0 0 0 0 0 0 0 0 0 0 0 0 0 0 127 0"/>
<feOffset dy="10"/>
<feGaussianBlur stdDeviation="10"/>
<feColorMatrix type="matrix" values="0 0 0 0 0.886275 0 0 0 0 0.482353 0 0 0 0 0.133333 0 0 0 0.1 0"/>
<feBlend mode="normal" in2="BackgroundImageFix" result="effect1_dropShadow"/>
<feColorMatrix in="SourceAlpha" type="matrix" values="0 0 0 0 0 0 0 0 0 0 0 0 0 0 0 0 0 0 127 0"/>
<feOffset dy="10"/>
<feGaussianBlur stdDeviation="10"/>
<feColorMatrix type="matrix" values="0 0 0 0 0.886275 0 0 0 0 0.482353 0 0 0 0 0.133333 0 0 0 0.1 0"/>
<feBlend mode="normal" in2="effect1_dropShadow" result="effect2_dropShadow"/>
<feBlend mode="normal" in="SourceGraphic" in2="effect2_dropShadow" result="shape"/>
</filter>
<linearGradient id="paint0_linear" x1="30" y1="15" x2="79.6768" y2="58.6176" gradientUnits="userSpaceOnUse">
<stop stop-color="#00B1FF"/>
<stop offset="1" stop-color="#006BFF"/>
</linearGradient>
<linearGradient id="paint1_linear" x1="30" y1="15" x2="49.6599" y2="68.8974" gradientUnits="userSpaceOnUse">
<stop stop-color="#FCBF22"/>
<stop offset="1" stop-color="#DD7021"/>
</linearGradient>
<linearGradient id="paint2_linear" x1="52.0233" y1="15" x2="52.0233" y2="65.2545" gradientUnits="userSpaceOnUse">
<stop stop-color="#FD9D04"/>
<stop offset="1" stop-color="#FA7302"/>
</linearGradient>
<linearGradient id="paint3_linear" x1="30" y1="15" x2="79.6768" y2="58.6176" gradientUnits="userSpaceOnUse">
<stop stop-color="#00B1FF"/>
<stop offset="1" stop-color="#006BFF"/>
</linearGradient>
<linearGradient id="paint4_linear" x1="30" y1="15" x2="49.6599" y2="68.8974" gradientUnits="userSpaceOnUse">
<stop stop-color="#FCBF22"/>
<stop offset="1" stop-color="#DD7021"/>
</linearGradient>
<linearGradient id="paint5_linear" x1="52.0233" y1="15" x2="52.0233" y2="65.2545" gradientUnits="userSpaceOnUse">
<stop stop-color="#FD9D04"/>
<stop offset="1" stop-color="#FA7302"/>
</linearGradient>
</defs>
</svg>
